<?xml version="1.0" encoding="UTF-8" standalone="no"?>
<!DOCTYPE svg PUBLIC "-//W3C//DTD SVG 1.1//EN"
"http://www.w3.org/Graphics/SVG/1.1/DTD/svg11.dtd">
<svg viewBox="0 0 433 649" version="1.1" xmlns="http://www.w3.org/2000/svg" xmlns:xlink="http://www.w3.org/1999/xlink">
<defs>
<clipPath id="c0_204"><path d="M0,649.6V0H433V649.6Z" /></clipPath>
<style type="text/css"><![CDATA[
.g0_204{
fill: #9C649E;
}
.g1_204{
fill: #FFFFFF;
}
.g2_204{
fill: none;
stroke: #9C649E;
stroke-width: 1.5277778;
stroke-linecap: butt;
stroke-linejoin: miter;
stroke-miterlimit: 4;
}
.g3_204{
fill: none;
stroke: #9C649E;
stroke-width: 0.77916664;
stroke-linecap: butt;
stroke-linejoin: miter;
}
.g4_204{
fill: none;
stroke: #FFFFFF;
stroke-width: 0.77916664;
stroke-linecap: butt;
stroke-linejoin: miter;
}
]]></style>
</defs>
<g clip-path="url(#c0_204)">
<path d="M-4.2,623.6c0,0,-4.4,0,-4.4,4.4v25.9c0,0,0,4.4,4.4,4.4H21.7c0,0,4.3,0,4.3,-4.4V628c0,0,0,-4.4,-4.3,-4.4Z" class="g0_204" />
<path d="M-2.8,44.1c0,0,-4.4,0,-4.4,4.5V238.5c0,0,0,4.5,4.4,4.5h26c0,0,4.4,0,4.4,-4.5V48.6c0,0,0,-4.5,-4.4,-4.5Z" class="g1_204" />
<path d="M-2.8,44.1c0,0,-4.4,0,-4.4,4.5V238.5c0,0,0,4.5,4.4,4.5h26c0,0,4.4,0,4.4,-4.5V48.6c0,0,0,-4.5,-4.4,-4.5h-26Z" class="g2_204" />
</g>
<path d="M43.7,43.7H93.5V71.5H43.7V43.7Zm49.8,0h49.4V71.5H93.5V43.7Zm49.4,0h69.3V71.5H142.9V43.7Zm69.3,0H367.7V71.5H212.2V43.7Z" class="g0_204" />
<path d="M43.7,86.6V71.8m0,115.9V87.4m0,189.2V188.5m0,103.6V277.3m0,140.3V292.9m0,140.3V418.4m0,189.2V434M367.7,86.6V71.8M93.5,187.7V87.4m49.4,100.3V87.4m69.3,100.3V87.4M367.7,187.7V87.4M93.5,276.6V188.5m49.4,88.1V188.5m69.3,88.1V188.5m155.5,88.1V188.5m0,103.6V277.3M93.5,417.6V292.9m49.4,124.7V292.9m69.3,124.7V292.9M367.7,417.6V292.9m0,140.3V418.4M93.5,607.6V434m49.4,173.6V434m69.3,173.6V434M367.7,607.6V434M43.3,87H93.5m0,0H368.1M43.3,188.1H93.5m0,0H368.1M43.3,277H93.5m0,0H368.1M43.3,292.5H93.5m0,0H368.1M43.3,418H93.5m0,0H368.1M43.3,433.6H93.5m0,0H368.1M43.3,608H93.5m0,0H368.1" class="g3_204" />
<path d="M43.3,43.7H93.5M43.7,71.1v-27m49.8,-.4h49.4M93.5,71.1v-27m49.4,-.4h69.3M142.9,71.1v-27m69.3,-.4H368.1M212.2,71.1v-27m155.5,27v-27M43.3,71.5H93.5m0,0H368.1" class="g4_204" />
</svg>