<?xml version="1.0" encoding="UTF-8" standalone="no"?>
<!DOCTYPE svg PUBLIC "-//W3C//DTD SVG 1.1//EN"
"http://www.w3.org/Graphics/SVG/1.1/DTD/svg11.dtd">
<svg viewBox="0 0 433 649" version="1.1" xmlns="http://www.w3.org/2000/svg" xmlns:xlink="http://www.w3.org/1999/xlink">
<defs>
<clipPath id="c0_32"><path d="M0,649.6V0H433V649.6Z" /></clipPath>
<style type="text/css"><![CDATA[
.g0_32{
fill: #9C649E;
}
.g1_32{
fill: #FFFFFF;
}
.g2_32{
fill: none;
stroke: #9C649E;
stroke-width: 1.5277778;
stroke-linecap: butt;
stroke-linejoin: miter;
stroke-miterlimit: 4;
}
.g3_32{
fill: #F0E9F1;
}
.g4_32{
fill: none;
stroke: #9C649E;
stroke-width: 0.77916664;
stroke-linecap: butt;
stroke-linejoin: miter;
}
]]></style>
</defs>
<g clip-path="url(#c0_32)">
<path d="M-4.2,623.6c0,0,-4.4,0,-4.4,4.4v25.9c0,0,0,4.4,4.4,4.4H21.7c0,0,4.3,0,4.3,-4.4V628c0,0,0,-4.4,-4.3,-4.4Z" class="g0_32" />
<path d="M-2.8,44.1c0,0,-4.4,0,-4.4,4.5V238.5c0,0,0,4.5,4.4,4.5h26c0,0,4.4,0,4.4,-4.5V48.6c0,0,0,-4.5,-4.4,-4.5Z" class="g1_32" />
<path d="M-2.8,44.1c0,0,-4.4,0,-4.4,4.5V238.5c0,0,0,4.5,4.4,4.5h26c0,0,4.4,0,4.4,-4.5V48.6c0,0,0,-4.5,-4.4,-4.5h-26Z" class="g2_32" />
</g>
<path d="M43.7,123.7h324V108.1H43.7v15.6Z" class="g3_32" />
<path d="M43.7,107.7V44.1m-.4,-.4h61.5m0,64V44.1m0,-.4h45.7m0,0h49.6m0,64V44.1m0,-.4h168m-142.5,64V44.1m35.1,63.6V44.1m55.2,63.6V44.1m51.8,63.6V44.1m-324,79.2V108.5m-.4,-.4H150.5m0,0H368.1m-.4,15.2V108.5M43.7,297.7V124m0,299.2V298.5m0,176.9V424M43.3,123.7H150.5M43.3,298.1H150.5M43.3,423.6H150.5M43.3,475.8H150.5m0,-352.1H368.1m-217.6,174V124m45.7,173.7V124m29.4,173.7V124m35.1,173.7V124m55.2,173.7V124m51.8,173.7V124M150.5,423.2V298.5m45.7,124.7V298.5m29.4,124.7V298.5m35.1,124.7V298.5m55.2,124.7V298.5m51.8,124.7V298.5M150.5,475.4V424m45.7,51.4V424m29.4,51.4V424m35.1,51.4V424m55.2,51.4V424m51.8,51.4V424M150.5,298.1H368.1M150.5,423.6H368.1M150.5,475.8H368.1" class="g4_32" />
</svg>