<?xml version="1.0" encoding="UTF-8" standalone="no"?>
<!DOCTYPE svg PUBLIC "-//W3C//DTD SVG 1.1//EN"
"http://www.w3.org/Graphics/SVG/1.1/DTD/svg11.dtd">
<svg viewBox="0 0 433 649" version="1.1" xmlns="http://www.w3.org/2000/svg" xmlns:xlink="http://www.w3.org/1999/xlink">
<defs>
<clipPath id="c0_147"><path d="M0,649.6V0H433V649.6Z" /></clipPath>
<style type="text/css"><![CDATA[
.g0_147{
fill: #FFFFFF;
}
.g1_147{
fill: none;
stroke: #9C649E;
stroke-width: 1.5277778;
stroke-linecap: butt;
stroke-linejoin: miter;
stroke-miterlimit: 4;
}
.g2_147{
fill: #9C649E;
}
.g3_147{
fill: none;
stroke: #9C649E;
stroke-width: 0.77916664;
stroke-linecap: butt;
stroke-linejoin: miter;
}
]]></style>
</defs>
<g clip-path="url(#c0_147)">
<path d="M410.5,44.1c0,0,-4.4,0,-4.4,4.5V238.5c0,0,0,4.5,4.4,4.5h26.1c0,0,4.4,0,4.4,-4.5V48.6c0,0,0,-4.5,-4.4,-4.5Z" class="g0_147" />
<path d="M410.5,44.1c0,0,-4.4,0,-4.4,4.5V238.5c0,0,0,4.5,4.4,4.5h26.1c0,0,4.4,0,4.4,-4.5V48.6c0,0,0,-4.5,-4.4,-4.5H410.5Z" class="g1_147" />
<path d="M411.4,623.6c0,0,-4.3,0,-4.3,4.4v25.9c0,0,0,4.4,4.3,4.4h26c0,0,4.3,0,4.3,-4.4V628c0,0,0,-4.4,-4.3,-4.4Z" class="g2_147" />
</g>
<path d="M155.9,370.9H217v34.7H155.9V370.9Zm61.1,0h41.2v34.7H217V370.9Zm41.2,0h43.9v34.7H258.2V370.9Zm43.9,0h47.1v34.7H302.1V370.9Zm47.1,0h40.2v34.7H349.2V370.9Z" class="g2_147" />
<path d="M65.4,405.2V371.3m-.4,-.4h90.9m0,34.3V371.3m0,-.4H217m0,0H389.8M217,405.2V371.3m41.2,33.9V371.3m43.9,33.9V371.3m47.1,33.9V371.3m40.2,33.9V371.3m-324,49.4V405.9m-.4,-.3h90.9m0,15.1V405.9m0,-.3H217m0,0H389.8M217,420.7V405.9m41.2,14.8V405.9m43.9,14.8V405.9m47.1,14.8V405.9m40.2,14.8V405.9m-324,30.3V421.5m0,30.3V437m0,30.3V452.6m0,42.5v-27m0,42.5V495.8m0,30.3V511.4m0,30.3V526.9M65,421.1h90.9M65,436.6h90.9M65,452.2h90.9M65,467.7h90.9M65,495.5h90.9M65,511h90.9M65,526.5h90.9M65,542.1h90.9m0,-105.9V421.5m0,30.3V437m0,30.3V452.6m0,42.5v-27m0,42.5V495.8m0,30.3V511.4m0,30.3V526.9m0,-105.8H217m0,0H389.8M217,436.2V421.5m41.2,14.7V421.5m43.9,14.7V421.5m47.1,14.7V421.5m40.2,14.7V421.5M217,451.8V437m41.2,14.8V437m43.9,14.8V437m47.1,14.8V437m40.2,14.8V437M217,467.3V452.6m41.2,14.7V452.6m43.9,14.7V452.6m47.1,14.7V452.6m40.2,14.7V452.6M217,495.1v-27m41.2,27v-27m43.9,27v-27m47.1,27v-27m40.2,27v-27M217,510.6V495.8m41.2,14.8V495.8m43.9,14.8V495.8m47.1,14.8V495.8m40.2,14.8V495.8M217,526.1V511.4m41.2,14.7V511.4m43.9,14.7V511.4m47.1,14.7V511.4m40.2,14.7V511.4M217,541.7V526.9m41.2,14.8V526.9m43.9,14.8V526.9m47.1,14.8V526.9m40.2,14.8V526.9M155.9,436.6H217m0,0H389.8M155.9,452.2H217m0,0H389.8M155.9,467.7H217m0,0H389.8M155.9,495.5H217m0,0H389.8M155.9,511H217m0,0H389.8M155.9,526.5H217m0,0H389.8M155.9,542.1H217m0,0H389.8" class="g3_147" />
</svg>