<?xml version="1.0" encoding="UTF-8" standalone="no"?>
<!DOCTYPE svg PUBLIC "-//W3C//DTD SVG 1.1//EN"
"http://www.w3.org/Graphics/SVG/1.1/DTD/svg11.dtd">
<svg viewBox="0 0 433 649" version="1.1" xmlns="http://www.w3.org/2000/svg" xmlns:xlink="http://www.w3.org/1999/xlink">
<defs>
<clipPath id="c0_25"><path d="M0,649.6V0H433V649.6Z" /></clipPath>
<style type="text/css"><![CDATA[
.g0_25{
fill: #FFFFFF;
}
.g1_25{
fill: none;
stroke: #9C649E;
stroke-width: 1.5277778;
stroke-linecap: butt;
stroke-linejoin: miter;
stroke-miterlimit: 4;
}
.g2_25{
fill: #9C649E;
}
.g3_25{
fill: #F0E9F1;
}
.g4_25{
fill: #E4D8E6;
}
.g5_25{
fill: #F6F2F7;
}
.g6_25{
fill: #D9C7DB;
}
.g7_25{
fill: none;
stroke: #FFFFFF;
stroke-width: 0.7638889;
stroke-linecap: butt;
stroke-linejoin: miter;
}
.g8_25{
fill: none;
stroke: #FFFFFF;
stroke-width: 0.77916664;
stroke-linecap: butt;
stroke-linejoin: miter;
}
.g9_25{
fill: none;
stroke: #9C649E;
stroke-width: 0.7638889;
stroke-linecap: butt;
stroke-linejoin: miter;
}
.g10_25{
fill: none;
stroke: #9C649E;
stroke-width: 0.77916664;
stroke-linecap: butt;
stroke-linejoin: miter;
}
]]></style>
</defs>
<g clip-path="url(#c0_25)">
<path d="M410.5,44.1c0,0,-4.4,0,-4.4,4.5V238.5c0,0,0,4.5,4.4,4.5h26.1c0,0,4.4,0,4.4,-4.5V48.6c0,0,0,-4.5,-4.4,-4.5Z" class="g0_25" />
<path d="M410.5,44.1c0,0,-4.4,0,-4.4,4.5V238.5c0,0,0,4.5,4.4,4.5h26.1c0,0,4.4,0,4.4,-4.5V48.6c0,0,0,-4.5,-4.4,-4.5H410.5Z" class="g1_25" />
<path d="M411.4,623.6c0,0,-4.3,0,-4.3,4.4v25.9c0,0,0,4.4,4.3,4.4h26c0,0,4.3,0,4.3,-4.4V628c0,0,0,-4.4,-4.3,-4.4Z" class="g2_25" />
</g>
<path d="M65.5,74.3H82.8V94.1H65.5V74.3Zm17.3,0h98.7V94.1H82.8V74.3Zm98.7,0H212V94.1H181.5V74.3Zm43.5,0h32.5V94.1H225V74.3Zm32.5,0h97.8V94.1H257.5V74.3Zm97.8,0h33.9V94.1H355.3V74.3Z" class="g2_25" />
<path d="M65.5,224.5H212V196.8H65.5v27.7Z" class="g3_25" />
<path d="M65.5,224.5H212v27.8H65.5V224.5ZM225,294.3H389.2v21H225v-21Z" class="g4_25" />
<path d="M225,294.3H389.2v-21H225v21Z" class="g5_25" />
<path d="M225,336.3H389.2v-21H225v21Z" class="g6_25" />
<path d="M82.8,93.7V74.6m98.7,19.1V74.6" class="g7_25" />
<path d="M257.5,93.7V74.6m97.8,19.1V74.6" class="g8_25" />
<path d="M65.5,93.7V74.6m-.4,-.3H212.4" class="g9_25" />
<path d="M225,93.7V74.6m-.4,-.3h165m-.4,19.4V74.6" class="g10_25" />
<path d="M65.5,112.4V94.5m-.4,-.4H181.5M82.8,112.4V94.5m98.7,17.9V94.5m0,-.4h30.9" class="g9_25" />
<path d="M225,112.4V94.5m-.4,-.4h165M257.5,112.4V94.5m97.8,17.9V94.5m33.9,17.9V94.5" class="g10_25" />
<path d="M65.5,133.4V113.1m0,41.3V134.1m0,41.3V155.1m-.4,-42.3H181.5M82.8,133.4V113.1m0,41.3V134.1m0,41.3V155.1M65.1,133.8H181.5m-116.4,21H181.5m0,-21.4V113.1m0,41.3V134.1m0,41.3V155.1m0,-42.3h30.9m-30.9,21h30.9m-30.9,21h30.9" class="g9_25" />
<path d="M225,133.4V113.1m0,41.3V134.1m0,41.3V155.2m-.4,-42.4h165M257.5,133.4V113.1m97.8,20.3V113.1m33.9,20.3V113.1M257.5,154.4V134.1m97.8,20.3V134.1m33.9,20.3V134.1M257.5,175.4V155.2m97.8,20.2V155.2m33.9,20.2V155.2M224.6,133.8h165m-165,21h165" class="g10_25" />
<path d="M65.5,196.4V176.2m-.4,-.4H181.5M82.8,196.4V176.2m98.7,20.2V176.2m0,-.4h30.9" class="g9_25" />
<path d="M225,196.4V176.2m-.4,-.4h165M257.5,196.4V176.2m97.8,20.2V176.2m33.9,20.2V176.2" class="g10_25" />
<path d="M65.5,224.2v-27m-.4,-.4H212.4m-.4,27.4v-27" class="g9_25" />
<path d="M225,224.1V197.2m-.4,-.4h165M257.5,224.1V197.2m97.8,26.9V197.2m33.9,26.9V197.2" class="g10_25" />
<path d="M65.5,251.9v-27m-.4,-.4H212.4m-.4,27.4v-27" class="g9_25" />
<path d="M225,251.9v-27m-.4,-.4h165M257.5,251.9v-27m97.8,27v-27m33.9,27v-27" class="g10_25" />
<path d="M65.1,252.3H212.4" class="g9_25" />
<path d="M225,272.9V252.7m-.4,-.4h165M257.5,272.9V252.7m97.8,20.2V252.7m33.9,20.2V252.7M225,293.9V273.7m-.4,-.4h165m-.4,20.6V273.7" class="g10_25" />
<path d="M225,314.9V294.7" class="g9_25" />
<path d="M224.6,294.3h165" class="g10_25" />
<path d="M389.2,314.9V294.7M225,335.9V315.7m-.4,-.4h165m-165,21h165m-.4,-.4V315.7M212,93.7V74.6m0,37.8V94.5m0,38.9V113.1m0,41.3V134.1m0,41.3V155.1m0,41.3V176.2" class="g9_25" />
<path d="M65.3,369.2h30v17.3h-30V369.2Zm30,0H306.6v17.3H95.3V369.2Zm211.3,0h82.8v17.3H306.6V369.2Z" class="g2_25" />
<path d="M65.3,572.3H389.4V538.1H65.3v34.2Z" class="g3_25" />
<path d="M95.3,386.1V369.6m211.3,16.5V369.6" class="g8_25" />
<path d="M65.4,386.1V369.6m-.4,-.4H95.3m0,0H389.8m-.4,16.9V369.6m-324,34.2V386.9m-.4,-.4H95.3" class="g10_25" />
<path d="M95.3,403.4V386.9" class="g9_25" />
<path d="M95.3,386.5H306.6" class="g10_25" />
<path d="M306.6,403.4V386.9" class="g9_25" />
<path d="M306.6,386.5h83.2m-.4,17.3V386.9M65.3,435.4V403.8m0,48.9V435.4m0,34.7V452.7m0,34.7V470.1m0,34.6V487.4" class="g10_25" />
<path d="M65.7,403.8H95.3M65.7,435.4H95.3M65.7,452.7H95.3M65.7,470.1H95.3M65.7,487.4H95.3m0,-52.4V404.2m0,48.1V435.8m0,33.9V453.1m0,33.9V470.4m0,33.9V487.8m0,-84H306.6M95.3,435.4H306.6M95.3,452.7H306.6M95.3,470.1H306.6M95.3,487.4H306.6m0,-52.4V404.2m0,48.1V435.8m0,33.9V453.1m0,33.9V470.4m0,33.9V487.8m0,-84H389" class="g9_25" />
<path d="M389.4,435.4V403.8m0,48.9V435.4m0,34.7V452.7m0,34.7V470.1m0,34.6V487.4" class="g10_25" />
<path d="M306.6,435.4H389m-82.4,17.3H389m-82.4,17.4H389m-82.4,17.3H389" class="g9_25" />
<path d="M65.4,538.1V504.7" class="g10_25" />
<path d="M65.7,504.7H95.3m0,33V505.1m0,-.4H306.6m0,33V505.1m0,-.4H389" class="g9_25" />
<path d="M389.4,538.1V504.7M65.3,571.9V538.1" class="g10_25" />
<path d="M65.7,538.1H95.3" class="g9_25" />
<path d="M65,572.3H95.3m0,0H389.8" class="g10_25" />
<path d="M95.3,538.1H389" class="g9_25" />
<path d="M389.4,571.9V538.1" class="g10_25" />
</svg>