<?xml version="1.0" encoding="UTF-8" standalone="no"?>
<!DOCTYPE svg PUBLIC "-//W3C//DTD SVG 1.1//EN"
"http://www.w3.org/Graphics/SVG/1.1/DTD/svg11.dtd">
<svg viewBox="0 0 433 649" version="1.1" xmlns="http://www.w3.org/2000/svg" xmlns:xlink="http://www.w3.org/1999/xlink">
<defs>
<clipPath id="c0_92"><path d="M0,649.6V0H433V649.6Z" /></clipPath>
<style type="text/css"><![CDATA[
.g0_92{
fill: #9C649E;
}
.g1_92{
fill: #FFFFFF;
}
.g2_92{
fill: none;
stroke: #9C649E;
stroke-width: 1.5277778;
stroke-linecap: butt;
stroke-linejoin: miter;
stroke-miterlimit: 4;
}
.g3_92{
fill: #E6E7E8;
}
.g4_92{
fill: none;
stroke: #FFFFFF;
stroke-width: 0.77916664;
stroke-linecap: butt;
stroke-linejoin: miter;
}
.g5_92{
fill: none;
stroke: #9C649E;
stroke-width: 0.77916664;
stroke-linecap: butt;
stroke-linejoin: miter;
}
]]></style>
</defs>
<g clip-path="url(#c0_92)">
<path d="M-4.2,623.6c0,0,-4.4,0,-4.4,4.4v25.9c0,0,0,4.4,4.4,4.4H21.7c0,0,4.3,0,4.3,-4.4V628c0,0,0,-4.4,-4.3,-4.4Z" class="g0_92" />
<path d="M-2.8,44.1c0,0,-4.4,0,-4.4,4.5V238.5c0,0,0,4.5,4.4,4.5h26c0,0,4.4,0,4.4,-4.5V48.6c0,0,0,-4.5,-4.4,-4.5Z" class="g1_92" />
<path d="M-2.8,44.1c0,0,-4.4,0,-4.4,4.5V238.5c0,0,0,4.5,4.4,4.5h26c0,0,4.4,0,4.4,-4.5V48.6c0,0,0,-4.5,-4.4,-4.5h-26Z" class="g2_92" />
</g>
<path d="M43.7,91.1h67.2v21.6H43.7V91.1Zm67.2,0H367.7v21.6H110.9V91.1Z" class="g0_92" />
<path d="M43.7,112.7h67.2v52.2H43.7V112.7Zm0,52.2h67.2v88.9H43.7V164.9Zm0,88.9h67.2v27.8H43.7V253.8Zm0,27.8h67.2v52.2H43.7V281.6Zm0,52.2h67.2V386H43.7V333.8Z" class="g3_92" />
<path d="M110.9,112.3V91.5" class="g4_92" />
<path d="M43.7,112.3V91.5m-.4,-.4H368.1m-.4,21.2V91.5m-324,73V113.1m0,140.3V165.3m0,115.9v-27m0,79.2V281.9m0,103.7V334.1M43.3,112.7h67.6M43.3,164.9h67.6M43.3,253.8h67.6M43.3,281.6h67.6M43.3,333.8h67.6M43.3,386h67.6m0,-221.5V113.1m0,140.3V165.3m0,115.9v-27m0,79.2V281.9m0,103.7V334.1m0,-221.4H368.1m-.4,51.8V113.1m0,140.3V165.3m0,115.9v-27m0,79.2V281.9m0,103.7V334.1M110.9,164.9H368.1M110.9,253.8H368.1M110.9,281.6H368.1M110.9,333.8H368.1M110.9,386H368.1" class="g5_92" />
</svg>