<?xml version="1.0" encoding="UTF-8" standalone="no"?>
<!DOCTYPE svg PUBLIC "-//W3C//DTD SVG 1.1//EN"
"http://www.w3.org/Graphics/SVG/1.1/DTD/svg11.dtd">
<svg viewBox="0 0 433 649" version="1.1" xmlns="http://www.w3.org/2000/svg" xmlns:xlink="http://www.w3.org/1999/xlink">
<defs>
<clipPath id="c0_81"><path d="M0,649.6V0H433V649.6Z" /></clipPath>
<style type="text/css"><![CDATA[
.g0_81{
fill: #FFFFFF;
}
.g1_81{
fill: none;
stroke: #9C649E;
stroke-width: 1.5277778;
stroke-linecap: butt;
stroke-linejoin: miter;
stroke-miterlimit: 4;
}
.g2_81{
fill: #9C649E;
}
.g3_81{
fill: #F0E9F1;
}
.g4_81{
fill: none;
stroke: #9C649E;
stroke-width: 0.77916664;
stroke-linecap: butt;
stroke-linejoin: miter;
}
.g5_81{
fill: none;
stroke: #231F20;
stroke-width: 0.3040278;
stroke-linecap: butt;
stroke-linejoin: miter;
}
]]></style>
</defs>
<g clip-path="url(#c0_81)">
<path d="M410.5,44.1c0,0,-4.4,0,-4.4,4.5V238.5c0,0,0,4.5,4.4,4.5h26.1c0,0,4.4,0,4.4,-4.5V48.6c0,0,0,-4.5,-4.4,-4.5Z" class="g0_81" />
<path d="M410.5,44.1c0,0,-4.4,0,-4.4,4.5V238.5c0,0,0,4.5,4.4,4.5h26.1c0,0,4.4,0,4.4,-4.5V48.6c0,0,0,-4.5,-4.4,-4.5H410.5Z" class="g1_81" />
<path d="M411.4,623.6c0,0,-4.3,0,-4.3,4.4v25.9c0,0,0,4.4,4.3,4.4h26c0,0,4.3,0,4.3,-4.4V628c0,0,0,-4.4,-4.3,-4.4Z" class="g2_81" />
</g>
<path d="M65.3,560.8h97.3v45.1H65.3V560.8Zm97.3,0h36.3v45.1H162.6V560.8Zm36.3,0h82v45.1h-82V560.8Zm82,0H393.4v45.1H280.9V560.8Z" class="g3_81" />
<path d="M162.2,334.3H65.7m132.8,0H163m117.5,0H199.3m193.7,0H281.3M162.2,203.5H65.7M162.2,69.7H65.7M198.5,203.5H163M198.5,69.7H163M280.5,203.5H199.3M280.5,69.7H199.3M393,203.5H281.3M393,69.7H281.3M162.2,605.9H65.7m132.8,0H163m117.5,0H199.3m-134,.4V560.8m97.3,45.5V560.8m36.3,45.5V560.8m-36.7,0H65.7m132.8,0H163m117.5,0H199.3m-134,0V69.3m96.9,450.4H65.7m132.8,0H163m117.5,0H199.3m-36.7,41.1V69.3m36.3,491.5V69.3M393,605.9H281.3m-.4,.4V560.8m112.5,45.5V560.8m-.4,0H281.3m-.4,0V69.3M393,519.7H281.3m112.1,41.1V69.3M162.2,424.4H65.7m132.8,0H163m117.5,0H199.3m193.7,0H281.3" class="g4_81" />
<path d="M128.3,330V304.9M172.2,146.8V135.1M290.4,515.4V474.5m45.8,40.9V478.9M328.6,323.7V291.1" class="g5_81" />
</svg>