<?xml version="1.0" encoding="UTF-8" standalone="no"?>
<!DOCTYPE svg PUBLIC "-//W3C//DTD SVG 1.1//EN"
"http://www.w3.org/Graphics/SVG/1.1/DTD/svg11.dtd">
<svg viewBox="0 0 433 649" version="1.1" xmlns="http://www.w3.org/2000/svg" xmlns:xlink="http://www.w3.org/1999/xlink">
<defs>
<clipPath id="c0_106"><path d="M0,649.6V0H433V649.6Z" /></clipPath>
<style type="text/css"><![CDATA[
.g0_106{
fill: #9C649E;
}
.g1_106{
fill: #FFFFFF;
}
.g2_106{
fill: none;
stroke: #9C649E;
stroke-width: 1.5277778;
stroke-linecap: butt;
stroke-linejoin: miter;
stroke-miterlimit: 4;
}
.g3_106{
fill: none;
stroke: #9C649E;
stroke-width: 0.77916664;
stroke-linecap: butt;
stroke-linejoin: miter;
}
.g4_106{
fill: none;
stroke: #9C649E;
stroke-width: 1.0831945;
stroke-linecap: butt;
stroke-linejoin: miter;
stroke-miterlimit: 4;
}
]]></style>
</defs>
<g clip-path="url(#c0_106)">
<path d="M-4.2,623.6c0,0,-4.4,0,-4.4,4.4v25.9c0,0,0,4.4,4.4,4.4H21.7c0,0,4.3,0,4.3,-4.4V628c0,0,0,-4.4,-4.3,-4.4Z" class="g0_106" />
<path d="M-2.8,44.1c0,0,-4.4,0,-4.4,4.5V238.5c0,0,0,4.5,4.4,4.5h26c0,0,4.4,0,4.4,-4.5V48.6c0,0,0,-4.5,-4.4,-4.5Z" class="g1_106" />
<path d="M-2.8,44.1c0,0,-4.4,0,-4.4,4.5V238.5c0,0,0,4.5,4.4,4.5h26c0,0,4.4,0,4.4,-4.5V48.6c0,0,0,-4.5,-4.4,-4.5h-26Z" class="g2_106" />
</g>
<path d="M43.7,220.6H367V198.9H43.7v21.7Z" class="g0_106" />
<path d="M43.7,220.2V199.3m-.4,-.4H367.4m-.4,21.3V199.3M43.7,333.5V220.9m-.4,-.3H367.4M367,333.5V220.9M43.3,333.9H367.4" class="g3_106" />
<path d="M43.7,373.7H368.5V352.1H43.7v21.6Z" class="g0_106" />
<path d="M43.7,373.4V352.5m-.4,-.4H368.9m-.4,21.3V352.5M43.7,498.9V374.1m-.4,-.4H368.9m-.4,125.2V374.1M43.3,499.3H368.9" class="g3_106" />
<path d="M131,500.8V605.5m5.2,-5.6l-5.2,5.6l-5.2,-5.6m79.9,-99.1V605.5m5.3,-5.6l-5.3,5.6l-5.2,-5.6m79.9,-99.1V605.5m5.3,-5.6l-5.3,5.6l-5.2,-5.6" class="g4_106" />
</svg>