<?xml version="1.0" encoding="UTF-8" standalone="no"?>
<!DOCTYPE svg PUBLIC "-//W3C//DTD SVG 1.1//EN"
"http://www.w3.org/Graphics/SVG/1.1/DTD/svg11.dtd">
<svg viewBox="0 0 433 649" version="1.1" xmlns="http://www.w3.org/2000/svg" xmlns:xlink="http://www.w3.org/1999/xlink">
<defs>
<clipPath id="c0_215"><path d="M0,649.6V0H433V649.6Z" /></clipPath>
<style type="text/css"><![CDATA[
.g0_215{
fill: #FFFFFF;
}
.g1_215{
fill: none;
stroke: #9C649E;
stroke-width: 1.5277778;
stroke-linecap: butt;
stroke-linejoin: miter;
stroke-miterlimit: 4;
}
.g2_215{
fill: #9C649E;
}
.g3_215{
fill: none;
stroke: #9C649E;
stroke-width: 0.77916664;
stroke-linecap: butt;
stroke-linejoin: miter;
stroke-miterlimit: 4;
}
.g4_215{
fill: none;
stroke: #9C649E;
stroke-width: 0.77916664;
stroke-linecap: butt;
stroke-linejoin: miter;
stroke-miterlimit: 4;
stroke-dasharray: 9,9;
}
.g5_215{
fill: none;
stroke: #9C649E;
stroke-width: 0.77916664;
stroke-linecap: round;
stroke-linejoin: round;
stroke-miterlimit: 4;
stroke-dasharray: 0,3;
}
]]></style>
</defs>
<g clip-path="url(#c0_215)">
<path d="M410.5,44.1c0,0,-4.4,0,-4.4,4.5V238.5c0,0,0,4.5,4.4,4.5h26.1c0,0,4.4,0,4.4,-4.5V48.6c0,0,0,-4.5,-4.4,-4.5Z" class="g0_215" />
<path d="M410.5,44.1c0,0,-4.4,0,-4.4,4.5V238.5c0,0,0,4.5,4.4,4.5h26.1c0,0,4.4,0,4.4,-4.5V48.6c0,0,0,-4.5,-4.4,-4.5H410.5Z" class="g1_215" />
<path d="M411.4,623.6c0,0,-4.3,0,-4.3,4.4v25.9c0,0,0,4.4,4.3,4.4h26c0,0,4.3,0,4.3,-4.4V628c0,0,0,-4.4,-4.3,-4.4Z" class="g2_215" />
</g>
<path d="M184.4,155.5h85.9V135.2H184.4v20.3Zm0,30.2h85.9V165.4H184.4v20.3Zm-119.1,0h85.9V165.4H65.3v20.3Zm238.2,0h85.9V165.4H303.5v20.3ZM179.2,214h96.3V193.7H179.2V214Zm-25.9,66.1H297.1V259.8H153.3v20.3Zm10.3,173.5H291.1V433.3H163.6v20.3ZM94.5,480.1h78.8V459.9H94.5v20.2Zm184.4,0h89.3V459.9H278.9v20.2ZM84,519.2h94.5V499H84v20.2Zm192.3,0h94.5V499H276.3v20.2ZM155.4,357.1H299.3V336.8H155.4v20.3Zm0,32H299.3V368.8H155.4v20.3Zm44.2,169.7H256V538.5H199.6v20.3ZM65.3,324.9H209.2V294.3H65.3v30.6Zm180.2,0H389.4V294.3H245.5v30.6ZM148.1,243.5h30.4V223.2H148.1v20.3Zm0,172.5h30.4V395.7H148.1V416Zm-55,142.8h30.4V538.5H93.1v20.3Zm239.5,0H363V538.5H332.6v20.3Zm-194.9,0h30.4V538.5H137.7v20.3Zm150.2,0h30.4V538.5H287.9v20.3ZM259.1,243.5h30.4V223.2H259.1v20.3Zm0,172.5h30.4V395.7H259.1V416ZM308.6,243.5h80.8V223.2H308.6v20.3Zm0,172.5h80.8V395.7H308.6V416ZM270.8,145.3h75.7v19.2m4.9,-5.3l-4.9,5.3l-5,-5.3M184,145.3H108.3v19.2m-5,-5.3l5,5.3l4.9,-5.3m39.7,111.6H108.3v22.5m-5,-5.3l5,5.3l4.9,-5.3m50.2,154.9H131.2v16.2m-4.9,-5.3l4.9,5.3l5,-5.3m161.3,-183h44.6v22.5m5,-5.3l-5,5.3L337.2,288" class="g3_215" />
<path d="M303.6,442.9h12" class="g4_215" />
<path d="M291.5,442.9h4m24.1,0h4.1v4.3m0,8.5V460m4.9,-5.3l-4.9,5.3l-5,-5.3M108.7,179.6v24.5h69.6M173,209l5.3,-4.9l-5.3,-5M108.7,325.3v53.9h45.8m-5.3,4.9l5.3,-4.9l-5.3,-5" class="g3_215" />
<path d="M121.4,575.5H372.2m8.5,-13.2V478.8" class="g4_215" />
<path d="M108.7,559.2v4.1m0,8.1v4.1h4.2m263.5,0h4.3v-4.4m0,-96.7V470h-2.9m-5.8,0h-2.9m5.3,-4.9l-5.3,4.9l5.3,4.9M346.1,179.6v24.5H276.5m5.3,4.9l-5.3,-4.9l5.3,-5M227,214.4v19.2H179.4m5.3,4.9l-5.3,-4.9l5.3,-5m42.3,160v14.8H179.4m5.3,4.9l-5.3,-4.9l5.3,-4.9m43,-164.9h30.4m-5.3,4.9l5.3,-4.9l-5.3,-5M227.7,403.4h30.4m-5.3,4.9l5.3,-4.9l-5.3,-4.9M289.9,233.6h17.4m-5.3,4.9l5.3,-4.9l-5.3,-5m-12.1,177h17.4m-5.3,5l5.3,-5L302,400.7M262.9,548.9h17.5m-5.3,4.9l5.3,-4.9l-5.3,-5m-101.4,5h17.5m-5.3,4.9l5.3,-4.9l-5.3,-5M176.4,244.2l12.4,12.3m-7.3,-.2l7.3,.2l-.3,-7.2M166.1,418.4l12.4,12.3m-7.3,-.2l7.3,.2l-.3,-7.2M142.7,525.4L155,537.7m-7.2,-.2l7.2,.2l-.2,-7.2m179.8,-5.1l12.3,12.3m-7.2,-.2l7.2,.2l-.2,-7.2M123.6,525.4l-12.4,12.3m7.3,-.2l-7.3,.2l.3,-7.2m204,-5.1l-12.3,12.3m7.2,-.2l-7.2,.2l.2,-7.2M315.9,328.8l-12.3,12.4m.2,-7.3l-.2,7.3l7.2,-.3m-159.5,.7L138.9,329.2m7.3,.3l-7.3,-.3l.3,7.3m-8,144V498m-4.9,-5.3l4.9,5.3l5,-5.3M92.7,554.1H77.5V467.2h16m-5.3,-5l5.3,5l-5.3,4.9" class="g3_215" />
<path d="M347.5,561.9v28.9m-2.4,1.1H69.6m-1.2,-2.3v-113m2.3,-1.2H92.4" class="g5_215" />
<path d="M88.2,470.5l5.3,4.9l-5.3,5" class="g3_215" />
</svg>