<?xml version="1.0" encoding="UTF-8" standalone="no"?>
<!DOCTYPE svg PUBLIC "-//W3C//DTD SVG 1.1//EN"
"http://www.w3.org/Graphics/SVG/1.1/DTD/svg11.dtd">
<svg viewBox="0 0 433 649" version="1.1" xmlns="http://www.w3.org/2000/svg" xmlns:xlink="http://www.w3.org/1999/xlink">
<defs>
<clipPath id="c0_130"><path d="M0,649.6V0H433V649.6Z" /></clipPath>
<style type="text/css"><![CDATA[
.g0_130{
fill: #9C649E;
}
.g1_130{
fill: #FFFFFF;
}
.g2_130{
fill: none;
stroke: #9C649E;
stroke-width: 1.5277778;
stroke-linecap: butt;
stroke-linejoin: miter;
stroke-miterlimit: 4;
}
.g3_130{
fill: none;
stroke: #9C649E;
stroke-width: 0.77916664;
stroke-linecap: butt;
stroke-linejoin: miter;
}
]]></style>
</defs>
<g clip-path="url(#c0_130)">
<path d="M-4.2,623.6c0,0,-4.4,0,-4.4,4.4v25.9c0,0,0,4.4,4.4,4.4H21.7c0,0,4.3,0,4.3,-4.4V628c0,0,0,-4.4,-4.3,-4.4Z" class="g0_130" />
<path d="M-2.8,44.1c0,0,-4.4,0,-4.4,4.5V238.5c0,0,0,4.5,4.4,4.5h26c0,0,4.4,0,4.4,-4.5V48.6c0,0,0,-4.5,-4.4,-4.5Z" class="g1_130" />
<path d="M-2.8,44.1c0,0,-4.4,0,-4.4,4.5V238.5c0,0,0,4.5,4.4,4.5h26c0,0,4.4,0,4.4,-4.5V48.6c0,0,0,-4.5,-4.4,-4.5h-26Z" class="g2_130" />
</g>
<path d="M43.7,71.5h324V43.7H43.7V71.5Z" class="g0_130" />
<path d="M43.7,71.1v-27m-.4,-.4H158.5m0,0H264.2m0,0H368.1m-.4,27.4v-27M43.7,86.6V71.8m0,79.2V87.4m0,115.8V151.8m0,128.1V204m0,140.3V280.7M43.3,71.5H158.5m0,0H264.2m0,0H368.1M158.5,86.6V71.8M264.2,86.6V71.8M367.7,86.6V71.8M158.5,151V87.4M264.2,151V87.4M367.7,151V87.4M158.5,203.2V151.8m105.7,51.4V151.8m103.5,51.4V151.8M158.5,279.9V204m105.7,75.9V204m103.5,75.9V204M158.5,344.3V280.7m105.7,63.6V280.7m103.5,63.6V280.7M43.3,87H158.5m0,0H264.2m0,0H368.1M43.3,151.4H158.5m0,0H264.2m0,0H368.1M43.3,203.6H158.5m0,0H264.2m0,0H368.1M43.3,280.3H158.5m0,0H264.2m0,0H368.1M43.3,344.7H158.5m0,0H264.2m0,0H368.1" class="g3_130" />
</svg>