<?xml version="1.0" encoding="UTF-8" standalone="no"?>
<!DOCTYPE svg PUBLIC "-//W3C//DTD SVG 1.1//EN"
"http://www.w3.org/Graphics/SVG/1.1/DTD/svg11.dtd">
<svg viewBox="0 0 433 649" version="1.1" xmlns="http://www.w3.org/2000/svg" xmlns:xlink="http://www.w3.org/1999/xlink">
<defs>
<clipPath id="c0_121"><path d="M0,649.6V0H433V649.6Z" /></clipPath>
<style type="text/css"><![CDATA[
.g0_121{
fill: #FFFFFF;
}
.g1_121{
fill: none;
stroke: #9C649E;
stroke-width: 1.5277778;
stroke-linecap: butt;
stroke-linejoin: miter;
stroke-miterlimit: 4;
}
.g2_121{
fill: #9C649E;
}
.g3_121{
fill: none;
stroke: #9C649E;
stroke-width: 0.77916664;
stroke-linecap: butt;
stroke-linejoin: miter;
stroke-miterlimit: 4;
}
.g4_121{
fill: none;
stroke: #9C649E;
stroke-width: 2.1648612;
stroke-linecap: butt;
stroke-linejoin: miter;
stroke-miterlimit: 4;
}
]]></style>
</defs>
<g clip-path="url(#c0_121)">
<path d="M410.5,44.1c0,0,-4.4,0,-4.4,4.5V238.5c0,0,0,4.5,4.4,4.5h26.1c0,0,4.4,0,4.4,-4.5V48.6c0,0,0,-4.5,-4.4,-4.5Z" class="g0_121" />
<path d="M410.5,44.1c0,0,-4.4,0,-4.4,4.5V238.5c0,0,0,4.5,4.4,4.5h26.1c0,0,4.4,0,4.4,-4.5V48.6c0,0,0,-4.5,-4.4,-4.5H410.5Z" class="g1_121" />
<path d="M411.4,623.6c0,0,-4.3,0,-4.3,4.4v25.9c0,0,0,4.4,4.3,4.4h26c0,0,4.3,0,4.3,-4.4V628c0,0,0,-4.4,-4.3,-4.4Z" class="g2_121" />
</g>
<path d="M129.8,92.1H247.1V71.2H129.8V92.1ZM65.3,218.5h45V172h-45v46.5ZM120.6,168H252.2V111.9H120.6V168Zm-4.7,79.8H263.1V190.1H115.9v57.7Zm-16.2,38h42V267.6h-42v18.2Zm104.4,0h76.7V267.6H204.1v18.2Zm-9.6,37.4h95.9V305H194.5v18.2Zm42.4,164.1h67.7V462.1H236.9v25.2Zm0,39.5h67.7V506.2H236.9v20.6Zm75.7,-30.9h76.8V462.1H312.6v33.8Zm0,63h76.8V538.4H312.6v20.5ZM99.7,323.9h42V305.6h-42v18.3ZM70.5,361.3h94.3V343H70.5v18.3Zm119.4,0H300.3V343H189.9v18.3ZM274.3,180.1H389.4V104.6H274.3v75.5Zm7.3,263H389.4v-62H281.6v62ZM188.2,92.5v18.4m5,-5.3l-5,5.3l-4.9,-5.3m4.9,62.7v18.5m5,-5.3l-5,5.3l-4.9,-5.3M91.2,152.6V171m5,-5.3l-5,5.3l-4.9,-5.3m34.4,82.5v18.4m4.9,-5.3l-4.9,5.3l-5,-5.3m5,24.9v18.5m4.9,-5.4l-4.9,5.4l-5,-5.4m5,24.3v18.5m4.9,-5.3l-4.9,5.3l-5,-5.3M242.5,248.2v18.4m4.9,-5.3l-4.9,5.3l-5,-5.3m5,24.3V304m4.9,-5.3l-4.9,5.3l-5,-5.3m5,25.6v18.4m4.9,-5.3l-4.9,5.3l-5,-5.3m31.9,149.4v18.5m5,-5.4l-5,5.4l-4.9,-5.4" class="g3_121" />
<path d="M209.6,361.7V548.6h101m-6.8,-6.3l6.8,6.3l-6.8,6.4" class="g4_121" />
<path d="M351,495.8v41.6m4.9,-5.3l-4.9,5.3l-5,-5.3M264,367.3l13,13m-.3,-7.3l.3,7.3l-7.2,-.3m71.1,64.2l13,13m-.2,-7.2l.2,7.2l-7.2,-.2M295.6,444.2l-13.1,13m7.3,-.2l-7.3,.2l.3,-7.2M252.6,139.9H271M265.7,135l5.3,4.9l-5.3,5m-145.5,-5H101.7m5.3,5l-5.3,-5L107,135" class="g3_121" />
</svg>