<?xml version="1.0" encoding="UTF-8" standalone="no"?>
<!DOCTYPE svg PUBLIC "-//W3C//DTD SVG 1.1//EN"
"http://www.w3.org/Graphics/SVG/1.1/DTD/svg11.dtd">
<svg viewBox="0 0 433 649" version="1.1" xmlns="http://www.w3.org/2000/svg" xmlns:xlink="http://www.w3.org/1999/xlink">
<defs>
<clipPath id="c0_59"><path d="M0,649.6V0H433V649.6Z" /></clipPath>
<style type="text/css"><![CDATA[
.g0_59{
fill: #FFFFFF;
}
.g1_59{
fill: none;
stroke: #9C649E;
stroke-width: 1.5277778;
stroke-linecap: butt;
stroke-linejoin: miter;
stroke-miterlimit: 4;
}
.g2_59{
fill: #9C649E;
}
.g3_59{
fill: none;
stroke: #9C649E;
stroke-width: 0.77916664;
stroke-linecap: butt;
stroke-linejoin: miter;
}
]]></style>
</defs>
<g clip-path="url(#c0_59)">
<path d="M410.5,44.1c0,0,-4.4,0,-4.4,4.5V238.5c0,0,0,4.5,4.4,4.5h26.1c0,0,4.4,0,4.4,-4.5V48.6c0,0,0,-4.5,-4.4,-4.5Z" class="g0_59" />
<path d="M410.5,44.1c0,0,-4.4,0,-4.4,4.5V238.5c0,0,0,4.5,4.4,4.5h26.1c0,0,4.4,0,4.4,-4.5V48.6c0,0,0,-4.5,-4.4,-4.5H410.5Z" class="g1_59" />
<path d="M411.4,623.6c0,0,-4.3,0,-4.3,4.4v25.9c0,0,0,4.4,4.3,4.4h26c0,0,4.3,0,4.3,-4.4V628c0,0,0,-4.4,-4.3,-4.4Z" class="g2_59" />
</g>
<path d="M65.3,83.2H389.4V61.5H65.3V83.2Z" class="g2_59" />
<path d="M65.4,82.8V61.9M65,61.5H195.8m0,0h194m-.4,21.3V61.9M65.4,98.3V83.6M65,83.2H195.8m0,15.1V83.6m0,-.4h194m-.4,15.1V83.6m-324,79.5v-64m0,152.5V163.1M65,98.7h82.3m0,64.1V99.1m0,-.4h48.5m0,0h194m-194,64.1V99.1m193.6,63.7V99.1M147.3,251.6V163.5m-.4,-.4h48.9m0,0h194m-194,88.5V163.5m193.6,88.1V163.5M65.4,316V252.4m0,79.2V316.8M65,252H195.8m0,0h194M147.3,316V252.4M389.4,316V252.4M147.3,331.6V316.8m242.1,14.8V316.8M65,316.4H195.8m0,0h194M65,332H195.8m0,0h194" class="g3_59" />
</svg>