<?xml version="1.0" encoding="UTF-8" standalone="no"?>
<!DOCTYPE svg PUBLIC "-//W3C//DTD SVG 1.1//EN"
"http://www.w3.org/Graphics/SVG/1.1/DTD/svg11.dtd">
<svg viewBox="0 0 433 649" version="1.1" xmlns="http://www.w3.org/2000/svg" xmlns:xlink="http://www.w3.org/1999/xlink">
<defs>
<clipPath id="c0_40"><path d="M0,649.6V0H433V649.6Z" /></clipPath>
<style type="text/css"><![CDATA[
.g0_40{
fill: #9C649E;
}
.g1_40{
fill: #FFFFFF;
}
.g2_40{
fill: none;
stroke: #9C649E;
stroke-width: 1.5277778;
stroke-linecap: butt;
stroke-linejoin: miter;
stroke-miterlimit: 4;
}
.g3_40{
fill: none;
stroke: #9C649E;
stroke-width: 0.77916664;
stroke-linecap: butt;
stroke-linejoin: miter;
}
]]></style>
</defs>
<g clip-path="url(#c0_40)">
<path d="M-4.2,623.6c0,0,-4.4,0,-4.4,4.4v25.9c0,0,0,4.4,4.4,4.4H21.7c0,0,4.3,0,4.3,-4.4V628c0,0,0,-4.4,-4.3,-4.4Z" class="g0_40" />
<path d="M-2.8,44.1c0,0,-4.4,0,-4.4,4.5V238.5c0,0,0,4.5,4.4,4.5h26c0,0,4.4,0,4.4,-4.5V48.6c0,0,0,-4.5,-4.4,-4.5Z" class="g1_40" />
<path d="M-2.8,44.1c0,0,-4.4,0,-4.4,4.5V238.5c0,0,0,4.5,4.4,4.5h26c0,0,4.4,0,4.4,-4.5V48.6c0,0,0,-4.5,-4.4,-4.5h-26Z" class="g2_40" />
</g>
<path d="M43.7,65.4h324V43.7H43.7V65.4Z" class="g0_40" />
<path d="M43.3,43.7H167.8M43.7,65V44.1m124.1,-.4H368.1M367.7,65V44.1M43.3,65.4H167.8M43.7,92.7v-27m124.1,-.3h87.7M167.8,92.7v-27m87.7,-.3H368.1M255.5,92.7v-27m112.2,27v-27M43.3,93.1H167.8M43.7,108.3V93.5m124.1,-.4h87.7m-87.7,15.2V93.5m87.7,-.4H368.1M255.5,108.3V93.5m112.2,14.8V93.5M43.3,108.6H167.8M43.7,123.8V109m124.1,-.4h87.7m-87.7,15.2V109m87.7,-.4H368.1M255.5,123.8V109m112.2,14.8V109M43.3,124.2H167.8M43.7,139.3V124.6m124.1,-.4h87.7m-87.7,15.1V124.6m87.7,-.4H368.1M255.5,139.3V124.6m112.2,14.7V124.6M43.3,139.7H167.8M43.7,179.3V140.1m124.1,-.4h87.7m-87.7,39.6V140.1m87.7,-.4H368.1M255.5,179.3V140.1m112.2,39.2V140.1M43.3,179.7H167.8M43.7,194.8V180.1m124.1,-.4h87.7m-87.7,15.1V180.1m87.7,-.4H368.1M255.5,194.8V180.1m112.2,14.7V180.1M43.3,195.2H167.8M43.7,210.4V195.6m124.1,-.4h87.7m-87.7,15.2V195.6m87.7,-.4H368.1M255.5,210.4V195.6m112.2,14.8V195.6M43.3,210.8H167.8M43.7,225.9V211.2m124.1,-.4h87.7m-87.7,15.1V211.2m87.7,-.4H368.1M255.5,225.9V211.2m112.2,14.7V211.2M43.3,226.3H368.1" class="g3_40" />
</svg>