<?xml version="1.0" encoding="UTF-8" standalone="no"?>
<!DOCTYPE svg PUBLIC "-//W3C//DTD SVG 1.1//EN"
"http://www.w3.org/Graphics/SVG/1.1/DTD/svg11.dtd">
<svg viewBox="0 0 433 649" version="1.1" xmlns="http://www.w3.org/2000/svg" xmlns:xlink="http://www.w3.org/1999/xlink">
<defs>
<clipPath id="c0_214"><path d="M0,649.6V0H433V649.6Z" /></clipPath>
<style type="text/css"><![CDATA[
.g0_214{
fill: #9C649E;
}
.g1_214{
fill: #FFFFFF;
}
.g2_214{
fill: none;
stroke: #9C649E;
stroke-width: 1.5277778;
stroke-linecap: butt;
stroke-linejoin: miter;
stroke-miterlimit: 4;
}
.g3_214{
fill: none;
stroke: #9C649E;
stroke-width: 0.77916664;
stroke-linecap: butt;
stroke-linejoin: miter;
}
]]></style>
</defs>
<g clip-path="url(#c0_214)">
<path d="M-4.2,623.6c0,0,-4.4,0,-4.4,4.4v25.9c0,0,0,4.4,4.4,4.4H21.7c0,0,4.3,0,4.3,-4.4V628c0,0,0,-4.4,-4.3,-4.4Z" class="g0_214" />
<path d="M-2.8,44.1c0,0,-4.4,0,-4.4,4.5V238.5c0,0,0,4.5,4.4,4.5h26c0,0,4.4,0,4.4,-4.5V48.6c0,0,0,-4.5,-4.4,-4.5Z" class="g1_214" />
<path d="M-2.8,44.1c0,0,-4.4,0,-4.4,4.5V238.5c0,0,0,4.5,4.4,4.5h26c0,0,4.4,0,4.4,-4.5V48.6c0,0,0,-4.5,-4.4,-4.5h-26Z" class="g2_214" />
</g>
<path d="M43.7,159.6V144.8m0,30.3V160.3m0,30.3V175.9m0,30.3V191.4m0,30.3V206.9m0,30.3V222.5m0,30.3V238m0,30.3V253.6m0,30.2V269.1m0,30.3V284.6m0,30.3V300.2m0,30.3V315.7m0,30.3V331.2m0,30.3V346.8m0,30.3V362.3m0,30.3V377.8M43.3,144.4H367.9m-70.3,15.2V144.8m69.9,14.8V144.8m-69.9,30.3V160.3m69.9,14.8V160.3m-69.9,30.3V175.9m69.9,14.7V175.9m-69.9,30.3V191.4m69.9,14.8V191.4m-69.9,30.3V206.9m69.9,14.8V206.9m-69.9,30.3V222.5m69.9,14.7V222.5m-69.9,30.3V238m69.9,14.8V238m-69.9,30.3V253.6m69.9,14.7V253.6m-69.9,30.2V269.1m69.9,14.7V269.1m-69.9,30.3V284.6m69.9,14.8V284.6m-69.9,30.3V300.2m69.9,14.7V300.2m-69.9,30.3V315.7m69.9,14.8V315.7M297.6,346V331.2M367.5,346V331.2m-69.9,30.3V346.8m69.9,14.7V346.8m-69.9,30.3V362.3m69.9,14.8V362.3m-69.9,30.3V377.8m69.9,14.8V377.8M43.3,159.9H367.9M43.3,175.5H367.9M43.3,191H367.9M43.3,206.6H367.9M43.3,222.1H367.9M43.3,237.6H367.9M43.3,253.2H367.9M43.3,268.7H367.9M43.3,284.2H367.9M43.3,299.8H367.9M43.3,315.3H367.9M43.3,330.8H367.9M43.3,346.4H367.9M43.3,361.9H367.9M43.3,377.5H367.9M43.3,393H367.9" class="g3_214" />
</svg>