<?xml version="1.0" encoding="UTF-8" standalone="no"?>
<!DOCTYPE svg PUBLIC "-//W3C//DTD SVG 1.1//EN"
"http://www.w3.org/Graphics/SVG/1.1/DTD/svg11.dtd">
<svg viewBox="0 0 433 649" version="1.1" xmlns="http://www.w3.org/2000/svg" xmlns:xlink="http://www.w3.org/1999/xlink">
<defs>
<clipPath id="c0_122"><path d="M0,649.6V0H433V649.6Z" /></clipPath>
<style type="text/css"><![CDATA[
.g0_122{
fill: #9C649E;
}
.g1_122{
fill: #FFFFFF;
}
.g2_122{
fill: none;
stroke: #9C649E;
stroke-width: 1.5277778;
stroke-linecap: butt;
stroke-linejoin: miter;
stroke-miterlimit: 4;
}
.g3_122{
fill: none;
stroke: #9C649E;
stroke-width: 0.77916664;
stroke-linecap: butt;
stroke-linejoin: miter;
}
]]></style>
</defs>
<g clip-path="url(#c0_122)">
<path d="M-4.2,623.6c0,0,-4.4,0,-4.4,4.4v25.9c0,0,0,4.4,4.4,4.4H21.7c0,0,4.3,0,4.3,-4.4V628c0,0,0,-4.4,-4.3,-4.4Z" class="g0_122" />
<path d="M-2.8,44.1c0,0,-4.4,0,-4.4,4.5V238.5c0,0,0,4.5,4.4,4.5h26c0,0,4.4,0,4.4,-4.5V48.6c0,0,0,-4.5,-4.4,-4.5Z" class="g1_122" />
<path d="M-2.8,44.1c0,0,-4.4,0,-4.4,4.5V238.5c0,0,0,4.5,4.4,4.5h26c0,0,4.4,0,4.4,-4.5V48.6c0,0,0,-4.5,-4.4,-4.5h-26Z" class="g2_122" />
</g>
<path d="M43.7,91.1H188v21.6H43.7V91.1Zm144.3,0H367.7v21.6H188V91.1Z" class="g0_122" />
<path d="M43.7,112.3V91.5m-.4,-.4H368.1M188,112.3V91.5m179.7,20.8V91.5m-324,51.8V113.1m0,57.9V144m0,42.5V171.8m0,30.3V187.3m0,42.5V202.9m0,55.6V230.6m0,67.9V259.3M43.3,112.7H368.1M188,143.3V113.1m179.7,30.2V113.1M188,171V144m179.7,27V144M188,186.5V171.8m179.7,14.7V171.8M188,202.1V187.3m179.7,14.8V187.3M188,229.8V202.9m179.7,26.9V202.9M188,258.5V230.6m179.7,27.9V230.6M188,298.5V259.3m179.7,39.2V259.3M43.3,143.6H368.1M43.3,171.4H368.1M43.3,186.9H368.1M43.3,202.5H368.1M43.3,230.2H368.1M43.3,258.9H368.1m-324.8,40H368.1M43.7,377.7V360.3m0,47.7V378.5m0,46V408.8m0,45.6V425.2m-.4,-65.3H368.1M212.2,377.7V360.3m155.5,17.4V360.3M212.2,408V378.5M367.7,408V378.5m-155.5,46V408.8m155.5,15.7V408.8M212.2,454.4V425.2m155.5,29.2V425.2M43.3,378.1H368.1M43.3,408.4H368.1M43.3,424.8H368.1m-324.8,30H368.1" class="g3_122" />
</svg>