<?xml version="1.0" encoding="UTF-8" standalone="no"?>
<!DOCTYPE svg PUBLIC "-//W3C//DTD SVG 1.1//EN"
"http://www.w3.org/Graphics/SVG/1.1/DTD/svg11.dtd">
<svg viewBox="0 0 433 649" version="1.1" xmlns="http://www.w3.org/2000/svg" xmlns:xlink="http://www.w3.org/1999/xlink">
<defs>
<clipPath id="c0_28"><path d="M0,649.6V0H433V649.6Z" /></clipPath>
<style type="text/css"><![CDATA[
.g0_28{
fill: #9C649E;
}
.g1_28{
fill: #FFFFFF;
}
.g2_28{
fill: none;
stroke: #9C649E;
stroke-width: 1.5277778;
stroke-linecap: butt;
stroke-linejoin: miter;
stroke-miterlimit: 4;
}
.g3_28{
fill: #F0E9F1;
}
.g4_28{
fill: none;
stroke: #FFFFFF;
stroke-width: 0.77916664;
stroke-linecap: butt;
stroke-linejoin: miter;
}
.g5_28{
fill: none;
stroke: #9C649E;
stroke-width: 0.77916664;
stroke-linecap: butt;
stroke-linejoin: miter;
}
]]></style>
</defs>
<g clip-path="url(#c0_28)">
<path d="M-4.2,623.6c0,0,-4.4,0,-4.4,4.4v25.9c0,0,0,4.4,4.4,4.4H21.7c0,0,4.3,0,4.3,-4.4V628c0,0,0,-4.4,-4.3,-4.4Z" class="g0_28" />
<path d="M-2.8,44.1c0,0,-4.4,0,-4.4,4.5V238.5c0,0,0,4.5,4.4,4.5h26c0,0,4.4,0,4.4,-4.5V48.6c0,0,0,-4.5,-4.4,-4.5Z" class="g1_28" />
<path d="M-2.8,44.1c0,0,-4.4,0,-4.4,4.5V238.5c0,0,0,4.5,4.4,4.5h26c0,0,4.4,0,4.4,-4.5V48.6c0,0,0,-4.5,-4.4,-4.5h-26Z" class="g2_28" />
</g>
<path d="M43.7,389.9H144.3v34.6H43.7V389.9Zm100.6,0H251.7v34.6H144.3V389.9Zm107.4,0h116v34.6h-116V389.9Z" class="g0_28" />
<path d="M43.7,519.3h324V503.8H43.7v15.5Z" class="g3_28" />
<path d="M144.3,424.1V390.3m107.4,33.8V390.3" class="g4_28" />
<path d="M43.7,424.1V390.3m-.4,-.4H368.1m-.4,34.2V390.3M43.7,503.4V424.9m-.4,-.4H368.1M144.3,503.4V424.9m107.4,78.5V424.9m116,78.5V424.9m-324,94V504.1m-.4,-.3H368.1m-.4,15.1V504.1m-324,42.6v-27m-.4,-.4h101m0,27.4v-27m0,-.4H368.1M251.7,547.1V519.7m116,27.4V519.7m-116,42.9V547.1m116,15.5V547.1m-116,58.4V562.6m116,42.9V562.6m-324,-.4V547.4m-.4,-.3H144.7m-.4,15.1V547.4M43.7,605.5V563m-.4,-.4H144.7m-.4,42.9V563m-101,42.9H368.1" class="g5_28" />
</svg>