<?xml version="1.0" encoding="UTF-8" standalone="no"?>
<!DOCTYPE svg PUBLIC "-//W3C//DTD SVG 1.1//EN"
"http://www.w3.org/Graphics/SVG/1.1/DTD/svg11.dtd">
<svg viewBox="0 0 433 649" version="1.1" xmlns="http://www.w3.org/2000/svg" xmlns:xlink="http://www.w3.org/1999/xlink">
<defs>
<clipPath id="c0_222"><path d="M0,649.6V0H433V649.6Z" /></clipPath>
<style type="text/css"><![CDATA[
.g0_222{
fill: #9C649E;
}
.g1_222{
fill: #FFFFFF;
}
.g2_222{
fill: none;
stroke: #9C649E;
stroke-width: 1.5277778;
stroke-linecap: butt;
stroke-linejoin: miter;
stroke-miterlimit: 4;
}
.g3_222{
fill: #F0E9F1;
}
.g4_222{
fill: none;
stroke: #9C649E;
stroke-width: 0.77916664;
stroke-linecap: butt;
stroke-linejoin: miter;
}
]]></style>
</defs>
<g clip-path="url(#c0_222)">
<path d="M-4.2,623.6c0,0,-4.4,0,-4.4,4.4v25.9c0,0,0,4.4,4.4,4.4H21.7c0,0,4.3,0,4.3,-4.4V628c0,0,0,-4.4,-4.3,-4.4Z" class="g0_222" />
<path d="M-2.8,44.1c0,0,-4.4,0,-4.4,4.5V238.5c0,0,0,4.5,4.4,4.5h26c0,0,4.4,0,4.4,-4.5V48.6c0,0,0,-4.5,-4.4,-4.5Z" class="g1_222" />
<path d="M-2.8,44.1c0,0,-4.4,0,-4.4,4.5V238.5c0,0,0,4.5,4.4,4.5h26c0,0,4.4,0,4.4,-4.5V48.6c0,0,0,-4.5,-4.4,-4.5h-26Z" class="g2_222" />
</g>
<path d="M44.2,71.5H367.3V43.7H44.2V71.5Z" class="g0_222" />
<path d="M44.2,163.6H90V181H44.2V163.6Zm45.8,0h46.3V181H90V163.6Zm46.3,0H204V181H136.3V163.6Zm67.7,0h10.8V181H204V163.6Zm10.8,0H261V181H214.8V163.6Zm46.2,0h46.3V181H261V163.6Zm46.3,0h60V181h-60V163.6ZM44.2,198.3H90v17.3H44.2V198.3Zm45.8,0h46.3v17.3H90V198.3Zm46.3,0H204v17.3H136.3V198.3Zm67.7,0h10.8v17.3H204V198.3Zm10.8,0H261v17.3H214.8V198.3Zm46.2,0h46.3v17.3H261V198.3Zm46.3,0h60v17.3h-60V198.3ZM44.2,232.9H90v17.4H44.2V232.9Zm45.8,0h46.3v17.4H90V232.9Zm46.3,0H204v17.4H136.3V232.9Zm67.7,0h10.8v17.4H204V232.9Zm10.8,0H261v17.4H214.8V232.9Zm46.2,0h46.3v17.4H261V232.9Zm46.3,0h60v17.4h-60V232.9ZM44.2,265.8H90v15.5H44.2V265.8Zm45.8,0h46.3v15.5H90V265.8Zm46.3,0H204v15.5H136.3V265.8Zm67.7,0h10.8v15.5H204V265.8Zm10.8,0H261v15.5H214.8V265.8Zm46.2,0h46.3v15.5H261V265.8Zm46.3,0h60v15.5h-60V265.8Z" class="g3_222" />
<path d="M44.2,71.1v-27m-.4,-.4H90m0,0H204m0,0h10.8m0,0H367.6m-.3,27.4v-27M44.2,123.3V71.8m0,91.4V124M43.8,71.5H90m0,0H204m0,0h10.8m0,0H367.6M90,123.3V71.8m46.3,51.5V71.8M204,123.3V71.8m10.8,51.5V71.8M261,123.3V71.8m46.3,51.5V71.8m60,51.5V71.8M90,163.2V124m46.3,39.2V124M204,163.2V124m10.8,39.2V124m152.5,39.2V124M43.8,123.7H90m0,0H204m0,0h10.8m0,0H367.6M44.2,180.6V164m-.4,-.4H90m0,0H204m0,0h10.8m0,0H367.6M90,180.6V164m46.3,16.6V164M204,180.6V164m10.8,16.6V164M261,180.6V164m46.3,16.6V164m60,16.6V164M44.2,197.9V181.4m-.4,-.4H90m0,0H204m0,0h10.8m0,0H367.6M90,197.9V181.4m46.3,16.5V181.4M204,197.9V181.4m10.8,16.5V181.4M261,197.9V181.4m46.3,16.5V181.4m60,16.5V181.4M44.2,215.2V198.7m-.4,-.4H90m0,0H204m0,0h10.8m0,0H367.6M90,215.2V198.7m46.3,16.5V198.7M204,215.2V198.7m10.8,16.5V198.7M261,215.2V198.7m46.3,16.5V198.7m60,16.5V198.7M44.2,232.5V216m-.4,-.4H90m0,0H204m0,0h10.8m0,0H367.6M90,232.5V216m46.3,16.5V216M204,232.5V216m10.8,16.5V216M261,232.5V216m46.3,16.5V216m60,16.5V216M44.2,249.9V233.3m-.4,-.4H90m0,0H204m0,0h10.8m0,0H367.6M90,249.9V233.3m46.3,16.6V233.3M204,249.9V233.3m10.8,16.6V233.3M261,249.9V233.3m46.3,16.6V233.3m60,16.6V233.3M44.2,265.4V250.6m-.4,-.3H90m0,0H204m0,0h10.8m0,0H367.6M90,265.4V250.6m46.3,14.8V250.6M204,265.4V250.6m10.8,14.8V250.6M261,265.4V250.6m46.3,14.8V250.6m60,14.8V250.6M44.2,280.9V266.2m-.4,-.4H90m0,0H204m0,0h10.8m0,0H367.6M90,280.9V266.2m46.3,14.7V266.2M204,280.9V266.2m10.8,14.7V266.2M261,280.9V266.2m46.3,14.7V266.2m60,14.7V266.2M44.2,296.5V281.7m0,30.3V297.3m0,30.2V312.8m-.4,-31.5H90m0,0H204m0,0h10.8m0,0H367.6M90,296.5V281.7m46.3,14.8V281.7M204,296.5V281.7m10.8,14.8V281.7M261,296.5V281.7m46.3,14.8V281.7m60,14.8V281.7m0,30.3V297.3m0,30.2V312.8M43.8,296.9H90m0,0H204m0,0h10.8m0,0H367.6M43.8,312.4H90m0,0H204m0,0h10.8m0,0H367.6M43.8,327.9H90m0,0H204m0,0h10.8m0,0H367.6" class="g4_222" />
<path d="M74.4,388.6H337V360.8H74.4v27.8Z" class="g0_222" />
<path d="M74.4,416.3h52.5v17.3H74.4V416.3Zm52.5,0H337v17.3H126.9V416.3ZM74.4,451h52.5v17.3H74.4V451Zm52.5,0H337v17.3H126.9V451ZM74.4,485.6h52.5v17.3H74.4V485.6Zm52.5,0H337v17.3H126.9V485.6Z" class="g3_222" />
<path d="M74.4,388.2v-27m-.4,-.4h52.9m0,0H337.4m-.4,27.4v-27M74.4,415.9v-27m-.4,-.3h52.9m0,0H337.4M126.9,415.9v-27m210.1,27v-27M74.4,433.3V416.7m-.4,-.4h52.9m0,0H337.4m-210.5,17V416.7M337,433.3V416.7M74.4,450.6V434m-.4,-.4h52.9m0,0H337.4m-210.5,17V434M337,450.6V434M74.4,467.9V451.4M74,451h52.9m0,0H337.4M126.9,467.9V451.4M337,467.9V451.4M74.4,485.2V468.7m-.4,-.4h52.9m0,0H337.4M126.9,485.2V468.7M337,485.2V468.7M74.4,502.5V486m-.4,-.4h52.9m0,0H337.4M126.9,502.5V486M337,502.5V486M74.4,519.9V503.3m-.4,-.4h52.9m0,0H337.4m-210.5,17V503.3M337,519.9V503.3M74.4,537.2V520.6m-.4,-.3h52.9m0,0H337.4m-.4,16.9V520.6M74.4,553.3V538m-.4,-.4h52.9m0,0H337.4m-.4,15.7V538M74,553.7h52.9m0,0H337.4" class="g4_222" />
</svg>