<?xml version="1.0" encoding="UTF-8" standalone="no"?>
<!DOCTYPE svg PUBLIC "-//W3C//DTD SVG 1.1//EN"
"http://www.w3.org/Graphics/SVG/1.1/DTD/svg11.dtd">
<svg viewBox="0 0 433 649" version="1.1" xmlns="http://www.w3.org/2000/svg" xmlns:xlink="http://www.w3.org/1999/xlink">
<defs>
<clipPath id="c0_170"><path d="M0,649.6V0H433V649.6Z" /></clipPath>
<style type="text/css"><![CDATA[
.g0_170{
fill: #9C649E;
}
.g1_170{
fill: #FFFFFF;
}
.g2_170{
fill: none;
stroke: #9C649E;
stroke-width: 1.5277778;
stroke-linecap: butt;
stroke-linejoin: miter;
stroke-miterlimit: 4;
}
.g3_170{
fill: none;
stroke: #231F20;
stroke-width: 0.6080556;
stroke-linecap: butt;
stroke-linejoin: miter;
}
.g4_170{
fill: none;
stroke: #FFFFFF;
stroke-width: 0.77916664;
stroke-linecap: butt;
stroke-linejoin: miter;
}
.g5_170{
fill: none;
stroke: #9C649E;
stroke-width: 0.77916664;
stroke-linecap: butt;
stroke-linejoin: miter;
}
]]></style>
</defs>
<g clip-path="url(#c0_170)">
<path d="M-4.2,623.6c0,0,-4.4,0,-4.4,4.4v25.9c0,0,0,4.4,4.4,4.4H21.7c0,0,4.3,0,4.3,-4.4V628c0,0,0,-4.4,-4.3,-4.4Z" class="g0_170" />
<path d="M-2.8,44.1c0,0,-4.4,0,-4.4,4.5V238.5c0,0,0,4.5,4.4,4.5h26c0,0,4.4,0,4.4,-4.5V48.6c0,0,0,-4.5,-4.4,-4.5Z" class="g1_170" />
<path d="M-2.8,44.1c0,0,-4.4,0,-4.4,4.5V238.5c0,0,0,4.5,4.4,4.5h26c0,0,4.4,0,4.4,-4.5V48.6c0,0,0,-4.5,-4.4,-4.5h-26Z" class="g2_170" />
</g>
<path d="M118.8,335.1H256.5" class="g3_170" />
<path d="M43.7,124.8h82.8v21.7H43.7V124.8Zm82.8,0h47.1v21.7H126.5V124.8Zm47.1,0h46.7v21.7H173.6V124.8Zm46.7,0h81.6v21.7H220.3V124.8Zm81.5,0h65.9v21.7H301.8V124.8Z" class="g0_170" />
<path d="M126.5,146.1V125.2m47.1,20.9V125.2m46.7,20.9V125.2m81.5,20.9V125.2" class="g4_170" />
<path d="M43.7,146.1V125.2m-.4,-.4H301.9m0,0h66.2m-.4,21.3V125.2m-324,40.4V146.8m0,34.8V166.3m0,34.3V182.4m0,36.4V201.4m0,36.5V219.6m0,34.7V238.7m0,34.7V255.1m0,53.8V274.2M43.3,146.5H301.9m0,0h66.2M126.5,165.6V146.8m47.1,18.8V146.8m46.7,18.8V146.8m81.6,18.8V146.8m65.8,18.8V146.8M126.5,181.6V166.3m47.1,15.3V166.3m46.7,15.3V166.3m81.6,15.3V166.3m65.8,15.3V166.3M126.5,200.6V182.4m47.1,18.2V182.4m46.7,18.2V182.4m81.6,18.2V182.4m65.8,18.2V182.4M126.5,218.8V201.4m47.1,17.4V201.4m46.7,17.4V201.4m81.6,17.4V201.4m65.8,17.4V201.4M126.5,237.9V219.6m47.1,18.3V219.6m46.7,18.3V219.6m81.6,18.3V219.6m65.8,18.3V219.6M126.5,254.3V238.7m47.1,15.6V238.7m46.7,15.6V238.7m81.6,15.6V238.7m65.8,15.6V238.7M126.5,273.4V255.1m47.1,18.3V255.1m46.7,18.3V255.1m81.6,18.3V255.1m65.8,18.3V255.1M126.5,308.9V274.2m47.1,34.7V274.2m46.7,34.7V274.2m81.6,34.7V274.2m65.8,34.7V274.2M43.3,166H301.9m0,0h66.2M43.3,182H301.9m0,0h66.2M43.3,201H301.9m0,0h66.2M43.3,219.2H301.9m0,0h66.2M43.3,238.3H301.9m0,0h66.2M43.3,254.7H301.9m0,0h66.2M43.3,273.8H301.9m0,0h66.2M43.3,309.3H301.9m0,0h66.2" class="g5_170" />
</svg>