<?xml version="1.0" encoding="UTF-8" standalone="no"?>
<!DOCTYPE svg PUBLIC "-//W3C//DTD SVG 1.1//EN"
"http://www.w3.org/Graphics/SVG/1.1/DTD/svg11.dtd">
<svg viewBox="0 0 433 649" version="1.1" xmlns="http://www.w3.org/2000/svg" xmlns:xlink="http://www.w3.org/1999/xlink">
<defs>
<clipPath id="c0_31"><path d="M0,649.6V0H433V649.6Z" /></clipPath>
<style type="text/css"><![CDATA[
.g0_31{
fill: #FFFFFF;
}
.g1_31{
fill: none;
stroke: #9C649E;
stroke-width: 1.5277778;
stroke-linecap: butt;
stroke-linejoin: miter;
stroke-miterlimit: 4;
}
.g2_31{
fill: #9C649E;
}
.g3_31{
fill: none;
stroke: #9C649E;
stroke-width: 0.77916664;
stroke-linecap: butt;
stroke-linejoin: miter;
}
]]></style>
</defs>
<g clip-path="url(#c0_31)">
<path d="M410.5,44.1c0,0,-4.4,0,-4.4,4.5V238.5c0,0,0,4.5,4.4,4.5h26.1c0,0,4.4,0,4.4,-4.5V48.6c0,0,0,-4.5,-4.4,-4.5Z" class="g0_31" />
<path d="M410.5,44.1c0,0,-4.4,0,-4.4,4.5V238.5c0,0,0,4.5,4.4,4.5h26.1c0,0,4.4,0,4.4,-4.5V48.6c0,0,0,-4.5,-4.4,-4.5H410.5Z" class="g1_31" />
<path d="M411.4,623.6c0,0,-4.3,0,-4.3,4.4v25.9c0,0,0,4.4,4.3,4.4h26c0,0,4.3,0,4.3,-4.4V628c0,0,0,-4.4,-4.3,-4.4Z" class="g2_31" />
</g>
<path d="M65.3,65.4H389.4V43.7H65.3V65.4Z" class="g2_31" />
<path d="M65.4,65V44.1M65,43.7H217.8m0,0h29.5m0,0h35.1m0,0H389.8M389.4,65V44.1m-324,63.3V65.7M65,65.4h61.5m0,42V65.7m0,-.3h91.3m0,0h3.9m0,42V65.7m0,-.3h25.6m0,0h35.1m0,42V65.7m0,-.3H389.8m-52.2,42V65.7m51.8,41.7V65.7M65.4,269.4V108.2m0,301.5V270.2M65,107.8h61.5M65,269.8h61.5m0,-.4V108.2m0,301.5V270.2m0,-162.4h91.3m0,0h3.9m-95.2,162h91.3m0,0h3.9m0,-.4V108.2m0,301.5V270.2m0,-162.4h25.6m0,0h35.1m0,0H389.8M247.3,269.4V108.2m35.1,161.2V108.2m55.2,161.2V108.2m51.8,161.2V108.2M247.3,409.7V270.2m35.1,139.5V270.2m55.2,139.5V270.2m51.8,139.5V270.2m-167.7,-.4h25.6m0,0h35.1m0,0H389.8M65.4,480.7V410.5m-.4,-.4h61.5m0,70.6V410.5m0,-.4h91.3m0,0h3.9m0,70.6V410.5m0,-.4h25.6m0,0h35.1m0,0H389.8M247.3,480.7V410.5m35.1,70.2V410.5m55.2,70.2V410.5m51.8,70.2V410.5M65.4,581.8V481.5m-.4,-.4h61.5m0,100.7V481.5m0,-.4h91.3m0,0h3.9m0,100.7V481.5m0,-.4h25.6m0,0h35.1m0,0H389.8M247.3,581.8V481.5m35.1,100.3V481.5m55.2,100.3V481.5m51.8,100.3V481.5M65,582.2H217.8m0,0h29.5m0,0h35.1m0,0H389.8" class="g3_31" />
</svg>