<?xml version="1.0" encoding="UTF-8" standalone="no"?>
<!DOCTYPE svg PUBLIC "-//W3C//DTD SVG 1.1//EN"
"http://www.w3.org/Graphics/SVG/1.1/DTD/svg11.dtd">
<svg viewBox="0 0 433 649" version="1.1" xmlns="http://www.w3.org/2000/svg" xmlns:xlink="http://www.w3.org/1999/xlink">
<defs>
<clipPath id="c0_171"><path d="M0,649.6V0H433V649.6Z" /></clipPath>
<style type="text/css"><![CDATA[
.g0_171{
fill: #FFFFFF;
}
.g1_171{
fill: none;
stroke: #9C649E;
stroke-width: 1.5277778;
stroke-linecap: butt;
stroke-linejoin: miter;
stroke-miterlimit: 4;
}
.g2_171{
fill: #9C649E;
}
.g3_171{
fill: none;
stroke: #9C649E;
stroke-width: 0.77916664;
stroke-linecap: butt;
stroke-linejoin: miter;
stroke-miterlimit: 4;
}
.g4_171{
fill: #E4D8E6;
}
]]></style>
</defs>
<g clip-path="url(#c0_171)">
<path d="M410.5,44.1c0,0,-4.4,0,-4.4,4.5V238.5c0,0,0,4.5,4.4,4.5h26.1c0,0,4.4,0,4.4,-4.5V48.6c0,0,0,-4.5,-4.4,-4.5Z" class="g0_171" />
<path d="M410.5,44.1c0,0,-4.4,0,-4.4,4.5V238.5c0,0,0,4.5,4.4,4.5h26.1c0,0,4.4,0,4.4,-4.5V48.6c0,0,0,-4.5,-4.4,-4.5H410.5Z" class="g1_171" />
<path d="M411.4,623.6c0,0,-4.3,0,-4.3,4.4v25.9c0,0,0,4.4,4.3,4.4h26c0,0,4.3,0,4.3,-4.4V628c0,0,0,-4.4,-4.3,-4.4Z" class="g2_171" />
</g>
<path d="M65.3,63.6H291V43.4H65.3V63.6ZM82,136H185.1V73.5H82V136Zm0,47.6H185.1V152.8H82v30.8Zm0,40.7H185.1V193.5H82v30.8ZM82,275H185.1V244.2H82V275Z" class="g3_171" />
<path d="M217.3,331.2H390.2V268H217.3v63.2Z" class="g4_171" />
<path d="M217.3,331.2H390.2V268H217.3v63.2Z" class="g3_171" />
<path d="M217.3,391H389.8V343.3H217.3V391Z" class="g4_171" />
<path d="M217.3,391H389.8V343.3H217.3V391Z" class="g3_171" />
<path d="M217.3,473.7H390.2V398.9H217.3v74.8Z" class="g4_171" />
<path d="M217.3,473.7H390.2V398.9H217.3v74.8ZM82,320.7H185.1V302.9H82v17.8ZM82,377H185.1V348.4H82V377ZM217.3,174.4H389.8V157.9H217.3v16.5Zm0,22.3H389.8V180.2H217.3v16.5Zm0,39.2H389.8V202.4H217.3v33.5Zm0,22.1H389.8V241.6H217.3V258ZM286.6,152H389.8V119.9H286.6V152ZM133.6,64v8.5m4.9,-5.3l-4.9,5.3l-5,-5.3m5,68.8v15.8m4.9,-5.3l-4.9,5.3l-5,-5.3m5,-5H285.7m-5.3,-5l5.3,5l-5.3,4.9M81.1,100.8H66v211H81.6M75.7,95.8l5.4,5l-5.4,4.9m127.7,52.2v98.5M133.6,184v8.5m4.9,-5.3l-4.9,5.3l-5,-5.3m5,37.5v18.7m4.9,-5.3l-4.9,5.3l-5,-5.3m5,83v26.4m4.9,-5.3l-4.9,5.3l-5,-5.3m5,-66.6v26.3m4.9,-5.3l-4.9,5.3l-5,-5.3M203.9,167.1h8.6m-5.4,-5l5.4,5l-5.4,4.9m-3.2,16.4h8.6m-5.4,-4.9l5.4,4.9l-5.4,5m-3.2,25.1h8.6m-5.4,-5l5.4,5l-5.4,4.9M186.3,207.2h15.8m-5.3,-5l5.3,5l-5.3,4.9m7.1,38.1h8.6m-5.4,-4.9l5.4,4.9l-5.4,4.9M81.6,259.6H65.4" class="g3_171" />
</svg>