<?xml version="1.0" encoding="UTF-8" standalone="no"?>
<!DOCTYPE svg PUBLIC "-//W3C//DTD SVG 1.1//EN"
"http://www.w3.org/Graphics/SVG/1.1/DTD/svg11.dtd">
<svg viewBox="0 0 433 649" version="1.1" xmlns="http://www.w3.org/2000/svg" xmlns:xlink="http://www.w3.org/1999/xlink">
<defs>
<clipPath id="c0_203"><path d="M0,649.6V0H433V649.6Z" /></clipPath>
<style type="text/css"><![CDATA[
.g0_203{
fill: #FFFFFF;
}
.g1_203{
fill: none;
stroke: #9C649E;
stroke-width: 1.5277778;
stroke-linecap: butt;
stroke-linejoin: miter;
stroke-miterlimit: 4;
}
.g2_203{
fill: #9C649E;
}
.g3_203{
fill: none;
stroke: #9C649E;
stroke-width: 0.77916664;
stroke-linecap: butt;
stroke-linejoin: miter;
}
.g4_203{
fill: none;
stroke: #FFFFFF;
stroke-width: 0.77916664;
stroke-linecap: butt;
stroke-linejoin: miter;
}
]]></style>
</defs>
<g clip-path="url(#c0_203)">
<path d="M410.5,44.1c0,0,-4.4,0,-4.4,4.5V238.5c0,0,0,4.5,4.4,4.5h26.1c0,0,4.4,0,4.4,-4.5V48.6c0,0,0,-4.5,-4.4,-4.5Z" class="g0_203" />
<path d="M410.5,44.1c0,0,-4.4,0,-4.4,4.5V238.5c0,0,0,4.5,4.4,4.5h26.1c0,0,4.4,0,4.4,-4.5V48.6c0,0,0,-4.5,-4.4,-4.5H410.5Z" class="g1_203" />
<path d="M411.4,623.6c0,0,-4.3,0,-4.3,4.4v25.9c0,0,0,4.4,4.3,4.4h26c0,0,4.3,0,4.3,-4.4V628c0,0,0,-4.4,-4.3,-4.4Z" class="g2_203" />
</g>
<path d="M66.2,65.4H388.5V43.7H66.2V65.4Z" class="g2_203" />
<path d="M66.2,65V44.1m-.4,-.4H388.9M388.5,65V44.1M66.2,80.5V65.7m0,30.3V81.3m0,30.3V96.8m0,30.3V112.3m0,30.3V127.9M65.8,65.3H388.9M125.5,80.5V65.7m263,14.8V65.7M125.5,96V81.3M388.5,96V81.3m-263,30.3V96.8m263,14.8V96.8m-263,30.3V112.3m263,14.8V112.3m-263,30.3V127.9m263,14.7V127.9M65.8,80.9H388.9M65.8,96.4H388.9M65.8,112H388.9M65.8,127.5H388.9M65.8,143H388.9" class="g3_203" />
<path d="M65.3,339.9h73.3v37.2H65.3V339.9Zm73.3,0H389.4v21.6H138.6V339.9Z" class="g2_203" />
<path d="M138.6,376.7V340.3" class="g4_203" />
<path d="M65.4,361.5V340.3m0,36.4V361.5M65,339.9H244.3m0,0H389.8m-.4,21.2V340.3M139,361.5H244.3m0,15.2V361.9m0,-.4H389.8m-.4,15.2V361.9m-324,30.3V377.5m0,30.3V393M65,377.1H244.3m0,0H389.8M138.6,392.2V377.5m105.7,14.7V377.5m145.1,14.7V377.5M138.6,407.8V393m105.7,14.8V393m145.1,14.8V393M65,392.6H244.3m0,0H389.8M65,408.1H244.3m0,0H389.8" class="g3_203" />
</svg>