<?xml version="1.0" encoding="UTF-8" standalone="no"?>
<!DOCTYPE svg PUBLIC "-//W3C//DTD SVG 1.1//EN"
"http://www.w3.org/Graphics/SVG/1.1/DTD/svg11.dtd">
<svg viewBox="0 0 433 649" version="1.1" xmlns="http://www.w3.org/2000/svg" xmlns:xlink="http://www.w3.org/1999/xlink">
<defs>
<clipPath id="c0_190"><path d="M0,649.6V0H433V649.6Z" /></clipPath>
<style type="text/css"><![CDATA[
.g0_190{
fill: #9C649E;
}
.g1_190{
fill: #FFFFFF;
}
.g2_190{
fill: none;
stroke: #9C649E;
stroke-width: 1.5277778;
stroke-linecap: butt;
stroke-linejoin: miter;
stroke-miterlimit: 4;
}
.g3_190{
fill: none;
stroke: #231F20;
stroke-width: 0.6080556;
stroke-linecap: butt;
stroke-linejoin: miter;
}
.g4_190{
fill: none;
stroke: #9C649E;
stroke-width: 0.77916664;
stroke-linecap: butt;
stroke-linejoin: miter;
}
.g5_190{
fill: #F0E9F1;
}
]]></style>
</defs>
<g clip-path="url(#c0_190)">
<path d="M-4.2,623.6c0,0,-4.4,0,-4.4,4.4v25.9c0,0,0,4.4,4.4,4.4H21.7c0,0,4.3,0,4.3,-4.4V628c0,0,0,-4.4,-4.3,-4.4Z" class="g0_190" />
<path d="M-2.8,44.1c0,0,-4.4,0,-4.4,4.5V238.5c0,0,0,4.5,4.4,4.5h26c0,0,4.4,0,4.4,-4.5V48.6c0,0,0,-4.5,-4.4,-4.5Z" class="g1_190" />
<path d="M-2.8,44.1c0,0,-4.4,0,-4.4,4.5V238.5c0,0,0,4.5,4.4,4.5h26c0,0,4.4,0,4.4,-4.5V48.6c0,0,0,-4.5,-4.4,-4.5h-26Z" class="g2_190" />
</g>
<path d="M49.9,218.4H324.3M49.9,286H251.1" class="g3_190" />
<path d="M43.7,71.1v-27m0,79.2V71.8m0,79.2V124m0,54.8v-27m0,42.5V179.6M43.3,43.7H368.1M194.9,71.1v-27m172.8,27v-27M194.9,123.3V71.8m172.8,51.5V71.8M194.9,151V124m172.8,27V124M194.9,178.8v-27m172.8,27v-27m0,42.5V179.6M43.3,71.5H368.1M43.3,123.7H368.1M43.3,151.4H368.1M43.3,179.2H368.1M43.3,194.7H368.1" class="g4_190" />
<path d="M250.8,395.9H367v27.8H250.8V395.9Zm-96.1,27.8h96.1v39.9H154.7V423.7Zm-111,39.9h111v52.2H43.7V463.6Z" class="g5_190" />
<path d="M250.8,423.3v-27m-.4,-.4h117m-.4,27.4v-27M154.7,463.2V424m-.4,-.3h96.5m0,39.5V424m0,-.3H367.4m-.4,39.5V424M43.7,515.4V464m-.4,-.4H154.7m0,51.8V464m0,-.4h96.1m0,51.8V464m0,-.4H367.4M43.7,543.2v-27m-.4,-.4H154.7m0,27.4v-27m0,-.4h96.5M43.3,543.6H155.1" class="g4_190" />
</svg>