<?xml version="1.0" encoding="UTF-8" standalone="no"?>
<!DOCTYPE svg PUBLIC "-//W3C//DTD SVG 1.1//EN"
"http://www.w3.org/Graphics/SVG/1.1/DTD/svg11.dtd">
<svg viewBox="0 0 433 649" version="1.1" xmlns="http://www.w3.org/2000/svg" xmlns:xlink="http://www.w3.org/1999/xlink">
<defs>
<clipPath id="c0_201"><path d="M0,649.6V0H433V649.6Z" /></clipPath>
<style type="text/css"><![CDATA[
.g0_201{
fill: #FFFFFF;
}
.g1_201{
fill: none;
stroke: #9C649E;
stroke-width: 1.5277778;
stroke-linecap: butt;
stroke-linejoin: miter;
stroke-miterlimit: 4;
}
.g2_201{
fill: #9C649E;
}
.g3_201{
fill: none;
stroke: #231F20;
stroke-width: 0.6080556;
stroke-linecap: butt;
stroke-linejoin: miter;
}
.g4_201{
fill: none;
stroke: #FFFFFF;
stroke-width: 0.77916664;
stroke-linecap: butt;
stroke-linejoin: miter;
}
.g5_201{
fill: none;
stroke: #9C649E;
stroke-width: 0.77916664;
stroke-linecap: butt;
stroke-linejoin: miter;
}
]]></style>
</defs>
<g clip-path="url(#c0_201)">
<path d="M410.5,44.1c0,0,-4.4,0,-4.4,4.5V238.5c0,0,0,4.5,4.4,4.5h26.1c0,0,4.4,0,4.4,-4.5V48.6c0,0,0,-4.5,-4.4,-4.5Z" class="g0_201" />
<path d="M410.5,44.1c0,0,-4.4,0,-4.4,4.5V238.5c0,0,0,4.5,4.4,4.5h26.1c0,0,4.4,0,4.4,-4.5V48.6c0,0,0,-4.5,-4.4,-4.5H410.5Z" class="g1_201" />
<path d="M411.4,623.6c0,0,-4.3,0,-4.3,4.4v25.9c0,0,0,4.4,4.3,4.4h26c0,0,4.3,0,4.3,-4.4V628c0,0,0,-4.4,-4.3,-4.4Z" class="g2_201" />
</g>
<path d="M65,316.5h74.9M65,364.5h68.1" class="g3_201" />
<path d="M65.3,59h62.5v50.3H65.3V59Zm62.5,0h45.4v50.3H127.8V59Zm45.4,0H281.5V84.1H173.2V59Zm108.3,0H389.4V84.1H281.5V59Z" class="g2_201" />
<path d="M281.5,83.7V59.4" class="g4_201" />
<path d="M65.4,84.1V59.4m0,49.5V84.1M65,59h62.8m0,25.1V59.4m0,49.5V84.1m0,-25.1h45.4m0,24.7V59.4m0,-.4H389.8m-.4,24.7V59.4M173.2,108.9V84.5m-.4,-.4H281.5m-54.1,24.8V84.5m54.1,24.4V84.5m0,-.4H389.8m-55.5,24.8V84.5m55.1,24.4V84.5m-324,50V109.7m0,49.5V134.5M65,109.3h62.8m0,24.8V109.7m0,-.4h99.6m-54.2,24.8V109.7m54.2,24.4V109.7m0,-.4h54.1m0,24.8V109.7m0,-.4H389.8m-55.5,25.2V109.7m55.1,24.8V109.7m-55.1,49.9V134.5m55.1,25.1V134.5m-55.1,50.3V159.6m55.1,25.2V159.6m-55.1,49.9V184.8m55.1,24.7V184.8M127.8,159.2V134.8m-.4,-.3H281.9M173.2,159.2V134.8m54.2,24.4V134.8m54.1,24.4V134.8M65.4,184.4V160m-.4,-.4H281.9M127.8,184.4V160m45.4,24.4V160m54.2,24.4V160m54.1,24.4V160M65.4,209.5V185.2m-.4,-.4H281.9M127.8,209.5V185.2m45.4,24.3V185.2m54.2,24.3V185.2M65,209.9H281.5m0,-.4V185.2m0,24.7H389.8" class="g5_201" />
</svg>