<?xml version="1.0" encoding="UTF-8" standalone="no"?>
<!DOCTYPE svg PUBLIC "-//W3C//DTD SVG 1.1//EN"
"http://www.w3.org/Graphics/SVG/1.1/DTD/svg11.dtd">
<svg viewBox="0 0 433 649" version="1.1" xmlns="http://www.w3.org/2000/svg" xmlns:xlink="http://www.w3.org/1999/xlink">
<defs>
<clipPath id="c0_111"><path d="M0,649.6V0H433V649.6Z" /></clipPath>
<style type="text/css"><![CDATA[
.g0_111{
fill: #FFFFFF;
}
.g1_111{
fill: none;
stroke: #9C649E;
stroke-width: 1.5277778;
stroke-linecap: butt;
stroke-linejoin: miter;
stroke-miterlimit: 4;
}
.g2_111{
fill: #9C649E;
}
.g3_111{
fill: none;
stroke: #231F20;
stroke-width: 0.6080556;
stroke-linecap: butt;
stroke-linejoin: miter;
}
.g4_111{
fill: none;
stroke: #FFFFFF;
stroke-width: 0.77916664;
stroke-linecap: butt;
stroke-linejoin: miter;
}
.g5_111{
fill: none;
stroke: #9C649E;
stroke-width: 0.77916664;
stroke-linecap: butt;
stroke-linejoin: miter;
}
]]></style>
</defs>
<g clip-path="url(#c0_111)">
<path d="M410.5,44.1c0,0,-4.4,0,-4.4,4.5V238.5c0,0,0,4.5,4.4,4.5h26.1c0,0,4.4,0,4.4,-4.5V48.6c0,0,0,-4.5,-4.4,-4.5Z" class="g0_111" />
<path d="M410.5,44.1c0,0,-4.4,0,-4.4,4.5V238.5c0,0,0,4.5,4.4,4.5h26.1c0,0,4.4,0,4.4,-4.5V48.6c0,0,0,-4.5,-4.4,-4.5H410.5Z" class="g1_111" />
<path d="M411.4,623.6c0,0,-4.3,0,-4.3,4.4v25.9c0,0,0,4.4,4.3,4.4h26c0,0,4.3,0,4.3,-4.4V628c0,0,0,-4.4,-4.3,-4.4Z" class="g2_111" />
</g>
<path d="M71.6,103.9H176.2M71.6,136.6h95.5" class="g3_111" />
<path d="M65.3,318.3h73.3V340H65.3V318.3Zm73.3,0H259.9V340H138.6V318.3Zm121.2,0H389.4V340H259.8V318.3Z" class="g2_111" />
<path d="M138.6,339.6V318.7m121.3,20.9V318.7" class="g4_111" />
<path d="M65.4,339.6V318.7m-.4,-.4H389.8m-.4,21.3V318.7m-324,48.7v-27m0,66.9V368.1m0,67v-27M65,340H389.8M138.6,367.4v-27m121.3,27v-27m129.5,27v-27M138.6,407.3V368.1m121.3,39.2V368.1m129.5,39.2V368.1m-250.8,67v-27m121.3,27v-27m129.5,27v-27M65,367.7H389.8M65,407.7H389.8M65,435.5H389.8" class="g5_111" />
</svg>