<?xml version="1.0" encoding="UTF-8" standalone="no"?>
<!DOCTYPE svg PUBLIC "-//W3C//DTD SVG 1.1//EN"
"http://www.w3.org/Graphics/SVG/1.1/DTD/svg11.dtd">
<svg viewBox="0 0 433 649" version="1.1" xmlns="http://www.w3.org/2000/svg" xmlns:xlink="http://www.w3.org/1999/xlink">
<defs>
<clipPath id="c0_30"><path d="M0,649.6V0H433V649.6Z" /></clipPath>
<style type="text/css"><![CDATA[
.g0_30{
fill: #9C649E;
}
.g1_30{
fill: #FFFFFF;
}
.g2_30{
fill: none;
stroke: #9C649E;
stroke-width: 1.5277778;
stroke-linecap: butt;
stroke-linejoin: miter;
stroke-miterlimit: 4;
}
.g3_30{
fill: none;
stroke: #231F20;
stroke-width: 0.6080556;
stroke-linecap: butt;
stroke-linejoin: miter;
}
.g4_30{
fill: #F0E9F1;
}
.g5_30{
fill: none;
stroke: #9C649E;
stroke-width: 0.77916664;
stroke-linecap: butt;
stroke-linejoin: miter;
}
]]></style>
</defs>
<g clip-path="url(#c0_30)">
<path d="M-4.2,623.6c0,0,-4.4,0,-4.4,4.4v25.9c0,0,0,4.4,4.4,4.4H21.7c0,0,4.3,0,4.3,-4.4V628c0,0,0,-4.4,-4.3,-4.4Z" class="g0_30" />
<path d="M-2.8,44.1c0,0,-4.4,0,-4.4,4.5V238.5c0,0,0,4.5,4.4,4.5h26c0,0,4.4,0,4.4,-4.5V48.6c0,0,0,-4.5,-4.4,-4.5Z" class="g1_30" />
<path d="M-2.8,44.1c0,0,-4.4,0,-4.4,4.5V238.5c0,0,0,4.5,4.4,4.5h26c0,0,4.4,0,4.4,-4.5V48.6c0,0,0,-4.5,-4.4,-4.5h-26Z" class="g2_30" />
</g>
<path d="M52,343.5H90.6" class="g3_30" />
<path d="M43.7,43.7h324V59.2H43.7V43.7Zm0,138.8h324V198H43.7V182.5Z" class="g4_30" />
<path d="M43.7,58.8V44.1m-.4,-.4H368.1m-.4,15.1V44.1M43.7,74.4V59.6m-.4,-.4h101m0,15.2V59.6m0,-.4H368.1M251.7,74.8V59.6m116,15.2V59.6m-116,42.9V74.8m116,27.7V74.8m-116,43.3V102.5m116,15.6V102.5m-116,79.6v-64m116,64v-64m-324,-16V75.2m0,42.5V102.9M43.3,74.8H144.7M43.3,102.5H144.7m-.4,-.4V75.2m0,42.5V102.9M43.7,182.1V118.5m-.4,-.4H144.7m-.4,64V118.5M43.7,197.6V182.9m-.4,-.4H368.1m-.4,15.1V182.9m-324,66.9V198.4m0,67V250.6M43.3,198H368.1M144.3,249.8V198.4m107.4,51.4V198.4m116,51.4V198.4m-223.4,67V250.6m107.4,14.8V250.6m116,14.8V250.6M43.3,250.2H368.1M43.3,265.8H368.1" class="g5_30" />
</svg>