<?xml version="1.0" encoding="UTF-8" standalone="no"?>
<!DOCTYPE svg PUBLIC "-//W3C//DTD SVG 1.1//EN"
"http://www.w3.org/Graphics/SVG/1.1/DTD/svg11.dtd">
<svg viewBox="0 0 433 649" version="1.1" xmlns="http://www.w3.org/2000/svg" xmlns:xlink="http://www.w3.org/1999/xlink">
<defs>
<clipPath id="c0_71"><path d="M0,649.6V0H433V649.6Z" /></clipPath>
<style type="text/css"><![CDATA[
.g0_71{
fill: #FFFFFF;
}
.g1_71{
fill: none;
stroke: #9C649E;
stroke-width: 1.5277778;
stroke-linecap: butt;
stroke-linejoin: miter;
stroke-miterlimit: 4;
}
.g2_71{
fill: #9C649E;
}
.g3_71{
fill: none;
stroke: #9C649E;
stroke-width: 0.77916664;
stroke-linecap: butt;
stroke-linejoin: miter;
}
.g4_71{
fill: none;
stroke: #231F20;
stroke-width: 0.4568056;
stroke-linecap: butt;
stroke-linejoin: miter;
}
.g5_71{
fill: none;
stroke: #231F20;
stroke-width: 0.26583332;
stroke-linecap: butt;
stroke-linejoin: miter;
}
.g6_71{
fill: none;
stroke: #231F20;
stroke-width: 0.46750003;
stroke-linecap: butt;
stroke-linejoin: miter;
}
]]></style>
</defs>
<g clip-path="url(#c0_71)">
<path d="M410.5,44.1c0,0,-4.4,0,-4.4,4.5V238.5c0,0,0,4.5,4.4,4.5h26.1c0,0,4.4,0,4.4,-4.5V48.6c0,0,0,-4.5,-4.4,-4.5Z" class="g0_71" />
<path d="M410.5,44.1c0,0,-4.4,0,-4.4,4.5V238.5c0,0,0,4.5,4.4,4.5h26.1c0,0,4.4,0,4.4,-4.5V48.6c0,0,0,-4.5,-4.4,-4.5H410.5Z" class="g1_71" />
<path d="M411.4,623.6c0,0,-4.3,0,-4.3,4.4v25.9c0,0,0,4.4,4.3,4.4h26c0,0,4.3,0,4.3,-4.4V628c0,0,0,-4.4,-4.3,-4.4Z" class="g2_71" />
</g>
<path d="M65.3,76.8h89.3V99.6H65.3V76.8Zm89.3,0H389.4V99.6H154.6V76.8Z" class="g2_71" />
<path d="M65.4,99.3V77.2M65,76.8h89.6m0,22.5V77.2m0,-.4H389.8m-.4,22.5V77.2M65.4,192.1V100m0,159.8V192.1M65,99.6h89.6m0,92.1V100m0,-.4H389.8M230.4,191.7V100m159,91.7V100M154.6,259.8V192.5m-.4,-.4h76.2m0,67.7V192.5m0,-.4H389.8m-.4,67.7V192.5M65.4,376.7V260.6m0,184.1V377.5m0,147.4V445.4M65,260.2h89.6M65,377.1h89.6M65,445h89.6M65,525.3h89.6m0,-148.6V260.6m0,184.1V377.5m0,147.4V445.4m0,-185.2h75.8M154.6,377.1H389.8M154.6,445H389.8M154.6,525.3H389.8M230.4,260.2H389.8m-.4,116.5V260.6m0,184.1V377.5m0,147.4V445.4" class="g3_71" />
<path d="M236.5,113.5h50.4" class="g4_71" />
<path d="M286.9,116.2h2.7m0,-6.1h1.7" class="g5_71" />
<path d="M291.4,113.5h2.2" class="g4_71" />
<path d="M236.5,138.3h9.4" class="g6_71" />
<path d="M245.9,138h76.9" class="g4_71" />
<path d="M322.8,140.7h2.7m0,-6.1h1.7" class="g5_71" />
<path d="M327.2,138h42.5M236.5,150.2h50.9" class="g4_71" />
<path d="M287.4,146.8h2.7" class="g5_71" />
<path d="M290.1,150.2h2.2m-55.8,24.5h65.4M160.7,274.1H292M160.7,298.5H277.8M160.7,335.2h53" class="g4_71" />
<path d="M213.7,337.9h2.6m0,-6.1h1.8" class="g5_71" />
<path d="M160.7,347.4H266.1M160.7,391H250m-89.3,12.2h26.7m-26.7,12.2h41.2m-26.7,12.2h54.5m-69,12.3h51.2M160.7,459h57.8m-57.8,12.2h24.4m141.3,0h41.5M160.7,483.4h43.5m146.1,0h19.4m-209,12.2h25.7m46.3,0h64.7" class="g4_71" />
</svg>