<?xml version="1.0" encoding="UTF-8" standalone="no"?>
<!DOCTYPE svg PUBLIC "-//W3C//DTD SVG 1.1//EN"
"http://www.w3.org/Graphics/SVG/1.1/DTD/svg11.dtd">
<svg viewBox="0 0 433 649" version="1.1" xmlns="http://www.w3.org/2000/svg" xmlns:xlink="http://www.w3.org/1999/xlink">
<defs>
<clipPath id="c0_219"><path d="M0,649.6V0H433V649.6Z" /></clipPath>
<style type="text/css"><![CDATA[
.g0_219{
fill: #FFFFFF;
}
.g1_219{
fill: none;
stroke: #9C649E;
stroke-width: 1.5277778;
stroke-linecap: butt;
stroke-linejoin: miter;
stroke-miterlimit: 4;
}
.g2_219{
fill: #9C649E;
}
.g3_219{
fill: none;
stroke: #9C649E;
stroke-width: 0.77916664;
stroke-linecap: butt;
stroke-linejoin: miter;
}
.g4_219{
fill: #F0E9F1;
}
]]></style>
</defs>
<g clip-path="url(#c0_219)">
<path d="M410.5,44.1c0,0,-4.4,0,-4.4,4.5V238.5c0,0,0,4.5,4.4,4.5h26.1c0,0,4.4,0,4.4,-4.5V48.6c0,0,0,-4.5,-4.4,-4.5Z" class="g0_219" />
<path d="M410.5,44.1c0,0,-4.4,0,-4.4,4.5V238.5c0,0,0,4.5,4.4,4.5h26.1c0,0,4.4,0,4.4,-4.5V48.6c0,0,0,-4.5,-4.4,-4.5H410.5Z" class="g1_219" />
<path d="M411.4,623.6c0,0,-4.3,0,-4.3,4.4v25.9c0,0,0,4.4,4.3,4.4h26c0,0,4.3,0,4.3,-4.4V628c0,0,0,-4.4,-4.3,-4.4Z" class="g2_219" />
</g>
<path d="M65.3,139.3H390.2V111.6H65.3v27.7Z" class="g2_219" />
<path d="M65.4,139V112m-.4,-.4H390.5m-.3,27.4V112M65.4,154.5V139.7m0,42.6v-27m0,42.5V183M65,139.3H390.5m-.3,15.2V139.7m0,42.5V155.3m0,42.5V183M65,154.9H390.5M65,182.6H390.5M65,198.2H390.5" class="g3_219" />
<path d="M65,242H389.8V220.3H65V242Z" class="g2_219" />
<path d="M65,241.6V220.7m-.4,-.4H390.2m-.4,21.3V220.7M65,257.1V242.4m0,42.5v-27M64.6,242H390.2m-.4,15.1V242.4m0,42.5v-27M64.6,257.5H390.2M64.6,285.3H390.2" class="g3_219" />
<path d="M64.9,307.5H218.6v27.7H64.9V307.5Zm153.7,0H389.8v27.7H218.6V307.5Z" class="g2_219" />
<path d="M64.9,420.5H82.2v17.4H64.9V420.5Zm17.3,0H97.4v17.4H82.2V420.5Zm15.2,0h15.1v17.4H97.4V420.5Zm15.1,0h15.2v17.4H112.5V420.5Zm15.2,0h15.2v17.4H127.7V420.5Zm15.2,0H158v17.4H142.9V420.5Zm15.1,0h15.2v17.4H158V420.5Zm15.2,0h15.1v17.4H173.2V420.5Zm15.1,0h15.2v17.4H188.3V420.5Zm15.2,0h15.1v17.4H203.5V420.5Zm15.1,0H236v17.4H218.6V420.5Zm17.4,0h16.4v17.4H236V420.5Zm16.4,0h16.5v17.4H252.4V420.5Zm16.5,0h16.4v17.4H268.9V420.5Zm16.4,0h16.5v17.4H285.3V420.5Zm16.5,0h16.4v17.4H301.8V420.5Zm16.4,0h16.5v17.4H318.2V420.5Zm16.5,0h16.5v17.4H334.7V420.5Zm16.5,0h16.4v17.4H351.2V420.5Zm16.4,0h22.2v17.4H367.6V420.5ZM64.9,455.2H82.2v17.3H64.9V455.2Zm17.3,0H97.4v17.3H82.2V455.2Zm15.2,0h15.1v17.3H97.4V455.2Zm15.1,0h15.2v17.3H112.5V455.2Zm15.2,0h15.2v17.3H127.7V455.2Zm15.2,0H158v17.3H142.9V455.2Zm15.1,0h15.2v17.3H158V455.2Zm15.2,0h15.1v17.3H173.2V455.2Zm15.1,0h15.2v17.3H188.3V455.2Zm15.2,0h15.1v17.3H203.5V455.2Zm15.1,0H236v17.3H218.6V455.2Zm17.4,0h16.4v17.3H236V455.2Zm16.4,0h16.5v17.3H252.4V455.2Zm16.5,0h16.4v17.3H268.9V455.2Zm16.4,0h16.5v17.3H285.3V455.2Zm16.5,0h16.4v17.3H301.8V455.2Zm16.4,0h16.5v17.3H318.2V455.2Zm16.5,0h16.5v17.3H334.7V455.2Zm16.5,0h16.4v17.3H351.2V455.2Zm16.4,0h22.2v17.3H367.6V455.2Zm-149,34.6H236v17.4H218.6V489.8Zm17.4,0h16.4v17.4H236V489.8Zm16.4,0h16.5v17.4H252.4V489.8Zm16.5,0h16.4v17.4H268.9V489.8Zm16.4,0h16.5v17.4H285.3V489.8Zm16.5,0h16.4v17.4H301.8V489.8Zm16.4,0h16.5v17.4H318.2V489.8Zm16.5,0h16.5v17.4H334.7V489.8Zm16.5,0h16.4v17.4H351.2V489.8Zm16.4,0h22.2v17.4H367.6V489.8Z" class="g4_219" />
<path d="M64.9,437.9H82.2v17.3H64.9V437.9Zm17.3,0H97.4v17.3H82.2V437.9Zm15.2,0h15.1v17.3H97.4V437.9Zm15.1,0h15.2v17.3H112.5V437.9Zm15.2,0h15.2v17.3H127.7V437.9Zm15.2,0H158v17.3H142.9V437.9Zm15.1,0h15.2v17.3H158V437.9Zm15.2,0h15.1v17.3H173.2V437.9Zm15.1,0h15.2v17.3H188.3V437.9Zm15.2,0h15.1v17.3H203.5V437.9Zm15.1,0H236v17.3H218.6V437.9Zm17.4,0h16.4v17.3H236V437.9Zm16.4,0h16.5v17.3H252.4V437.9Zm16.5,0h16.4v17.3H268.9V437.9Zm16.4,0h16.5v17.3H285.3V437.9Zm16.5,0h16.4v17.3H301.8V437.9Zm16.4,0h16.5v17.3H318.2V437.9Zm16.5,0h16.5v17.3H334.7V437.9Zm16.5,0h16.4v17.3H351.2V437.9Zm16.4,0h22.2v17.3H367.6V437.9ZM64.9,472.5H82.2v17.3H64.9V472.5Zm17.3,0H97.4v17.3H82.2V472.5Zm15.2,0h15.1v17.3H97.4V472.5Zm15.1,0h15.2v17.3H112.5V472.5Zm15.2,0h15.2v17.3H127.7V472.5Zm15.2,0H158v17.3H142.9V472.5Zm15.1,0h15.2v17.3H158V472.5Zm15.2,0h15.1v17.3H173.2V472.5Zm15.1,0h15.2v17.3H188.3V472.5Zm15.2,0h15.1v17.3H203.5V472.5Zm15.1,0H236v17.3H218.6V472.5Zm17.4,0h16.4v17.3H236V472.5Zm16.4,0h16.5v17.3H252.4V472.5Zm16.5,0h16.4v17.3H268.9V472.5Zm16.4,0h16.5v17.3H285.3V472.5Zm16.5,0h16.4v17.3H301.8V472.5Zm16.4,0h16.5v17.3H318.2V472.5Zm16.5,0h16.5v17.3H334.7V472.5Zm16.5,0h16.4v17.3H351.2V472.5Zm16.4,0h22.2v17.3H367.6V472.5Z" class="g0_219" />
<path d="M64.9,334.8V307.9m-.4,-.4H82.2m0,0H97.4m0,0h45.5m0,0h45.4m0,0h64.1m0,0h49.4m0,0h49.4m0,0h39M218.6,334.8V307.9m171.2,26.9V307.9M64.9,364.7V335.6m0,67.2V365.5m0,54.6V403.6m-.4,-68.4H82.2m0,0H97.4m0,0h45.5m0,0h45.4m0,0h64.1m0,0h49.4m0,0h49.4m0,0h39m-308,29.5V335.6m15.2,29.1V335.6m15.1,29.1V335.6m15.2,29.1V335.6m15.2,29.1V335.6M158,364.7V335.6m15.2,29.1V335.6m15.1,29.1V335.6m15.2,29.1V335.6m15.1,29.1V335.6M236,364.7V335.6m16.4,29.1V335.6m16.5,29.1V335.6m16.4,29.1V335.6m16.5,29.1V335.6m16.4,29.1V335.6m16.5,29.1V335.6m16.5,29.1V335.6m16.4,29.1V335.6m22.2,29.1V335.6M82.2,402.8V365.5m136.4,37.3V365.5M236,402.8V365.5m153.8,37.3V365.5M82.2,420.1V403.6m15.2,16.5V403.6m15.1,16.5V403.6m15.2,16.5V403.6m15.2,16.5V403.6M158,420.1V403.6m15.2,16.5V403.6m15.1,16.5V403.6m15.2,16.5V403.6m15.1,16.5V403.6m171.2,16.5V403.6M64.5,365.1H82.2m0,0H97.4m0,0h45.5m0,0h45.4m0,0h64.1m0,0h49.4m0,0h49.4m0,0h39M64.5,403.2H82.2m0,0H97.4m0,0h45.5m0,0h45.4m0,0h64.1m0,0h49.4m0,0h49.4m0,0h39M64.9,437.5V420.9m0,33.9V438.2m-.4,-17.7H82.2m0,0H97.4m0,0h45.5m0,0h45.4m0,0h64.1m0,0h49.4m0,0h49.4m0,0h39M64.5,437.9H82.2m0,0H97.4m0,0h45.5m0,0h45.4m0,0h64.1m0,0h49.4m0,0h49.4m0,0h39m-308,-.4V420.9m15.2,16.6V420.9m15.1,16.6V420.9m15.2,16.6V420.9m15.2,16.6V420.9M158,437.5V420.9m15.2,16.6V420.9m15.1,16.6V420.9m15.2,16.6V420.9m15.1,16.6V420.9M236,437.5V420.9m16.4,16.6V420.9m16.5,16.6V420.9m16.4,16.6V420.9m16.5,16.6V420.9m16.4,16.6V420.9m16.5,16.6V420.9m16.5,16.6V420.9m16.4,16.6V420.9m22.2,16.6V420.9M82.2,454.8V438.2m15.2,16.6V438.2m15.1,16.6V438.2m15.2,16.6V438.2m15.2,16.6V438.2M158,454.8V438.2m15.2,16.6V438.2m15.1,16.6V438.2m15.2,16.6V438.2m15.1,16.6V438.2M236,454.8V438.2m16.4,16.6V438.2m16.5,16.6V438.2m16.4,16.6V438.2m16.5,16.6V438.2m16.4,16.6V438.2m16.5,16.6V438.2m16.5,16.6V438.2m16.4,16.6V438.2m22.2,16.6V438.2M64.9,472.1V455.6m-.4,-.4H82.2m0,0H97.4m0,0h45.5m0,0h45.4m0,0h64.1m0,0h49.4m0,0h49.4m0,0h39m-308,16.9V455.6m15.2,16.5V455.6m15.1,16.5V455.6m15.2,16.5V455.6m15.2,16.5V455.6M158,472.1V455.6m15.2,16.5V455.6m15.1,16.5V455.6m15.2,16.5V455.6m15.1,16.5V455.6M236,472.1V455.6m16.4,16.5V455.6m16.5,16.5V455.6m16.4,16.5V455.6m16.5,16.5V455.6m16.4,16.5V455.6m16.5,16.5V455.6m16.5,16.5V455.6m16.4,16.5V455.6m22.2,16.5V455.6M64.9,489.4V472.9m-.4,-.4H82.2m0,0H97.4m0,0h45.5m0,0h45.4m0,0h64.1m0,0h49.4m0,0h49.4m0,0h39m-308,16.9V472.9m15.2,16.5V472.9m15.1,16.5V472.9m15.2,16.5V472.9m15.2,16.5V472.9M158,489.4V472.9m15.2,16.5V472.9m15.1,16.5V472.9m15.2,16.5V472.9m15.1,16.5V472.9M236,489.4V472.9m16.4,16.5V472.9m16.5,16.5V472.9m16.4,16.5V472.9m16.5,16.5V472.9m16.4,16.5V472.9m16.5,16.5V472.9m16.5,16.5V472.9m16.4,16.5V472.9m22.2,16.5V472.9M64.9,506.8V490.2m-.4,-.4H82.2m0,0H97.4m0,0h45.5m0,0h45.4m0,0h64.1m0,0h49.4m0,0h49.4m0,0h39m-171.6,17V490.2M236,506.8V490.2m16.4,16.6V490.2m16.5,16.6V490.2m16.4,16.6V490.2m16.5,16.6V490.2m16.4,16.6V490.2m16.5,16.6V490.2m16.5,16.6V490.2m16.4,16.6V490.2m22.2,16.6V490.2M64.9,531.5v-24m-.4,-.3H82.2m0,0H97.4m0,0h45.5m0,0h45.4m0,0h64.1m0,0h49.4m0,0h49.4m0,0h39m-.4,24.3v-24M64.5,531.9H82.2m0,0H97.4m0,0h45.5m0,0h45.4m0,0h64.1m0,0h49.4m0,0h49.4m0,0h39" class="g3_219" />
</svg>