<?xml version="1.0" encoding="UTF-8" standalone="no"?>
<!DOCTYPE svg PUBLIC "-//W3C//DTD SVG 1.1//EN"
"http://www.w3.org/Graphics/SVG/1.1/DTD/svg11.dtd">
<svg viewBox="0 0 433 649" version="1.1" xmlns="http://www.w3.org/2000/svg" xmlns:xlink="http://www.w3.org/1999/xlink">
<defs>
<clipPath id="c0_84"><path d="M0,649.6V0H433V649.6Z" /></clipPath>
<style type="text/css"><![CDATA[
.g0_84{
fill: #9C649E;
}
.g1_84{
fill: #FFFFFF;
}
.g2_84{
fill: none;
stroke: #9C649E;
stroke-width: 1.5277778;
stroke-linecap: butt;
stroke-linejoin: miter;
stroke-miterlimit: 4;
}
.g3_84{
fill: none;
stroke: #9C649E;
stroke-width: 0.77916664;
stroke-linecap: butt;
stroke-linejoin: miter;
}
]]></style>
</defs>
<g clip-path="url(#c0_84)">
<path d="M-4.2,623.6c0,0,-4.4,0,-4.4,4.4v25.9c0,0,0,4.4,4.4,4.4H21.7c0,0,4.3,0,4.3,-4.4V628c0,0,0,-4.4,-4.3,-4.4Z" class="g0_84" />
<path d="M-2.8,44.1c0,0,-4.4,0,-4.4,4.5V238.5c0,0,0,4.5,4.4,4.5h26c0,0,4.4,0,4.4,-4.5V48.6c0,0,0,-4.5,-4.4,-4.5Z" class="g1_84" />
<path d="M-2.8,44.1c0,0,-4.4,0,-4.4,4.5V238.5c0,0,0,4.5,4.4,4.5h26c0,0,4.4,0,4.4,-4.5V48.6c0,0,0,-4.5,-4.4,-4.5h-26Z" class="g2_84" />
</g>
<path d="M43.7,263.3v-27m0,54.8v-27m0,54.7V291.9m0,66.9V319.6m0,67v-27M43.3,236H368.1M117.8,263.3v-27m156.8,27v-27m93.1,27v-27M117.8,291.1v-27m156.8,27v-27m93.1,27v-27M117.8,318.8V291.9m156.8,26.9V291.9m93.1,26.9V291.9M117.8,358.8V319.6m156.8,39.2V319.6m93.1,39.2V319.6m-249.9,67v-27m156.8,27v-27m93.1,27v-27M43.3,263.7H368.1M43.3,291.5H368.1M43.3,319.2H368.1m-324.8,40H368.1M43.3,387H368.1" class="g3_84" />
</svg>