<?xml version="1.0" encoding="UTF-8" standalone="no"?>
<!DOCTYPE svg PUBLIC "-//W3C//DTD SVG 1.1//EN"
"http://www.w3.org/Graphics/SVG/1.1/DTD/svg11.dtd">
<svg viewBox="0 0 433 649" version="1.1" xmlns="http://www.w3.org/2000/svg" xmlns:xlink="http://www.w3.org/1999/xlink">
<defs>
<clipPath id="c0_128"><path d="M0,649.6V0H433V649.6Z" /></clipPath>
<style type="text/css"><![CDATA[
.g0_128{
fill: #9C649E;
}
.g1_128{
fill: #FFFFFF;
}
.g2_128{
fill: none;
stroke: #9C649E;
stroke-width: 1.5277778;
stroke-linecap: butt;
stroke-linejoin: miter;
stroke-miterlimit: 4;
}
.g3_128{
fill: none;
stroke: #9C649E;
stroke-width: 0.77916664;
stroke-linecap: butt;
stroke-linejoin: miter;
}
]]></style>
</defs>
<g clip-path="url(#c0_128)">
<path d="M-4.2,623.6c0,0,-4.4,0,-4.4,4.4v25.9c0,0,0,4.4,4.4,4.4H21.7c0,0,4.3,0,4.3,-4.4V628c0,0,0,-4.4,-4.3,-4.4Z" class="g0_128" />
<path d="M-2.8,44.1c0,0,-4.4,0,-4.4,4.5V238.5c0,0,0,4.5,4.4,4.5h26c0,0,4.4,0,4.4,-4.5V48.6c0,0,0,-4.5,-4.4,-4.5Z" class="g1_128" />
<path d="M-2.8,44.1c0,0,-4.4,0,-4.4,4.5V238.5c0,0,0,4.5,4.4,4.5h26c0,0,4.4,0,4.4,-4.5V48.6c0,0,0,-4.5,-4.4,-4.5h-26Z" class="g2_128" />
</g>
<path d="M43.7,236.8V119.9m-.4,-.4H368.1m-.4,117.3V119.9m-324,145V237.5m-.4,-.4H368.1m-.4,27.8V237.5m-324,79.6V264.9m0,238.9V317.1m0,251.1V503.8m324,-186.7V264.9m0,238.9V317.1m0,251.1V503.8m-324,104V568.2m324,39.6V568.2m-324.4,40H368.1" class="g3_128" />
</svg>