<?xml version="1.0" encoding="UTF-8" standalone="no"?>
<!DOCTYPE svg PUBLIC "-//W3C//DTD SVG 1.1//EN"
"http://www.w3.org/Graphics/SVG/1.1/DTD/svg11.dtd">
<svg viewBox="0 0 433 649" version="1.1" xmlns="http://www.w3.org/2000/svg" xmlns:xlink="http://www.w3.org/1999/xlink">
<defs>
<clipPath id="c0_69"><path d="M0,649.6V0H433V649.6Z" /></clipPath>
<style type="text/css"><![CDATA[
.g0_69{
fill: #FFFFFF;
}
.g1_69{
fill: none;
stroke: #9C649E;
stroke-width: 1.5277778;
stroke-linecap: butt;
stroke-linejoin: miter;
stroke-miterlimit: 4;
}
.g2_69{
fill: #9C649E;
}
.g3_69{
fill: none;
stroke: #9C649E;
stroke-width: 0.77916664;
stroke-linecap: butt;
stroke-linejoin: miter;
}
]]></style>
</defs>
<g clip-path="url(#c0_69)">
<path d="M410.5,44.1c0,0,-4.4,0,-4.4,4.5V238.5c0,0,0,4.5,4.4,4.5h26.1c0,0,4.4,0,4.4,-4.5V48.6c0,0,0,-4.5,-4.4,-4.5Z" class="g0_69" />
<path d="M410.5,44.1c0,0,-4.4,0,-4.4,4.5V238.5c0,0,0,4.5,4.4,4.5h26.1c0,0,4.4,0,4.4,-4.5V48.6c0,0,0,-4.5,-4.4,-4.5H410.5Z" class="g1_69" />
<path d="M411.4,623.6c0,0,-4.3,0,-4.3,4.4v25.9c0,0,0,4.4,4.3,4.4h26c0,0,4.3,0,4.3,-4.4V628c0,0,0,-4.4,-4.3,-4.4Z" class="g2_69" />
</g>
<path d="M65.3,83.2H389.4V61.5H65.3V83.2Z" class="g2_69" />
<path d="M65.4,82.8V61.9M65,61.5H389.8m-.4,21.3V61.9m-324,88.9V83.6m0,159.6V151.6m0,135.1V244M65,83.2H172.4M65,151.2H172.4M65,243.6H172.4M65,287.1H172.4m0,-136.3V83.6m0,159.6V151.6m0,135.1V244m0,-160.8H389.8m-.4,67.6V83.6m0,159.6V151.6m0,135.1V244m-217,-92.8H389.8M172.4,243.6H389.8M172.4,287.1H389.8" class="g3_69" />
</svg>