<?xml version="1.0" encoding="UTF-8" standalone="no"?>
<!DOCTYPE svg PUBLIC "-//W3C//DTD SVG 1.1//EN"
"http://www.w3.org/Graphics/SVG/1.1/DTD/svg11.dtd">
<svg viewBox="0 0 433 649" version="1.1" xmlns="http://www.w3.org/2000/svg" xmlns:xlink="http://www.w3.org/1999/xlink">
<defs>
<clipPath id="c0_29"><path d="M0,649.6V0H433V649.6Z" /></clipPath>
<style type="text/css"><![CDATA[
.g0_29{
fill: #FFFFFF;
}
.g1_29{
fill: none;
stroke: #9C649E;
stroke-width: 1.5277778;
stroke-linecap: butt;
stroke-linejoin: miter;
stroke-miterlimit: 4;
}
.g2_29{
fill: #9C649E;
}
.g3_29{
fill: #F0E9F1;
}
.g4_29{
fill: none;
stroke: #9C649E;
stroke-width: 0.77916664;
stroke-linecap: butt;
stroke-linejoin: miter;
}
]]></style>
</defs>
<g clip-path="url(#c0_29)">
<path d="M410.5,44.1c0,0,-4.4,0,-4.4,4.5V238.5c0,0,0,4.5,4.4,4.5h26.1c0,0,4.4,0,4.4,-4.5V48.6c0,0,0,-4.5,-4.4,-4.5Z" class="g0_29" />
<path d="M410.5,44.1c0,0,-4.4,0,-4.4,4.5V238.5c0,0,0,4.5,4.4,4.5h26.1c0,0,4.4,0,4.4,-4.5V48.6c0,0,0,-4.5,-4.4,-4.5H410.5Z" class="g1_29" />
<path d="M411.4,623.6c0,0,-4.3,0,-4.3,4.4v25.9c0,0,0,4.4,4.3,4.4h26c0,0,4.3,0,4.3,-4.4V628c0,0,0,-4.4,-4.3,-4.4Z" class="g2_29" />
</g>
<path d="M65.3,168.4H389.4V152.9H65.3v15.5Z" class="g3_29" />
<path d="M65.3,480.2H389.4V464.7H65.3v15.5Z" class="g0_29" />
<path d="M65.4,152.5V44.1M65,43.7H389.8M165.9,152.5V44.1M273.3,152.5V44.1M389.4,152.5V44.1M65.4,168V153.3m-.4,-.4H389.8m-.4,15.1V153.3m-324,74.8V168.8m0,148.2V228.9m0,140.3V317.8M65,168.4H389.8M165.9,228.1V168.8m107.4,59.3V168.8m116.1,59.3V168.8M165.9,317V228.9M273.3,317V228.9M389.4,317V228.9M165.9,369.2V317.8m107.4,51.4V317.8m116.1,51.4V317.8M65,228.5H389.8M65,317.4H389.8M65.4,464.3V370m-.4,-.4H389.8M165.9,464.3V370m107.4,94.3V370m116.1,94.3V370M65.4,479.8V465.1m-.4,-.4H389.8m-.4,15.1V465.1m-324,42.5v-27m-.4,-.4H165.9m0,27.4v-27m0,-.4H389.8M273.3,508V480.6M389.4,508V480.6M273.3,523.5V508m116.1,15.5V508M273.3,563.5v-40m116.1,40v-40M273.3,591.3V563.5m116.1,27.8V563.5M273.3,606.4V591.3m116.1,15.1V591.3M65.4,523.1V508.4m0,54.7V523.9m0,67v-27M65,508H166.3M65,523.5H166.3M65,563.5H166.3m-.4,-40.4V508.4m0,54.7V523.9m0,67v-27M65.4,606.4V591.6m-.4,-.3H166.3m-.4,15.1V591.6M65,606.8H389.8" class="g4_29" />
</svg>