<?xml version="1.0" encoding="UTF-8" standalone="no"?>
<!DOCTYPE svg PUBLIC "-//W3C//DTD SVG 1.1//EN"
"http://www.w3.org/Graphics/SVG/1.1/DTD/svg11.dtd">
<svg viewBox="0 0 433 649" version="1.1" xmlns="http://www.w3.org/2000/svg" xmlns:xlink="http://www.w3.org/1999/xlink">
<defs>
<clipPath id="c0_60"><path d="M0,649.6V0H433V649.6Z" /></clipPath>
<style type="text/css"><![CDATA[
.g0_60{
fill: #9C649E;
}
.g1_60{
fill: #FFFFFF;
}
.g2_60{
fill: none;
stroke: #9C649E;
stroke-width: 1.5277778;
stroke-linecap: butt;
stroke-linejoin: miter;
stroke-miterlimit: 4;
}
.g3_60{
fill: none;
stroke: #9C649E;
stroke-width: 0.77916664;
stroke-linecap: butt;
stroke-linejoin: miter;
}
]]></style>
</defs>
<g clip-path="url(#c0_60)">
<path d="M-4.2,623.6c0,0,-4.4,0,-4.4,4.4v25.9c0,0,0,4.4,4.4,4.4H21.7c0,0,4.3,0,4.3,-4.4V628c0,0,0,-4.4,-4.3,-4.4Z" class="g0_60" />
<path d="M-2.8,44.1c0,0,-4.4,0,-4.4,4.5V238.5c0,0,0,4.5,4.4,4.5h26c0,0,4.4,0,4.4,-4.5V48.6c0,0,0,-4.5,-4.4,-4.5Z" class="g1_60" />
<path d="M-2.8,44.1c0,0,-4.4,0,-4.4,4.5V238.5c0,0,0,4.5,4.4,4.5h26c0,0,4.4,0,4.4,-4.5V48.6c0,0,0,-4.5,-4.4,-4.5h-26Z" class="g2_60" />
</g>
<path d="M43.7,159.3h324V137.7H43.7v21.6Z" class="g0_60" />
<path d="M43.7,158.9V138.1m-.4,-.4H368.1m-.4,21.2V138.1M43.7,316.3V159.7m-.4,-.4H368.1M123,316.3V159.7M367.7,316.3V159.7M43.7,344V317m-.4,-.4H123m0,27.4V317m0,-.4H368.1m-.4,27.4V317M43.7,445.5V344.8m0,120.4V445.5M43.3,344.4H123m0,100.7V344.8m0,-.4H368.1M197.5,445.1V344.8M367.7,445.1V344.8M123,465.2V445.9m-.4,-.4H368.1M197.5,465.2V445.9m170.2,19.3V445.9m-324,34.9V466m-.4,-.4H368.1M123,480.8V466m74.5,14.8V466m170.2,14.8V466M43.3,481.2H368.1" class="g3_60" />
</svg>