<?xml version="1.0" encoding="UTF-8" standalone="no"?>
<!DOCTYPE svg PUBLIC "-//W3C//DTD SVG 1.1//EN"
"http://www.w3.org/Graphics/SVG/1.1/DTD/svg11.dtd">
<svg viewBox="0 0 433 649" version="1.1" xmlns="http://www.w3.org/2000/svg" xmlns:xlink="http://www.w3.org/1999/xlink">
<defs>
<clipPath id="c0_229"><path d="M0,649.6V0H433V649.6Z" /></clipPath>
<style type="text/css"><![CDATA[
.g0_229{
fill: #FFFFFF;
}
.g1_229{
fill: none;
stroke: #9C649E;
stroke-width: 1.5277778;
stroke-linecap: butt;
stroke-linejoin: miter;
stroke-miterlimit: 4;
}
.g2_229{
fill: #9C649E;
}
.g3_229{
fill: none;
stroke: #9C649E;
stroke-width: 0.77916664;
stroke-linecap: butt;
stroke-linejoin: miter;
stroke-miterlimit: 4;
}
]]></style>
</defs>
<g clip-path="url(#c0_229)">
<path d="M410.5,44.1c0,0,-4.4,0,-4.4,4.5V238.5c0,0,0,4.5,4.4,4.5h26.1c0,0,4.4,0,4.4,-4.5V48.6c0,0,0,-4.5,-4.4,-4.5Z" class="g0_229" />
<path d="M410.5,44.1c0,0,-4.4,0,-4.4,4.5V238.5c0,0,0,4.5,4.4,4.5h26.1c0,0,4.4,0,4.4,-4.5V48.6c0,0,0,-4.5,-4.4,-4.5H410.5Z" class="g1_229" />
<path d="M411.4,623.6c0,0,-4.3,0,-4.3,4.4v25.9c0,0,0,4.4,4.3,4.4h26c0,0,4.3,0,4.3,-4.4V628c0,0,0,-4.4,-4.3,-4.4Z" class="g2_229" />
</g>
<path d="M242.9,130.1H389.4V113.5H242.9v16.6ZM142.8,104.7H294.9V86.4H142.8v18.3Zm0,65.8H294.9V139H142.8v31.5Zm0,63.8H294.9V184.8H142.8v49.5ZM65.3,313.9H168.6V280.3H65.3v33.6Zm10.6,68.5h90.6V348.8H75.9v33.6Zm194.7,0H373.9V348.8H270.6v33.6ZM75.9,412.6h90.6V394.2H75.9v18.4Zm0,38h90.6V424.4H75.9v26.2ZM65.3,605.9H181.1V460.5H65.3V605.9ZM188.9,494.4H389.4V460.5H188.9v33.9Zm0,24.9H389.4V499.8H188.9v19.5Zm.3,86.6H271V527.4H189.2v78.5Zm85.8,0H389.4V527.4H275v78.5ZM308.8,411.6h64.1V394.2H308.8v17.4Zm-.1,32h64.2V424.4H308.7v19.2Zm-132.2,-31h56.1V394.2H176.5v18.4Zm66.1,0h56.2V394.2H242.6v18.4Zm-5.3,-80.9H389.4V280.3H237.3v51.4Zm-18.5,-227v33.6M213.9,133l4.9,5.3l5,-5.3m-5,-8.6h23.8m-5.4,4.9l5.4,-4.9l-5.4,-4.9m-18.4,51.4v13.6m-4.9,-5.3l4.9,5.3l5,-5.3M121.2,314.3v33.5m-4.9,-5.3l4.9,5.3l4.9,-5.3m-4.9,39.4v11.3m-4.9,-5.3l4.9,5.3l4.9,-5.3M121.2,413v11.4M116.3,419l4.9,5.4l4.9,-5.4M340,412.1v12.3M335,419l5,5.4l4.9,-5.4m-178,-14.8h8.6m-5.3,4.9l5.3,-4.9l-5.3,-5m203.1,35.1h11.2V331.9m5,5.3l-5,-5.3l-4.9,5.3M76.1,434.3H70.2V314.8m-5,5.3l5,-5.3l4.9,5.3m233.3,84.1h-8.7m5.4,-5l-5.4,5l5.4,4.9M233,404.2l23.6,-66.7m2.9,6.6l-2.9,-6.6l-6.5,3.3m-7.9,61.9L181,318.4m7.1,1.4L181,318.4l-.9,7.2m14,-90.9v62.4H169.5m5.4,-5l-5.4,5l5.4,4.9m67.6,-67.3v7.7m-4.9,-5.3l4.9,5.3l5,-5.3" class="g3_229" />
<path d="M173.7,261.8h39.2V243.4H173.7v18.4Z" class="g0_229" />
<path d="M173.7,261.8h39.2V243.4H173.7v18.4Z" class="g3_229" />
<path d="M224.8,261.8H264V243.4H224.8v18.4Z" class="g0_229" />
<path d="M224.8,261.8H264V243.4H224.8v18.4Z" class="g3_229" />
</svg>