<?xml version="1.0" encoding="UTF-8" standalone="no"?>
<!DOCTYPE svg PUBLIC "-//W3C//DTD SVG 1.1//EN"
"http://www.w3.org/Graphics/SVG/1.1/DTD/svg11.dtd">
<svg viewBox="0 0 433 649" version="1.1" xmlns="http://www.w3.org/2000/svg" xmlns:xlink="http://www.w3.org/1999/xlink">
<defs>
<clipPath id="c0_7"><path d="M0,649.6V0H433V649.6Z" /></clipPath>
<style type="text/css"><![CDATA[
.g0_7{
fill: #FFFFFF;
}
.g1_7{
fill: none;
stroke: #9C649E;
stroke-width: 1.5277778;
stroke-linecap: butt;
stroke-linejoin: miter;
stroke-miterlimit: 4;
}
.g2_7{
fill: #9C649E;
}
.g3_7{
fill: none;
stroke: #9C649E;
stroke-width: 0.77916664;
stroke-linecap: butt;
stroke-linejoin: miter;
stroke-miterlimit: 4;
}
.g4_7{
fill: #F6F2F7;
}
.g5_7{
fill: #F0E9F1;
}
.g6_7{
fill: #E4D8E6;
}
.g7_7{
fill: none;
stroke: #9C649E;
stroke-width: 0.77916664;
stroke-linecap: butt;
stroke-linejoin: miter;
}
]]></style>
</defs>
<g clip-path="url(#c0_7)">
<path d="M410.5,44.1c0,0,-4.4,0,-4.4,4.5V238.5c0,0,0,4.5,4.4,4.5h26.1c0,0,4.4,0,4.4,-4.5V48.6c0,0,0,-4.5,-4.4,-4.5Z" class="g0_7" />
<path d="M410.5,44.1c0,0,-4.4,0,-4.4,4.5V238.5c0,0,0,4.5,4.4,4.5h26.1c0,0,4.4,0,4.4,-4.5V48.6c0,0,0,-4.5,-4.4,-4.5H410.5Z" class="g1_7" />
<path d="M411.4,623.6c0,0,-4.3,0,-4.3,4.4v25.9c0,0,0,4.4,4.3,4.4h26c0,0,4.3,0,4.3,-4.4V628c0,0,0,-4.4,-4.3,-4.4Z" class="g2_7" />
</g>
<path d="M65.3,333.3H389.4V81.7H65.3V333.3Z" class="g3_7" />
<path d="M65.3,357.9H322.7v21.7H65.3V357.9Zm257.4,0h66.7v21.7H322.7V357.9Z" class="g2_7" />
<path d="M65.3,472.8H389.4V457.3H65.3v15.5Z" class="g4_7" />
<path d="M65.3,488.3H389.4V472.8H65.3v15.5Z" class="g5_7" />
<path d="M65.3,503.9H389.4V488.3H65.3v15.6Z" class="g6_7" />
<path d="M65,472.8H389.8M65,488.3H389.8M65,457.3H389.8M65.4,379.2V358.3m-.4,-.4H322.7m0,21.3V358.3m0,-.4h67.1m-.4,21.3V358.3m-324,36.4V380m0,30.3V395.5m0,30.3V411m0,30.3V426.6m-.4,-47H322.7M65,395.1H322.7M65,410.6H322.7M65,426.2H322.7m0,-31.5V380m0,30.3V395.5m0,30.3V411m0,30.3V426.6m0,-47h67.1m-.4,15.1V380m0,30.3V395.5m0,30.3V411m0,30.3V426.6M322.7,395.1h67.1m-67.1,15.5h67.1m-67.1,15.6h67.1M65.4,456.9V442.1m-.4,-.4H322.7m0,15.2V442.1m0,-.4h67.1m-.4,15.2V442.1m-324,30.3V457.6m324,14.8V457.6m-324,30.3V473.2m324,14.7V473.2m-324,30.3V488.7M65,503.9H389.8m-.4,-.4V488.7" class="g7_7" />
</svg>