<?xml version="1.0" encoding="UTF-8" standalone="no"?>
<!DOCTYPE svg PUBLIC "-//W3C//DTD SVG 1.1//EN"
"http://www.w3.org/Graphics/SVG/1.1/DTD/svg11.dtd">
<svg viewBox="0 0 433 649" version="1.1" xmlns="http://www.w3.org/2000/svg" xmlns:xlink="http://www.w3.org/1999/xlink">
<defs>
<clipPath id="c0_101"><path d="M0,649.6V0H433V649.6Z" /></clipPath>
<style type="text/css"><![CDATA[
.g0_101{
fill: #FFFFFF;
}
.g1_101{
fill: none;
stroke: #9C649E;
stroke-width: 1.5277778;
stroke-linecap: butt;
stroke-linejoin: miter;
stroke-miterlimit: 4;
}
.g2_101{
fill: #9C649E;
}
.g3_101{
fill: none;
stroke: #231F20;
stroke-width: 0.3804167;
stroke-linecap: butt;
stroke-linejoin: miter;
}
.g4_101{
fill: none;
stroke: #FFFFFF;
stroke-width: 0.77916664;
stroke-linecap: butt;
stroke-linejoin: miter;
}
.g5_101{
fill: none;
stroke: #9C649E;
stroke-width: 0.77916664;
stroke-linecap: butt;
stroke-linejoin: miter;
}
]]></style>
</defs>
<g clip-path="url(#c0_101)">
<path d="M410.5,44.1c0,0,-4.4,0,-4.4,4.5V238.5c0,0,0,4.5,4.4,4.5h26.1c0,0,4.4,0,4.4,-4.5V48.6c0,0,0,-4.5,-4.4,-4.5Z" class="g0_101" />
<path d="M410.5,44.1c0,0,-4.4,0,-4.4,4.5V238.5c0,0,0,4.5,4.4,4.5h26.1c0,0,4.4,0,4.4,-4.5V48.6c0,0,0,-4.5,-4.4,-4.5H410.5Z" class="g1_101" />
<path d="M411.4,623.6c0,0,-4.3,0,-4.3,4.4v25.9c0,0,0,4.4,4.3,4.4h26c0,0,4.3,0,4.3,-4.4V628c0,0,0,-4.4,-4.3,-4.4Z" class="g2_101" />
</g>
<path d="M65,356.7H77.3" class="g3_101" />
<path d="M65.3,129.1h127v15.6H65.3V129.1Zm127,0H298v15.6H192.3V129.1Zm105.7,0h91.4v15.6H298V129.1Z" class="g2_101" />
<path d="M192.3,144.3V129.5M298,144.3V129.5" class="g4_101" />
<path d="M65.4,144.3V129.5m-.4,-.4H389.8m-.4,15.2V129.5M65.4,318.7V145.1m-.4,-.4H389.8m-197.5,174V145.1M298,318.7V145.1m91.4,173.6V145.1M65,319.1H389.8" class="g5_101" />
</svg>