<?xml version="1.0" encoding="UTF-8" standalone="no"?>
<!DOCTYPE svg PUBLIC "-//W3C//DTD SVG 1.1//EN"
"http://www.w3.org/Graphics/SVG/1.1/DTD/svg11.dtd">
<svg viewBox="0 0 433 649" version="1.1" xmlns="http://www.w3.org/2000/svg" xmlns:xlink="http://www.w3.org/1999/xlink">
<defs>
<clipPath id="c0_179"><path d="M0,649.6V0H433V649.6Z" /></clipPath>
<style type="text/css"><![CDATA[
.g0_179{
fill: #FFFFFF;
}
.g1_179{
fill: none;
stroke: #9C649E;
stroke-width: 1.5277778;
stroke-linecap: butt;
stroke-linejoin: miter;
stroke-miterlimit: 4;
}
.g2_179{
fill: #9C649E;
}
.g3_179{
fill: none;
stroke: #9C649E;
stroke-width: 0.77916664;
stroke-linecap: butt;
stroke-linejoin: miter;
}
]]></style>
</defs>
<g clip-path="url(#c0_179)">
<path d="M410.5,44.1c0,0,-4.4,0,-4.4,4.5V238.5c0,0,0,4.5,4.4,4.5h26.1c0,0,4.4,0,4.4,-4.5V48.6c0,0,0,-4.5,-4.4,-4.5Z" class="g0_179" />
<path d="M410.5,44.1c0,0,-4.4,0,-4.4,4.5V238.5c0,0,0,4.5,4.4,4.5h26.1c0,0,4.4,0,4.4,-4.5V48.6c0,0,0,-4.5,-4.4,-4.5H410.5Z" class="g1_179" />
<path d="M411.4,623.6c0,0,-4.3,0,-4.3,4.4v25.9c0,0,0,4.4,4.3,4.4h26c0,0,4.3,0,4.3,-4.4V628c0,0,0,-4.4,-4.3,-4.4Z" class="g2_179" />
</g>
<path d="M65.3,353.1H227.4v21.6H65.3V353.1Zm172.9,0H389.4v21.6H238.2V353.1Z" class="g2_179" />
<path d="M65.4,374.3V353.5m-.4,-.4H227.8m-.4,21.2V353.5m10.8,20.8V353.5m-.4,-.4h152m-.4,21.2V353.5m-324,36.4V375.1m0,30.3V390.7m0,30.3V406.2m0,30.3V421.7m0,42.5V437.3m0,42.5V465m0,30.3V480.6m0,54.7V496.1M65,374.7H178.5M65,390.3H178.5M65,405.8H178.5M65,421.3H178.5M65,436.9H178.5M65,464.6H178.5M65,480.2H178.5M65,495.7H178.5m0,-105.8V375.1m0,30.3V390.7m0,30.3V406.2m0,30.3V421.7m0,42.5V437.3m0,42.5V465m0,30.3V480.6m0,54.7V496.1m0,-121.4h49.3m-49.3,15.6h49.3m-49.3,15.5h49.3m-49.3,15.5h49.3m-49.3,15.6h49.3m-49.3,27.7h49.3m-49.3,15.6h49.3m-49.3,15.5h49.3m-.4,-105.8V375.1m0,30.3V390.7m0,30.3V406.2m0,30.3V421.7m0,42.5V437.3m0,42.5V465m0,30.3V480.6m0,54.7V496.1M238.2,389.9V375.1m0,30.3V390.7m0,30.3V406.2m0,30.3V421.7m0,42.5V437.3m0,42.5V465m0,30.3V480.6m0,54.7V496.1m-.4,-121.4H343.9M237.8,390.3H343.9M237.8,405.8H343.9M237.8,421.3H343.9M237.8,436.9H343.9M237.8,464.6H343.9M237.8,480.2H343.9M237.8,495.7H343.9m0,-105.8V375.1m0,30.3V390.7m0,30.3V406.2m0,30.3V421.7m0,42.5V437.3m0,42.5V465m0,30.3V480.6m0,54.7V496.1m0,-121.4h45.9m-.4,15.2V375.1m0,30.3V390.7m0,30.3V406.2m0,30.3V421.7m0,42.5V437.3m0,42.5V465m0,30.3V480.6m0,54.7V496.1M343.9,390.3h45.9m-45.9,15.5h45.9m-45.9,15.5h45.9m-45.9,15.6h45.9m-45.9,27.7h45.9m-45.9,15.6h45.9m-45.9,15.5h45.9M65.4,550.8V536.1m-.4,-.4H178.5m0,15.1V536.1m0,-.4h49.3m-.4,15.1V536.1m10.8,14.7V536.1m-.4,-.4H343.9m0,15.1V536.1m0,-.4h45.9m-.4,15.1V536.1m-324,42.5v-27m-.4,-.4H178.5M65,579H227.4M178.5,551.2h49.3m-.4,27.4v-27m0,27.4h10.8m0,-.4v-27m-.4,-.4H343.9M238.2,579H343.9m0,-.4v-27m0,-.4h45.9m-.4,27.4v-27M343.9,579h45.9" class="g3_179" />
</svg>