<?xml version="1.0" encoding="UTF-8" standalone="no"?>
<!DOCTYPE svg PUBLIC "-//W3C//DTD SVG 1.1//EN"
"http://www.w3.org/Graphics/SVG/1.1/DTD/svg11.dtd">
<svg viewBox="0 0 433 649" version="1.1" xmlns="http://www.w3.org/2000/svg" xmlns:xlink="http://www.w3.org/1999/xlink">
<defs>
<clipPath id="c0_61"><path d="M0,649.6V0H433V649.6Z" /></clipPath>
<style type="text/css"><![CDATA[
.g0_61{
fill: #FFFFFF;
}
.g1_61{
fill: none;
stroke: #9C649E;
stroke-width: 1.5277778;
stroke-linecap: butt;
stroke-linejoin: miter;
stroke-miterlimit: 4;
}
.g2_61{
fill: #9C649E;
}
.g3_61{
fill: none;
stroke: #9C649E;
stroke-width: 0.77916664;
stroke-linecap: butt;
stroke-linejoin: miter;
}
]]></style>
</defs>
<g clip-path="url(#c0_61)">
<path d="M410.5,44.1c0,0,-4.4,0,-4.4,4.5V238.5c0,0,0,4.5,4.4,4.5h26.1c0,0,4.4,0,4.4,-4.5V48.6c0,0,0,-4.5,-4.4,-4.5Z" class="g0_61" />
<path d="M410.5,44.1c0,0,-4.4,0,-4.4,4.5V238.5c0,0,0,4.5,4.4,4.5h26.1c0,0,4.4,0,4.4,-4.5V48.6c0,0,0,-4.5,-4.4,-4.5H410.5Z" class="g1_61" />
<path d="M411.4,623.6c0,0,-4.3,0,-4.3,4.4v25.9c0,0,0,4.4,4.3,4.4h26c0,0,4.3,0,4.3,-4.4V628c0,0,0,-4.4,-4.3,-4.4Z" class="g2_61" />
</g>
<path d="M65.3,327H389.4V305.3H65.3V327Z" class="g2_61" />
<path d="M65.4,326.6V305.7m-.4,-.4h91.8m0,0h233m-.4,21.3V305.7m-324,48.7v-27m0,42.5V355.1M65,327h91.8M65,354.8h91.8m0,-.4v-27m0,42.5V355.1m0,-28.1h233m-.4,27.4v-27m0,42.5V355.1m-232.6,-.3h233M65.4,446.6V370.7m-.4,-.4h91.8m0,76.3V370.7m0,-.4h233m-.4,76.3V370.7M65.4,605.5V447.3m-.4,-.4h91.8M65,605.9h91.8m0,-.4V447.3m0,-.4h233m-.4,158.6V447.3M156.8,605.9h233" class="g3_61" />
</svg>