<?xml version="1.0" encoding="UTF-8" standalone="no"?>
<!DOCTYPE svg PUBLIC "-//W3C//DTD SVG 1.1//EN"
"http://www.w3.org/Graphics/SVG/1.1/DTD/svg11.dtd">
<svg viewBox="0 0 433 649" version="1.1" xmlns="http://www.w3.org/2000/svg" xmlns:xlink="http://www.w3.org/1999/xlink">
<defs>
<clipPath id="c0_35"><path d="M0,649.6V0H433V649.6Z" /></clipPath>
<style type="text/css"><![CDATA[
.g0_35{
fill: #FFFFFF;
}
.g1_35{
fill: none;
stroke: #9C649E;
stroke-width: 1.5277778;
stroke-linecap: butt;
stroke-linejoin: miter;
stroke-miterlimit: 4;
}
.g2_35{
fill: #9C649E;
}
.g3_35{
fill: none;
stroke: #231F20;
stroke-width: 0.6080556;
stroke-linecap: butt;
stroke-linejoin: miter;
}
.g4_35{
fill: #F0E9F1;
}
.g5_35{
fill: none;
stroke: #FFFFFF;
stroke-width: 0.77916664;
stroke-linecap: butt;
stroke-linejoin: miter;
}
.g6_35{
fill: none;
stroke: #9C649E;
stroke-width: 0.77916664;
stroke-linecap: butt;
stroke-linejoin: miter;
}
]]></style>
</defs>
<g clip-path="url(#c0_35)">
<path d="M410.5,44.1c0,0,-4.4,0,-4.4,4.5V238.5c0,0,0,4.5,4.4,4.5h26.1c0,0,4.4,0,4.4,-4.5V48.6c0,0,0,-4.5,-4.4,-4.5Z" class="g0_35" />
<path d="M410.5,44.1c0,0,-4.4,0,-4.4,4.5V238.5c0,0,0,4.5,4.4,4.5h26.1c0,0,4.4,0,4.4,-4.5V48.6c0,0,0,-4.5,-4.4,-4.5H410.5Z" class="g1_35" />
<path d="M411.4,623.6c0,0,-4.3,0,-4.3,4.4v25.9c0,0,0,4.4,4.3,4.4h26c0,0,4.3,0,4.3,-4.4V628c0,0,0,-4.4,-4.3,-4.4Z" class="g2_35" />
</g>
<path d="M71.6,501.3H281.2" class="g3_35" />
<path d="M147.3,179.3h80.1V201H147.3V179.3Zm80.1,0h162V201h-162V179.3Z" class="g2_35" />
<path d="M65.3,201h82v64.4h-82V201Zm0,64.4h82V403.3h-82V265.4Z" class="g4_35" />
<path d="M227.4,200.6V179.7" class="g5_35" />
<path d="M147.3,200.6V179.7m-.4,-.4H389.8m-.4,21.3V179.7M65.3,265V201.3M65,201h82.3m0,64V201.3m0,-.3h80.1m0,64V201.3m0,-.3H389.8m-.4,64V201.3M65.3,402.9V265.8m-.3,-.4h82.3M65,403.3h82.3m0,-.4V265.8m0,-.4h80.1M147.3,403.3h80.1m0,-.4V265.8m0,-.4H389.8m-.4,137.5V265.8m-162,137.5H389.8" class="g6_35" />
</svg>