<?xml version="1.0" encoding="UTF-8" standalone="no"?>
<!DOCTYPE svg PUBLIC "-//W3C//DTD SVG 1.1//EN"
"http://www.w3.org/Graphics/SVG/1.1/DTD/svg11.dtd">
<svg viewBox="0 0 433 649" version="1.1" xmlns="http://www.w3.org/2000/svg" xmlns:xlink="http://www.w3.org/1999/xlink">
<defs>
<clipPath id="c0_132"><path d="M0,649.6V0H433V649.6Z" /></clipPath>
<style type="text/css"><![CDATA[
.g0_132{
fill: #9C649E;
}
.g1_132{
fill: #FFFFFF;
}
.g2_132{
fill: none;
stroke: #9C649E;
stroke-width: 1.5277778;
stroke-linecap: butt;
stroke-linejoin: miter;
stroke-miterlimit: 4;
}
.g3_132{
fill: none;
stroke: #FFFFFF;
stroke-width: 0.77916664;
stroke-linecap: butt;
stroke-linejoin: miter;
}
.g4_132{
fill: none;
stroke: #9C649E;
stroke-width: 0.77916664;
stroke-linecap: butt;
stroke-linejoin: miter;
}
]]></style>
</defs>
<g clip-path="url(#c0_132)">
<path d="M-4.2,623.6c0,0,-4.4,0,-4.4,4.4v25.9c0,0,0,4.4,4.4,4.4H21.7c0,0,4.3,0,4.3,-4.4V628c0,0,0,-4.4,-4.3,-4.4Z" class="g0_132" />
<path d="M-2.8,44.1c0,0,-4.4,0,-4.4,4.5V238.5c0,0,0,4.5,4.4,4.5h26c0,0,4.4,0,4.4,-4.5V48.6c0,0,0,-4.5,-4.4,-4.5Z" class="g1_132" />
<path d="M-2.8,44.1c0,0,-4.4,0,-4.4,4.5V238.5c0,0,0,4.5,4.4,4.5h26c0,0,4.4,0,4.4,-4.5V48.6c0,0,0,-4.5,-4.4,-4.5h-26Z" class="g2_132" />
</g>
<path d="M43.7,59h152V80.6H43.7V59Zm152,0H301.4V80.6H195.7V59Zm105.7,0h66.3V80.6H301.4V59Z" class="g0_132" />
<path d="M195.7,80.2V59.4M301.4,80.2V59.4" class="g3_132" />
<path d="M43.7,80.2V59.4M43.3,59H195.7m0,0H301.4m0,0h66.7m-.4,21.2V59.4M43.7,95.8V81m0,87.9V96.6m-.4,-16H195.7M43.3,96.2H195.7m0,72.7V96.6m0,-16H301.4m0,0h66.7m-.4,15.2V81m-66.3,87.9V96.6m66.3,72.3V96.6m-172,-.4H301.4m0,0h66.7M43.7,223.2V169.6m0,69.2V224m0,124.5v-109m-.4,-70.3H195.7m0,0H301.4m0,0h66.7m-227.8,54V169.6m55.4,53.6V169.6m105.7,53.6V169.6m66.3,53.6V169.6m0,69.2V224m-172,124.5v-109m105.7,109v-109m66.3,109v-109M43.3,223.6H195.7m0,0H301.4m0,0h66.7M43.3,239.2H195.7m0,0H301.4m0,0h66.7M43.3,348.9H195.7m0,0H301.4m0,0h66.7" class="g4_132" />
</svg>