<?xml version="1.0" encoding="UTF-8" standalone="no"?>
<!DOCTYPE svg PUBLIC "-//W3C//DTD SVG 1.1//EN"
"http://www.w3.org/Graphics/SVG/1.1/DTD/svg11.dtd">
<svg viewBox="0 0 433 649" version="1.1" xmlns="http://www.w3.org/2000/svg" xmlns:xlink="http://www.w3.org/1999/xlink">
<defs>
<clipPath id="c0_73"><path d="M0,649.6V0H433V649.6Z" /></clipPath>
<style type="text/css"><![CDATA[
.g0_73{
fill: #FFFFFF;
}
.g1_73{
fill: none;
stroke: #9C649E;
stroke-width: 1.5277778;
stroke-linecap: butt;
stroke-linejoin: miter;
stroke-miterlimit: 4;
}
.g2_73{
fill: #9C649E;
}
.g3_73{
fill: none;
stroke: #231F20;
stroke-width: 0.6080556;
stroke-linecap: butt;
stroke-linejoin: miter;
}
.g4_73{
fill: none;
stroke: #231F20;
stroke-width: 0.35444447;
stroke-linecap: butt;
stroke-linejoin: miter;
}
.g5_73{
fill: none;
stroke: #9C649E;
stroke-width: 0.77916664;
stroke-linecap: butt;
stroke-linejoin: miter;
}
]]></style>
</defs>
<g clip-path="url(#c0_73)">
<path d="M410.5,44.1c0,0,-4.4,0,-4.4,4.5V238.5c0,0,0,4.5,4.4,4.5h26.1c0,0,4.4,0,4.4,-4.5V48.6c0,0,0,-4.5,-4.4,-4.5Z" class="g0_73" />
<path d="M410.5,44.1c0,0,-4.4,0,-4.4,4.5V238.5c0,0,0,4.5,4.4,4.5h26.1c0,0,4.4,0,4.4,-4.5V48.6c0,0,0,-4.5,-4.4,-4.5H410.5Z" class="g1_73" />
<path d="M411.4,623.6c0,0,-4.3,0,-4.3,4.4v25.9c0,0,0,4.4,4.3,4.4h26c0,0,4.3,0,4.3,-4.4V628c0,0,0,-4.4,-4.3,-4.4Z" class="g2_73" />
</g>
<path d="M71.6,266.6H301.1" class="g3_73" />
<path d="M301.1,270.2h3.5m0,-8.2h2.2" class="g4_73" />
<path d="M306.8,266.6h4.1M80.3,500h90.4M80,563.3h86.7" class="g3_73" />
<path d="M65.3,65.4H389.4V43.7H65.3V65.4Z" class="g2_73" />
<path d="M65.4,65V44.1M65,43.7H389.8M389.4,65V44.1M65.4,96.4V65.7m0,58.6V97.2m0,55V125.1m0,55V153m0,55V180.8m0,55V208.7M65,65.4H177.6M65,96.8H177.6M65,124.7H177.6M65,152.6H177.6M65,180.5H177.6M65,208.3H177.6M65,236.2H177.6m0,-139.8V65.7m0,58.6V97.2m0,55V125.1m0,55V153m0,55V180.8m0,55V208.7m0,-143.4H389.8m-.4,31.1V65.7m0,58.6V97.2m0,55V125.1m0,55V153m0,55V180.8m0,55V208.7M177.6,96.8H389.8M177.6,124.7H389.8M177.6,152.6H389.8M177.6,180.5H389.8M177.6,208.3H389.8M177.6,236.2H389.8" class="g5_73" />
</svg>