<?xml version="1.0" encoding="UTF-8" standalone="no"?>
<!DOCTYPE svg PUBLIC "-//W3C//DTD SVG 1.1//EN"
"http://www.w3.org/Graphics/SVG/1.1/DTD/svg11.dtd">
<svg viewBox="0 0 433 649" version="1.1" xmlns="http://www.w3.org/2000/svg" xmlns:xlink="http://www.w3.org/1999/xlink">
<defs>
<clipPath id="c0_217"><path d="M0,649.6V0H433V649.6Z" /></clipPath>
<style type="text/css"><![CDATA[
.g0_217{
fill: #FFFFFF;
}
.g1_217{
fill: none;
stroke: #9C649E;
stroke-width: 1.5277778;
stroke-linecap: butt;
stroke-linejoin: miter;
stroke-miterlimit: 4;
}
.g2_217{
fill: #9C649E;
}
.g3_217{
fill: none;
stroke: #9C649E;
stroke-width: 0.77916664;
stroke-linecap: butt;
stroke-linejoin: miter;
}
.g4_217{
fill: none;
stroke: #231F20;
stroke-width: 0.4568056;
stroke-linecap: butt;
stroke-linejoin: miter;
}
]]></style>
</defs>
<g clip-path="url(#c0_217)">
<path d="M410.5,44.1c0,0,-4.4,0,-4.4,4.5V238.5c0,0,0,4.5,4.4,4.5h26.1c0,0,4.4,0,4.4,-4.5V48.6c0,0,0,-4.5,-4.4,-4.5Z" class="g0_217" />
<path d="M410.5,44.1c0,0,-4.4,0,-4.4,4.5V238.5c0,0,0,4.5,4.4,4.5h26.1c0,0,4.4,0,4.4,-4.5V48.6c0,0,0,-4.5,-4.4,-4.5H410.5Z" class="g1_217" />
<path d="M411.4,623.6c0,0,-4.3,0,-4.3,4.4v25.9c0,0,0,4.4,4.3,4.4h26c0,0,4.3,0,4.3,-4.4V628c0,0,0,-4.4,-4.3,-4.4Z" class="g2_217" />
</g>
<path d="M65.4,107.7V44.1m324,63.6V44.1M65.4,208.8V108.5m324,100.7V108.5m0,201.8V209.2m0,201.8V310.3m-324,-.4V209.6m0,201.4V310.7m0,213.6V411.8m324,112.5V411.8M65.4,564.3V525.1m324,39.2V525.1M65,43.7H201.8m-63.2,64V44.1m63.2,-.4h91.8m-91.8,64V44.1m91.8,-.4h96.2m-96.2,64V44.1M65,108.1H201.8M138.6,208.8V108.5m63.2,-.4h91.8M201.8,208.8V108.5m91.8,-.4h96.2M293.6,208.8V108.5M65,209.2H201.8M138.6,309.9V209.6m63.2,-.4H294M201.8,309.9V209.6m91.8,100.3V209.6M65,310.3H201.8M138.6,411V310.7m63.2,-.4H294M201.8,411V310.7M293.6,411V310.7M65,411.4H201.8M138.6,524.3V411.8m63.2,-.4h91.8M201.8,524.3V411.8m91.8,-.4h96.2M293.6,524.3V411.8M65,524.7H201.8m-63.2,39.6V525.1m63.2,-.4h91.8m-91.8,39.6V525.1m91.8,-.4h96.2m-96.2,39.6V525.1M65,564.7H389.8" class="g3_217" />
<path d="M328.2,203h43.3M301,227.4h38.7" class="g4_217" />
</svg>