<?xml version="1.0" encoding="UTF-8" standalone="no"?>
<!DOCTYPE svg PUBLIC "-//W3C//DTD SVG 1.1//EN"
"http://www.w3.org/Graphics/SVG/1.1/DTD/svg11.dtd">
<svg viewBox="0 0 433 649" version="1.1" xmlns="http://www.w3.org/2000/svg" xmlns:xlink="http://www.w3.org/1999/xlink">
<defs>
<clipPath id="c0_133"><path d="M0,649.6V0H433V649.6Z" /></clipPath>
<style type="text/css"><![CDATA[
.g0_133{
fill: #FFFFFF;
}
.g1_133{
fill: none;
stroke: #9C649E;
stroke-width: 1.5277778;
stroke-linecap: butt;
stroke-linejoin: miter;
stroke-miterlimit: 4;
}
.g2_133{
fill: #9C649E;
}
.g3_133{
fill: none;
stroke: #231F20;
stroke-width: 0.6080556;
stroke-linecap: butt;
stroke-linejoin: miter;
}
.g4_133{
fill: none;
stroke: #FFFFFF;
stroke-width: 0.7638889;
stroke-linecap: butt;
stroke-linejoin: miter;
}
.g5_133{
fill: none;
stroke: #9C649E;
stroke-width: 0.7638889;
stroke-linecap: butt;
stroke-linejoin: miter;
}
]]></style>
</defs>
<g clip-path="url(#c0_133)">
<path d="M410.5,44.1c0,0,-4.4,0,-4.4,4.5V238.5c0,0,0,4.5,4.4,4.5h26.1c0,0,4.4,0,4.4,-4.5V48.6c0,0,0,-4.5,-4.4,-4.5Z" class="g0_133" />
<path d="M410.5,44.1c0,0,-4.4,0,-4.4,4.5V238.5c0,0,0,4.5,4.4,4.5h26.1c0,0,4.4,0,4.4,-4.5V48.6c0,0,0,-4.5,-4.4,-4.5H410.5Z" class="g1_133" />
<path d="M411.4,623.6c0,0,-4.3,0,-4.3,4.4v25.9c0,0,0,4.4,4.3,4.4h26c0,0,4.3,0,4.3,-4.4V628c0,0,0,-4.4,-4.3,-4.4Z" class="g2_133" />
</g>
<path d="M300.5,519h24.6" class="g3_133" />
<path d="M65.3,179.5h81.1v30.1H65.3V179.5Zm81.1,0h81v30.1h-81V179.5Zm81,0h81v30.1h-81V179.5Zm81,0h81v30.1h-81V179.5Z" class="g2_133" />
<path d="M146.4,209.2V179.8m81,29.4V179.8m81,29.4V179.8" class="g4_133" />
<path d="M65.3,209.2V179.8m-.3,-.3H227.4m0,0H389.8m-.4,29.7V179.8M65.3,237V210m0,96.7V237.8m0,108.9V307.4m0,54.8V347.4M65,209.6H227.4m0,0H389.8M146.4,237V210m81,27V210m81,27V210m81,27V210m-243,96.7V237.8m81,68.9V237.8m81,68.9V237.8m81,68.9V237.8m-243,108.9V307.4m81,39.3V307.4m81,39.3V307.4m81,39.3V307.4m-243,54.8V347.4m81,14.8V347.4m81,14.8V347.4m81,14.8V347.4M65,237.4H227.4m0,0H389.8M65,307.1H227.4m0,0H389.8M65,347H227.4m0,0H389.8M65,362.6H227.4m0,0H389.8" class="g5_133" />
</svg>