<?xml version="1.0" encoding="UTF-8" standalone="no"?>
<!DOCTYPE svg PUBLIC "-//W3C//DTD SVG 1.1//EN"
"http://www.w3.org/Graphics/SVG/1.1/DTD/svg11.dtd">
<svg viewBox="0 0 433 649" version="1.1" xmlns="http://www.w3.org/2000/svg" xmlns:xlink="http://www.w3.org/1999/xlink">
<defs>
<clipPath id="c0_49"><path d="M0,649.6V0H433V649.6Z" /></clipPath>
<style type="text/css"><![CDATA[
.g0_49{
fill: #FFFFFF;
}
.g1_49{
fill: none;
stroke: #9C649E;
stroke-width: 1.5277778;
stroke-linecap: butt;
stroke-linejoin: miter;
stroke-miterlimit: 4;
}
.g2_49{
fill: #9C649E;
}
.g3_49{
fill: #F0E9F1;
}
.g4_49{
fill: none;
stroke: #9C649E;
stroke-width: 0.77916664;
stroke-linecap: butt;
stroke-linejoin: miter;
}
]]></style>
</defs>
<g clip-path="url(#c0_49)">
<path d="M410.5,44.1c0,0,-4.4,0,-4.4,4.5V238.5c0,0,0,4.5,4.4,4.5h26.1c0,0,4.4,0,4.4,-4.5V48.6c0,0,0,-4.5,-4.4,-4.5Z" class="g0_49" />
<path d="M410.5,44.1c0,0,-4.4,0,-4.4,4.5V238.5c0,0,0,4.5,4.4,4.5h26.1c0,0,4.4,0,4.4,-4.5V48.6c0,0,0,-4.5,-4.4,-4.5H410.5Z" class="g1_49" />
<path d="M411.4,623.6c0,0,-4.3,0,-4.3,4.4v25.9c0,0,0,4.4,4.3,4.4h26c0,0,4.3,0,4.3,-4.4V628c0,0,0,-4.4,-4.3,-4.4Z" class="g2_49" />
</g>
<path d="M65.3,294.2H389.4V272.6H65.3v21.6Z" class="g2_49" />
<path d="M65.3,294.2H177.6v30.6H65.3V294.2Zm0,30.6H177.6V435.7H65.3V324.8Zm0,110.9H177.6v34.6H65.3V435.7Zm0,34.6H177.6V505H65.3V470.3Zm0,34.7H177.6v34.6H65.3V505Zm0,34.6H177.6v34.7H65.3V539.6Zm0,34.7H177.6v31.6H65.3V574.3Z" class="g3_49" />
<path d="M65.4,294.2V273m-.4,-.4H389.8m-.4,21.6V273m-324,51.8V294.2m112.2,30.2V294.5m211.8,30.3V294.2m-324,50.9V324.8m0,42V345.1m0,41.6V366.8m0,41.1V386.7m0,49V407.9M177.6,345.1V325.2m0,41.6V345.1m0,41.6V366.8M389.4,345.1V324.8m0,42V345.1m0,41.6V366.8M177.6,407.9V386.7m211.8,21.2V386.7M177.6,435.3V407.9m211.8,27.8V407.9m-324,62V435.7m112.2,34.2V436.1m211.8,33.8V435.7m-324,68.9V470.7m0,68.5V505.4m0,68.5V540M65,470.3H177.6M65,505H177.6M65,539.6H177.6m0,-35V470.7m0,68.5V505.4m0,68.5V540m0,-69.7H389.8m-.4,34.3V470.7m0,68.5V505.4m0,68.5V540M177.6,505H389.8M177.6,539.6H389.8M65.4,605.5V574.6m-.4,-.3H177.6m0,31.2V574.6m0,-.3H389.8m-.4,31.2V574.6M65,605.9H389.8" class="g4_49" />
</svg>