<?xml version="1.0" encoding="UTF-8" standalone="no"?>
<!DOCTYPE svg PUBLIC "-//W3C//DTD SVG 1.1//EN"
"http://www.w3.org/Graphics/SVG/1.1/DTD/svg11.dtd">
<svg viewBox="0 0 433 649" version="1.1" xmlns="http://www.w3.org/2000/svg" xmlns:xlink="http://www.w3.org/1999/xlink">
<defs>
<clipPath id="c0_90"><path d="M0,649.6V0H433V649.6Z" /></clipPath>
<style type="text/css"><![CDATA[
.g0_90{
fill: #9C649E;
}
.g1_90{
fill: #FFFFFF;
}
.g2_90{
fill: none;
stroke: #9C649E;
stroke-width: 1.5277778;
stroke-linecap: butt;
stroke-linejoin: miter;
stroke-miterlimit: 4;
}
.g3_90{
fill: none;
stroke: #FFFFFF;
stroke-width: 0.77916664;
stroke-linecap: butt;
stroke-linejoin: miter;
}
.g4_90{
fill: none;
stroke: #9C649E;
stroke-width: 0.77916664;
stroke-linecap: butt;
stroke-linejoin: miter;
}
.g5_90{
fill: none;
stroke: #FFFFFF;
stroke-width: 0.4568056;
stroke-linecap: butt;
stroke-linejoin: miter;
}
.g6_90{
fill: none;
stroke: #231F20;
stroke-width: 0.4568056;
stroke-linecap: butt;
stroke-linejoin: miter;
}
]]></style>
</defs>
<g clip-path="url(#c0_90)">
<path d="M-4.2,623.6c0,0,-4.4,0,-4.4,4.4v25.9c0,0,0,4.4,4.4,4.4H21.7c0,0,4.3,0,4.3,-4.4V628c0,0,0,-4.4,-4.3,-4.4Z" class="g0_90" />
<path d="M-2.8,44.1c0,0,-4.4,0,-4.4,4.5V238.5c0,0,0,4.5,4.4,4.5h26c0,0,4.4,0,4.4,-4.5V48.6c0,0,0,-4.5,-4.4,-4.5Z" class="g1_90" />
<path d="M-2.8,44.1c0,0,-4.4,0,-4.4,4.5V238.5c0,0,0,4.5,4.4,4.5h26c0,0,4.4,0,4.4,-4.5V48.6c0,0,0,-4.5,-4.4,-4.5h-26Z" class="g2_90" />
</g>
<path d="M43.7,76.8h83.2v27.8H43.7V76.8Zm83.2,0H259.5v27.8H126.9V76.8Zm132.6,0H367v27.8H259.5V76.8Z" class="g0_90" />
<path d="M126.9,104.2v-27m132.6,27v-27" class="g3_90" />
<path d="M43.7,104.2v-27m-.4,-.4H367.4m-.4,27.4v-27M43.7,125.7V105m-.4,-.4H367.4M126.9,125.7V105m132.6,20.7V105M367,125.7V105M43.7,171.6V126.5m-.4,-.4h83.6m0,45.5V126.5m0,-.4H259.5m0,45.5V126.5m0,-.4H367.4m-.4,45.5V126.5m-323.3,61V172.4m0,42.9V187.5m0,47.1V215.3m0,49.8V234.6m0,57.8V265.1M43.3,172h83.6m0,15.1V172.4m0,-.4H259.5m0,15.1V172.4m0,-.4H367.4m-.4,15.5V172.4m0,42.9V187.5m0,47.1V215.3m0,49.8V234.6m0,57.8V265.1M43.3,292.8h83.6m0,-77.9v-27m0,46.3V215.7m0,49V235m0,57.4V265.5m-.3,-78H259.9M126.6,215.3H259.9M126.6,234.6H259.9M126.6,265.1H259.9m-133,27.7H259.5m0,-77.9v-27m0,46.3V215.7m0,49V235m0,57.4V265.5m0,27.3H367.4" class="g4_90" />
<path d="M64.8,95H85.2" class="g5_90" />
<path d="M43.7,435.1V322.5m-.4,-.4H205.7m0,113V322.5m0,-.4H368.1m-.4,113V322.5M43.7,475V435.8m-.4,-.3H205.7m0,39.5V435.8m0,-.3H368.1m-.4,39.9V435.8m0,88.1V475.4m-324,48.5V475.8m-.4,-.4H206.1M43.3,524.3H205.7m0,-.4V475.8m0,48.5H368.1" class="g4_90" />
<path d="M48,447.6H84.2" class="g6_90" />
</svg>