<?xml version="1.0" encoding="UTF-8" standalone="no"?>
<!DOCTYPE svg PUBLIC "-//W3C//DTD SVG 1.1//EN"
"http://www.w3.org/Graphics/SVG/1.1/DTD/svg11.dtd">
<svg viewBox="0 0 433 649" version="1.1" xmlns="http://www.w3.org/2000/svg" xmlns:xlink="http://www.w3.org/1999/xlink">
<defs>
<clipPath id="c0_87"><path d="M0,649.6V0H433V649.6Z" /></clipPath>
<style type="text/css"><![CDATA[
.g0_87{
fill: #FFFFFF;
}
.g1_87{
fill: none;
stroke: #9C649E;
stroke-width: 1.5277778;
stroke-linecap: butt;
stroke-linejoin: miter;
stroke-miterlimit: 4;
}
.g2_87{
fill: #9C649E;
}
.g3_87{
fill: none;
stroke: #FFFFFF;
stroke-width: 0.7638889;
stroke-linecap: butt;
stroke-linejoin: miter;
}
.g4_87{
fill: none;
stroke: #9C649E;
stroke-width: 0.7638889;
stroke-linecap: butt;
stroke-linejoin: miter;
}
.g5_87{
fill: none;
stroke: #231F20;
stroke-width: 0.4568056;
stroke-linecap: butt;
stroke-linejoin: miter;
}
]]></style>
</defs>
<g clip-path="url(#c0_87)">
<path d="M410.5,44.1c0,0,-4.4,0,-4.4,4.5V238.5c0,0,0,4.5,4.4,4.5h26.1c0,0,4.4,0,4.4,-4.5V48.6c0,0,0,-4.5,-4.4,-4.5Z" class="g0_87" />
<path d="M410.5,44.1c0,0,-4.4,0,-4.4,4.5V238.5c0,0,0,4.5,4.4,4.5h26.1c0,0,4.4,0,4.4,-4.5V48.6c0,0,0,-4.5,-4.4,-4.5H410.5Z" class="g1_87" />
<path d="M411.4,623.6c0,0,-4.3,0,-4.3,4.4v25.9c0,0,0,4.4,4.3,4.4h26c0,0,4.3,0,4.3,-4.4V628c0,0,0,-4.4,-4.3,-4.4Z" class="g2_87" />
</g>
<path d="M65.3,261.9H123V292H65.3V261.9Zm57.7,0H231.3V292H123V261.9Zm108.3,0H291V292H231.3V261.9Zm59.7,0h98.4V292H291V261.9Z" class="g2_87" />
<path d="M123,291.6V262.3m108.3,29.3V262.3M291,291.6V262.3" class="g3_87" />
<path d="M65.3,291.6V262.3m-.3,-.4H231.3m0,0H389.8m-.4,29.7V262.3M65.3,368.3V292.4m0,140.3V369m0,164.8V433.5m0,152.5V534.6M65,292H231.3m0,0H389.8M123,368.3V292.4m108.3,75.9V292.4M291,368.3V292.4m98.4,75.9V292.4M123,432.7V369m168,63.7V369m98.4,63.7V369M123,533.8V433.5M291,533.8V433.5m98.4,100.3V433.5M123,586V534.6M291,586V534.6M389.4,586V534.6M65,368.7H231.3m0,0H389.8M65,433.1H231.3m0,0H389.8M65,534.2H231.3m0,0H389.8M65,586.4H231.3m0,0H389.8" class="g4_87" />
<path d="M295.4,546.3h60.8" class="g5_87" />
</svg>