<?xml version="1.0" encoding="UTF-8" standalone="no"?>
<!DOCTYPE svg PUBLIC "-//W3C//DTD SVG 1.1//EN"
"http://www.w3.org/Graphics/SVG/1.1/DTD/svg11.dtd">
<svg viewBox="0 0 433 649" version="1.1" xmlns="http://www.w3.org/2000/svg" xmlns:xlink="http://www.w3.org/1999/xlink">
<defs>
<clipPath id="c0_96"><path d="M0,649.6V0H433V649.6Z" /></clipPath>
<style type="text/css"><![CDATA[
.g0_96{
fill: #9C649E;
}
.g1_96{
fill: #FFFFFF;
}
.g2_96{
fill: none;
stroke: #9C649E;
stroke-width: 1.5277778;
stroke-linecap: butt;
stroke-linejoin: miter;
stroke-miterlimit: 4;
}
.g3_96{
fill: none;
stroke: #9C649E;
stroke-width: 0.77916664;
stroke-linecap: butt;
stroke-linejoin: miter;
}
.g4_96{
fill: none;
stroke: #FFFFFF;
stroke-width: 0.4568056;
stroke-linecap: butt;
stroke-linejoin: miter;
}
.g5_96{
fill: none;
stroke: #231F20;
stroke-width: 0.4568056;
stroke-linecap: butt;
stroke-linejoin: miter;
}
]]></style>
</defs>
<g clip-path="url(#c0_96)">
<path d="M-4.2,623.6c0,0,-4.4,0,-4.4,4.4v25.9c0,0,0,4.4,4.4,4.4H21.7c0,0,4.3,0,4.3,-4.4V628c0,0,0,-4.4,-4.3,-4.4Z" class="g0_96" />
<path d="M-2.8,44.1c0,0,-4.4,0,-4.4,4.5V238.5c0,0,0,4.5,4.4,4.5h26c0,0,4.4,0,4.4,-4.5V48.6c0,0,0,-4.5,-4.4,-4.5Z" class="g1_96" />
<path d="M-2.8,44.1c0,0,-4.4,0,-4.4,4.5V238.5c0,0,0,4.5,4.4,4.5h26c0,0,4.4,0,4.4,-4.5V48.6c0,0,0,-4.5,-4.4,-4.5h-26Z" class="g2_96" />
</g>
<path d="M43.7,65.4h324V43.7H43.7V65.4Z" class="g0_96" />
<path d="M43.7,65V44.1m-.4,-.4H368.1M367.7,65V44.1M43.7,84.4V65.7m0,38.2V85.2m0,38.2V104.7m0,38.2V124.2M43.3,65.4H368.1m-.4,19.1V65.7m0,38.2V85.2m0,38.2V104.7m0,38.2V124.2M43.3,84.8H368.1M43.3,104.3H368.1M43.3,123.8H368.1M43.3,143.3H368.1" class="g3_96" />
<path d="M129.2,58.9h35.2" class="g4_96" />
<path d="M43.7,171.8h324V150.2H43.7v21.6Z" class="g0_96" />
<path d="M43.7,171.5V150.6m-.4,-.4H368.1m-.4,21.3V150.6m-324,50.8V172.2m-.4,-.4H368.1m-.4,29.6V172.2m-324,48.7V202.2m-.4,-.4H368.1m-.4,19.1V202.2m-324,38.2V221.7m0,53.8V241.1m-.4,-19.8H368.1m-.4,19.1V221.7m0,53.8V241.1M43.3,240.8H368.1M43.3,275.9H368.1" class="g3_96" />
<path d="M190,256.6h13.7m63.6,0h96.1M48,268.8H165.4" class="g5_96" />
</svg>