<?xml version="1.0" encoding="UTF-8" standalone="no"?>
<!DOCTYPE svg PUBLIC "-//W3C//DTD SVG 1.1//EN"
"http://www.w3.org/Graphics/SVG/1.1/DTD/svg11.dtd">
<svg viewBox="0 0 433 649" version="1.1" xmlns="http://www.w3.org/2000/svg" xmlns:xlink="http://www.w3.org/1999/xlink">
<defs>
<clipPath id="c0_181"><path d="M0,649.6V0H433V649.6Z" /></clipPath>
<style type="text/css"><![CDATA[
.g0_181{
fill: #FFFFFF;
}
.g1_181{
fill: none;
stroke: #9C649E;
stroke-width: 1.5277778;
stroke-linecap: butt;
stroke-linejoin: miter;
stroke-miterlimit: 4;
}
.g2_181{
fill: #9C649E;
}
.g3_181{
fill: none;
stroke: #9C649E;
stroke-width: 0.77916664;
stroke-linecap: butt;
stroke-linejoin: miter;
}
]]></style>
</defs>
<g clip-path="url(#c0_181)">
<path d="M410.5,44.1c0,0,-4.4,0,-4.4,4.5V238.5c0,0,0,4.5,4.4,4.5h26.1c0,0,4.4,0,4.4,-4.5V48.6c0,0,0,-4.5,-4.4,-4.5Z" class="g0_181" />
<path d="M410.5,44.1c0,0,-4.4,0,-4.4,4.5V238.5c0,0,0,4.5,4.4,4.5h26.1c0,0,4.4,0,4.4,-4.5V48.6c0,0,0,-4.5,-4.4,-4.5H410.5Z" class="g1_181" />
<path d="M411.4,623.6c0,0,-4.3,0,-4.3,4.4v25.9c0,0,0,4.4,4.3,4.4h26c0,0,4.3,0,4.3,-4.4V628c0,0,0,-4.4,-4.3,-4.4Z" class="g2_181" />
</g>
<path d="M65.4,65V44.1M65,43.7H389.8M389.4,65V44.1M65.4,92.7v-27m0,79.2V93.5m0,73.1V145.7m0,48.6V167.4m0,54.7v-27m0,42.5V222.9m0,42.5v-27m0,48.6V266.2m0,48.6v-27m0,54.8v-27m0,54.7v-27m0,54.8v-27m0,54.7V398.9M65,65.4H389.8M164.6,92.7v-27m57.1,27v-27m64.7,27v-27m55.7,27v-27m47.3,27v-27M164.6,144.9V93.5m57.1,51.4V93.5m64.7,51.4V93.5m55.7,51.4V93.5m47.3,51.4V93.5m0,73.1V145.7M164.6,194.3V167.4m57.1,26.9V167.4m64.7,26.9V167.4m55.7,26.9V167.4m47.3,26.9V167.4M164.6,222.1v-27m57.1,27v-27m64.7,27v-27m55.7,27v-27m47.3,27v-27M164.6,237.6V222.9m57.1,14.7V222.9m64.7,14.7V222.9m55.7,14.7V222.9m47.3,14.7V222.9M164.6,265.4v-27m57.1,27v-27m64.7,27v-27m55.7,27v-27m47.3,27v-27m0,48.6V266.2M164.6,314.8v-27m57.1,27v-27m64.7,27v-27m55.7,27v-27m47.3,27v-27M164.6,342.6v-27m57.1,27v-27m64.7,27v-27m55.7,27v-27m47.3,27v-27M164.6,370.3v-27m57.1,27v-27m64.7,27v-27m55.7,27v-27m47.3,27v-27M164.6,398.1v-27m57.1,27v-27m64.7,27v-27m55.7,27v-27m47.3,27v-27M164.6,425.8V398.9m57.1,26.9V398.9m64.7,26.9V398.9m55.7,26.9V398.9m47.3,26.9V398.9M65,93.1H389.8M65,145.3H389.8M65,167H389.8M65,194.7H389.8M65,222.5H389.8M65,238H389.8M65,265.8H389.8M65,287.4H389.8M65,315.2H389.8M65,342.9H389.8M65,370.7H389.8M65,398.5H389.8M65,426.2H389.8" class="g3_181" />
</svg>