<?xml version="1.0" encoding="UTF-8" standalone="no"?>
<!DOCTYPE svg PUBLIC "-//W3C//DTD SVG 1.1//EN"
"http://www.w3.org/Graphics/SVG/1.1/DTD/svg11.dtd">
<svg viewBox="0 0 433 649" version="1.1" xmlns="http://www.w3.org/2000/svg" xmlns:xlink="http://www.w3.org/1999/xlink">
<defs>
<clipPath id="c0_43"><path d="M0,649.6V0H433V649.6Z" /></clipPath>
<style type="text/css"><![CDATA[
.g0_43{
fill: #FFFFFF;
}
.g1_43{
fill: none;
stroke: #9C649E;
stroke-width: 1.5277778;
stroke-linecap: butt;
stroke-linejoin: miter;
stroke-miterlimit: 4;
}
.g2_43{
fill: #9C649E;
}
.g3_43{
fill: none;
stroke: #9C649E;
stroke-width: 0.77916664;
stroke-linecap: butt;
stroke-linejoin: miter;
stroke-miterlimit: 4;
}
.g4_43{
fill: none;
stroke: #9C649E;
stroke-width: 0.77916664;
stroke-linecap: butt;
stroke-linejoin: miter;
stroke-miterlimit: 4;
stroke-dasharray: 9,9;
}
]]></style>
</defs>
<g clip-path="url(#c0_43)">
<path d="M410.5,44.1c0,0,-4.4,0,-4.4,4.5V238.5c0,0,0,4.5,4.4,4.5h26.1c0,0,4.4,0,4.4,-4.5V48.6c0,0,0,-4.5,-4.4,-4.5Z" class="g0_43" />
<path d="M410.5,44.1c0,0,-4.4,0,-4.4,4.5V238.5c0,0,0,4.5,4.4,4.5h26.1c0,0,4.4,0,4.4,-4.5V48.6c0,0,0,-4.5,-4.4,-4.5H410.5Z" class="g1_43" />
<path d="M411.4,623.6c0,0,-4.3,0,-4.3,4.4v25.9c0,0,0,4.4,4.3,4.4h26c0,0,4.3,0,4.3,-4.4V628c0,0,0,-4.4,-4.3,-4.4Z" class="g2_43" />
</g>
<path d="M172.5,85h110V72.4h-110V85Z" class="g2_43" />
<path d="M172.5,85h110V72.4h-110V85Zm-1.3,257.8h60.6V285.2H171.2v57.6Zm71.2,7.4h62.7V322.9H242.4v27.3ZM138.9,121.3v20.1m4.9,-5.3l-4.9,5.3l-5,-5.3M98.3,158.6v20m5,-5.3l-5,5.3l-4.9,-5.3m4.9,13.9v20.1m5,-5.3l-5,5.3L93.4,202m4.9,19.6v17.1m5,-5.3l-5,5.3l-4.9,-5.3m108.1,28.1v20.1m4.9,-5.4l-4.9,5.4l-5,-5.4M323,314.3v28.9H309.3m5.3,4.9l-5.3,-4.9l5.3,-4.9M237.5,261.5V369.4m4.9,-5.3l-4.9,5.3l-5,-5.3M74.4,277.6v89.2m5,-5.3l-5,5.3l-4.9,-5.3m311.8,-100V371.4m5,-5.3l-5,5.3l-4.9,-5.3" class="g3_43" />
<path d="M154.8,264.9v98.6" class="g4_43" />
<path d="M159.8,358.2l-5,5.3l-4.9,-5.3M98.3,254.4v10.8m81.6,-40.5v20.4M336.7,291v8.3M265.3,238.2v6.9M122.5,265H65M216.8,245H146.5m224.7,54.2H305.5M302.2,245H231.9M364,180v-6H266.7v6M369,174.6l-5,5.4l-4.9,-5.4m-87.4,0l-5,5.4l-4.9,-5.4m-81.1,12.6v20.1m5,-5.3l-5,5.3L175.8,202m89.8,6.4v16.2m5,-5.3l-5,5.3l-4.9,-5.3m25.1,42.2v57m5,-5.3l-5,5.3l-4.9,-5.3m74.5,1.2v57m5,-5.3l-5,5.3l-4.9,-5.3M180.6,158.6v20m5,-5.3l-5,5.4l-4.9,-5.4M112.5,277v20.1m5,-5.3l-5,5.3l-4.9,-5.3m15.1,-25.4l33.9,-38.9m-7.2,.7l7.2,-.7l.2,7.2m-26.2,79.8H169m-5.3,-4.9l5.3,4.9l-5.3,5M317.5,121.3v20.1m4.9,-5.3l-4.9,5.3l-5,-5.3m-53.2,-16h110V106.5h-110v13.6Zm-173.6,.8h110V106.5H85.7v14.4ZM317.1,106.1V91.6H138.9v14.5M353.8,223.3v20.4m35.5,1.8H319M336.9,262v14.7" class="g3_43" />
</svg>