<?xml version="1.0" encoding="UTF-8" standalone="no"?>
<!DOCTYPE svg PUBLIC "-//W3C//DTD SVG 1.1//EN"
"http://www.w3.org/Graphics/SVG/1.1/DTD/svg11.dtd">
<svg viewBox="0 0 433 649" version="1.1" xmlns="http://www.w3.org/2000/svg" xmlns:xlink="http://www.w3.org/1999/xlink">
<defs>
<clipPath id="c0_148"><path d="M0,649.6V0H433V649.6Z" /></clipPath>
<style type="text/css"><![CDATA[
.g0_148{
fill: #9C649E;
}
.g1_148{
fill: #FFFFFF;
}
.g2_148{
fill: none;
stroke: #9C649E;
stroke-width: 1.5277778;
stroke-linecap: butt;
stroke-linejoin: miter;
stroke-miterlimit: 4;
}
.g3_148{
fill: none;
stroke: #231F20;
stroke-width: 0.6080556;
stroke-linecap: butt;
stroke-linejoin: miter;
}
.g4_148{
fill: none;
stroke: #9C649E;
stroke-width: 0.77916664;
stroke-linecap: butt;
stroke-linejoin: miter;
}
]]></style>
</defs>
<g clip-path="url(#c0_148)">
<path d="M-4.2,623.6c0,0,-4.4,0,-4.4,4.4v25.9c0,0,0,4.4,4.4,4.4H21.7c0,0,4.3,0,4.3,-4.4V628c0,0,0,-4.4,-4.3,-4.4Z" class="g0_148" />
<path d="M-2.8,44.1c0,0,-4.4,0,-4.4,4.5V238.5c0,0,0,4.5,4.4,4.5h26c0,0,4.4,0,4.4,-4.5V48.6c0,0,0,-4.5,-4.4,-4.5Z" class="g1_148" />
<path d="M-2.8,44.1c0,0,-4.4,0,-4.4,4.5V238.5c0,0,0,4.5,4.4,4.5h26c0,0,4.4,0,4.4,-4.5V48.6c0,0,0,-4.5,-4.4,-4.5h-26Z" class="g2_148" />
</g>
<path d="M119.4,277.4H122m-61.4,264H114" class="g3_148" />
<path d="M43.7,71.1h81V92.7h-81V71.1Zm81,0h81V92.7h-81V71.1Zm81,0h81V92.7h-81V71.1Zm81,0h81V92.7h-81V71.1Z" class="g0_148" />
<path d="M43.7,92.3V71.5m-.4,-.4H205.7m0,0H368.1M124.7,92.3V71.5m81,20.8V71.5m81,20.8V71.5m81,20.8V71.5M43.7,181.2V93.1m-.4,-.4h81.4M43.3,181.6h81.4m0,-.4V93.1m0,-.4h81m0,0H368.1M205.7,181.2V93.1m81,88.1V93.1m81,88.1V93.1m-243,88.5h81m0,0H368.1" class="g4_148" />
</svg>