<?xml version="1.0" encoding="UTF-8" standalone="no"?>
<!DOCTYPE svg PUBLIC "-//W3C//DTD SVG 1.1//EN"
"http://www.w3.org/Graphics/SVG/1.1/DTD/svg11.dtd">
<svg viewBox="0 0 433 649" version="1.1" xmlns="http://www.w3.org/2000/svg" xmlns:xlink="http://www.w3.org/1999/xlink">
<defs>
<clipPath id="c0_9"><path d="M0,649.6V0H433V649.6Z" /></clipPath>
<style type="text/css"><![CDATA[
.g0_9{
fill: #FFFFFF;
}
.g1_9{
fill: none;
stroke: #9C649E;
stroke-width: 1.5277778;
stroke-linecap: butt;
stroke-linejoin: miter;
stroke-miterlimit: 4;
}
.g2_9{
fill: #9C649E;
}
.g3_9{
fill: none;
stroke: #9C649E;
stroke-width: 0.77916664;
stroke-linecap: butt;
stroke-linejoin: miter;
}
.g4_9{
fill: none;
stroke: #231F20;
stroke-width: 0.4568056;
stroke-linecap: butt;
stroke-linejoin: miter;
}
.g5_9{
fill: none;
stroke: #231F20;
stroke-width: 0.45833334;
stroke-linecap: butt;
stroke-linejoin: miter;
}
]]></style>
</defs>
<g clip-path="url(#c0_9)">
<path d="M410.5,44.1c0,0,-4.4,0,-4.4,4.5V238.5c0,0,0,4.5,4.4,4.5h26.1c0,0,4.4,0,4.4,-4.5V48.6c0,0,0,-4.5,-4.4,-4.5Z" class="g0_9" />
<path d="M410.5,44.1c0,0,-4.4,0,-4.4,4.5V238.5c0,0,0,4.5,4.4,4.5h26.1c0,0,4.4,0,4.4,-4.5V48.6c0,0,0,-4.5,-4.4,-4.5H410.5Z" class="g1_9" />
<path d="M411.4,623.6c0,0,-4.3,0,-4.3,4.4v25.9c0,0,0,4.4,4.3,4.4h26c0,0,4.3,0,4.3,-4.4V628c0,0,0,-4.4,-4.3,-4.4Z" class="g2_9" />
</g>
<path d="M65.3,85.3H389.4V63.7H65.3V85.3Z" class="g2_9" />
<path d="M65.4,85V64.1M65,63.7H227.4m0,0H389.8M389.4,85V64.1m-324,36.4V85.7M65,85.3H227.4m0,0H389.8m-.4,15.2V85.7M65.4,192.8V101.3m-.4,-.4H227.4m0,91.9V101.3m0,-.4H389.8m-.4,91.9V101.3M65.4,272.8V193.5m-.4,-.3H227.4m0,0H389.8m-.4,79.6V193.5M65.4,423.9V273.6m-.4,-.4H227.4m0,0H389.8M227.4,423.9V273.6m162,150.3V273.6M65,424.3H227.4m0,0H389.8" class="g3_9" />
<path d="M156.2,97.5h36.7m8.6,0H333.1" class="g4_9" />
<path d="M69.7,115.7h32.2m129.8,12.2h43.8M69.7,214.1H183.4" class="g5_9" />
<path d="M69.7,285.3h33m129,0h44.8" class="g4_9" />
<path d="M65.3,455.4H389.4V433.8H65.3v21.6Z" class="g2_9" />
<path d="M65.4,455V434.2m-.4,-.4H389.8m-.4,21.2V434.2M65.4,474V455.8m-.4,-.4H245.1m0,18.6V455.8m0,-.4H389.8m-.4,18.6V455.8M65.4,561.4V474.8m-.4,-.4H245.1m0,87V474.8m0,-.4H389.8m-.4,87V474.8M65.4,603.6V562.2m-.4,-.4H245.1M65,604H389.8M245.1,561.8H389.8m-.4,41.8V562.2" class="g3_9" />
</svg>