<?xml version="1.0" encoding="UTF-8" standalone="no"?>
<!DOCTYPE svg PUBLIC "-//W3C//DTD SVG 1.1//EN"
"http://www.w3.org/Graphics/SVG/1.1/DTD/svg11.dtd">
<svg viewBox="0 0 433 649" version="1.1" xmlns="http://www.w3.org/2000/svg" xmlns:xlink="http://www.w3.org/1999/xlink">
<defs>
<clipPath id="c0_216"><path d="M0,649.6V0H433V649.6Z" /></clipPath>
<style type="text/css"><![CDATA[
.g0_216{
fill: #9C649E;
}
.g1_216{
fill: #FFFFFF;
}
.g2_216{
fill: none;
stroke: #9C649E;
stroke-width: 1.5277778;
stroke-linecap: butt;
stroke-linejoin: miter;
stroke-miterlimit: 4;
}
.g3_216{
fill: none;
stroke: #9C649E;
stroke-width: 0.77916664;
stroke-linecap: butt;
stroke-linejoin: miter;
}
.g4_216{
fill: none;
stroke: #FFFFFF;
stroke-width: 0.77916664;
stroke-linecap: butt;
stroke-linejoin: miter;
}
]]></style>
</defs>
<g clip-path="url(#c0_216)">
<path d="M-4.2,623.6c0,0,-4.4,0,-4.4,4.4v25.9c0,0,0,4.4,4.4,4.4H21.7c0,0,4.3,0,4.3,-4.4V628c0,0,0,-4.4,-4.3,-4.4Z" class="g0_216" />
<path d="M-2.8,44.1c0,0,-4.4,0,-4.4,4.5V238.5c0,0,0,4.5,4.4,4.5h26c0,0,4.4,0,4.4,-4.5V48.6c0,0,0,-4.5,-4.4,-4.5Z" class="g1_216" />
<path d="M-2.8,44.1c0,0,-4.4,0,-4.4,4.5V238.5c0,0,0,4.5,4.4,4.5h26c0,0,4.4,0,4.4,-4.5V48.6c0,0,0,-4.5,-4.4,-4.5h-26Z" class="g2_216" />
</g>
<path d="M43.7,346.7h73.2v27.8H43.7V346.7Zm73.2,0h63.3v27.8H116.9V346.7Zm63.3,0H272v27.8H180.2V346.7Zm91.8,0h95.7v27.8H272V346.7Z" class="g0_216" />
<path d="M43.7,374.1v-27m324,27v-27m-324,67V374.9m324,39.2V374.9M43.7,490.7V414.8m324,75.9V414.8M43.7,518.5v-27m324,27v-27m-324,79.2V519.3m324,51.4V519.3m-324,91.4V571.5m324,39.2V571.5M43.3,346.7H368.1M43.3,374.5H180.2m-63.3,39.6V374.9m63.3,-.4H272m-91.8,39.6V374.9m91.8,-.4h96.1M272,414.1V374.9M43.3,414.5H180.2m-63.3,76.2V414.8m63.3,-.3H272m-91.8,76.2V414.8m91.8,-.3h96.1M272,490.7V414.8M43.3,491.1H180.2m-63.3,27.4v-27m63.3,-.4H272m-91.8,27.4v-27m91.8,-.4h96.1M272,518.5v-27M43.3,518.9H180.2m-63.3,51.8V519.3m63.3,-.4H272m-91.8,51.8V519.3m91.8,-.4h96.1M272,570.7V519.3M43.3,571.1H180.2m-63.3,39.6V571.5m63.3,-.4H272m-91.8,39.6V571.5m91.8,-.4h96.1M272,610.7V571.5M43.3,611H368.1" class="g3_216" />
<path d="M116.9,374.1v-27m63.3,27v-27m91.8,27v-27" class="g4_216" />
</svg>