<?xml version="1.0" encoding="UTF-8" standalone="no"?>
<!DOCTYPE svg PUBLIC "-//W3C//DTD SVG 1.1//EN"
"http://www.w3.org/Graphics/SVG/1.1/DTD/svg11.dtd">
<svg viewBox="0 0 433 649" version="1.1" xmlns="http://www.w3.org/2000/svg" xmlns:xlink="http://www.w3.org/1999/xlink">
<defs>
<clipPath id="c0_52"><path d="M0,649.6V0H433V649.6Z" /></clipPath>
<style type="text/css"><![CDATA[
.g0_52{
fill: #9C649E;
}
.g1_52{
fill: #FFFFFF;
}
.g2_52{
fill: none;
stroke: #9C649E;
stroke-width: 1.5277778;
stroke-linecap: butt;
stroke-linejoin: miter;
stroke-miterlimit: 4;
}
.g3_52{
fill: none;
stroke: #FFFFFF;
stroke-width: 0.77916664;
stroke-linecap: butt;
stroke-linejoin: miter;
}
.g4_52{
fill: none;
stroke: #9C649E;
stroke-width: 0.77916664;
stroke-linecap: butt;
stroke-linejoin: miter;
}
]]></style>
</defs>
<g clip-path="url(#c0_52)">
<path d="M-4.2,623.6c0,0,-4.4,0,-4.4,4.4v25.9c0,0,0,4.4,4.4,4.4H21.7c0,0,4.3,0,4.3,-4.4V628c0,0,0,-4.4,-4.3,-4.4Z" class="g0_52" />
<path d="M-2.8,44.1c0,0,-4.4,0,-4.4,4.5V238.5c0,0,0,4.5,4.4,4.5h26c0,0,4.4,0,4.4,-4.5V48.6c0,0,0,-4.5,-4.4,-4.5Z" class="g1_52" />
<path d="M-2.8,44.1c0,0,-4.4,0,-4.4,4.5V238.5c0,0,0,4.5,4.4,4.5h26c0,0,4.4,0,4.4,-4.5V48.6c0,0,0,-4.5,-4.4,-4.5h-26Z" class="g2_52" />
</g>
<path d="M43.7,123.7H177.2v21.6H43.7V123.7Zm133.5,0H282.9v21.6H177.2V123.7Zm105.7,0H367v21.6H282.9V123.7Z" class="g0_52" />
<path d="M177.2,144.9V124.1m105.7,20.8V124.1" class="g3_52" />
<path d="M43.7,144.9V124.1m-.4,-.4H367.4m-.4,21.2V124.1M43.7,160.5V145.7m0,30.3V161.2m0,30.3V176.8m0,42.5v-27m-.4,-47H177.2M43.3,160.9H177.2M43.3,176.4H177.2M43.3,191.9H177.2M43.3,219.7H177.2m0,-59.2V145.7m0,30.3V161.2m0,30.3V176.8m0,42.5v-27m0,-47H367.4m-84.5,15.2V145.7M367,160.5V145.7M282.9,176V161.2M367,176V161.2m-84.1,30.3V176.8M367,191.5V176.8m-84.1,42.5v-27m84.1,27v-27M177.2,160.9H367.4M177.2,176.4H367.4M177.2,191.9H367.4M177.2,219.7H367.4" class="g4_52" />
<path d="M43.7,338.9h324V317.2H43.7v21.7Z" class="g0_52" />
<path d="M43.7,338.5V317.6m-.4,-.4H368.1m-.4,21.3V317.6M43.7,354V339.3m0,30.3V354.8m0,30.3V370.3m0,30.9V385.9m0,30.9V402m0,30.3V417.6m0,30.2V433.1m-.4,-94.2H188.8M43.3,354.4H188.8M43.3,370H188.8M43.3,385.5H188.8M43.3,401.6H188.8M43.3,417.2H188.8M43.3,432.7H188.8M43.3,448.2H188.8m0,-94.2V339.3m0,30.3V354.8m0,30.3V370.3m0,30.9V385.9m0,30.9V402m0,30.3V417.6m0,30.2V433.1m0,-94.2H368.1m-.4,15.1V339.3m0,30.3V354.8m0,30.3V370.3m0,30.9V385.9m0,30.9V402m0,30.3V417.6m0,30.2V433.1M188.8,354.4H368.1M188.8,370H368.1M188.8,385.5H368.1M188.8,401.6H368.1M188.8,417.2H368.1M188.8,432.7H368.1M188.8,448.2H368.1" class="g4_52" />
</svg>