<?xml version="1.0" encoding="UTF-8" standalone="no"?>
<!DOCTYPE svg PUBLIC "-//W3C//DTD SVG 1.1//EN"
"http://www.w3.org/Graphics/SVG/1.1/DTD/svg11.dtd">
<svg viewBox="0 0 433 649" version="1.1" xmlns="http://www.w3.org/2000/svg" xmlns:xlink="http://www.w3.org/1999/xlink">
<defs>
<clipPath id="c0_109"><path d="M0,649.6V0H433V649.6Z" /></clipPath>
<style type="text/css"><![CDATA[
.g0_109{
fill: #FFFFFF;
}
.g1_109{
fill: none;
stroke: #9C649E;
stroke-width: 1.5277778;
stroke-linecap: butt;
stroke-linejoin: miter;
stroke-miterlimit: 4;
}
.g2_109{
fill: #9C649E;
}
.g3_109{
fill: none;
stroke: #231F20;
stroke-width: 0.6080556;
stroke-linecap: butt;
stroke-linejoin: miter;
}
.g4_109{
fill: #F0E9F1;
}
.g5_109{
fill: none;
stroke: #9C649E;
stroke-width: 0.77916664;
stroke-linecap: butt;
stroke-linejoin: miter;
}
]]></style>
</defs>
<g clip-path="url(#c0_109)">
<path d="M410.5,44.1c0,0,-4.4,0,-4.4,4.5V238.5c0,0,0,4.5,4.4,4.5h26.1c0,0,4.4,0,4.4,-4.5V48.6c0,0,0,-4.5,-4.4,-4.5Z" class="g0_109" />
<path d="M410.5,44.1c0,0,-4.4,0,-4.4,4.5V238.5c0,0,0,4.5,4.4,4.5h26.1c0,0,4.4,0,4.4,-4.5V48.6c0,0,0,-4.5,-4.4,-4.5H410.5Z" class="g1_109" />
<path d="M411.4,623.6c0,0,-4.3,0,-4.3,4.4v25.9c0,0,0,4.4,4.3,4.4h26c0,0,4.3,0,4.3,-4.4V628c0,0,0,-4.4,-4.3,-4.4Z" class="g2_109" />
</g>
<path d="M88.9,443.4H265.4M88.9,521.9H265m-176.1,48H246M88.5,587.4h87.9M88.9,604.8H120" class="g3_109" />
<path d="M65.3,65.4H389.4V43.7H65.3V65.4Z" class="g2_109" />
<path d="M65.3,65.4H93.5V93.5H65.3V65.4Zm28.2,0h51.1V93.5H93.5V65.4Zm51.1,0h98.8V93.5H144.6V65.4Zm98.8,0h79.7V93.5H243.4V65.4Zm79.7,0h66.3V93.5H323.1V65.4Z" class="g4_109" />
<path d="M65.4,65V44.1M65,43.7H93.5m0,0H389.8M389.4,65V44.1M65.4,93.2V65.7M65,65.4H93.5m0,27.8V65.7m0,-.3h51.1m0,27.8V65.7m0,-.3H389.8M243.4,93.2V65.7m79.7,27.5V65.7m66.3,27.5V65.7m-324,67.4V93.9M65,93.5H93.5m0,39.6V93.9m0,-.4h51.1m0,39.6V93.9m0,-.4H389.8M243.4,133.1V93.9m79.7,39.2V93.9m66.3,39.2V93.9m-324,91.4V133.9m-.4,-.4H93.9m-.4,51.8V133.9m51.1,51.4V133.9m-.3,-.4H389.8M243.4,185.3V133.9m79.7,51.4V133.9m66.3,51.4V133.9M65.4,237.5V186.1m-.4,-.4H93.5m0,51.8V186.1m0,-.4h51.1m0,51.8V186.1m0,-.4H389.8M243.4,237.5V186.1m79.7,51.4V186.1m66.3,51.4V186.1m-324,91.4V238.3m-.4,-.4H93.9m-.4,39.6V238.3m51.1,39.2V238.3m-.3,-.4H389.8M243.4,277.5V238.3m79.7,39.2V238.3m66.3,39.2V238.3m-324,54.8V278.3m-.4,-.4H93.9M65,293.4H93.5m0,-.3V278.3m0,15.1h51.1m0,-.3V278.3m-.3,-.4H389.8M243.4,293.1V278.3m79.7,14.8V278.3m66.3,14.8V278.3M144.6,293.4H389.8" class="g5_109" />
</svg>