<?xml version="1.0" encoding="UTF-8" standalone="no"?>
<!DOCTYPE svg PUBLIC "-//W3C//DTD SVG 1.1//EN"
"http://www.w3.org/Graphics/SVG/1.1/DTD/svg11.dtd">
<svg viewBox="0 0 433 649" version="1.1" xmlns="http://www.w3.org/2000/svg" xmlns:xlink="http://www.w3.org/1999/xlink">
<defs>
<clipPath id="c0_33"><path d="M0,649.6V0H433V649.6Z" /></clipPath>
<style type="text/css"><![CDATA[
.g0_33{
fill: #FFFFFF;
}
.g1_33{
fill: none;
stroke: #9C649E;
stroke-width: 1.5277778;
stroke-linecap: butt;
stroke-linejoin: miter;
stroke-miterlimit: 4;
}
.g2_33{
fill: #9C649E;
}
.g3_33{
fill: none;
stroke: #9C649E;
stroke-width: 0.77916664;
stroke-linecap: butt;
stroke-linejoin: miter;
}
]]></style>
</defs>
<g clip-path="url(#c0_33)">
<path d="M410.5,44.1c0,0,-4.4,0,-4.4,4.5V238.5c0,0,0,4.5,4.4,4.5h26.1c0,0,4.4,0,4.4,-4.5V48.6c0,0,0,-4.5,-4.4,-4.5Z" class="g0_33" />
<path d="M410.5,44.1c0,0,-4.4,0,-4.4,4.5V238.5c0,0,0,4.5,4.4,4.5h26.1c0,0,4.4,0,4.4,-4.5V48.6c0,0,0,-4.5,-4.4,-4.5H410.5Z" class="g1_33" />
<path d="M411.4,623.6c0,0,-4.3,0,-4.3,4.4v25.9c0,0,0,4.4,4.3,4.4h26c0,0,4.3,0,4.3,-4.4V628c0,0,0,-4.4,-4.3,-4.4Z" class="g2_33" />
</g>
<path d="M65.3,65.4H389.4V43.7H65.3V65.4Z" class="g2_33" />
<path d="M65.4,65V44.1M65,43.7h55.4m0,0h52m0,0h35.5m0,0H389.8M389.4,65V44.1M65.4,92.7v-27M65,65.4h55.4m0,27.3v-27m0,-.3h52m0,0h35.5m0,0H389.8M172.4,92.7v-27m35.5,27v-27m34.2,27v-27m43.7,27v-27m49.8,27v-27m53.8,27v-27m-324,79.2V93.5m0,140.3V145.7m0,152.5V234.6M65,93.1h55.4M65,145.3h55.4M65,234.2h55.4M65,298.6h55.4m0,-153.7V93.5m0,140.3V145.7m0,152.5V234.6m0,-141.5h52m0,0h35.5m0,0H389.8M172.4,144.9V93.5m35.5,51.4V93.5m34.2,51.4V93.5m43.7,51.4V93.5m49.8,51.4V93.5m53.8,51.4V93.5m-217,140.3V145.7m35.5,88.1V145.7m34.2,88.1V145.7m43.7,88.1V145.7m49.8,88.1V145.7m53.8,88.1V145.7m-217,152.5V234.6m35.5,63.6V234.6m34.2,63.6V234.6m43.7,63.6V234.6m49.8,63.6V234.6m53.8,63.6V234.6m-269,-89.3h52m0,0h35.5m0,0H389.8M120.4,234.2h52m0,0h35.5m0,0H389.8M120.4,298.6h52m0,0h35.5m0,0H389.8" class="g3_33" />
</svg>