<?xml version="1.0" encoding="UTF-8" standalone="no"?>
<!DOCTYPE svg PUBLIC "-//W3C//DTD SVG 1.1//EN"
"http://www.w3.org/Graphics/SVG/1.1/DTD/svg11.dtd">
<svg viewBox="0 0 433 649" version="1.1" xmlns="http://www.w3.org/2000/svg" xmlns:xlink="http://www.w3.org/1999/xlink">
<defs>
<clipPath id="c0_86"><path d="M0,649.6V0H433V649.6Z" /></clipPath>
<style type="text/css"><![CDATA[
.g0_86{
fill: #9C649E;
}
.g1_86{
fill: #FFFFFF;
}
.g2_86{
fill: none;
stroke: #9C649E;
stroke-width: 1.5277778;
stroke-linecap: butt;
stroke-linejoin: miter;
stroke-miterlimit: 4;
}
.g3_86{
fill: none;
stroke: #9C649E;
stroke-width: 0.77916664;
stroke-linecap: butt;
stroke-linejoin: miter;
}
]]></style>
</defs>
<g clip-path="url(#c0_86)">
<path d="M-4.2,623.6c0,0,-4.4,0,-4.4,4.4v25.9c0,0,0,4.4,4.4,4.4H21.7c0,0,4.3,0,4.3,-4.4V628c0,0,0,-4.4,-4.3,-4.4Z" class="g0_86" />
<path d="M-2.8,44.1c0,0,-4.4,0,-4.4,4.5V238.5c0,0,0,4.5,4.4,4.5h26c0,0,4.4,0,4.4,-4.5V48.6c0,0,0,-4.5,-4.4,-4.5Z" class="g1_86" />
<path d="M-2.8,44.1c0,0,-4.4,0,-4.4,4.5V238.5c0,0,0,4.5,4.4,4.5h26c0,0,4.4,0,4.4,-4.5V48.6c0,0,0,-4.5,-4.4,-4.5h-26Z" class="g2_86" />
</g>
<path d="M43.7,115.9h324V94.2H43.7v21.7Z" class="g0_86" />
<path d="M43.7,115.5V94.6m-.4,-.4H151.7m0,0h108m0,0H368.1m-.4,21.3V94.6m-324,42.6V116.3m-.4,-.4H151.7m0,21.3V116.3m0,-.4h108m0,0H368.1M259.7,137.2V116.3m108,20.9V116.3m-324,42.5V137.9m-.4,-.3H151.7m0,0h108m0,0H368.1M151.7,158.8V137.9m108,20.9V137.9m108,20.9V137.9m-324,42.6V159.6m-.4,-.4H151.7m0,0h108m0,0H368.1M151.7,180.5V159.6m108,20.9V159.6m108,20.9V159.6m-324,42.5V181.3m-.4,-.4H151.7m0,0h108m0,0H368.1M151.7,202.1V181.3m108,20.8V181.3m108,20.8V181.3M43.3,202.5H151.7m0,0h108m0,0H368.1" class="g3_86" />
</svg>