<?xml version="1.0" encoding="UTF-8" standalone="no"?>
<!DOCTYPE svg PUBLIC "-//W3C//DTD SVG 1.1//EN"
"http://www.w3.org/Graphics/SVG/1.1/DTD/svg11.dtd">
<svg viewBox="0 0 433 649" version="1.1" xmlns="http://www.w3.org/2000/svg" xmlns:xlink="http://www.w3.org/1999/xlink">
<defs>
<clipPath id="c0_103"><path d="M0,649.6V0H433V649.6Z" /></clipPath>
<style type="text/css"><![CDATA[
.g0_103{
fill: #FFFFFF;
}
.g1_103{
fill: none;
stroke: #9C649E;
stroke-width: 1.5277778;
stroke-linecap: butt;
stroke-linejoin: miter;
stroke-miterlimit: 4;
}
.g2_103{
fill: #9C649E;
}
.g3_103{
fill: none;
stroke: #FFFFFF;
stroke-width: 0.77916664;
stroke-linecap: butt;
stroke-linejoin: miter;
}
.g4_103{
fill: none;
stroke: #9C649E;
stroke-width: 0.77916664;
stroke-linecap: butt;
stroke-linejoin: miter;
}
]]></style>
</defs>
<g clip-path="url(#c0_103)">
<path d="M410.5,44.1c0,0,-4.4,0,-4.4,4.5V238.5c0,0,0,4.5,4.4,4.5h26.1c0,0,4.4,0,4.4,-4.5V48.6c0,0,0,-4.5,-4.4,-4.5Z" class="g0_103" />
<path d="M410.5,44.1c0,0,-4.4,0,-4.4,4.5V238.5c0,0,0,4.5,4.4,4.5h26.1c0,0,4.4,0,4.4,-4.5V48.6c0,0,0,-4.5,-4.4,-4.5H410.5Z" class="g1_103" />
<path d="M411.4,623.6c0,0,-4.3,0,-4.3,4.4v25.9c0,0,0,4.4,4.3,4.4h26c0,0,4.3,0,4.3,-4.4V628c0,0,0,-4.4,-4.3,-4.4Z" class="g2_103" />
</g>
<path d="M65.3,76.8H227.4V98.5H65.3V76.8Zm162.1,0h162V98.5h-162V76.8Z" class="g2_103" />
<path d="M227.4,98.1V77.2" class="g3_103" />
<path d="M65.4,98.1V77.2M65,76.8H389.8m-.4,21.3V77.2m-324,73.1V98.8M65,98.5H389.8M227.4,150.3V98.8m162,51.5V98.8M65.4,239.1V151m-.4,-.3H227.4m0,88.4V151m0,-.3H389.8m-.4,88.4V151M65.4,352.8V239.9m0,152.9v-40m0,128.9V392.8m0,128.9v-40m0,55.1V521.7M65,239.5H227.4M65,537.2H227.4m0,-184.7V239.9m0,152.5V353.2m0,128.1V393.2m0,128.1V482.1m0,54.7V522.1m0,-282.6H389.8m-.4,113V239.9m0,152.5V353.2m0,128.1V393.2m0,128.1V482.1m0,54.7V522.1M227,352.8H389.8M227,392.8H389.8M227,481.7H389.8M227,521.7H389.8M227.4,537.2H389.8" class="g4_103" />
</svg>