<?xml version="1.0" encoding="UTF-8" standalone="no"?>
<!DOCTYPE svg PUBLIC "-//W3C//DTD SVG 1.1//EN"
"http://www.w3.org/Graphics/SVG/1.1/DTD/svg11.dtd">
<svg viewBox="0 0 433 649" version="1.1" xmlns="http://www.w3.org/2000/svg" xmlns:xlink="http://www.w3.org/1999/xlink">
<defs>
<style type="text/css"><![CDATA[
.g0_232{
fill: #1F80A5;
}
.g1_232{
fill: #F2673A;
}
.g2_232{
fill: #FAA63A;
}
.g3_232{
fill: #1E5A99;
}
.g4_232{
fill: #FFFFFF;
}
.g5_232{
fill: #E92724;
}
.g6_232{
fill: none;
stroke: #6C1B78;
stroke-width: 0.928889;
stroke-linecap: butt;
stroke-linejoin: miter;
stroke-miterlimit: 4;
}
.g7_232{
fill: #6C1B78;
}
.g8_232{
fill: #ED1C24;
}
]]></style>
</defs>
<image preserveAspectRatio="none" x="0" y="0" width="434" height="650" xlink:href="img/1.png" />
<path d="M57.4,623.1c0,1,.2,1.3,.4,1.4c.2,.1,.5,.1,.7,.1c.1,0,.2,0,.2,.1c0,.1,-.1,.1,-.3,.1c-.8,0,-1.3,0,-1.5,0c-.2,0,-.7,0,-1.4,0c-.2,0,-.3,0,-.3,-.1l.2,-.1c.2,0,.4,0,.6,-.1c.3,-.1,.4,-.5,.4,-1.5l.1,-7.4c0,-.3,0,-.5,.2,-.5c.1,0,.2,.2,.4,.4c.2,.2,2.1,2.2,3.9,4c.8,.9,2.5,2.7,2.7,2.9h.1l-.1,-5.6c0,-.8,-.1,-1,-.4,-1.2c-.2,0,-.5,0,-.7,0c-.2,0,-.2,-.1,-.2,-.1c0,-.1,.1,-.2,.3,-.2c.7,0,1.3,.1,1.5,.1c.2,0,.6,-.1,1.3,-.1c.1,0,.2,.1,.2,.2c0,0,0,.1,-.2,.1c-.1,0,-.2,0,-.4,0c-.3,.1,-.4,.4,-.4,1.1l-.2,7.9c0,.2,0,.3,-.1,.3c-.2,0,-.3,-.1,-.4,-.2c-.8,-.8,-2.4,-2.4,-3.7,-3.7c-1.4,-1.4,-2.8,-2.9,-3,-3.2Z" class="g0_232" />
<path d="M69.7,620.1c0,-2.2,1.4,-4.9,5.1,-4.9c3.2,0,5.1,1.8,5.1,4.6c0,2.9,-2,5.2,-5.2,5.2c-3.6,0,-5,-2.7,-5,-4.9m8.4,.2c0,-2.8,-1.6,-4.5,-3.6,-4.5c-1.5,0,-3.1,.8,-3.1,3.9c0,2.6,1.4,4.6,3.8,4.6c.9,0,2.9,-.4,2.9,-4Z" class="g0_232" />
<path d="M84,616.6c-.3,-.7,-.5,-.9,-1,-1c-.2,0,-.4,0,-.5,0l-.1,-.1c0,-.1,.1,-.2,.3,-.2c.7,0,1.4,.1,1.8,.1c.3,0,.9,-.1,1.6,-.1c.1,0,.3,.1,.3,.2l-.2,.1c-.2,0,-.4,0,-.5,.1l-.1,.2c0,.2,.1,.5,.2,1l2.2,5.7c.6,-1.4,2.2,-5.4,2.5,-6.3c.1,-.1,.1,-.3,.1,-.4l-.1,-.3c-.2,0,-.4,0,-.5,0l-.3,-.1c0,-.1,.2,-.2,.4,-.2c.6,0,1.1,.1,1.3,.1c.2,0,.8,-.1,1.2,-.1c.1,0,.2,.1,.2,.2l-.2,.1c-.1,0,-.3,0,-.6,.1c-.1,.1,-.3,.3,-.7,1.1c-.4,1.2,-.8,1.9,-1.5,3.4c-.8,1.9,-1.3,3.2,-1.6,3.8c-.3,.8,-.4,1,-.6,1c-.2,0,-.2,-.2,-.5,-.8Z" class="g0_232" />
<path d="M97.2,621.5l-.1,.1l-.7,1.8c-.1,.3,-.2,.6,-.2,.8c0,.2,.1,.4,.5,.4h.2c.1,0,.2,0,.2,.1c0,.1,-.1,.1,-.2,.1c-.4,0,-1,0,-1.4,0c-.1,0,-.8,0,-1.4,0c-.2,0,-.3,0,-.3,-.1l.2,-.1l.4,-.1c.5,0,.8,-.5,1,-1.1l3.2,-7.8c.1,-.4,.2,-.5,.3,-.5c.1,0,.2,.1,.3,.4c.3,.7,2.3,5.8,3.1,7.7c.5,1.1,.9,1.3,1.1,1.3c.2,.1,.4,.1,.6,.1l.1,.1c0,.1,-.1,.1,-.6,.1c-.4,0,-1.3,0,-2.3,0c-.2,0,-.4,0,-.4,-.1l.2,-.1c.1,-.1,.2,-.2,.1,-.3l-1,-2.7l-.1,-.1Zm2.5,-.6l.1,-.1l-1.1,-3.1l-.1,-.1l-.1,.1l-1.1,3.1v.1Z" class="g0_232" />
<path d="M107.9,619c0,-1.9,0,-2.3,0,-2.7c0,-.4,-.1,-.6,-.5,-.7c-.1,0,-.3,0,-.5,0c-.1,0,-.2,-.1,-.2,-.1c0,-.1,.1,-.2,.3,-.2c.6,0,1.4,.1,1.7,.1c.4,0,1.3,-.1,1.7,-.1c.8,0,1.7,.1,2.3,.6c.4,.2,.9,.9,.9,1.7c0,.9,-.4,1.8,-1.7,2.8c1.1,1.4,2,2.5,2.7,3.3c.7,.7,1.3,.8,1.4,.8c.2,.1,.3,.1,.4,.1l.1,.1q0,.1,-.2,.1h-1.2c-.7,0,-1,-.1,-1.3,-.2c-.6,-.3,-1,-.9,-1.7,-1.9c-.5,-.7,-1.1,-1.5,-1.3,-1.7l-.2,-.1h-1.1l-.1,.1v.2c0,1.1,0,2.1,.1,2.6c0,.4,.1,.7,.5,.7c.2,0,.4,.1,.6,.1l.1,.1c0,.1,-.1,.1,-.2,.1c-.7,0,-1.7,0,-1.9,0c-.2,0,-1,0,-1.5,0c-.1,0,-.2,0,-.2,-.1q0,-.1,.2,-.1c.2,0,.3,-.1,.4,-.1c.3,0,.3,-.3,.4,-.7c0,-.5,0,-1.5,0,-2.6Zm1.5,1l.1,.2c.3,.1,.7,.1,1,.1c.5,0,.6,0,.9,-.2c.3,-.3,.7,-.9,.7,-1.9c0,-1.8,-1.2,-2.3,-1.9,-2.3c-.3,0,-.5,0,-.7,.1l-.1,.2Z" class="g0_232" />
<path d="M121,616l-1.9,.1c-.7,0,-1,.1,-1.2,.4c-.1,.1,-.2,.3,-.2,.4l-.1,.1l-.1,-.2c0,-.2,.2,-1.3,.2,-1.4q.1,-.2,.2,-.2c.1,0,.2,.1,.5,.1c.4,.1,.9,.1,1.3,.1h4.9c.8,0,1.1,-.2,1.2,-.2c.1,0,.1,.1,.1,.3c0,.3,0,1.1,0,1.5l-.1,.2c-.1,0,-.2,-.1,-.2,-.3v-.1c0,-.3,-.3,-.7,-1.5,-.7l-1.5,-.1v5.2c0,1.1,0,2.1,0,2.6c.1,.4,.1,.7,.5,.7c.2,0,.5,.1,.7,.1l.2,.1l-.3,.1c-.8,0,-1.6,0,-1.9,0c-.3,0,-1.1,0,-1.6,0c-.2,0,-.3,0,-.3,-.1c0,-.1,.1,-.1,.2,-.1c.2,0,.4,-.1,.5,-.1c.2,0,.3,-.3,.3,-.7c.1,-.5,.1,-1.5,.1,-2.6Z" class="g0_232" />
<path d="M130.7,619c0,-1.9,0,-2.3,0,-2.7c0,-.4,-.2,-.6,-.4,-.7c-.2,0,-.3,0,-.5,0l-.2,-.2c0,0,.1,-.1,.3,-.1c.5,0,1.3,.1,1.6,.1c.4,0,1.1,-.1,1.6,-.1c.1,0,.2,.1,.2,.1l-.2,.2c-.1,0,-.2,0,-.3,0c-.4,.1,-.5,.3,-.5,.7c0,.4,0,.8,0,2.7v2.2c0,1.2,0,2.2,0,2.7c.1,.3,.1,.6,.5,.6c.2,0,.5,.1,.7,.1c.1,0,.2,0,.2,.1l-.3,.1c-.8,0,-1.6,0,-1.9,0c-.3,0,-1.1,0,-1.6,0c-.2,0,-.3,0,-.3,-.1c0,-.1,.1,-.1,.2,-.1c.2,0,.4,-.1,.5,-.1c.2,0,.3,-.2,.4,-.6c0,-.5,0,-1.5,0,-2.7Z" class="g0_232" />
<path d="M138.2,624.6c-.2,0,-.3,-.1,-.3,-.4c0,-.7,.1,-1.4,.1,-1.6c0,-.2,.1,-.3,.2,-.3l.1,.2c0,.1,0,.4,.1,.6c.3,.9,1,1.3,1.8,1.3c1.1,0,1.7,-.8,1.7,-1.5c0,-.6,-.2,-1.2,-1.3,-2l-.5,-.4c-1.4,-1.1,-1.9,-2,-1.9,-3c0,-1.3,1.2,-2.3,2.9,-2.3c.8,0,1.3,.1,1.7,.2l.1,.1c0,.2,0,.6,0,1.5c0,.3,0,.4,-.1,.4c-.1,0,-.2,-.1,-.2,-.2c0,-.1,0,-.5,-.3,-.8c-.2,-.3,-.5,-.7,-1.4,-.7c-.9,0,-1.5,.6,-1.5,1.3c0,.6,.3,1,1.4,1.8l.3,.3c1.5,1.2,2.1,2,2.1,3.2c0,.7,-.3,1.6,-1.2,2.2c-.6,.4,-1.3,.5,-2,.5c-.7,0,-1.3,-.1,-1.8,-.4Z" class="g0_232" />
<path d="M38.2,625.6c-6.9,-.5,-9,-4.5,-6.7,-9c1.2,-2.4,3.2,-5,.9,-7.4l.1,-.1c5.1,2.1,2.4,6.2,1.6,8c-1.8,3.4,-.7,7.5,4.1,8.4v.1Z" class="g1_232" />
<path d="M39.1,621.8l1.2,-14.5H37.6L39,621.8h.1Z" class="g0_232" />
<path d="M42.3,614.5c1.7,1.4,4.5,8.9,-2.3,11v.1c10.8,-1.3,7.1,-9.1,2.4,-11.2l-.1,.1Z" class="g2_232" />
<path d="M275.9,607.3c0,11.1,-8.9,20,-19.9,20c-11.1,0,-20,-8.9,-20,-20c0,-11,8.9,-19.9,20,-19.9c11,0,19.9,8.9,19.9,19.9Z" class="g3_232" />
<path d="M245.1,611.3h.1v.1l.3,-.1l.2,-.1l.3,.1l.2,.2l.1,.2c0,0,0,.1,0,.3v.8h-.2v-.9c0,-.2,0,-.3,-.1,-.4c0,0,-.2,-.1,-.3,-.1l-.2,.1l-.2,.1v.2l-.1,.2v.8h-.1Z" class="g4_232" />
<path d="M247.2,611.1h-.1l.3,-.5h.2Zm-.6,.2h.2v.8c0,.2,0,.3,.1,.4c.1,.1,.2,.1,.3,.1h.3l.1,-.2l.1,-.1v-1h.2v1.5h-.2v-.2l-.2,.1l-.3,.1c-.2,0,-.3,-.1,-.4,-.2c-.1,-.1,-.2,-.3,-.2,-.6Z" class="g4_232" />
<path d="M249.4,611.7l-.2,-.2l-.3,-.1c-.2,0,-.3,.1,-.4,.2c-.1,.1,-.2,.2,-.2,.4c0,.2,.1,.3,.2,.4c.1,.2,.2,.2,.4,.2l.3,-.1l.2,-.2h.2c-.1,.2,-.2,.3,-.3,.4c-.1,.1,-.3,.1,-.4,.1c-.2,0,-.4,-.1,-.6,-.2c-.1,-.2,-.2,-.4,-.2,-.6c0,-.2,.1,-.4,.2,-.6c.2,-.1,.4,-.2,.6,-.2c.1,0,.3,.1,.4,.1c.1,.1,.2,.3,.3,.4Z" class="g4_232" />
<path d="M249.9,612.8h.2v-2h-.2v2Z" class="g4_232" />
<path d="M251.6,611.9c0,-.2,-.1,-.3,-.2,-.4c-.1,-.1,-.2,-.1,-.3,-.1c-.2,0,-.3,0,-.4,.1c-.1,.1,-.2,.2,-.2,.4Zm.3,.2h-1.4c0,.1,.1,.3,.2,.4c.1,.1,.2,.1,.4,.1l.3,-.1l.2,-.2h.2c-.1,.1,-.2,.3,-.3,.4c-.1,.1,-.3,.1,-.4,.1c-.2,0,-.4,-.1,-.6,-.2c-.1,-.2,-.2,-.4,-.2,-.6c0,-.2,.1,-.4,.2,-.6c.2,-.1,.4,-.2,.6,-.2c.2,0,.4,.1,.5,.2c.2,.2,.3,.4,.3,.7Z" class="g4_232" />
<path d="M252.2,612c0,.2,0,.3,.2,.4c.1,.2,.2,.2,.4,.2c.1,0,.3,0,.4,-.2c.1,-.1,.1,-.2,.1,-.4c0,-.2,0,-.3,-.1,-.4c-.1,-.1,-.3,-.2,-.4,-.2c-.2,0,-.3,.1,-.4,.2c-.2,.1,-.2,.2,-.2,.4m-.2,0c0,-.2,.1,-.4,.2,-.6c.2,-.1,.3,-.2,.6,-.2c.2,0,.4,.1,.5,.2c.2,.2,.2,.4,.2,.6c0,.2,0,.4,-.2,.6c-.1,.1,-.3,.2,-.5,.2c-.2,0,-.4,-.1,-.6,-.2c-.1,-.2,-.2,-.4,-.2,-.6Z" class="g4_232" />
<path d="M255.8,612c0,-.1,-.1,-.3,-.2,-.4c-.1,-.1,-.2,-.2,-.4,-.2c-.1,0,-.3,.1,-.4,.2c-.1,.1,-.1,.2,-.1,.4c0,.2,0,.3,.1,.4c.1,.2,.3,.2,.4,.2c.2,0,.3,0,.4,-.2c.1,-.1,.2,-.2,.2,-.4m0,-.5v-.7h.2v2h-.2v-.3l-.3,.2l-.3,.1c-.2,0,-.4,-.1,-.5,-.2c-.2,-.2,-.2,-.4,-.2,-.6c0,-.2,0,-.4,.2,-.6c.1,-.1,.3,-.2,.5,-.2l.4,.1l.2,.2Z" class="g4_232" />
<path d="M257.6,611.9c-.1,-.2,-.1,-.3,-.2,-.4c-.1,-.1,-.3,-.1,-.4,-.1c-.2,0,-.3,0,-.4,.1c-.1,.1,-.2,.2,-.2,.4Zm.2,.2h-1.4c0,.1,.1,.3,.2,.4c.1,.1,.2,.1,.4,.1l.3,-.1l.2,-.2h.2c0,.1,-.1,.3,-.3,.4c-.1,.1,-.2,.1,-.4,.1c-.2,0,-.4,-.1,-.6,-.2c-.1,-.2,-.2,-.4,-.2,-.6c0,-.2,.1,-.4,.2,-.6c.2,-.1,.4,-.2,.6,-.2c.2,0,.4,.1,.6,.2c.1,.2,.2,.4,.2,.7Z" class="g4_232" />
<path d="M258.8,611.3h.2v1.5h-.2v-1.5Zm.2,-.2h-.2v-.3h.2v.3Z" class="g4_232" />
<path d="M259.3,611.3h.2v.1l.2,-.1l.2,-.1l.3,.1l.2,.2l.1,.2c0,0,0,.1,0,.3v.8h-.2v-.9c0,-.2,0,-.3,-.1,-.4c0,0,-.2,-.1,-.3,-.1l-.2,.1l-.2,.1v1.2h-.2Z" class="g4_232" />
<path d="M261,612.8v-1.3h-.3v-.2h.3v-.5h.1v.5h.3v.2h-.3v1.3Z" class="g4_232" />
<path d="M262.8,611.9c0,-.2,-.1,-.3,-.2,-.4c-.1,-.1,-.2,-.1,-.3,-.1c-.2,0,-.3,0,-.4,.1c-.1,.1,-.2,.2,-.2,.4Zm.3,.2h-1.4c0,.1,.1,.3,.2,.4c.1,.1,.2,.1,.4,.1l.3,-.1l.2,-.2h.2c-.1,.1,-.2,.3,-.3,.4c-.1,.1,-.3,.1,-.4,.1c-.2,0,-.4,-.1,-.6,-.2c-.1,-.2,-.2,-.4,-.2,-.6c0,-.2,.1,-.4,.2,-.6c.2,-.1,.4,-.2,.6,-.2c.2,0,.4,.1,.5,.2c.2,.2,.3,.4,.3,.7Z" class="g4_232" />
<path d="M263.5,612.8h-.2v-1.5h.2v.1l.1,-.1l.2,-.1v.2l-.3,.2c0,0,0,.1,0,.3Z" class="g4_232" />
<path d="M264,611.3h.2v.1l.2,-.1l.2,-.1l.3,.1l.2,.2l.1,.2c0,0,0,.1,0,.3v.8H265v-.9c0,-.2,0,-.3,-.1,-.4c0,0,-.1,-.1,-.3,-.1l-.2,.1l-.2,.1v1.2H264Z" class="g4_232" />
<path d="M265.7,612c0,.2,0,.3,.1,.4c.1,.2,.3,.2,.4,.2c.2,0,.3,0,.4,-.2c.1,-.1,.2,-.2,.2,-.4c0,-.2,-.1,-.3,-.2,-.4c-.1,-.1,-.2,-.2,-.4,-.2c-.1,0,-.3,.1,-.4,.2c-.1,.1,-.1,.2,-.1,.4m-.2,0c0,-.2,0,-.4,.2,-.6c.1,-.1,.3,-.2,.5,-.2c.2,0,.4,.1,.6,.2c.1,.2,.2,.4,.2,.6c0,.2,-.1,.4,-.2,.6c-.2,.1,-.4,.2,-.6,.2c-.2,0,-.4,-.1,-.5,-.2c-.2,-.2,-.2,-.4,-.2,-.6Z" class="g4_232" />
<path d="M267.1,612.3h.2l.1,.2l.2,.1l.2,-.1l.1,-.1l-.1,-.2l-.2,-.1c-.2,-.1,-.3,-.2,-.3,-.2l-.1,-.3l.1,-.3l.3,-.1l.3,.1l.2,.3h-.2l-.1,-.1l-.2,-.1l-.1,.1l-.1,.1v.1l.1,.1l.2,.1h.1l.2,.2l.1,.3l-.1,.3l-.4,.1c-.1,0,-.2,0,-.3,-.1c-.1,-.1,-.2,-.3,-.2,-.4Z" class="g4_232" />
<path d="M246.2,614.6c0,-.2,-.1,-.3,-.2,-.4l-.3,-.2c-.2,0,-.3,.1,-.4,.2c-.1,.1,-.1,.2,-.1,.4c0,.1,0,.3,.1,.4c.1,.1,.2,.1,.4,.1l.3,-.1c.1,-.1,.2,-.3,.2,-.4m0,-.5v-.6h.1v1.8h-.1V615l-.3,.2l-.2,.1c-.2,0,-.4,-.1,-.5,-.2c-.2,-.2,-.2,-.3,-.2,-.5c0,-.2,0,-.4,.2,-.5c.1,-.1,.3,-.2,.5,-.2h.2l.3,.2Z" class="g4_232" />
<path d="M247.7,614.5c0,-.2,-.1,-.3,-.1,-.3c-.1,-.1,-.2,-.2,-.4,-.2l-.3,.2l-.2,.3Zm.2,.1h-1.2c0,.2,.1,.3,.2,.4c.1,.1,.2,.1,.3,.1l.3,-.1l.2,-.2h.2c-.1,.2,-.2,.3,-.3,.4c-.1,0,-.2,.1,-.4,.1c-.2,0,-.3,-.1,-.5,-.2c-.1,-.2,-.2,-.3,-.2,-.5c0,-.2,.1,-.4,.2,-.5c.2,-.2,.3,-.2,.5,-.2c.2,0,.4,0,.5,.2c.2,.1,.2,.3,.2,.5Z" class="g4_232" />
<path d="M250.1,614.1l.2,-.2h.3c.1,0,.3,0,.4,.2c0,.1,.1,.2,.1,.5v.6h-.2v-.7c0,-.1,0,-.3,-.1,-.3l-.3,-.1h-.2l-.1,.1v.2l-.1,.2v.6H250v-.7c0,-.2,0,-.3,-.1,-.3l-.3,-.1h-.2l-.1,.1l-.1,.2v.8H249v-1.3h.2v.2l.2,-.2h.2l.3,.1l.2,.1Z" class="g4_232" />
<path d="M252.5,614.5c-.1,-.2,-.1,-.3,-.2,-.3c-.1,-.1,-.2,-.2,-.3,-.2l-.4,.2l-.1,.3Zm.2,.1h-1.2c0,.2,0,.3,.1,.4c.1,.1,.2,.1,.4,.1l.2,-.1l.2,-.2h.2c0,.2,-.1,.3,-.2,.4c-.1,0,-.3,.1,-.4,.1c-.2,0,-.4,-.1,-.5,-.2c-.1,-.2,-.2,-.3,-.2,-.5c0,-.2,0,-.4,.2,-.5c.1,-.2,.3,-.2,.5,-.2c.2,0,.3,0,.5,.2c.1,.1,.2,.3,.2,.5Z" class="g4_232" />
<path d="M254,614.6c0,-.2,-.1,-.3,-.2,-.4l-.3,-.2c-.2,0,-.3,.1,-.4,.2c-.1,.1,-.1,.2,-.1,.4c0,.1,0,.3,.1,.4c.1,.1,.2,.1,.4,.1l.3,-.1c.1,-.1,.2,-.3,.2,-.4m0,-.5v-.6h.2v1.8H254V615l-.2,.2l-.3,.1c-.2,0,-.4,-.1,-.5,-.2c-.1,-.2,-.2,-.3,-.2,-.5c0,-.2,.1,-.4,.2,-.5c.1,-.1,.3,-.2,.5,-.2h.3l.2,.2Z" class="g4_232" />
<path d="M254.4,613.9h.2v1.3h-.2v-1.3Zm.2,-.1h-.2v-.3h.2v.3Z" class="g4_232" />
<path d="M255.9,614.3l-.1,-.2l-.3,-.1c-.2,0,-.3,.1,-.4,.2c-.1,.1,-.1,.2,-.1,.4c0,.1,0,.3,.1,.4c.1,.1,.2,.1,.4,.1l.3,-.1l.1,-.2h.2c0,.2,-.1,.3,-.2,.4c-.1,0,-.3,.1,-.4,.1c-.2,0,-.4,-.1,-.5,-.2c-.1,-.2,-.2,-.3,-.2,-.5c0,-.2,.1,-.4,.2,-.5c.1,-.2,.3,-.2,.5,-.2c.1,0,.3,0,.4,.1c.1,.1,.2,.2,.2,.3Z" class="g4_232" />
<path d="M256.4,613.9h.2v1.3h-.2v-1.3Zm.2,-.1h-.2v-.3h.2v.3Z" class="g4_232" />
<path d="M256.8,613.9h.2v.2l.2,-.2c.5,-.1,.8,.2,.7,.7v.6h-.1v-.7c0,-.2,-.1,-.3,-.1,-.3l-.3,-.1h-.2l-.1,.1l-.1,.2v.8h-.2Z" class="g4_232" />
<path d="M259.3,614.6c0,-.2,0,-.3,-.1,-.4l-.4,-.2c-.1,0,-.2,.1,-.3,.2c-.1,.1,-.2,.2,-.2,.4c0,.1,.1,.3,.2,.4c.1,.1,.2,.1,.3,.1l.4,-.1c.1,-.1,.1,-.3,.1,-.4m0,.4l-.2,.2l-.3,.1c-.2,0,-.3,-.1,-.5,-.2c-.1,-.1,-.1,-.3,-.1,-.5c0,-.2,0,-.4,.1,-.5c.2,-.1,.3,-.2,.5,-.2h.3l.2,.2v-.2h.2v1.3h-.2Z" class="g4_232" />
<path d="M260.7,613.9h.2v1.3h-.2v-1.3Zm.2,-.1h-.2v-.3h.2v.3Z" class="g4_232" />
<path d="M261.2,613.9h.1v.2l.2,-.2c.5,-.1,.8,.2,.8,.7v.6h-.2v-.7c0,-.2,0,-.3,-.1,-.3l-.3,-.1h-.2l-.1,.1l-.1,.2v.8h-.1Z" class="g4_232" />
<path d="M262.7,615.2v-1.1h-.3v-.2h.3v-.4h.1v.4h.3v.2h-.3v1.1Z" class="g4_232" />
<path d="M264.3,614.5c0,-.2,0,-.3,-.1,-.3c-.1,-.1,-.2,-.2,-.4,-.2l-.3,.2l-.2,.3Zm.2,.1h-1.2c0,.2,.1,.3,.2,.4c.1,.1,.2,.1,.3,.1l.3,-.1l.2,-.2h.2c-.1,.2,-.2,.3,-.3,.4c-.1,0,-.2,.1,-.4,.1c-.1,0,-.3,-.1,-.4,-.2c-.2,-.2,-.2,-.3,-.2,-.5c0,-.2,0,-.4,.1,-.5c.2,-.2,.3,-.2,.6,-.2c.2,0,.3,0,.4,.2c.2,.1,.2,.3,.2,.5Z" class="g4_232" />
<path d="M264.9,615.2h-.2v-1.3h.2v.2l.1,-.2h.2v.2l-.2,.1l-.1,.2Z" class="g4_232" />
<path d="M265.4,613.9h.1v.2l.2,-.2c.5,-.1,.8,.2,.8,.7v.6h-.2v-.7c0,-.2,0,-.3,-.1,-.3l-.3,-.1h-.2l-.1,.1l-.1,.2v.8h-.1Z" class="g4_232" />
<path d="M267.9,614.6c0,-.2,-.1,-.3,-.2,-.4l-.3,-.2c-.2,0,-.3,.1,-.4,.2c-.1,.1,-.2,.2,-.2,.4c0,.1,.1,.3,.2,.4c.1,.1,.2,.1,.4,.1l.3,-.1c.1,-.1,.2,-.3,.2,-.4m0,.4l-.3,.2l-.2,.1c-.2,0,-.4,-.1,-.5,-.2c-.2,-.1,-.2,-.3,-.2,-.5c0,-.2,0,-.4,.2,-.5c.1,-.1,.3,-.2,.5,-.2h.2l.3,.2v-.2h.1v1.3h-.1Z" class="g4_232" />
<path d="M256.1,626c0,0,.1,0,.3,-.1c.2,0,.5,0,.9,0c.9,-.1,2.1,-.2,3.6,-.6c1.4,-.4,3.2,-1.1,5,-2.3c1.7,-1.2,3.5,-2.9,4.9,-5.1c.7,-1.1,1.3,-2.4,1.8,-3.7c.4,-1.3,.7,-2.7,.9,-4.2c0,-.2,0,-.4,0,-.5c0,-.2,0,-.4,0,-.6c0,-.2,0,-.4,0,-.6v-.5c0,-.2,0,-.4,0,-.6c0,-.2,-.1,-.4,-.1,-.6c0,-.3,-.1,-.7,-.2,-1.1c-.1,-.8,-.3,-1.5,-.5,-2.3c-.1,-.3,-.3,-.7,-.4,-1.1c-.1,-.2,-.2,-.3,-.2,-.5l-.1,-.3l-.2,-.3c-1.3,-2.8,-3.6,-5.4,-6.3,-7.2c-1.4,-.8,-2.9,-1.5,-4.5,-2c-.8,-.2,-1.6,-.4,-2.4,-.5l-.7,-.1c-.2,0,-.4,0,-.6,-.1h-1.9c-.2,0,-.4,0,-.6,0c-.2,.1,-.4,.1,-.6,.1l-.6,.1c-.2,0,-.4,0,-.6,.1h-.3l-.3,.1c-.2,0,-.4,.1,-.6,.1l-.6,.2c-1.6,.5,-3.2,1.2,-4.5,2c-2.8,1.8,-5,4.4,-6.4,7.2l-.1,.3l-.1,.3c-.1,.2,-.2,.3,-.3,.5c-.1,.4,-.2,.8,-.3,1.1c-.3,.8,-.5,1.5,-.6,2.3c-.1,.4,-.1,.8,-.2,1.1c0,.2,0,.4,0,.6c0,.2,0,.4,-.1,.6v.5c0,.2,0,.4,0,.6c0,.2,0,.4,.1,.6c0,.1,0,.3,0,.5c.1,1.5,.4,2.9,.9,4.2c.4,1.3,1,2.6,1.7,3.7c.7,1.1,1.5,2,2.4,2.9c.8,.8,1.7,1.6,2.6,2.2c1.8,1.2,3.5,1.9,5,2.3c1.5,.4,2.7,.5,3.5,.6c.4,0,.7,0,1,0c.2,.1,.3,.1,.3,.1c0,0,-.1,0,-.3,-.1c-.3,0,-.6,0,-1,0c-.8,0,-2,-.2,-3.5,-.6c-.2,0,-.4,-.1,-.6,-.1c-.2,-.1,-.4,-.2,-.6,-.2c-.2,-.1,-.4,-.2,-.6,-.3c-.2,0,-.4,-.1,-.6,-.2c-.9,-.4,-1.8,-.8,-2.7,-1.4c-1.8,-1.2,-3.7,-2.8,-5.2,-5c-1.5,-2.2,-2.7,-4.9,-3.2,-8c0,-.2,0,-.4,0,-.6c-.1,-.2,-.1,-.4,-.1,-.6c0,-.2,0,-.4,0,-.6l-.1,-.2v-.4c0,-.1,0,-.3,0,-.5c0,-.2,.1,-.4,.1,-.6c0,-.5,0,-.9,.1,-1.3c.1,-.8,.2,-1.6,.4,-2.4c.1,-.4,.3,-.8,.4,-1.2c.1,-.2,.1,-.4,.2,-.6l.1,-.3l.1,-.3c.7,-1.6,1.6,-3.1,2.7,-4.5c1.1,-1.4,2.4,-2.6,4,-3.7c.7,-.5,1.5,-.9,2.3,-1.4c.8,-.4,1.7,-.7,2.6,-1c.9,-.3,1.8,-.4,2.7,-.6l.7,-.1c.2,0,.5,0,.7,0c.2,-.1,.4,-.1,.7,-.1h1.7l.4,.1c.2,0,.4,0,.7,0l.6,.1c1,.2,1.9,.3,2.8,.6c.8,.3,1.7,.6,2.5,1c.9,.4,1.6,.9,2.4,1.4c1.5,1,2.8,2.3,4,3.7c1.1,1.4,2,2.9,2.6,4.5l.1,.3l.2,.3c0,.2,.1,.4,.2,.6c.1,.4,.2,.8,.3,1.2c.2,.8,.4,1.6,.5,2.4c0,.4,.1,.8,.1,1.2c0,.3,0,.5,0,.7c0,.2,0,.4,0,.6v.6c0,.1,0,.3,0,.5c-.1,.2,-.1,.4,-.1,.6c0,.2,0,.4,-.1,.6c-.4,3.1,-1.6,5.8,-3.1,8c-1.6,2.2,-3.4,3.8,-5.3,5c-.9,.6,-1.8,1,-2.6,1.4c-.2,.1,-.5,.2,-.7,.2c-.2,.1,-.4,.2,-.6,.3c-.2,0,-.4,.1,-.6,.2c-.2,0,-.4,.1,-.5,.1c-1.5,.4,-2.7,.6,-3.6,.6c-.4,0,-.7,0,-.9,0c-.2,.1,-.3,.1,-.3,.1Z" class="g4_232" />
<path d="M252.9,601.8c-.5,0,-1,-.4,-1,-.9c0,-.4,.5,-.8,1,-.8c.6,0,1,.4,1,.8c0,.5,-.4,.9,-1,.9Z" class="g5_232" />
<path d="M267.8,601.8c-.6,0,-1,-.4,-1,-.9c0,-.4,.4,-.8,1,-.8c.5,0,1,.4,1,.8c0,.5,-.5,.9,-1,.9Z" class="g5_232" />
<path d="M245,602.7h.9v.8c.3,-.3,.6,-.6,1,-.7c.3,-.2,.7,-.2,1.2,-.2c.5,0,1,.1,1.4,.3c.4,.1,.7,.4,.9,.8c.2,.2,.3,.5,.4,.9c0,.3,.1,.8,.1,1.5v3.6H250v-3.9c0,-.8,-.2,-1.4,-.5,-1.8c-.3,-.4,-.8,-.6,-1.5,-.6c-.4,0,-.8,.1,-1.1,.3c-.3,.1,-.5,.4,-.7,.7c-.1,.2,-.2,.4,-.2,.6c-.1,.3,-.1,.7,-.1,1.3v3.4H245Z" class="g4_232" />
<path d="M252.5,609.7h.9v-7h-.9v7Z" class="g4_232" />
<path d="M260.5,603.8c.3,-.4,.6,-.7,1,-.9c.5,-.2,.9,-.3,1.5,-.3c.9,0,1.6,.2,2,.8c.5,.6,.7,1.5,.7,2.8v3.5h-.9V606c0,-.9,-.1,-1.6,-.4,-2c-.3,-.4,-.8,-.6,-1.5,-.6c-.4,0,-.8,.1,-1.1,.3c-.3,.1,-.5,.4,-.7,.7c-.1,.2,-.2,.4,-.2,.6c-.1,.3,-.1,.7,-.1,1.3v3.4h-.9v-3.9c0,-.8,-.1,-1.4,-.5,-1.8c-.3,-.4,-.8,-.6,-1.5,-.6c-.4,0,-.7,.1,-1,.3c-.3,.1,-.6,.4,-.8,.7c-.1,.2,-.2,.4,-.2,.6c0,.3,-.1,.7,-.1,1.3v3.4h-.9v-7h.9v.8c.3,-.3,.6,-.5,1,-.7c.3,-.2,.8,-.2,1.2,-.2c.5,0,1,.1,1.5,.3c.4,.2,.7,.5,1,.9Z" class="g4_232" />
<path d="M267.3,609.7h.9v-7h-.9v7Z" class="g4_232" />
<image preserveAspectRatio="none" x="290" y="-11" width="143" height="670" xlink:href="img/2.png" />
<path d="M362,591.8L331.3,561.6l30.5,-30.3l29.8,30.3L362,591.8Z" class="g6_232" />
<path fill-rule="evenodd" d="M347,564.4c1.3,.8,2.6,1.8,2.6,3.9c0,2.2,-1,3.2,-2.5,3.2c-1.8,0,-3.8,-2.2,-4,-4.5c0,-.3,-.1,-.3,-.4,-.3c-.2,0,-.1,-.2,-.1,0c-.1,.7,.3,3.1,.3,3.8c0,.5,.3,.7,.7,1c.8,.7,2.1,1,3,1c1.2,0,3,-.6,3.9,-1.6c.8,-1,1,-2.7,1,-4.2c0,-1.1,-.7,-1.9,-1.3,-2.7c-.5,-.7,-1.3,-1.4,-2,-1.8c-1.2,-.8,-2.9,-1.6,-2.9,-3.9c0,-2,1,-2.9,2.3,-2.9c1.5,0,2.1,.9,2.5,2.8c.1,.2,.4,1.1,.6,1.1c.1,0,.1,-.6,.1,-.8c0,-.7,.1,-1.4,.1,-2.1c-.1,-.5,-.1,-1.3,-.5,-1.5c-.7,-.4,-2.3,-.4,-3,-.4c-1.9,0,-3.8,2,-3.8,4.9c0,2.3,1.8,4,3.3,4.9Z" class="g7_232" />
<path fill-rule="evenodd" d="M341.3,577.7c0,2,1.7,4.5,4.5,4.5c3.4,-.4,4.7,-.9,4.7,-.9l9.4,-3c4.3,-1.5,25.6,-4.3,25.6,-4.3l.2,-.8c-3.8,-1.6,-44.5,2.6,-44.4,4.5Z" class="g8_232" />
<path fill-rule="evenodd" d="M375.8,567.8c0,1.7,.1,3.6,-1.8,3.6c-.2,0,-.6,.1,-.6,.5c0,.3,.2,.3,.4,.3c1,0,2,-.1,3,-.1c1,0,2,.1,3,.1c.2,0,.4,0,.4,-.3c0,-.4,-.4,-.6,-.7,-.6c-1.8,0,-1.7,-1.8,-1.7,-3.5v-8.5c0,-1.8,-.1,-3.8,1.7,-3.8c.3,0,.7,0,.7,-.4c0,-.3,-.2,-.4,-.4,-.4c-1,0,-2,.1,-3,.1c-1,0,-2,-.1,-3,-.1c-.2,0,-.4,.1,-.4,.4c0,.4,.4,.4,.6,.4c1.9,0,1.8,2.1,1.8,3.8Z" class="g7_232" />
<path fill-rule="evenodd" d="M359.5,556.3c-.1,-.4,.6,-1.6,.2,-1.6h-3.3c-.3,0,-.7,-.1,-.7,.3c0,.4,0,.6,.2,.6c1.2,0,1.6,.6,1.5,2l-1,10.6c0,1.4,-.6,3.1,-1.9,3.1c-.2,0,-.4,-.1,-.4,.2c0,.3,-.1,.7,.1,.7c.7,0,2.3,-.1,2.9,-.1h2.7c.2,0,.1,-.3,.1,-.7c0,-.4,-.6,-.3,-.8,-.3c-1.6,0,-1.7,-1.4,-1.6,-3.1l.9,-8.8l3.9,12c.1,.2,.3,.6,.5,.6c.2,0,.6,.1,.6,-.1l4.7,-13.2l.3,10.7c0,.5,-.1,1.3,-.4,1.7c-.3,.3,-.7,.3,-1,.3c-.2,0,-.7,.2,-.7,.7c0,.3,.2,.3,.4,.3c.9,0,1.7,-.1,2.6,-.1c.8,0,2.4,0,3.1,0c.2,0,.2,-.1,.2,-.4c0,-.4,-.9,-.6,-1.1,-.6c-.3,0,-.3,-.4,-.5,-.8c-.3,-.3,-.4,-2.3,-.4,-2.8l-.4,-9.2c0,-.5,.1,-2,.3,-2.4c.2,-.3,.6,-.4,.9,-.4c.2,0,.6,-.1,.6,-.5c0,-.4,-.6,-.3,-.9,-.3h-3.4c-.2,0,.1,.9,0,1.3l-4.2,11.9Z" class="g7_232" />
<path fill-rule="evenodd" d="M353.5,547c0,-.8,-.2,-.8,.9,-.8c2.2,0,3.6,1.6,3.6,4.1c0,2.2,-.8,3.7,-3.1,4.2c-.1,0,-.1,.4,0,.5c.9,0,2.4,-.3,3.3,-.9c.9,-.5,2,-1.8,2,-4.2c0,-1.7,-.8,-3,-1.8,-3.8c-.9,-.7,-2.1,-1.1,-3.9,-1.1c-1.7,0,-3.9,0,-5,.2c-.2,.1,-.1,.8,.1,1l1.2,.1c.9,0,.9,.5,.9,2.7v9.5c0,2.7,-.8,3.1,-2,3h-.5c-.1,.1,-.1,.9,0,.9c1,0,2.6,-.1,3.5,-.1c.8,0,2.3,0,3.5,.1v-.9l-1.2,-.1c-1.3,-.1,-1.4,-2.5,-1.4,-5.1Z" class="g8_232" />
</svg>