<?xml version="1.0" encoding="UTF-8" standalone="no"?>
<!DOCTYPE svg PUBLIC "-//W3C//DTD SVG 1.1//EN"
"http://www.w3.org/Graphics/SVG/1.1/DTD/svg11.dtd">
<svg viewBox="0 0 433 649" version="1.1" xmlns="http://www.w3.org/2000/svg" xmlns:xlink="http://www.w3.org/1999/xlink">
<defs>
<clipPath id="c0_202"><path d="M0,649.6V0H433V649.6Z" /></clipPath>
<style type="text/css"><![CDATA[
.g0_202{
fill: #9C649E;
}
.g1_202{
fill: #FFFFFF;
}
.g2_202{
fill: none;
stroke: #9C649E;
stroke-width: 1.5277778;
stroke-linecap: butt;
stroke-linejoin: miter;
stroke-miterlimit: 4;
}
.g3_202{
fill: none;
stroke: #9C649E;
stroke-width: 0.77916664;
stroke-linecap: butt;
stroke-linejoin: miter;
}
]]></style>
</defs>
<g clip-path="url(#c0_202)">
<path d="M-4.2,623.6c0,0,-4.4,0,-4.4,4.4v25.9c0,0,0,4.4,4.4,4.4H21.7c0,0,4.3,0,4.3,-4.4V628c0,0,0,-4.4,-4.3,-4.4Z" class="g0_202" />
<path d="M-2.8,44.1c0,0,-4.4,0,-4.4,4.5V238.5c0,0,0,4.5,4.4,4.5h26c0,0,4.4,0,4.4,-4.5V48.6c0,0,0,-4.5,-4.4,-4.5Z" class="g1_202" />
<path d="M-2.8,44.1c0,0,-4.4,0,-4.4,4.5V238.5c0,0,0,4.5,4.4,4.5h26c0,0,4.4,0,4.4,-4.5V48.6c0,0,0,-4.5,-4.4,-4.5h-26Z" class="g2_202" />
</g>
<path d="M43.7,325.3h324V303.7H43.7v21.6Z" class="g0_202" />
<path d="M43.7,324.9V304.1m-.4,-.4H77.1m0,0h291m-.4,21.2V304.1m-324,36.4V325.7m0,30.3V341.3m0,42.5v-27m0,54.7V384.6m0,54.7v-27m0,42.5V440.1m0,54.7V455.6m0,67v-27m0,54.7V523.4m0,66.9V551.1m0,54.7V591.1M43.3,325.3H77.1m0,0h291m-291,15.2V325.7m78.8,14.8V325.7m211.8,14.8V325.7M77.1,356V341.3M155.9,356V341.3M367.7,356V341.3M77.1,383.8v-27m78.8,27v-27m211.8,27v-27M77.1,411.5V384.6m78.8,26.9V384.6m211.8,26.9V384.6M77.1,439.3v-27m78.8,27v-27m211.8,27v-27M77.1,454.8V440.1m78.8,14.7V440.1m211.8,14.7V440.1M77.1,494.8V455.6m78.8,39.2V455.6m211.8,39.2V455.6m-290.6,67v-27m78.8,27v-27m211.8,27v-27M77.1,550.3V523.4m78.8,26.9V523.4m211.8,26.9V523.4M77.1,590.3V551.1m78.8,39.2V551.1m211.8,39.2V551.1M77.1,605.8V591.1m78.8,14.7V591.1m211.8,14.7V591.1M43.3,340.9H77.1m0,0h291M43.3,356.4H77.1m0,0h291M43.3,384.2H77.1m0,0h291M43.3,411.9H77.1m0,0h291M43.3,439.7H77.1m0,0h291M43.3,455.2H77.1m0,0h291m-324.8,40H77.1m0,0h291M43.3,523H77.1m0,0h291M43.3,550.7H77.1m0,0h291m-324.8,40H77.1m0,0h291M43.3,606.2H77.1m0,0h291" class="g3_202" />
</svg>