<?xml version="1.0" encoding="UTF-8" standalone="no"?>
<!DOCTYPE svg PUBLIC "-//W3C//DTD SVG 1.1//EN"
"http://www.w3.org/Graphics/SVG/1.1/DTD/svg11.dtd">
<svg viewBox="0 0 433 649" version="1.1" xmlns="http://www.w3.org/2000/svg" xmlns:xlink="http://www.w3.org/1999/xlink">
<defs>
<clipPath id="c0_42"><path d="M0,649.6V0H433V649.6Z" /></clipPath>
<style type="text/css"><![CDATA[
.g0_42{
fill: #9C649E;
}
.g1_42{
fill: #FFFFFF;
}
.g2_42{
fill: none;
stroke: #9C649E;
stroke-width: 1.5277778;
stroke-linecap: butt;
stroke-linejoin: miter;
stroke-miterlimit: 4;
}
.g3_42{
fill: none;
stroke: #9C649E;
stroke-width: 0.77916664;
stroke-linecap: butt;
stroke-linejoin: miter;
}
]]></style>
</defs>
<g clip-path="url(#c0_42)">
<path d="M-4.2,623.6c0,0,-4.4,0,-4.4,4.4v25.9c0,0,0,4.4,4.4,4.4H21.7c0,0,4.3,0,4.3,-4.4V628c0,0,0,-4.4,-4.3,-4.4Z" class="g0_42" />
<path d="M-2.8,44.1c0,0,-4.4,0,-4.4,4.5V238.5c0,0,0,4.5,4.4,4.5h26c0,0,4.4,0,4.4,-4.5V48.6c0,0,0,-4.5,-4.4,-4.5Z" class="g1_42" />
<path d="M-2.8,44.1c0,0,-4.4,0,-4.4,4.5V238.5c0,0,0,4.5,4.4,4.5h26c0,0,4.4,0,4.4,-4.5V48.6c0,0,0,-4.5,-4.4,-4.5h-26Z" class="g2_42" />
</g>
<path d="M43.7,81.9H198.8V63.6H43.7V81.9Z" class="g0_42" />
<path d="M43.7,81.9H165.4v64.4H43.7V81.9Zm121.7,0h33.4v64.4H165.4V81.9ZM43.7,146.3H165.4v52.2H43.7V146.3Zm121.7,0h33.4v52.2H165.4V146.3ZM43.7,198.5H165.4v36.7H43.7V198.5Zm121.7,0h33.4v36.7H165.4V198.5ZM43.7,235.2H165.4v40H43.7v-40Zm121.7,0h33.4v40H165.4v-40Z" class="g1_42" />
<path d="M43.7,81.5V64m-.4,-.4H199.1m-.3,17.9V64M43.7,145.9V82.3m-.4,-.4H165.4m0,64V82.3m0,-.4h33.7m-.3,64V82.3M43.7,198.1V146.7m-.4,-.4H165.4m0,51.8V146.7m0,-.4h33.7m-.3,51.8V146.7M43.7,234.8V198.9m-.4,-.4H199.1m-33.7,36.3V198.9m33.4,35.9V198.9M43.7,274.8V235.6m-.4,-.4H165.4m-122.1,40H165.4m0,-.4V235.6m0,-.4h33.7m-.3,39.6V235.6m-33.4,39.6h33.7" class="g3_42" />
<path d="M212.6,80.9H367.7V63.6H212.6V80.9Z" class="g0_42" />
<path d="M212.6,80.5V64m-.4,-.4H368.1m-.4,16.9V64M212.6,157.2V81.3m-.4,-.4H335.1m0,76.3V81.3m0,-.4h33m-.4,76.3V81.3M212.6,270.5V157.9m-.4,-.4H335.1m0,113V157.9m0,-.4h33m-.4,113V157.9M212.6,322.7V271.3m-.4,-.4H335.1M212.2,323.1H335.1m0,-.4V271.3m0,-.4h33m-.4,51.8V271.3m-32.6,51.8h33" class="g3_42" />
</svg>