<?xml version="1.0" encoding="UTF-8" standalone="no"?>
<!DOCTYPE svg PUBLIC "-//W3C//DTD SVG 1.1//EN"
"http://www.w3.org/Graphics/SVG/1.1/DTD/svg11.dtd">
<svg viewBox="0 0 433 649" version="1.1" xmlns="http://www.w3.org/2000/svg" xmlns:xlink="http://www.w3.org/1999/xlink">
<defs>
<clipPath id="c0_226"><path d="M0,649.6V0H433V649.6Z" /></clipPath>
<style type="text/css"><![CDATA[
.g0_226{
fill: #9C649E;
}
.g1_226{
fill: #FFFFFF;
}
.g2_226{
fill: none;
stroke: #9C649E;
stroke-width: 1.5277778;
stroke-linecap: butt;
stroke-linejoin: miter;
stroke-miterlimit: 4;
}
.g3_226{
fill: #F0E9F1;
}
.g4_226{
fill: none;
stroke: #9C649E;
stroke-width: 0.77916664;
stroke-linecap: butt;
stroke-linejoin: miter;
}
]]></style>
</defs>
<g clip-path="url(#c0_226)">
<path d="M-4.2,623.6c0,0,-4.4,0,-4.4,4.4v25.9c0,0,0,4.4,4.4,4.4H21.7c0,0,4.3,0,4.3,-4.4V628c0,0,0,-4.4,-4.3,-4.4Z" class="g0_226" />
<path d="M-2.8,44.1c0,0,-4.4,0,-4.4,4.5V238.5c0,0,0,4.5,4.4,4.5h26c0,0,4.4,0,4.4,-4.5V48.6c0,0,0,-4.5,-4.4,-4.5Z" class="g1_226" />
<path d="M-2.8,44.1c0,0,-4.4,0,-4.4,4.5V238.5c0,0,0,4.5,4.4,4.5h26c0,0,4.4,0,4.4,-4.5V48.6c0,0,0,-4.5,-4.4,-4.5h-26Z" class="g2_226" />
</g>
<path d="M43.7,43.7H204.8v26H43.7v-26Zm161.1,0H367.7v26H204.8v-26Z" class="g0_226" />
<path d="M43.7,110.6H74.5v17.3H43.7V110.6Zm30.8,0H93.1v17.3H74.5V110.6Zm18.6,0h18.6v17.3H93.1V110.6Zm18.6,0h18.7v17.3H111.7V110.6Zm18.7,0H149v17.3H130.4V110.6Zm18.6,0h18.6v17.3H149V110.6Zm18.6,0h18.6v17.3H167.6V110.6Zm18.6,0h18.6v17.3H186.2V110.6Zm18.6,0h29.9v17.3H204.8V110.6Zm29.9,0h18.6v17.3H234.7V110.6Zm18.6,0H272v17.3H253.3V110.6Zm18.7,0h18.6v17.3H272V110.6Zm18.6,0h18.6v17.3H290.6V110.6Zm18.6,0h18.6v17.3H309.2V110.6Zm18.6,0h18.7v17.3H327.8V110.6Zm18.7,0h21.2v17.3H346.5V110.6ZM43.7,145.2H74.5v17.3H43.7V145.2Zm30.8,0H93.1v17.3H74.5V145.2Zm18.6,0h18.6v17.3H93.1V145.2Zm18.6,0h18.7v17.3H111.7V145.2Zm18.7,0H149v17.3H130.4V145.2Zm18.6,0h18.6v17.3H149V145.2Zm18.6,0h18.6v17.3H167.6V145.2Zm18.6,0h18.6v17.3H186.2V145.2Zm18.6,0h29.9v17.3H204.8V145.2Zm29.9,0h18.6v17.3H234.7V145.2Zm18.6,0H272v17.3H253.3V145.2Zm18.7,0h18.6v17.3H272V145.2Zm18.6,0h18.6v17.3H290.6V145.2Zm18.6,0h18.6v17.3H309.2V145.2Zm18.6,0h18.7v17.3H327.8V145.2Zm18.7,0h21.2v17.3H346.5V145.2ZM43.7,179.8H74.5v17.4H43.7V179.8Zm30.8,0H93.1v17.4H74.5V179.8Zm18.6,0h18.6v17.4H93.1V179.8Zm18.6,0h18.7v17.4H111.7V179.8Zm18.7,0H149v17.4H130.4V179.8Zm18.6,0h18.6v17.4H149V179.8Zm18.6,0h18.6v17.4H167.6V179.8Zm18.6,0h18.6v17.4H186.2V179.8Zm18.6,0h29.9v17.4H204.8V179.8Zm29.9,0h18.6v17.4H234.7V179.8Zm18.6,0H272v17.4H253.3V179.8Zm18.7,0h18.6v17.4H272V179.8Zm18.6,0h18.6v17.4H290.6V179.8Zm18.6,0h18.6v17.4H309.2V179.8Zm18.6,0h18.7v17.4H327.8V179.8Zm18.7,0h21.2v17.4H346.5V179.8Z" class="g3_226" />
<path d="M43.7,69.3V44.1m-.4,-.4H74.5m0,0H368.1M204.8,69.3V44.1M367.7,69.3V44.1M43.7,92.8V70.1m0,40.1V93.6M43.3,69.7H74.5m0,0H368.1M74.5,92.8V70.1M93.1,92.8V70.1m18.6,22.7V70.1m18.7,22.7V70.1M149,92.8V70.1m18.6,22.7V70.1m18.6,22.7V70.1m18.6,22.7V70.1m29.9,22.7V70.1m18.6,22.7V70.1M272,92.8V70.1m18.6,22.7V70.1m18.6,22.7V70.1m18.6,22.7V70.1m18.7,22.7V70.1m21.2,22.7V70.1M74.5,110.2V93.6m130.3,16.6V93.6m29.9,16.6V93.6m18.6,16.6V93.6M272,110.2V93.6m18.6,16.6V93.6m18.6,16.6V93.6m18.6,16.6V93.6m18.7,16.6V93.6m21.2,16.6V93.6M43.3,93.2H74.5m0,0H368.1M43.7,127.5V110.9m-.4,-.3H74.5m0,0H368.1M74.5,127.5V110.9m18.6,16.6V110.9m18.6,16.6V110.9m18.7,16.6V110.9M149,127.5V110.9m18.6,16.6V110.9m18.6,16.6V110.9m18.6,16.6V110.9m29.9,16.6V110.9m18.7,16.6V110.9M272,127.5V110.9m18.6,16.6V110.9m18.6,16.6V110.9m18.6,16.6V110.9m18.7,16.6V110.9m21.2,16.6V110.9m-324,33.9V128.3m-.4,-.4H74.5m0,0H368.1M74.5,144.8V128.3m18.6,16.5V128.3m18.6,16.5V128.3m18.7,16.5V128.3M149,144.8V128.3m18.6,16.5V128.3m18.6,16.5V128.3m18.7,16.5V128.3m29.8,16.5V128.3m18.7,16.5V128.3M272,144.8V128.3m18.6,16.5V128.3m18.6,16.5V128.3m18.6,16.5V128.3m18.7,16.5V128.3m21.2,16.5V128.3m-324,33.8V145.6m-.4,-.4H74.5m0,0H368.1M74.5,162.1V145.6m18.6,16.5V145.6m18.6,16.5V145.6m18.7,16.5V145.6M149,162.1V145.6m18.6,16.5V145.6m18.6,16.5V145.6m18.7,16.5V145.6m29.8,16.5V145.6m18.7,16.5V145.6M272,162.1V145.6m18.6,16.5V145.6m18.6,16.5V145.6m18.6,16.5V145.6m18.7,16.5V145.6m21.2,16.5V145.6m-324,33.9V162.9m-.4,-.4H74.5m0,0H368.1m-293.6,17V162.9m18.6,16.6V162.9m18.6,16.6V162.9m18.7,16.6V162.9M149,179.5V162.9m18.6,16.6V162.9m18.6,16.6V162.9m18.6,16.6V162.9m29.9,16.6V162.9m18.6,16.6V162.9M272,179.5V162.9m18.6,16.6V162.9m18.6,16.6V162.9m18.6,16.6V162.9m18.7,16.6V162.9m21.2,16.6V162.9m-324,33.9V180.2m0,33.9V197.6m-.4,-17.8H74.5m0,0H368.1m-293.6,17V180.2m18.6,16.6V180.2m18.6,16.6V180.2m18.7,16.6V180.2M149,196.8V180.2m18.6,16.6V180.2m18.6,16.6V180.2m18.6,16.6V180.2m29.9,16.6V180.2m18.6,16.6V180.2M272,196.8V180.2m18.6,16.6V180.2m18.6,16.6V180.2m18.6,16.6V180.2m18.7,16.6V180.2m21.2,16.6V180.2M74.5,214.1V197.6m18.6,16.5V197.6m18.6,16.5V197.6m18.7,16.5V197.6M149,214.1V197.6m18.6,16.5V197.6m18.6,16.5V197.6m18.6,16.5V197.6m29.9,16.5V197.6m18.6,16.5V197.6M272,214.1V197.6m18.6,16.5V197.6m18.6,16.5V197.6m18.6,16.5V197.6m18.7,16.5V197.6m21.2,16.5V197.6M43.3,197.2H74.5m0,0H368.1M43.7,248.8V214.9m-.4,-.4H74.5m0,0H368.1m-.4,34.3V214.9M43.3,249.2H74.5m0,0H368.1M44.3,335.7V319.1m0,32.2V336.5m0,30.3V352m0,30.3V367.6m-.4,-48.9H283m0,0h84.5m-224.8,17V319.1m43.5,16.6V319.1m39.5,16.6V319.1M283,335.7V319.1m84.1,16.6V319.1M142.7,351.3V336.5m43.5,14.8V336.5m39.5,14.8V336.5M283,351.3V336.5m84.1,14.8V336.5M142.7,366.8V352m224.4,14.8V352M142.7,382.3V367.6m43.5,14.7V367.6m39.5,14.7V367.6M283,382.3V367.6m84.1,14.7V367.6M43.9,336.1H283m0,0h84.5M43.9,351.7H283m0,0h84.5M43.9,367.2H283m0,0h84.5M43.9,382.7H283m0,0h84.5M43.7,459.3V444.5m0,30.3V460m0,30.3V475.6m0,30.3V491.1m0,42.5V506.7m0,42.5V534.4m0,30.3V550M43.3,444.1H72.4m0,0H317.2m-.4,15.2V444.5M72.4,474.8V460m244.4,14.8V460M72.4,490.3V475.6m244.4,14.7V475.6M72.4,505.9V491.1m244.4,14.8V491.1M72.4,533.6V506.7m244.4,26.9V506.7M72.4,549.2V534.4m244.4,14.8V534.4M72.4,564.7V550m244.4,14.7V550M43.3,459.7H72.4m0,0H317.2M43.3,475.2H72.4m0,0H317.2M43.3,490.7H72.4m0,0H317.2M43.3,506.3H72.4m0,0H317.2M43.3,534H72.4m0,0H317.2M43.3,549.6H72.4m0,0H317.2M43.3,565.1H72.4m0,0H317.2" class="g4_226" />
</svg>