<?xml version="1.0" encoding="UTF-8" standalone="no"?>
<!DOCTYPE svg PUBLIC "-//W3C//DTD SVG 1.1//EN"
"http://www.w3.org/Graphics/SVG/1.1/DTD/svg11.dtd">
<svg viewBox="0 0 433 649" version="1.1" xmlns="http://www.w3.org/2000/svg" xmlns:xlink="http://www.w3.org/1999/xlink">
<defs>
<clipPath id="c0_192"><path d="M0,649.6V0H433V649.6Z" /></clipPath>
<style type="text/css"><![CDATA[
.g0_192{
fill: #9C649E;
}
.g1_192{
fill: #FFFFFF;
}
.g2_192{
fill: none;
stroke: #9C649E;
stroke-width: 1.5277778;
stroke-linecap: butt;
stroke-linejoin: miter;
stroke-miterlimit: 4;
}
.g3_192{
fill: none;
stroke: #9C649E;
stroke-width: 0.77916664;
stroke-linecap: butt;
stroke-linejoin: miter;
}
.g4_192{
fill: none;
stroke: #231F20;
stroke-width: 0.4568056;
stroke-linecap: butt;
stroke-linejoin: miter;
}
]]></style>
</defs>
<g clip-path="url(#c0_192)">
<path d="M-4.2,623.6c0,0,-4.4,0,-4.4,4.4v25.9c0,0,0,4.4,4.4,4.4H21.7c0,0,4.3,0,4.3,-4.4V628c0,0,0,-4.4,-4.3,-4.4Z" class="g0_192" />
<path d="M-2.8,44.1c0,0,-4.4,0,-4.4,4.5V238.5c0,0,0,4.5,4.4,4.5h26c0,0,4.4,0,4.4,-4.5V48.6c0,0,0,-4.5,-4.4,-4.5Z" class="g1_192" />
<path d="M-2.8,44.1c0,0,-4.4,0,-4.4,4.5V238.5c0,0,0,4.5,4.4,4.5h26c0,0,4.4,0,4.4,-4.5V48.6c0,0,0,-4.5,-4.4,-4.5h-26Z" class="g2_192" />
</g>
<path d="M43.7,605.5V112.1m-.4,-.4h59.8m0,0h265m-265,493.8V112.1M253.8,605.5V112.1M367.7,605.5V112.1M43.3,605.9h59.8m0,0h265" class="g3_192" />
<path d="M155.7,264.8h11.2M216,366.9h33.4m-142,12.2h26.5m11.4,24.4h76.1m-114,36.7h106m-86,63.3h58.3" class="g4_192" />
</svg>