<?xml version="1.0" encoding="UTF-8" standalone="no"?>
<!DOCTYPE svg PUBLIC "-//W3C//DTD SVG 1.1//EN"
"http://www.w3.org/Graphics/SVG/1.1/DTD/svg11.dtd">
<svg viewBox="0 0 433 649" version="1.1" xmlns="http://www.w3.org/2000/svg" xmlns:xlink="http://www.w3.org/1999/xlink">
<defs>
<clipPath id="c0_80"><path d="M0,649.6V0H433V649.6Z" /></clipPath>
<style type="text/css"><![CDATA[
.g0_80{
fill: #9C649E;
}
.g1_80{
fill: #FFFFFF;
}
.g2_80{
fill: none;
stroke: #9C649E;
stroke-width: 1.5277778;
stroke-linecap: butt;
stroke-linejoin: miter;
stroke-miterlimit: 4;
}
.g3_80{
fill: #F0E9F1;
}
.g4_80{
fill: none;
stroke: #FFFFFF;
stroke-width: 0.77916664;
stroke-linecap: butt;
stroke-linejoin: miter;
}
.g5_80{
fill: none;
stroke: #9C649E;
stroke-width: 0.77916664;
stroke-linecap: butt;
stroke-linejoin: miter;
}
.g6_80{
fill: none;
stroke: #231F20;
stroke-width: 0.3040278;
stroke-linecap: butt;
stroke-linejoin: miter;
}
]]></style>
</defs>
<g clip-path="url(#c0_80)">
<path d="M-4.2,623.6c0,0,-4.4,0,-4.4,4.4v25.9c0,0,0,4.4,4.4,4.4H21.7c0,0,4.3,0,4.3,-4.4V628c0,0,0,-4.4,-4.3,-4.4Z" class="g0_80" />
<path d="M-2.8,44.1c0,0,-4.4,0,-4.4,4.5V238.5c0,0,0,4.5,4.4,4.5h26c0,0,4.4,0,4.4,-4.5V48.6c0,0,0,-4.5,-4.4,-4.5Z" class="g1_80" />
<path d="M-2.8,44.1c0,0,-4.4,0,-4.4,4.5V238.5c0,0,0,4.5,4.4,4.5h26c0,0,4.4,0,4.4,-4.5V48.6c0,0,0,-4.5,-4.4,-4.5h-26Z" class="g2_80" />
</g>
<path d="M43.7,560.8H65.3v45.1H43.7V560.8Zm0,-41.1H65.3v41.1H43.7V519.7Zm0,-95.3H65.3v95.3H43.7V424.4Zm0,-90.1H65.3v90.1H43.7V334.3Zm0,-130.8H65.3V334.3H43.7V203.5Zm0,-133.8H65.3V203.5H43.7V69.7Z" class="g0_80" />
<path d="M65.3,560.8h66.8v45.1H65.3V560.8Zm66.8,0h66.7v45.1H132.1V560.8Zm66.7,0h72.6v45.1H198.8V560.8Zm72.6,0h43.8v45.1H271.4V560.8Zm43.8,0h52.5v45.1H315.2V560.8Z" class="g3_80" />
<path d="M65,334.3H44.1M65,203.5H44.1" class="g4_80" />
<path d="M131.7,334.3h-66m66,-130.8h-66M198.4,334.3H132.5M198.4,203.5H132.5M271,334.3H199.2M271,203.5H199.2M314.8,334.3h-43m43,-130.8h-43m95.5,130.8H315.6M367.3,203.5H315.6" class="g5_80" />
<path d="M65,560.8H44.1M65,519.7H44.1" class="g4_80" />
<path d="M65,605.9H44.1m-.4,.4V69.3M65,69.7H44.1m87.6,536.2h-66m-.3,.4V560.8m66.3,0h-66m-.3,0V424.4m0,-90.1V69.3m66.3,450.4h-66m66,-450h-66M198.4,605.9H132.5m138.5,0H199.2m115.6,0h-43m-139.7,.4V560.8m66.7,45.5V560.8m72.6,45.5V560.8m-73,0H132.5m138.5,0H199.2m115.6,0h-43m-139.7,0V424.4m0,-90.1V69.3m66.3,450.4H132.5m65.9,-450H132.5M271,519.7H199.2M271,69.7H199.2m115.6,450h-43m43,-450h-43m-73,491.1V424.4m0,-90.1V69.3m72.6,491.5V424.4m0,-90.1V69.3m95.9,536.6H315.6m-.4,.4V560.8m52.1,0H315.6m-.4,0V424.4m0,-90.1V69.3m52.1,450.4H315.6m51.7,-450H315.6m52.1,536.6V69.3M65.4,424.4V334.3m66.7,90.1V334.3m66.7,90.1V334.3m72.6,90.1V334.3m43.8,90.1V334.3M65,424.4H44.1m87.6,0h-66m132.7,0H132.5m138.5,0H199.2m115.6,0h-43m95.5,0H315.6" class="g5_80" />
<path d="M90.2,330V305.1M188.4,199.2V164.1m59.1,35.1V164.1" class="g6_80" />
</svg>