<?xml version="1.0" encoding="UTF-8" standalone="no"?>
<!DOCTYPE svg PUBLIC "-//W3C//DTD SVG 1.1//EN"
"http://www.w3.org/Graphics/SVG/1.1/DTD/svg11.dtd">
<svg viewBox="0 0 433 649" version="1.1" xmlns="http://www.w3.org/2000/svg" xmlns:xlink="http://www.w3.org/1999/xlink">
<defs>
<clipPath id="c0_221"><path d="M0,649.6V0H433V649.6Z" /></clipPath>
<style type="text/css"><![CDATA[
.g0_221{
fill: #FFFFFF;
}
.g1_221{
fill: none;
stroke: #9C649E;
stroke-width: 1.5277778;
stroke-linecap: butt;
stroke-linejoin: miter;
stroke-miterlimit: 4;
}
.g2_221{
fill: #9C649E;
}
.g3_221{
fill: none;
stroke: #9C649E;
stroke-width: 0.77916664;
stroke-linecap: butt;
stroke-linejoin: miter;
}
.g4_221{
fill: #F0E9F1;
}
]]></style>
</defs>
<g clip-path="url(#c0_221)">
<path d="M410.5,44.1c0,0,-4.4,0,-4.4,4.5V238.5c0,0,0,4.5,4.4,4.5h26.1c0,0,4.4,0,4.4,-4.5V48.6c0,0,0,-4.5,-4.4,-4.5Z" class="g0_221" />
<path d="M410.5,44.1c0,0,-4.4,0,-4.4,4.5V238.5c0,0,0,4.5,4.4,4.5h26.1c0,0,4.4,0,4.4,-4.5V48.6c0,0,0,-4.5,-4.4,-4.5H410.5Z" class="g1_221" />
<path d="M411.4,623.6c0,0,-4.3,0,-4.3,4.4v25.9c0,0,0,4.4,4.3,4.4h26c0,0,4.3,0,4.3,-4.4V628c0,0,0,-4.4,-4.3,-4.4Z" class="g2_221" />
</g>
<path d="M65.4,107.7V44.1M65,43.7h84.1m0,0H268.2m0,0H389.7m-.4,64V44.1M65.4,123.7V108.5m0,30.4V123.7M65,108.1h84.1m0,15.2V108.5m0,-.4H268.2m0,0H389.7m-.4,15.2V108.5M149.1,138.9V124m-.4,-.3H268.2m0,0H389.7M188.8,138.9V124m39.7,14.9V124m39.7,14.9V124m39.7,14.9V124m39.8,14.9V124m41.6,14.9V124M65.4,154.4V139.6m0,30.4V155.2m0,30.4V170.8m0,30.4V186.4m0,30.4V202m0,30.4V217.6m0,30.4V233.2m-.4,-94h84.1m0,0H268.2m0,0H389.7M149.1,154.4V139.6m39.7,14.8V139.6m39.7,14.8V139.6m39.7,14.8V139.6m39.7,14.8V139.6m39.8,14.8V139.6m41.6,14.8V139.6M149.1,170V155.2M188.8,170V155.2M228.5,170V155.2M268.2,170V155.2M307.9,170V155.2M347.7,170V155.2M389.3,170V155.2M149.1,185.6V170.8m39.7,14.8V170.8m39.7,14.8V170.8m39.7,14.8V170.8m39.7,14.8V170.8m39.8,14.8V170.8m41.6,14.8V170.8M149.1,201.2V186.4m39.7,14.8V186.4m39.7,14.8V186.4m39.7,14.8V186.4m39.7,14.8V186.4m39.8,14.8V186.4m41.6,14.8V186.4M149.1,216.8V202m39.7,14.8V202m39.7,14.8V202m39.7,14.8V202m39.7,14.8V202m39.8,14.8V202m41.6,14.8V202M149.1,232.4V217.6m39.7,14.8V217.6m39.7,14.8V217.6m39.7,14.8V217.6m39.7,14.8V217.6m39.8,14.8V217.6m41.6,14.8V217.6M149.1,248V233.2M188.8,248V233.2M228.5,248V233.2M268.2,248V233.2M307.9,248V233.2M347.7,248V233.2M389.3,248V233.2M65,154.8h84.1m0,0H268.2m0,0H389.7M65,170.4h84.1m0,0H268.2m0,0H389.7M65,186h84.1m0,0H268.2m0,0H389.7M65,201.6h84.1m0,0H268.2m0,0H389.7M65,217.2h84.1m0,0H268.2m0,0H389.7M65,232.8h84.1m0,0H268.2m0,0H389.7M65,248.4h84.1m0,0H268.2m0,0H389.7" class="g3_221" />
<path d="M95.6,309H359.2V281.2H95.6V309Z" class="g2_221" />
<path d="M95.6,326.3h48v17.4h-48V326.3Zm48,0h30.8v17.4H143.6V326.3Zm30.8,0h30.8v17.4H174.4V326.3Zm30.8,0H236v17.4H205.2V326.3Zm30.8,0h30.8v17.4H236V326.3Zm30.8,0h30.8v17.4H266.8V326.3Zm30.8,0h30.8v17.4H297.6V326.3Zm30.8,0h30.8v17.4H328.4V326.3ZM95.6,361h48v17.3h-48V361Zm48,0h30.8v17.3H143.6V361Zm30.8,0h30.8v17.3H174.4V361Zm30.8,0H236v17.3H205.2V361Zm30.8,0h30.8v17.3H236V361Zm30.8,0h30.8v17.3H266.8V361Zm30.8,0h30.8v17.3H297.6V361Zm30.8,0h30.8v17.3H328.4V361Z" class="g4_221" />
<path d="M95.6,308.6v-27m-.4,-.4H359.6m-.4,27.4v-27M95.6,325.9V309.4m-.4,-.4H359.6m-216,16.9V309.4m30.8,16.5V309.4m30.8,16.5V309.4M236,325.9V309.4m30.8,16.5V309.4m30.8,16.5V309.4m30.8,16.5V309.4m30.8,16.5V309.4M95.6,343.3V326.7m-.4,-.4H359.6m-216,17V326.7m30.8,16.6V326.7m30.8,16.6V326.7M236,343.3V326.7m30.8,16.6V326.7m30.8,16.6V326.7m30.8,16.6V326.7m30.8,16.6V326.7M95.6,360.6V344m-.4,-.3H359.6m-.4,16.9V344M95.6,377.9V361.4m-.4,-.4H359.6m-216,16.9V361.4m30.8,16.5V361.4m30.8,16.5V361.4M236,377.9V361.4m30.8,16.5V361.4m30.8,16.5V361.4m30.8,16.5V361.4m30.8,16.5V361.4M95.6,395.2V378.7m-.4,-.4H359.6m-216,16.9V378.7m30.8,16.5V378.7m30.8,16.5V378.7M236,395.2V378.7m30.8,16.5V378.7m30.8,16.5V378.7m30.8,16.5V378.7m30.8,16.5V378.7M95.6,412.6V396m0,33.9V413.3m-.4,-17.7H359.6m-.4,17V396m0,33.9V413.3m-264,-.4H359.6m-264,32.5V430.7m-.4,-.4H359.6m-.4,15.1V430.7M95.6,473.2v-27m-.4,-.4H359.6m-.4,27.4v-27m-264,27.4H359.6" class="g3_221" />
<path d="M96.1,523.5H358.6V495.7H96.1v27.8Z" class="g2_221" />
<path d="M96.1,540.8h52.5v17.3H96.1V540.8Zm52.5,0h52.5v17.3H148.6V540.8Zm52.5,0h52.5v17.3H201.1V540.8Zm52.5,0h52.5v17.3H253.6V540.8Zm52.5,0h52.5v17.3H306.1V540.8Z" class="g4_221" />
<path d="M96.1,523.1v-27m-.4,-.4h52.9m0,0H359m-.4,27.4v-27M96.1,540.4V523.9m-.4,-.4h52.9m0,0H359M148.6,540.4V523.9m52.5,16.5V523.9m52.5,16.5V523.9m52.5,16.5V523.9m52.5,16.5V523.9M96.1,557.7V541.2m-.4,-.4h52.9m0,0H359M148.6,557.7V541.2m52.5,16.5V541.2m52.5,16.5V541.2m52.5,16.5V541.2m52.5,16.5V541.2M96.1,575.1V558.5m-.4,-.4h52.9m0,0H359m-.4,17V558.5M96.1,602.8v-27m-.4,-.3h52.9m0,0H359m-.4,27.3v-27M95.7,603.2h52.9m0,0H359" class="g3_221" />
</svg>