<?xml version="1.0" encoding="UTF-8" standalone="no"?>
<!DOCTYPE svg PUBLIC "-//W3C//DTD SVG 1.1//EN"
"http://www.w3.org/Graphics/SVG/1.1/DTD/svg11.dtd">
<svg viewBox="0 0 433 649" version="1.1" xmlns="http://www.w3.org/2000/svg" xmlns:xlink="http://www.w3.org/1999/xlink">
<defs>
<clipPath id="c0_225"><path d="M0,649.6V0H433V649.6Z" /></clipPath>
<style type="text/css"><![CDATA[
.g0_225{
fill: #FFFFFF;
}
.g1_225{
fill: none;
stroke: #9C649E;
stroke-width: 1.5277778;
stroke-linecap: butt;
stroke-linejoin: miter;
stroke-miterlimit: 4;
}
.g2_225{
fill: #9C649E;
}
.g3_225{
fill: #F0E9F1;
}
.g4_225{
fill: none;
stroke: #9C649E;
stroke-width: 0.77916664;
stroke-linecap: butt;
stroke-linejoin: miter;
}
]]></style>
</defs>
<g clip-path="url(#c0_225)">
<path d="M410.5,44.1c0,0,-4.4,0,-4.4,4.5V238.5c0,0,0,4.5,4.4,4.5h26.1c0,0,4.4,0,4.4,-4.5V48.6c0,0,0,-4.5,-4.4,-4.5Z" class="g0_225" />
<path d="M410.5,44.1c0,0,-4.4,0,-4.4,4.5V238.5c0,0,0,4.5,4.4,4.5h26.1c0,0,4.4,0,4.4,-4.5V48.6c0,0,0,-4.5,-4.4,-4.5H410.5Z" class="g1_225" />
<path d="M411.4,623.6c0,0,-4.3,0,-4.3,4.4v25.9c0,0,0,4.4,4.3,4.4h26c0,0,4.3,0,4.3,-4.4V628c0,0,0,-4.4,-4.3,-4.4Z" class="g2_225" />
</g>
<path d="M117.6,71.5H337.1V43.7H117.6V71.5Z" class="g2_225" />
<path d="M117.6,88.8H227.4v17.3H117.6V88.8Zm109.8,0H337.1v17.3H227.4V88.8ZM117.6,123.4H227.4v17.3H117.6V123.4Zm109.8,0H337.1v17.3H227.4V123.4ZM117.6,158.1H227.4v17.3H117.6V158.1Zm109.8,0H337.1v17.3H227.4V158.1ZM117.6,192.7H227.4V210H117.6V192.7Zm109.8,0H337.1V210H227.4V192.7ZM117.6,242.2H227.4v16.1H117.6V242.2Zm109.8,0H337.1v16.1H227.4V242.2ZM117.6,306.6H227.4v16.1H117.6V306.6Zm109.8,0H337.1v16.1H227.4V306.6ZM117.6,338.8H227.4v16.1H117.6V338.8Zm109.8,0H337.1v16.1H227.4V338.8ZM117.6,371H227.4v16.1H117.6V371Zm109.8,0H337.1v16.1H227.4V371Z" class="g3_225" />
<path d="M117.6,226.1H227.4v16.1H117.6V226.1Zm109.8,0H337.1v16.1H227.4V226.1ZM117.6,258.3H227.4v16.1H117.6V258.3Zm109.8,0H337.1v16.1H227.4V258.3ZM117.6,322.7H227.4v16.1H117.6V322.7Zm109.8,0H337.1v16.1H227.4V322.7ZM117.6,354.9H227.4V371H117.6V354.9Zm109.8,0H337.1V371H227.4V354.9Z" class="g0_225" />
<path d="M117.6,71.1v-27m-.3,-.4H337.5m-.4,27.4v-27M117.6,88.4V71.8m-.3,-.3H337.5M227.4,88.4V71.8M337.1,88.4V71.8M117.6,105.7V89.2m-.3,-.4H337.5M227.4,105.7V89.2m109.7,16.5V89.2M117.6,123V106.5m-.3,-.4H337.5M227.4,123V106.5M337.1,123V106.5M117.6,140.4V123.8m-.3,-.4H337.5m-110.1,17V123.8m109.7,16.6V123.8M117.6,157.7V141.1m-.3,-.4H337.5m-110.1,17V141.1m109.7,16.6V141.1M117.6,175V158.5m-.3,-.4H337.5M227.4,175V158.5M337.1,175V158.5M117.6,192.3V175.8m-.3,-.4H337.5M227.4,192.3V175.8m109.7,16.5V175.8M117.6,209.7V193.1m-.3,-.4H337.5m-110.1,17V193.1m109.7,16.6V193.1M117.6,225.8V210.4m-.3,-.4H337.5M227.4,225.8V210.4m109.7,15.4V210.4M117.6,241.9V226.5m0,31.5V242.6m0,31.5V258.7m0,31.5V274.8m0,31.5V290.9m0,31.5V307m0,31.5V323.1m0,31.5V339.2m0,31.5V355.3m0,31.5V371.4m0,30.9V387.5m-.3,-161.4H337.5M227.4,241.9V226.5m109.7,15.4V226.5M227.4,258V242.6M337.1,258V242.6M227.4,274.1V258.7m109.7,15.4V258.7M227.4,290.2V274.8m109.7,15.4V274.8M227.4,306.3V290.9m109.7,15.4V290.9M227.4,322.4V307m109.7,15.4V307M227.4,338.5V323.1m109.7,15.4V323.1M227.4,354.6V339.2m109.7,15.4V339.2M227.4,370.7V355.3m109.7,15.4V355.3M227.4,386.8V371.4m109.7,15.4V371.4m0,30.9V387.5M117.3,242.2H337.5M117.3,258.3H337.5M117.3,274.4H337.5M117.3,290.5H337.5M117.3,306.6H337.5M117.3,322.7H337.5M117.3,338.8H337.5M117.3,354.9H337.5M117.3,371H337.5M117.3,387.1H337.5M117.3,402.7H337.5" class="g4_225" />
<path d="M64.9,452.6H389.8V424.9H64.9v27.7Z" class="g2_225" />
<path d="M64.9,469.9H173.2v17.4H64.9V469.9Zm108.3,0H281.5v17.4H173.2V469.9Zm108.3,0H389.8v17.4H281.5V469.9Z" class="g0_225" />
<path d="M64.9,452.2v-27m-.4,-.3h217m0,0H390.2m-.4,27.3v-27M64.9,469.5V453m-.4,-.4h217m0,0H390.2m-217,16.9V453m108.3,16.5V453m108.3,16.5V453M64.9,486.9V470.3m-.4,-.4h217m0,0H390.2m-217,17V470.3m108.3,16.6V470.3m108.3,16.6V470.3M64.9,504.2V487.6m-.4,-.3h217m0,0H390.2m-217,16.9V487.6m108.3,16.6V487.6m108.3,16.6V487.6M64.9,521.5V505m-.4,-.4h217m0,0H390.2m-.4,16.9V505M64.9,537.6V522.3m-.4,-.4h217m0,0H390.2m-.4,15.7V522.3M64.5,538h217m0,0H390.2" class="g4_225" />
</svg>