<?xml version="1.0" encoding="UTF-8" standalone="no"?>
<!DOCTYPE svg PUBLIC "-//W3C//DTD SVG 1.1//EN"
"http://www.w3.org/Graphics/SVG/1.1/DTD/svg11.dtd">
<svg viewBox="0 0 433 649" version="1.1" xmlns="http://www.w3.org/2000/svg" xmlns:xlink="http://www.w3.org/1999/xlink">
<defs>
<clipPath id="c0_88"><path d="M0,649.6V0H433V649.6Z" /></clipPath>
<style type="text/css"><![CDATA[
.g0_88{
fill: #9C649E;
}
.g1_88{
fill: #FFFFFF;
}
.g2_88{
fill: none;
stroke: #9C649E;
stroke-width: 1.5277778;
stroke-linecap: butt;
stroke-linejoin: miter;
stroke-miterlimit: 4;
}
.g3_88{
fill: none;
stroke: #231F20;
stroke-width: 0.6080556;
stroke-linecap: butt;
stroke-linejoin: miter;
}
.g4_88{
fill: none;
stroke: #FFFFFF;
stroke-width: 0.77916664;
stroke-linecap: butt;
stroke-linejoin: miter;
}
.g5_88{
fill: none;
stroke: #9C649E;
stroke-width: 0.77916664;
stroke-linecap: butt;
stroke-linejoin: miter;
}
]]></style>
</defs>
<g clip-path="url(#c0_88)">
<path d="M-4.2,623.6c0,0,-4.4,0,-4.4,4.4v25.9c0,0,0,4.4,4.4,4.4H21.7c0,0,4.3,0,4.3,-4.4V628c0,0,0,-4.4,-4.3,-4.4Z" class="g0_88" />
<path d="M-2.8,44.1c0,0,-4.4,0,-4.4,4.5V238.5c0,0,0,4.5,4.4,4.5h26c0,0,4.4,0,4.4,-4.5V48.6c0,0,0,-4.5,-4.4,-4.5Z" class="g1_88" />
<path d="M-2.8,44.1c0,0,-4.4,0,-4.4,4.5V238.5c0,0,0,4.5,4.4,4.5h26c0,0,4.4,0,4.4,-4.5V48.6c0,0,0,-4.5,-4.4,-4.5h-26Z" class="g2_88" />
</g>
<path d="M67.3,394.3h37M67.4,411.7h50.7M67.3,542.6h72.3M67.3,560h41.4M67.3,577.5H107M67.3,594.9h55.2" class="g3_88" />
<path d="M43.7,121.2H191.9v15.5H43.7V121.2Zm148.2,0H367v15.5H191.9V121.2Z" class="g0_88" />
<path d="M191.9,136.3V121.6" class="g4_88" />
<path d="M43.7,136.3V121.6m-.4,-.4H367.4m-.4,15.1V121.6M43.7,195V137.1m-.4,-.4H191.9m0,58.3V137.1m0,-.4H367.4M367,195V137.1M43.7,239.7V195.8m0,102.2V239.7m-.4,-44.3H191.9M43.3,298.4H191.9m0,-59.1V195.8m0,102.2V240.1m0,-44.7H367.4m-.4,43.9V195.8M367,298V240.1m-175.5,-.4H367.4M191.9,298.4H367.4" class="g5_88" />
</svg>