<?xml version="1.0" encoding="UTF-8" standalone="no"?>
<!DOCTYPE svg PUBLIC "-//W3C//DTD SVG 1.1//EN"
"http://www.w3.org/Graphics/SVG/1.1/DTD/svg11.dtd">
<svg viewBox="0 0 433 649" version="1.1" xmlns="http://www.w3.org/2000/svg" xmlns:xlink="http://www.w3.org/1999/xlink">
<defs>
<clipPath id="c0_141"><path d="M0,649.6V0H433V649.6Z" /></clipPath>
<style type="text/css"><![CDATA[
.g0_141{
fill: #FFFFFF;
}
.g1_141{
fill: none;
stroke: #9C649E;
stroke-width: 1.5277778;
stroke-linecap: butt;
stroke-linejoin: miter;
stroke-miterlimit: 4;
}
.g2_141{
fill: #9C649E;
}
.g3_141{
fill: none;
stroke: #231F20;
stroke-width: 0.6080556;
stroke-linecap: butt;
stroke-linejoin: miter;
}
.g4_141{
fill: #F0E9F1;
}
.g5_141{
fill: none;
stroke: #FFFFFF;
stroke-width: 0.77916664;
stroke-linecap: butt;
stroke-linejoin: miter;
}
.g6_141{
fill: none;
stroke: #9C649E;
stroke-width: 0.77916664;
stroke-linecap: butt;
stroke-linejoin: miter;
}
]]></style>
</defs>
<g clip-path="url(#c0_141)">
<path d="M410.5,44.1c0,0,-4.4,0,-4.4,4.5V238.5c0,0,0,4.5,4.4,4.5h26.1c0,0,4.4,0,4.4,-4.5V48.6c0,0,0,-4.5,-4.4,-4.5Z" class="g0_141" />
<path d="M410.5,44.1c0,0,-4.4,0,-4.4,4.5V238.5c0,0,0,4.5,4.4,4.5h26.1c0,0,4.4,0,4.4,-4.5V48.6c0,0,0,-4.5,-4.4,-4.5H410.5Z" class="g1_141" />
<path d="M411.4,623.6c0,0,-4.3,0,-4.3,4.4v25.9c0,0,0,4.4,4.3,4.4h26c0,0,4.3,0,4.3,-4.4V628c0,0,0,-4.4,-4.3,-4.4Z" class="g2_141" />
</g>
<path d="M80.3,71.1H184.6M72.7,513.3h88" class="g3_141" />
<path d="M65.3,76.4H162V99.5H65.3V76.4Zm96.7,0h96.1V99.5H162V76.4Zm96.1,0h87.5V99.5H258.1V76.4Zm87.5,0h43.8V99.5H345.6V76.4Z" class="g2_141" />
<path d="M65.3,99.5H389.4v15.6H65.3V99.5Zm0,148.8H389.4v15.5H65.3V248.3Z" class="g4_141" />
<path d="M162,99.1V76.8m96.1,22.3V76.8m87.5,22.3V76.8" class="g5_141" />
<path d="M65.4,99.1V76.8M65,76.4H389.8m-.4,22.7V76.8m-324,37.9V99.9M65,99.5H389.8m-.4,15.2V99.9m-324,30.7V115.5m0,42.9V130.6m0,43.3V158.4m0,31V173.9m0,31.1V189.4m0,31.1V205m0,42.9V220.5M65,115.1h97m0,15.1V115.5m0,-.4H389.8M258.1,130.2V115.5m87.5,14.7V115.5m43.8,14.7V115.5M162,158V131m-.4,-.4h184M258.1,158V131m87.5,27V131m0,-.4h44.2m-.4,27.4V131M162,173.5V158.8m-.4,-.4h96.5m0,15.1V158.8m0,-.4h87.5m0,15.1V158.8m0,-.4h44.2m-.4,15.5V158.8m0,30.6V173.9m0,31.1V189.4m0,30.7V205M162,189V174.3m0,30.3V189.8m-.4,-15.9H346M258.1,189V174.3m0,30.3V189.8m-96.5,-.4H346m-.4,-.4V174.3m0,30.3V189.8M162,220.1V205.4m-.4,-.4H346m-87.9,15.1V205.4m87.5,14.7V205.4M162,247.9v-27m-.4,-.4H389.8M258.1,247.9v-27m87.5,27v-27m43.8,27v-27m-324,42.5V248.7m-.4,-.4H389.8m-.4,15.1V248.7m-324,30.6V264.2m0,30.7V279.3m0,31.1V294.9m0,55.1V310.4M65,263.8h97m0,15.2V264.2m0,-.4h96.1m0,15.2V264.2m0,-.4H389.8M345.6,279V264.2M389.4,279V264.2M162,294.9V279.7m0,30.3V294.9m-.4,-15.6h96.5m0,15.2V279.7m0,-.4H389.8m-44.2,15.2V279.7m43.8,14.8V279.7M258.1,310V295.3m-.4,-.4H389.8M345.6,310V295.3M389.4,310V295.3M162,350V310.8m-.4,-.4h184M258.1,350V310.8M345.6,350V310.8m0,-.4h44.2m-.4,39.6V310.8m-324,55.1V350.8m0,30.7V365.9m0,31.1V381.5m0,31V397m0,43.3V412.5m0,43.3V440.3m0,31.1V455.8m0,32V471.4M65,350.4h97m0,15.1V350.8m0,-.4h96.1m0,15.1V350.8m0,-.4h87.5m0,15.1V350.8m0,-.4h44.2m-.4,15.5V350.8m0,30.7V365.9m0,31.1V381.5m0,31V397m0,43.3V412.5m0,43.3V440.3m0,31.1V455.8m0,32V471.4M162,381.1V366.3m0,30.3V381.9m0,30.3V397.4m0,42.5v-27m0,42.5V440.7m0,30.3V456.2m-.4,-90.3H346m-87.9,15.2V366.3m0,30.3V381.9m0,30.3V397.4m0,42.5v-27m0,42.5V440.7m0,30.3V456.2M161.6,381.5H346M161.6,397H346M161.6,412.5H346M161.6,440.3H346M161.6,455.8H346m-.4,-74.7V366.3m0,30.3V381.9m0,30.3V397.4m0,42.5v-27m0,42.5V440.7m0,30.3V456.2M65,488.2h97m0,-.4v-16m-.4,-.4H346m-87.9,16.4v-16M162,488.2H345.6m0,-.4v-16m0,16.4h44.2" class="g6_141" />
</svg>