<?xml version="1.0" encoding="UTF-8" standalone="no"?>
<!DOCTYPE svg PUBLIC "-//W3C//DTD SVG 1.1//EN"
"http://www.w3.org/Graphics/SVG/1.1/DTD/svg11.dtd">
<svg viewBox="0 0 433 649" version="1.1" xmlns="http://www.w3.org/2000/svg" xmlns:xlink="http://www.w3.org/1999/xlink">
<defs>
<clipPath id="c0_135"><path d="M0,649.6V0H433V649.6Z" /></clipPath>
<style type="text/css"><![CDATA[
.g0_135{
fill: #FFFFFF;
}
.g1_135{
fill: none;
stroke: #9C649E;
stroke-width: 1.5277778;
stroke-linecap: butt;
stroke-linejoin: miter;
stroke-miterlimit: 4;
}
.g2_135{
fill: #9C649E;
}
.g3_135{
fill: none;
stroke: #9C649E;
stroke-width: 0.77916664;
stroke-linecap: butt;
stroke-linejoin: miter;
}
]]></style>
</defs>
<g clip-path="url(#c0_135)">
<path d="M410.5,44.1c0,0,-4.4,0,-4.4,4.5V238.5c0,0,0,4.5,4.4,4.5h26.1c0,0,4.4,0,4.4,-4.5V48.6c0,0,0,-4.5,-4.4,-4.5Z" class="g0_135" />
<path d="M410.5,44.1c0,0,-4.4,0,-4.4,4.5V238.5c0,0,0,4.5,4.4,4.5h26.1c0,0,4.4,0,4.4,-4.5V48.6c0,0,0,-4.5,-4.4,-4.5H410.5Z" class="g1_135" />
<path d="M411.4,623.6c0,0,-4.3,0,-4.3,4.4v25.9c0,0,0,4.4,4.3,4.4h26c0,0,4.3,0,4.3,-4.4V628c0,0,0,-4.4,-4.3,-4.4Z" class="g2_135" />
</g>
<path d="M65.4,259.7V244.5m0,104.1V260.5m0,128V349.3m0,56.9V389.3m0,52V407m0,74.3V442.1m0,67v-27M65,244.1H339.5m0,0h50.3M118.7,259.7V244.5m59.7,15.2V244.5m71.9,15.2V244.5m45.1,15.2V244.5m44.1,15.2V244.5m49.9,15.2V244.5M118.7,348.6V260.5m59.7,88.1V260.5m71.9,88.1V260.5m45.1,88.1V260.5m44.1,88.1V260.5m49.9,88.1V260.5m-270.7,128V349.3m59.7,39.2V349.3m71.9,39.2V349.3m45.1,39.2V349.3m44.1,39.2V349.3m49.9,39.2V349.3M118.7,406.2V389.3m59.7,16.9V389.3m71.9,16.9V389.3m45.1,16.9V389.3m44.1,16.9V389.3m49.9,16.9V389.3m-270.7,52V407m59.7,34.3V407m71.9,34.3V407m45.1,34.3V407m44.1,34.3V407m49.9,34.3V407M118.7,481.3V442.1m59.7,39.2V442.1m71.9,39.2V442.1m45.1,39.2V442.1m44.1,39.2V442.1m49.9,39.2V442.1m-270.7,67v-27m59.7,27v-27m71.9,27v-27m45.1,27v-27m44.1,27v-27m49.9,27v-27M65,260.1H339.5m0,0h50.3M65,348.9H339.5m0,0h50.3M65,388.9H339.5m0,0h50.3M65,406.6H339.5m0,0h50.3M65,441.7H339.5m0,0h50.3M65,481.7H339.5m0,0h50.3M65,509.4H339.5m0,0h50.3" class="g3_135" />
</svg>