<?xml version="1.0" encoding="UTF-8" standalone="no"?>
<!DOCTYPE svg PUBLIC "-//W3C//DTD SVG 1.1//EN"
"http://www.w3.org/Graphics/SVG/1.1/DTD/svg11.dtd">
<svg viewBox="0 0 433 649" version="1.1" xmlns="http://www.w3.org/2000/svg" xmlns:xlink="http://www.w3.org/1999/xlink">
<defs>
<clipPath id="c0_183"><path d="M0,649.6V0H433V649.6Z" /></clipPath>
<style type="text/css"><![CDATA[
.g0_183{
fill: #FFFFFF;
}
.g1_183{
fill: none;
stroke: #9C649E;
stroke-width: 1.5277778;
stroke-linecap: butt;
stroke-linejoin: miter;
stroke-miterlimit: 4;
}
.g2_183{
fill: #9C649E;
}
.g3_183{
fill: none;
stroke: #FFFFFF;
stroke-width: 0.77916664;
stroke-linecap: butt;
stroke-linejoin: miter;
}
.g4_183{
fill: none;
stroke: #9C649E;
stroke-width: 0.77916664;
stroke-linecap: butt;
stroke-linejoin: miter;
}
]]></style>
</defs>
<g clip-path="url(#c0_183)">
<path d="M410.5,44.1c0,0,-4.4,0,-4.4,4.5V238.5c0,0,0,4.5,4.4,4.5h26.1c0,0,4.4,0,4.4,-4.5V48.6c0,0,0,-4.5,-4.4,-4.5Z" class="g0_183" />
<path d="M410.5,44.1c0,0,-4.4,0,-4.4,4.5V238.5c0,0,0,4.5,4.4,4.5h26.1c0,0,4.4,0,4.4,-4.5V48.6c0,0,0,-4.5,-4.4,-4.5H410.5Z" class="g1_183" />
<path d="M411.4,623.6c0,0,-4.3,0,-4.3,4.4v25.9c0,0,0,4.4,4.3,4.4h26c0,0,4.3,0,4.3,-4.4V628c0,0,0,-4.4,-4.3,-4.4Z" class="g2_183" />
</g>
<path d="M65.3,131.3h85.4V153H65.3V131.3Zm85.4,0h41.6V153H150.7V131.3Zm41.6,0H389.4V153H192.3V131.3Z" class="g2_183" />
<path d="M150.7,152.6V131.7m41.6,20.9V131.7" class="g3_183" />
<path d="M65.4,152.6V131.7m-.4,-.4H389.8m-.4,21.3V131.7m-324,50.2V153.3m0,80.8V181.9m0,104V234.1M65,153h85.7m0,28.5V153.3m0,-.3H389.8M192.3,181.5V153.3m197.1,28.2V153.3M150.7,233.7V182.3m-.4,-.4H389.8M192.3,233.7V182.3m197.1,51.4V182.3M150.7,285.9V234.5m-.4,-.4H389.8M192.3,285.9V234.5m197.1,51.4V234.5M65.4,338.1V286.7m0,91.4V338.9M65,286.3H389.8M150.7,338.1V286.7m41.6,51.4V286.7m197.1,51.4V286.7M150.7,378.1V338.9m41.6,39.2V338.9m197.1,39.2V338.9M65,338.5H389.8M65,378.5H389.8" class="g4_183" />
</svg>