<?xml version="1.0" encoding="UTF-8" standalone="no"?>
<!DOCTYPE svg PUBLIC "-//W3C//DTD SVG 1.1//EN"
"http://www.w3.org/Graphics/SVG/1.1/DTD/svg11.dtd">
<svg viewBox="0 0 433 649" version="1.1" xmlns="http://www.w3.org/2000/svg" xmlns:xlink="http://www.w3.org/1999/xlink">
<defs>
<clipPath id="c0_115"><path d="M0,649.6V0H433V649.6Z" /></clipPath>
<style type="text/css"><![CDATA[
.g0_115{
fill: #FFFFFF;
}
.g1_115{
fill: none;
stroke: #9C649E;
stroke-width: 1.5277778;
stroke-linecap: butt;
stroke-linejoin: miter;
stroke-miterlimit: 4;
}
.g2_115{
fill: #9C649E;
}
.g3_115{
fill: none;
stroke: #9C649E;
stroke-width: 0.77916664;
stroke-linecap: butt;
stroke-linejoin: miter;
}
]]></style>
</defs>
<g clip-path="url(#c0_115)">
<path d="M410.5,44.1c0,0,-4.4,0,-4.4,4.5V238.5c0,0,0,4.5,4.4,4.5h26.1c0,0,4.4,0,4.4,-4.5V48.6c0,0,0,-4.5,-4.4,-4.5Z" class="g0_115" />
<path d="M410.5,44.1c0,0,-4.4,0,-4.4,4.5V238.5c0,0,0,4.5,4.4,4.5h26.1c0,0,4.4,0,4.4,-4.5V48.6c0,0,0,-4.5,-4.4,-4.5H410.5Z" class="g1_115" />
<path d="M411.4,623.6c0,0,-4.3,0,-4.3,4.4v25.9c0,0,0,4.4,4.3,4.4h26c0,0,4.3,0,4.3,-4.4V628c0,0,0,-4.4,-4.3,-4.4Z" class="g2_115" />
</g>
<path d="M65.4,125.9v-64M65,61.5H389.8M201,125.9v-64m188.4,64v-64M65.4,227V126.7m-.4,-.4H201M201,227V126.7m0,-.4H389.8M389.4,227V126.7M65.4,291.4V227.7m-.4,-.3H201M65,291.8H201m0,-.4V227.7m0,-.3H389.8m-.4,64V227.7M201,291.8H389.8" class="g3_115" />
</svg>