<?xml version="1.0" encoding="UTF-8" standalone="no"?>
<!DOCTYPE svg PUBLIC "-//W3C//DTD SVG 1.1//EN"
"http://www.w3.org/Graphics/SVG/1.1/DTD/svg11.dtd">
<svg viewBox="0 0 433 649" version="1.1" xmlns="http://www.w3.org/2000/svg" xmlns:xlink="http://www.w3.org/1999/xlink">
<defs>
<clipPath id="c0_123"><path d="M0,649.6V0H433V649.6Z" /></clipPath>
<style type="text/css"><![CDATA[
.g0_123{
fill: #FFFFFF;
}
.g1_123{
fill: none;
stroke: #9C649E;
stroke-width: 1.5277778;
stroke-linecap: butt;
stroke-linejoin: miter;
stroke-miterlimit: 4;
}
.g2_123{
fill: #9C649E;
}
.g3_123{
fill: none;
stroke: #FFFFFF;
stroke-width: 0.77916664;
stroke-linecap: butt;
stroke-linejoin: miter;
}
.g4_123{
fill: none;
stroke: #9C649E;
stroke-width: 0.77916664;
stroke-linecap: butt;
stroke-linejoin: miter;
}
]]></style>
</defs>
<g clip-path="url(#c0_123)">
<path d="M410.5,44.1c0,0,-4.4,0,-4.4,4.5V238.5c0,0,0,4.5,4.4,4.5h26.1c0,0,4.4,0,4.4,-4.5V48.6c0,0,0,-4.5,-4.4,-4.5Z" class="g0_123" />
<path d="M410.5,44.1c0,0,-4.4,0,-4.4,4.5V238.5c0,0,0,4.5,4.4,4.5h26.1c0,0,4.4,0,4.4,-4.5V48.6c0,0,0,-4.5,-4.4,-4.5H410.5Z" class="g1_123" />
<path d="M411.4,623.6c0,0,-4.3,0,-4.3,4.4v25.9c0,0,0,4.4,4.3,4.4h26c0,0,4.3,0,4.3,-4.4V628c0,0,0,-4.4,-4.3,-4.4Z" class="g2_123" />
</g>
<path d="M65.3,113.1h99.3v21.6H65.3V113.1Zm99.3,0h51.9v21.6H164.6V113.1Zm51.9,0h54.6v21.6H216.5V113.1Zm54.6,0h61.5v21.6H271.1V113.1Zm61.5,0h56.2v21.6H332.6V113.1Z" class="g2_123" />
<path d="M164.6,134.3V113.5m51.9,20.8V113.5m54.6,20.8V113.5m61.5,20.8V113.5" class="g3_123" />
<path d="M65.4,134.3V113.5m-.4,-.4H271.1m0,0H389.2m-.4,21.2V113.5M65.4,162.1v-27m0,79.2V162.9m0,103.6V215.1m0,91.4V267.3m0,107v-67M65,134.7H271.1m0,0H389.2M164.6,162.1v-27m51.9,27v-27m54.6,27v-27m61.5,27v-27m56.2,27v-27M164.6,214.3V162.9m51.9,51.4V162.9m54.6,51.4V162.9m61.5,51.4V162.9m56.2,51.4V162.9M164.6,266.5V215.1m51.9,51.4V215.1m54.6,51.4V215.1m61.5,51.4V215.1m56.2,51.4V215.1M164.6,306.5V267.3m51.9,39.2V267.3m54.6,39.2V267.3m61.5,39.2V267.3m56.2,39.2V267.3m-224.2,107v-67m51.9,67v-67m54.6,67v-67m61.5,67v-67m56.2,67v-67M65,162.5H271.1m0,0H389.2M65,214.7H271.1m0,0H389.2M65,266.9H271.1m0,0H389.2M65,306.9H271.1m0,0H389.2M65,374.7H271.1m0,0H389.2" class="g4_123" />
<path d="M65.3,459.2H169.8V480H65.3V459.2Zm104.5,0h54.5V480H169.8V459.2Zm54.5,0H389.4V480H224.3V459.2Z" class="g2_123" />
<path d="M65.4,479.6v-20m-.4,-.4H169.8m0,20.4v-20m0,-.4h54.5m0,0H389.8M224.3,479.6v-20m165.1,20v-20m-324,35.9V480.4m0,30.3V495.5M65,480H169.8m0,15.1V480.4m0,-.4h54.5m0,0H389.8M224.3,495.1V480.4m165.1,14.7V480.4M169.8,510.7V495.9m-.4,-.4h54.9m0,0H389.8M224.3,510.7V495.9m165.1,14.8V495.9m-324,30.7V511.4m0,30.7V526.6m0,31.5v-16m-.4,-31H169.8m0,15.1V511.4m0,-.3h54.5m0,0H389.8M224.3,526.2V511.4m165.1,14.8V511.4M169.8,541.7V527m-.4,-.4h54.9m0,0H389.8M224.3,541.7V527m165.1,14.7V527M169.8,558.1V542.5m-.4,-.4h54.9m0,0H389.8m-165.5,16V542.5m165.1,15.6V542.5m-324,31.1V558.9m-.4,-.4H224.3m0,0H389.8m-220,15.1V558.9m54.5,14.7V558.9m165.1,14.7V558.9M65,574H224.3m0,0H389.8" class="g4_123" />
</svg>