<?xml version="1.0" encoding="UTF-8" standalone="no"?>
<!DOCTYPE svg PUBLIC "-//W3C//DTD SVG 1.1//EN"
"http://www.w3.org/Graphics/SVG/1.1/DTD/svg11.dtd">
<svg viewBox="0 0 433 649" version="1.1" xmlns="http://www.w3.org/2000/svg" xmlns:xlink="http://www.w3.org/1999/xlink">
<defs>
<clipPath id="c0_1"><path d="M0,649.6V0H433V649.6Z" /></clipPath>
<style type="text/css"><![CDATA[
.g0_1{
fill: #9C649E;
}
.g1_1{
fill: none;
stroke: #6C1B78;
stroke-width: 0.928889;
stroke-linecap: butt;
stroke-linejoin: miter;
stroke-miterlimit: 4;
}
.g2_1{
fill: #6C1B78;
}
.g3_1{
fill: #ED1C24;
}
]]></style>
</defs>
<image preserveAspectRatio="none" x="0" y="0" width="434" height="650" xlink:href="img/1.png" />
<g clip-path="url(#c0_1)">
<path d="M394.1,53.7c0,0,-13,0,-13,13v63.9c0,0,0,12.9,13,12.9h41c0,0,13,0,13,-12.9V66.7c0,0,0,-13,-13,-13Z" class="g0_1" />
</g>
<path d="M380.6,591.8L349.9,561.6l30.5,-30.3l29.7,30.3l-29.5,30.2Z" class="g1_1" />
<path fill-rule="evenodd" d="M365.6,564.4c1.3,.8,2.6,1.8,2.6,3.9c0,2.2,-1,3.2,-2.5,3.2c-1.8,0,-3.8,-2.2,-4,-4.5c0,-.3,-.1,-.3,-.4,-.3c-.2,0,-.1,-.2,-.1,0c-.1,.7,.3,3.1,.3,3.8c0,.5,.3,.7,.7,1c.8,.7,2.1,1,3,1c1.2,0,3,-.6,3.9,-1.6c.8,-1,1,-2.7,1,-4.2c0,-1.1,-.8,-1.9,-1.3,-2.7c-.5,-.7,-1.3,-1.4,-2,-1.8c-1.2,-.8,-2.9,-1.6,-2.9,-3.9c0,-2,1,-2.9,2.3,-2.9c1.5,0,2.1,.9,2.5,2.8c0,.2,.4,1.1,.6,1.1c.1,0,.1,-.6,.1,-.8c0,-.7,.1,-1.4,.1,-2.1c-.1,-.5,-.1,-1.3,-.5,-1.5c-.7,-.4,-2.3,-.4,-3,-.4c-1.9,0,-3.8,2,-3.8,4.9c0,2.3,1.8,4,3.2,4.9Z" class="g2_1" />
<path fill-rule="evenodd" d="M359.9,577.7c0,2,1.7,4.5,4.5,4.5c3.4,-.4,4.7,-.9,4.7,-.9l9.4,-3c4.3,-1.5,25.6,-4.3,25.6,-4.3l.2,-.8c-3.9,-1.6,-44.5,2.6,-44.4,4.5Z" class="g3_1" />
<path fill-rule="evenodd" d="M394.3,567.8c0,1.7,.2,3.6,-1.7,3.6c-.2,0,-.6,.1,-.6,.5c0,.3,.2,.3,.4,.3c1,0,2,-.1,3,-.1c1,0,2,.1,3,.1c.2,0,.4,0,.4,-.3c0,-.4,-.4,-.6,-.7,-.6c-1.8,0,-1.7,-1.8,-1.7,-3.5v-8.5c0,-1.8,-.1,-3.8,1.7,-3.8c.3,0,.7,0,.7,-.4c0,-.3,-.2,-.4,-.4,-.4c-1,0,-2,.1,-3,.1c-1,0,-2,-.1,-3,-.1c-.2,0,-.4,.1,-.4,.4c0,.4,.4,.4,.6,.4c1.9,0,1.7,2.1,1.7,3.8Z" class="g2_1" />
<path fill-rule="evenodd" d="M378.1,556.3c-.1,-.4,.6,-1.6,.2,-1.6h-3.4c-.2,0,-.6,-.1,-.6,.3c0,.4,0,.6,.2,.6c1.2,0,1.6,.6,1.5,2l-1,10.6c0,1.4,-.6,3.1,-1.9,3.1c-.2,0,-.4,-.1,-.4,.2c0,.3,-.1,.7,.1,.7c.7,0,2.3,-.1,2.9,-.1h2.7c.2,0,.1,-.3,.1,-.7c0,-.4,-.6,-.3,-.8,-.3c-1.6,0,-1.7,-1.4,-1.6,-3.1l.9,-8.8l3.9,12c.1,.2,.3,.6,.5,.6c.2,0,.6,.1,.6,-.1l4.7,-13.2l.2,10.7c0,.5,0,1.3,-.3,1.7c-.3,.3,-.7,.3,-1,.3c-.2,0,-.7,.2,-.7,.7c0,.3,.2,.3,.4,.3c.9,0,1.7,-.1,2.6,-.1c.7,0,2.4,0,3.1,0c.2,0,.2,-.1,.2,-.4c0,-.4,-.9,-.6,-1.1,-.6c-.3,0,-.3,-.4,-.5,-.8c-.3,-.3,-.4,-2.3,-.4,-2.8l-.5,-9.2c0,-.5,.2,-2,.4,-2.4c.2,-.3,.6,-.4,.8,-.4c.3,0,.7,-.1,.7,-.5c0,-.4,-.6,-.3,-.9,-.3h-3.4c-.3,0,.1,.9,0,1.3l-4.2,11.9Z" class="g2_1" />
<path fill-rule="evenodd" d="M372.1,547c0,-.8,-.2,-.8,.9,-.8c2.2,0,3.6,1.6,3.6,4.1c0,2.2,-.8,3.7,-3.1,4.2c-.1,0,-.1,.4,0,.5c.9,0,2.4,-.3,3.3,-.9c.9,-.5,2,-1.8,2,-4.2c0,-1.7,-.8,-3,-1.8,-3.8c-1,-.7,-2.1,-1.1,-3.9,-1.1c-1.7,0,-3.9,0,-5,.2c-.2,.1,-.1,.8,.1,1l1.1,.1c1,0,1,.5,1,2.7v9.5c0,2.7,-.8,3.1,-2,3h-.5c-.1,.1,-.1,.9,0,.9c1,0,2.6,-.1,3.5,-.1c.8,0,2.3,0,3.5,.1v-.9l-1.2,-.1c-1.4,-.1,-1.4,-2.5,-1.5,-5.1Z" class="g3_1" />
</svg>