<?xml version="1.0" encoding="UTF-8" standalone="no"?>
<!DOCTYPE svg PUBLIC "-//W3C//DTD SVG 1.1//EN"
"http://www.w3.org/Graphics/SVG/1.1/DTD/svg11.dtd">
<svg viewBox="0 0 433 649" version="1.1" xmlns="http://www.w3.org/2000/svg" xmlns:xlink="http://www.w3.org/1999/xlink">
<defs>
<clipPath id="c0_195"><path d="M0,649.6V0H433V649.6Z" /></clipPath>
<style type="text/css"><![CDATA[
.g0_195{
fill: #FFFFFF;
}
.g1_195{
fill: none;
stroke: #9C649E;
stroke-width: 1.5277778;
stroke-linecap: butt;
stroke-linejoin: miter;
stroke-miterlimit: 4;
}
.g2_195{
fill: #9C649E;
}
.g3_195{
fill: #F0E9F1;
}
.g4_195{
fill: none;
stroke: #9C649E;
stroke-width: 0.77916664;
stroke-linecap: butt;
stroke-linejoin: miter;
}
]]></style>
</defs>
<g clip-path="url(#c0_195)">
<path d="M410.5,44.1c0,0,-4.4,0,-4.4,4.5V238.5c0,0,0,4.5,4.4,4.5h26.1c0,0,4.4,0,4.4,-4.5V48.6c0,0,0,-4.5,-4.4,-4.5Z" class="g0_195" />
<path d="M410.5,44.1c0,0,-4.4,0,-4.4,4.5V238.5c0,0,0,4.5,4.4,4.5h26.1c0,0,4.4,0,4.4,-4.5V48.6c0,0,0,-4.5,-4.4,-4.5H410.5Z" class="g1_195" />
<path d="M411.4,623.6c0,0,-4.3,0,-4.3,4.4v25.9c0,0,0,4.4,4.3,4.4h26c0,0,4.3,0,4.3,-4.4V628c0,0,0,-4.4,-4.3,-4.4Z" class="g2_195" />
</g>
<path d="M65.3,397.1H389.4V375.5H65.3v21.6Z" class="g2_195" />
<path d="M65.3,430H389.4V414.5H65.3V430Z" class="g3_195" />
<path d="M65.4,396.8V375.9m-.4,-.4H204.2m0,0h41.1m0,0h61.8m0,0h41.1m0,0h41.6m-.4,21.3V375.9m-324,38.2V397.5m-.4,-.4h59.7m0,17V397.5m0,-.4h79.5m0,0h41.1m0,0h61.8m0,0h41.1m0,0h41.6m-243.9,17V397.5M165,414.1V397.5m18.6,16.6V397.5m20.6,16.6V397.5m185.2,16.6V397.5m-324,32.1V414.9m-.4,-.4H204.2m0,0h41.1m0,0h61.8m0,0h41.1m0,0h41.6m-.4,15.1V414.9m-324,28.4V430.4m0,24.1V444.1m0,25.6V455.3m0,44V470.5m0,58.3V500.1M65,430h59.7M65,443.7h59.7M65,454.9h59.7M65,470.1h59.7M65,499.7h59.7M65,529.2h59.7m0,-85.9V430.4m0,24.1V444.1m0,25.6V455.3m0,44V470.5m0,58.3V500.1m0,-70.1h79.5m0,0h41.1m0,0h61.8m0,0h41.1m0,0h41.6M145.9,443.3V430.4M165,443.3V430.4m18.6,12.9V430.4m20.6,12.9V430.4m20.6,12.9V430.4m20.5,12.9V430.4m20.6,12.9V430.4m20.6,12.9V430.4m20.6,12.9V430.4m20.5,12.9V430.4m20.6,12.9V430.4m20.6,12.9V430.4m20.6,12.9V430.4M145.9,454.5V444.1M165,454.5V444.1m18.6,10.4V444.1m20.6,10.4V444.1m20.6,10.4V444.1m20.5,10.4V444.1m20.6,10.4V444.1m20.6,10.4V444.1m20.6,10.4V444.1m20.5,10.4V444.1m20.6,10.4V444.1m20.6,10.4V444.1m20.6,10.4V444.1M145.9,469.7V455.3M165,469.7V455.3m18.6,14.4V455.3m20.6,14.4V455.3m20.6,14.4V455.3m20.5,14.4V455.3m20.6,14.4V455.3m20.6,14.4V455.3m20.6,14.4V455.3m20.5,14.4V455.3m20.6,14.4V455.3m20.6,14.4V455.3m20.6,14.4V455.3m-243.5,44V470.5m37.7,28.8V470.5m41.2,28.8V470.5m41.1,28.8V470.5m41.2,28.8V470.5m41.1,28.8V470.5m41.2,28.8V470.5M145.9,528.8V500.1m37.7,28.7V500.1m41.2,28.7V500.1m41.1,28.7V500.1m41.2,28.7V500.1m41.1,28.7V500.1m41.2,28.7V500.1M124.7,443.7h79.5m0,0h41.1m0,0h61.8m0,0h41.1m0,0h41.6M124.7,454.9h79.5m0,0h41.1m0,0h61.8m0,0h41.1m0,0h41.6M124.7,470.1h79.5m0,0h41.1m0,0h61.8m0,0h41.1m0,0h41.6M124.7,499.7h79.5m0,0h41.1m0,0h61.8m0,0h41.1m0,0h41.6M124.7,529.2h79.5m0,0h41.1m0,0h61.8m0,0h41.1m0,0h41.6" class="g4_195" />
</svg>