<?xml version="1.0" encoding="UTF-8" standalone="no"?>
<!DOCTYPE svg PUBLIC "-//W3C//DTD SVG 1.1//EN"
"http://www.w3.org/Graphics/SVG/1.1/DTD/svg11.dtd">
<svg viewBox="0 0 433 649" version="1.1" xmlns="http://www.w3.org/2000/svg" xmlns:xlink="http://www.w3.org/1999/xlink">
<defs>
<clipPath id="c0_44"><path d="M0,649.6V0H433V649.6Z" /></clipPath>
<style type="text/css"><![CDATA[
.g0_44{
fill: #9C649E;
}
.g1_44{
fill: #FFFFFF;
}
.g2_44{
fill: none;
stroke: #9C649E;
stroke-width: 1.5277778;
stroke-linecap: butt;
stroke-linejoin: miter;
stroke-miterlimit: 4;
}
.g3_44{
fill: none;
stroke: #231F20;
stroke-width: 0.6080556;
stroke-linecap: butt;
stroke-linejoin: miter;
}
.g4_44{
fill: none;
stroke: #9C649E;
stroke-width: 0.77916664;
stroke-linecap: butt;
stroke-linejoin: miter;
}
]]></style>
</defs>
<g clip-path="url(#c0_44)">
<path d="M-4.2,623.6c0,0,-4.4,0,-4.4,4.4v25.9c0,0,0,4.4,4.4,4.4H21.7c0,0,4.3,0,4.3,-4.4V628c0,0,0,-4.4,-4.3,-4.4Z" class="g0_44" />
<path d="M-2.8,44.1c0,0,-4.4,0,-4.4,4.5V238.5c0,0,0,4.5,4.4,4.5h26c0,0,4.4,0,4.4,-4.5V48.6c0,0,0,-4.5,-4.4,-4.5Z" class="g1_44" />
<path d="M-2.8,44.1c0,0,-4.4,0,-4.4,4.5V238.5c0,0,0,4.5,4.4,4.5h26c0,0,4.4,0,4.4,-4.5V48.6c0,0,0,-4.5,-4.4,-4.5h-26Z" class="g2_44" />
</g>
<path d="M58.6,154h49.1M58.6,202h131" class="g3_44" />
<path d="M43.7,299.4v-28m0,59.3V300.2m0,47.4V330.7m0,45.6V348.4m0,45.5V376.3M43.3,271H368.1M116.9,299.4v-28m250.8,28v-28M116.9,330.3V300.2m250.8,30.1V300.2M116.9,347.6V331.1m250.8,16.5V331.1M116.9,375.9V348.4m250.8,27.5V348.4M116.9,393.9V376.7m250.8,17.2V376.7M43.3,299.8H368.1M116.5,330.7H368.1M43.3,348H368.1M116.5,376.3H368.1M43.7,419.9V394.7m-.4,-.4h73.6m-73.6,26H368.1m-251.2,-26H368.1m-.4,25.6V394.7m-324,91.2v-27m-.4,-.4h60.6m0,27.4v-27m0,-.4H243.4m0,27.4v-27m0,-.4H368.1m-.4,27.4v-27m-324,42.9V486.6m0,30.8V501.8m0,30.8V517.4m-.4,-31.1h60.6m0,15.1V486.6m0,-.3H243.4m0,15.1V486.6m0,-.3H368.1m-.4,15.5V486.6m0,30.5V501.8M103.9,517.1V502.2m-.4,-.4H243.8m-.4,15.3V502.2M103.9,532.6V517.8m-.4,-.4H243.4m0,15.2V517.8m0,-.4H368.1m-.4,15.2V517.8m-324,30.7V533.4m0,66.9V548.5M43.3,533h60.6m0,15.1V533.4m0,-.4H243.4m0,15.1V533.4m0,-.4H368.1m-.4,15.5V533.4m0,66.9V548.5M43.3,600.7h60.6m0,-.4V548.9m-.4,-.4H243.8M103.9,600.7H243.4m0,-.4V548.9m0,51.8H368.1" class="g4_44" />
</svg>