<?xml version="1.0" encoding="UTF-8" standalone="no"?>
<!DOCTYPE svg PUBLIC "-//W3C//DTD SVG 1.1//EN"
"http://www.w3.org/Graphics/SVG/1.1/DTD/svg11.dtd">
<svg viewBox="0 0 433 649" version="1.1" xmlns="http://www.w3.org/2000/svg" xmlns:xlink="http://www.w3.org/1999/xlink">
<defs>
<clipPath id="c0_50"><path d="M0,649.6V0H433V649.6Z" /></clipPath>
<style type="text/css"><![CDATA[
.g0_50{
fill: #9C649E;
}
.g1_50{
fill: #FFFFFF;
}
.g2_50{
fill: none;
stroke: #9C649E;
stroke-width: 1.5277778;
stroke-linecap: butt;
stroke-linejoin: miter;
stroke-miterlimit: 4;
}
.g3_50{
fill: #F0E9F1;
}
.g4_50{
fill: none;
stroke: #9C649E;
stroke-width: 0.77916664;
stroke-linecap: butt;
stroke-linejoin: miter;
}
.g5_50{
fill: none;
stroke: #231F20;
stroke-width: 0.4568056;
stroke-linecap: butt;
stroke-linejoin: miter;
}
]]></style>
</defs>
<g clip-path="url(#c0_50)">
<path d="M-4.2,623.6c0,0,-4.4,0,-4.4,4.4v25.9c0,0,0,4.4,4.4,4.4H21.7c0,0,4.3,0,4.3,-4.4V628c0,0,0,-4.4,-4.3,-4.4Z" class="g0_50" />
<path d="M-2.8,44.1c0,0,-4.4,0,-4.4,4.5V238.5c0,0,0,4.5,4.4,4.5h26c0,0,4.4,0,4.4,-4.5V48.6c0,0,0,-4.5,-4.4,-4.5Z" class="g1_50" />
<path d="M-2.8,44.1c0,0,-4.4,0,-4.4,4.5V238.5c0,0,0,4.5,4.4,4.5h26c0,0,4.4,0,4.4,-4.5V48.6c0,0,0,-4.5,-4.4,-4.5h-26Z" class="g2_50" />
</g>
<path d="M43.7,43.7H155.9V197.2H43.7V43.7Zm0,153.5H155.9v26.4H43.7V197.2Zm0,26.4H155.9v30.2H43.7V223.6Zm0,30.2h324v27.5H43.7V253.8Zm0,27.5H155.9v30.4H43.7V281.3Zm0,30.4H155.9v64.4H43.7V311.7Zm0,64.4H155.9v33H43.7v-33Zm0,33H155.9v42.1H43.7V409.1Z" class="g3_50" />
<path d="M43.7,196.8V44.1m0,179.1V197.6m0,55.9V224M43.3,43.7H155.9M43.3,197.2H155.9M43.3,223.6H155.9m0,-26.8V44.1m0,179.1V197.6m0,55.9V224m0,-180.3H368.1m-.4,153.1V44.1m0,179.1V197.6m0,55.9V224M155.9,197.2H368.1M155.9,223.6H368.1M43.7,281V254.2m-.4,-.4H368.1m-.4,27.2V254.2m-324,57.2V281.7m0,94.1V312.1m0,96.7V376.5m0,74.3V409.5M43.3,281.3H155.9M43.3,311.7H155.9M43.3,376.1H155.9m-112.6,33H155.9M43.3,451.2H155.9m0,-139.8V281.7m0,94.1V312.1m0,96.7V376.5m0,74.3V409.5m0,-128.2H368.1m-.4,30.1V281.7m0,94.1V312.1m0,96.7V376.5m0,74.3V409.5M155.9,311.7H368.1M155.9,376.1H368.1m-212.2,33H368.1M155.9,451.2H368.1" class="g4_50" />
<path d="M160.2,106.5h31.1" class="g5_50" />
<path d="M43.7,501H155.9V458H43.7v43Z" class="g3_50" />
<path d="M43.7,500.6V458.4m-.4,-.4H155.9M43.3,501H155.9m0,-.4V458.4m0,-.4H368.1m-.4,42.6V458.4M155.9,501H368.1" class="g4_50" />
</svg>