<?xml version="1.0" encoding="UTF-8" standalone="no"?>
<!DOCTYPE svg PUBLIC "-//W3C//DTD SVG 1.1//EN"
"http://www.w3.org/Graphics/SVG/1.1/DTD/svg11.dtd">
<svg viewBox="0 0 433 649" version="1.1" xmlns="http://www.w3.org/2000/svg" xmlns:xlink="http://www.w3.org/1999/xlink">
<defs>
<clipPath id="c0_27"><path d="M0,649.6V0H433V649.6Z" /></clipPath>
<style type="text/css"><![CDATA[
.g0_27{
fill: #FFFFFF;
}
.g1_27{
fill: none;
stroke: #9C649E;
stroke-width: 1.5277778;
stroke-linecap: butt;
stroke-linejoin: miter;
stroke-miterlimit: 4;
}
.g2_27{
fill: #9C649E;
}
.g3_27{
fill: none;
stroke: #231F20;
stroke-width: 0.6080556;
stroke-linecap: butt;
stroke-linejoin: miter;
}
.g4_27{
fill: none;
stroke: #FFFFFF;
stroke-width: 0.77916664;
stroke-linecap: butt;
stroke-linejoin: miter;
}
.g5_27{
fill: none;
stroke: #9C649E;
stroke-width: 0.77916664;
stroke-linecap: butt;
stroke-linejoin: miter;
}
]]></style>
</defs>
<g clip-path="url(#c0_27)">
<path d="M410.5,44.1c0,0,-4.4,0,-4.4,4.5V238.5c0,0,0,4.5,4.4,4.5h26.1c0,0,4.4,0,4.4,-4.5V48.6c0,0,0,-4.5,-4.4,-4.5Z" class="g0_27" />
<path d="M410.5,44.1c0,0,-4.4,0,-4.4,4.5V238.5c0,0,0,4.5,4.4,4.5h26.1c0,0,4.4,0,4.4,-4.5V48.6c0,0,0,-4.5,-4.4,-4.5H410.5Z" class="g1_27" />
<path d="M411.4,623.6c0,0,-4.3,0,-4.3,4.4v25.9c0,0,0,4.4,4.3,4.4h26c0,0,4.3,0,4.3,-4.4V628c0,0,0,-4.4,-4.3,-4.4Z" class="g2_27" />
</g>
<path d="M71.6,53.7H226.9" class="g3_27" />
<path d="M65.3,216.3h55.6v30.4H65.3V216.3Zm55.6,0h75.3v30.4H120.9V216.3Zm75.3,0h76.6v30.4H196.2V216.3Zm76.6,0h62v30.4h-62V216.3Zm62,0h54.6v30.4H334.8V216.3Z" class="g2_27" />
<path d="M120.9,246.3V216.7m75.3,29.6V216.7m76.6,29.6V216.7m62,29.6V216.7" class="g4_27" />
<path d="M65.4,246.3V216.7m-.4,-.4H196.2m0,0H334.8m0,0h55m-.4,30V216.7m-324,84.2V247.1m0,110.1V301.6m0,110.1V357.9m0,83.3V412.5m0,96.2V442m0,104V509.5m0,81.1V546.8M65,246.7H196.2m0,0H334.8m0,0h55M120.9,300.9V247.1m75.3,53.8V247.1m76.6,53.8V247.1m62,53.8V247.1m54.6,53.8V247.1M120.9,357.2V301.6m75.3,55.6V301.6m76.6,55.6V301.6m62,55.6V301.6m54.6,55.6V301.6M120.9,411.7V357.9m75.3,53.8V357.9m76.6,53.8V357.9m62,53.8V357.9m54.6,53.8V357.9M120.9,441.2V412.5m75.3,28.7V412.5m76.6,28.7V412.5m62,28.7V412.5m54.6,28.7V412.5M120.9,508.7V442m75.3,66.7V442m76.6,66.7V442m62,66.7V442m54.6,66.7V442M120.9,546V509.5M196.2,546V509.5M272.8,546V509.5m62,36.5V509.5M389.4,546V509.5M120.9,590.6V546.8m75.3,43.8V546.8m76.6,43.8V546.8m62,43.8V546.8m54.6,43.8V546.8M65,301.3H196.2m0,0H334.8m0,0h55M65,357.5H196.2m0,0H334.8m0,0h55M65,412.1H196.2m0,0H334.8m0,0h55M65,441.6H196.2m0,0H334.8m0,0h55M65,509.1H196.2m0,0H334.8m0,0h55M65,546.4H196.2m0,0H334.8m0,0h55M65,591H196.2m0,0H334.8m0,0h55" class="g5_27" />
</svg>