<?xml version="1.0" encoding="UTF-8" standalone="no"?>
<!DOCTYPE svg PUBLIC "-//W3C//DTD SVG 1.1//EN"
"http://www.w3.org/Graphics/SVG/1.1/DTD/svg11.dtd">
<svg viewBox="0 0 433 649" version="1.1" xmlns="http://www.w3.org/2000/svg" xmlns:xlink="http://www.w3.org/1999/xlink">
<defs>
<clipPath id="c0_160"><path d="M0,649.6V0H433V649.6Z" /></clipPath>
<style type="text/css"><![CDATA[
.g0_160{
fill: #9C649E;
}
.g1_160{
fill: #FFFFFF;
}
.g2_160{
fill: none;
stroke: #9C649E;
stroke-width: 1.5277778;
stroke-linecap: butt;
stroke-linejoin: miter;
stroke-miterlimit: 4;
}
.g3_160{
fill: none;
stroke: #9C649E;
stroke-width: 0.77916664;
stroke-linecap: butt;
stroke-linejoin: miter;
}
]]></style>
</defs>
<g clip-path="url(#c0_160)">
<path d="M-4.2,623.6c0,0,-4.4,0,-4.4,4.4v25.9c0,0,0,4.4,4.4,4.4H21.7c0,0,4.3,0,4.3,-4.4V628c0,0,0,-4.4,-4.3,-4.4Z" class="g0_160" />
<path d="M-2.8,44.1c0,0,-4.4,0,-4.4,4.5V238.5c0,0,0,4.5,4.4,4.5h26c0,0,4.4,0,4.4,-4.5V48.6c0,0,0,-4.5,-4.4,-4.5Z" class="g1_160" />
<path d="M-2.8,44.1c0,0,-4.4,0,-4.4,4.5V238.5c0,0,0,4.5,4.4,4.5h26c0,0,4.4,0,4.4,-4.5V48.6c0,0,0,-4.5,-4.4,-4.5h-26Z" class="g2_160" />
</g>
<path d="M43.7,209.3h324V187.7H43.7v21.6Z" class="g0_160" />
<path d="M43.7,209V188.1m-.4,-.4H368.1m-.4,21.3V188.1m-324,36.4V209.7m0,91.4V225.3m0,91.4V301.9m0,79.2V317.5m0,79.1V381.9m0,42.5v-27m0,42.5V425.2m0,115.8V440.7M43.3,209.3H368.1m-.4,15.2V209.7m0,91.4V225.3m0,91.4V301.9m0,79.2V317.5m0,79.1V381.9m0,42.5v-27m0,42.5V425.2m0,115.8V440.7M43.3,224.9H368.1M43.3,301.5H368.1M43.3,317.1H368.1M43.3,381.5H368.1M43.3,397H368.1M43.3,424.8H368.1M43.3,440.3H368.1M43.7,556.6V541.8m-.4,-.4H368.1m-.4,15.2V541.8m-324,42.5v-27m-.4,-.3H368.1m-.4,27.3v-27M43.3,584.7H368.1" class="g3_160" />
</svg>