<?xml version="1.0" encoding="UTF-8" standalone="no"?>
<!DOCTYPE svg PUBLIC "-//W3C//DTD SVG 1.1//EN"
"http://www.w3.org/Graphics/SVG/1.1/DTD/svg11.dtd">
<svg viewBox="0 0 433 649" version="1.1" xmlns="http://www.w3.org/2000/svg" xmlns:xlink="http://www.w3.org/1999/xlink">
<defs>
<clipPath id="c0_34"><path d="M0,649.6V0H433V649.6Z" /></clipPath>
<style type="text/css"><![CDATA[
.g0_34{
fill: #9C649E;
}
.g1_34{
fill: #FFFFFF;
}
.g2_34{
fill: none;
stroke: #9C649E;
stroke-width: 1.5277778;
stroke-linecap: butt;
stroke-linejoin: miter;
stroke-miterlimit: 4;
}
.g3_34{
fill: none;
stroke: #231F20;
stroke-width: 0.6080556;
stroke-linecap: butt;
stroke-linejoin: miter;
}
.g4_34{
fill: none;
stroke: #9C649E;
stroke-width: 0.77916664;
stroke-linecap: butt;
stroke-linejoin: miter;
}
]]></style>
</defs>
<g clip-path="url(#c0_34)">
<path d="M-4.2,623.6c0,0,-4.4,0,-4.4,4.4v25.9c0,0,0,4.4,4.4,4.4H21.7c0,0,4.3,0,4.3,-4.4V628c0,0,0,-4.4,-4.3,-4.4Z" class="g0_34" />
<path d="M-2.8,44.1c0,0,-4.4,0,-4.4,4.5V238.5c0,0,0,4.5,4.4,4.5h26c0,0,4.4,0,4.4,-4.5V48.6c0,0,0,-4.5,-4.4,-4.5Z" class="g1_34" />
<path d="M-2.8,44.1c0,0,-4.4,0,-4.4,4.5V238.5c0,0,0,4.5,4.4,4.5h26c0,0,4.4,0,4.4,-4.5V48.6c0,0,0,-4.5,-4.4,-4.5h-26Z" class="g2_34" />
</g>
<path d="M58.6,410.6H163.4M58.6,552.4H78.5M58.1,569.8H94.2" class="g3_34" />
<path d="M43.7,113.8H190.6V92.1H43.7v21.7Z" class="g0_34" />
<path d="M43.7,113.4V92.5m-.4,-.4H90.9m0,0h100m-.3,21.3V92.5M43.7,153.4V114.2m0,103.6V154.2m0,152.5V218.6m0,115.8V307.5m0,54.7v-27M43.3,113.8H90.9m0,0h100m-100,39.6V114.2m99.7,39.2V114.2M90.9,217.8V154.2m99.7,63.6V154.2M90.9,306.7V218.6m99.7,88.1V218.6M90.9,334.4V307.5m99.7,26.9V307.5M90.9,362.2v-27m99.7,27v-27M43.3,153.8H90.9m0,0h100M43.3,218.2H90.9m0,0h100M43.3,307.1H90.9m0,0h100M43.3,334.8H90.9m0,0h100M43.3,362.6H90.9m0,0h100" class="g4_34" />
<path d="M206.1,113.8H367.7V92.1H206.1v21.7Z" class="g0_34" />
<path d="M206.1,113.4V92.5m-.4,-.4H368.1m-.4,21.3V92.5M206.1,128.9V114.2m0,54.7V129.7m0,54.8V169.7m0,30.3V185.2m-.4,-71.4H368.1M239.4,128.9V114.2m128.3,14.7V114.2M239.4,168.9V129.7m128.3,39.2V129.7M239.4,184.5V169.7m128.3,14.8V169.7M239.4,200V185.2M367.7,200V185.2m-162,-55.9H368.1m-162.4,40H368.1M205.7,184.9H368.1M205.7,200.4H368.1" class="g4_34" />
</svg>