<?xml version="1.0" encoding="UTF-8" standalone="no"?>
<!DOCTYPE svg PUBLIC "-//W3C//DTD SVG 1.1//EN"
"http://www.w3.org/Graphics/SVG/1.1/DTD/svg11.dtd">
<svg viewBox="0 0 433 649" version="1.1" xmlns="http://www.w3.org/2000/svg" xmlns:xlink="http://www.w3.org/1999/xlink">
<defs>
<clipPath id="c0_63"><path d="M0,649.6V0H433V649.6Z" /></clipPath>
<style type="text/css"><![CDATA[
.g0_63{
fill: #FFFFFF;
}
.g1_63{
fill: none;
stroke: #9C649E;
stroke-width: 1.5277778;
stroke-linecap: butt;
stroke-linejoin: miter;
stroke-miterlimit: 4;
}
.g2_63{
fill: #9C649E;
}
.g3_63{
fill: none;
stroke: #9C649E;
stroke-width: 0.77916664;
stroke-linecap: butt;
stroke-linejoin: miter;
}
]]></style>
</defs>
<g clip-path="url(#c0_63)">
<path d="M410.5,44.1c0,0,-4.4,0,-4.4,4.5V238.5c0,0,0,4.5,4.4,4.5h26.1c0,0,4.4,0,4.4,-4.5V48.6c0,0,0,-4.5,-4.4,-4.5Z" class="g0_63" />
<path d="M410.5,44.1c0,0,-4.4,0,-4.4,4.5V238.5c0,0,0,4.5,4.4,4.5h26.1c0,0,4.4,0,4.4,-4.5V48.6c0,0,0,-4.5,-4.4,-4.5H410.5Z" class="g1_63" />
<path d="M411.4,623.6c0,0,-4.3,0,-4.3,4.4v25.9c0,0,0,4.4,4.3,4.4h26c0,0,4.3,0,4.3,-4.4V628c0,0,0,-4.4,-4.3,-4.4Z" class="g2_63" />
</g>
<path d="M65.3,170.4H389.4V148.7H65.3v21.7Z" class="g2_63" />
<path d="M65.4,170V149.1m-.4,-.4H389.8m-.4,21.3V149.1M65.4,210V170.8m0,128.1V210.8m0,152.5V299.6m0,91.4V364.1M65,170.4H389.8M141.2,210V170.8M389.4,210V170.8M141.2,298.9V210.8m248.2,88.1V210.8M141.2,363.3V299.6m248.2,63.7V299.6M141.2,391V364.1M389.4,391V364.1M65,210.4H389.8M65,299.2H389.8M65,363.7H389.8M65,391.4H389.8" class="g3_63" />
</svg>