<?xml version="1.0" encoding="UTF-8" standalone="no"?>
<!DOCTYPE svg PUBLIC "-//W3C//DTD SVG 1.1//EN"
"http://www.w3.org/Graphics/SVG/1.1/DTD/svg11.dtd">
<svg viewBox="0 0 433 649" version="1.1" xmlns="http://www.w3.org/2000/svg" xmlns:xlink="http://www.w3.org/1999/xlink">
<defs>
<clipPath id="c0_227"><path d="M0,649.6V0H433V649.6Z" /></clipPath>
<style type="text/css"><![CDATA[
.g0_227{
fill: #FFFFFF;
}
.g1_227{
fill: none;
stroke: #9C649E;
stroke-width: 1.5277778;
stroke-linecap: butt;
stroke-linejoin: miter;
stroke-miterlimit: 4;
}
.g2_227{
fill: #9C649E;
}
.g3_227{
fill: none;
stroke: #9C649E;
stroke-width: 0.77916664;
stroke-linecap: butt;
stroke-linejoin: miter;
}
.g4_227{
fill: none;
stroke: #FFFFFF;
stroke-width: 0.77916664;
stroke-linecap: butt;
stroke-linejoin: miter;
}
]]></style>
</defs>
<g clip-path="url(#c0_227)">
<path d="M410.5,44.1c0,0,-4.4,0,-4.4,4.5V238.5c0,0,0,4.5,4.4,4.5h26.1c0,0,4.4,0,4.4,-4.5V48.6c0,0,0,-4.5,-4.4,-4.5Z" class="g0_227" />
<path d="M410.5,44.1c0,0,-4.4,0,-4.4,4.5V238.5c0,0,0,4.5,4.4,4.5h26.1c0,0,4.4,0,4.4,-4.5V48.6c0,0,0,-4.5,-4.4,-4.5H410.5Z" class="g1_227" />
<path d="M411.4,623.6c0,0,-4.3,0,-4.3,4.4v25.9c0,0,0,4.4,4.3,4.4h26c0,0,4.3,0,4.3,-4.4V628c0,0,0,-4.4,-4.3,-4.4Z" class="g2_227" />
</g>
<path d="M65.3,65.4H389.4V43.7H65.3V65.4Z" class="g2_227" />
<path d="M65.4,65V44.1M65,43.7H389.8M389.4,65V44.1M65.4,80.5V65.7m0,30.3V81.3m0,30.3V96.8m0,30.3V112.3M65,65.3H389.8M163.7,80.5V65.7M278.9,80.5V65.7M389.4,80.5V65.7M163.7,96V81.3M278.9,96V81.3M389.4,96V81.3M163.7,111.6V96.8m115.2,14.8V96.8m110.5,14.8V96.8M163.7,127.1V112.3m115.2,14.8V112.3m110.5,14.8V112.3M65,80.9H389.8M65,96.4H389.8M65,112H389.8M65,127.5H389.8" class="g3_227" />
<path d="M65.3,154.3h87.1v21.6H65.3V154.3Zm87.1,0H309.2v21.6H152.4V154.3Zm156.8,0h80.2v21.6H309.2V154.3Z" class="g2_227" />
<path d="M152.4,175.5V154.7m156.8,20.8V154.7" class="g4_227" />
<path d="M65.4,175.5V154.7m-.4,-.4H389.8m-.4,21.2V154.7m-324,48.6v-27m0,42.5V204.1m0,30.3V219.6m0,30.3V235.1m0,41.5V250.7m0,53.7v-27m0,54.7V305.2m0,42.5V332.9m0,30.3V348.5m0,30.3V364m0,42.5v-27m0,42.6V407.3M65,175.9H389.8M152.4,203.3v-27m156.8,27v-27m80.2,27v-27m-237,42.5V204.1m156.8,14.7V204.1m80.2,14.7V204.1m-237,30.3V219.6m156.8,14.8V219.6m80.2,14.8V219.6m-237,30.3V235.1m156.8,14.8V235.1m80.2,14.8V235.1m-237,41.5V250.7m156.8,25.9V250.7m80.2,25.9V250.7m-237,53.7v-27m156.8,27v-27m80.2,27v-27m-237,54.7V305.2m156.8,26.9V305.2m80.2,26.9V305.2m-237,42.5V332.9m156.8,14.8V332.9m80.2,14.8V332.9m-237,30.3V348.5m156.8,14.7V348.5m80.2,14.7V348.5m-237,30.3V364m156.8,14.8V364m80.2,14.8V364m-237,42.5v-27m156.8,27v-27m80.2,27v-27m-237,42.6V407.3m156.8,14.8V407.3m80.2,14.8V407.3M65,203.7H389.8M65,219.2H389.8M65,234.7H389.8M65,250.3H389.8M65,277H389.8M65,304.8H389.8M65,332.5H389.8M65,348.1H389.8M65,363.6H389.8M65,379.1H389.8M65,406.9H389.8M65,422.4H389.8" class="g3_227" />
<path d="M65.3,474.9H389.4V453.3H65.3v21.6Z" class="g2_227" />
<path d="M65.4,474.5V453.7m-.4,-.4H263.3m0,0H389.8m-.4,21.2V453.7m-324,36.4V475.3m0,30.3V490.8m0,30.3V506.4m0,30.3V521.9m0,30.3V537.5m0,30.3V553m0,30.3V568.5m0,30.3V584.1M65,474.9H263.3m0,0H389.8M158.5,490.1V475.3m104.8,14.8V475.3m126.1,14.8V475.3M158.5,505.6V490.8m104.8,14.8V490.8m126.1,14.8V490.8M158.5,521.1V506.4m104.8,14.7V506.4m126.1,14.7V506.4M158.5,536.7V521.9m104.8,14.8V521.9m126.1,14.8V521.9M158.5,552.2V537.5m104.8,14.7V537.5m126.1,14.7V537.5M158.5,567.8V553m104.8,14.8V553m126.1,14.8V553M158.5,583.3V568.5m104.8,14.8V568.5m126.1,14.8V568.5M158.5,598.8V584.1m104.8,14.7V584.1m126.1,14.7V584.1M65,490.5H263.3m0,0H389.8M65,506H263.3m0,0H389.8M65,521.5H263.3m0,0H389.8M65,537.1H263.3m0,0H389.8M65,552.6H263.3m0,0H389.8M65,568.1H263.3m0,0H389.8M65,583.7H263.3m0,0H389.8M65,599.2H263.3m0,0H389.8" class="g3_227" />
</svg>