<?xml version="1.0" encoding="UTF-8" standalone="no"?>
<!DOCTYPE svg PUBLIC "-//W3C//DTD SVG 1.1//EN"
"http://www.w3.org/Graphics/SVG/1.1/DTD/svg11.dtd">
<svg viewBox="0 0 433 649" version="1.1" xmlns="http://www.w3.org/2000/svg" xmlns:xlink="http://www.w3.org/1999/xlink">
<defs>
<clipPath id="c0_57"><path d="M0,649.6V0H433V649.6Z" /></clipPath>
<style type="text/css"><![CDATA[
.g0_57{
fill: #FFFFFF;
}
.g1_57{
fill: none;
stroke: #9C649E;
stroke-width: 1.5277778;
stroke-linecap: butt;
stroke-linejoin: miter;
stroke-miterlimit: 4;
}
.g2_57{
fill: #9C649E;
}
.g3_57{
fill: none;
stroke: #9C649E;
stroke-width: 0.77916664;
stroke-linecap: butt;
stroke-linejoin: miter;
}
]]></style>
</defs>
<g clip-path="url(#c0_57)">
<path d="M410.5,44.1c0,0,-4.4,0,-4.4,4.5V238.5c0,0,0,4.5,4.4,4.5h26.1c0,0,4.4,0,4.4,-4.5V48.6c0,0,0,-4.5,-4.4,-4.5Z" class="g0_57" />
<path d="M410.5,44.1c0,0,-4.4,0,-4.4,4.5V238.5c0,0,0,4.5,4.4,4.5h26.1c0,0,4.4,0,4.4,-4.5V48.6c0,0,0,-4.5,-4.4,-4.5H410.5Z" class="g1_57" />
<path d="M411.4,623.6c0,0,-4.3,0,-4.3,4.4v25.9c0,0,0,4.4,4.3,4.4h26c0,0,4.3,0,4.3,-4.4V628c0,0,0,-4.4,-4.3,-4.4Z" class="g2_57" />
</g>
<path d="M65.3,112.7H389.4V91.1H65.3v21.6Z" class="g2_57" />
<path d="M65.4,112.3V91.5M65,91.1h67.5m0,0h82.8m0,0h69.3m0,0H389.8m-.4,21.2V91.5m-324,49V113.1m0,54.7V140.5M65,112.7h67.5m0,27.4v-27m0,-.4h82.8m0,27.4v-27m0,-.4h69.3m0,0H389.8m-.4,27.4v-27M132.5,167.8V140.9m-.4,-.4h83.2m0,27.3V140.9m0,-.4h69.3m0,0H389.8m-.4,27.3V140.9m-324,67.3V168.6m0,79.6v-40m0,141.1V248.2m0,189.6V349.3M65,168.2h67.5m0,39.6V168.6m0,-.4h82.8m0,39.6V168.6m0,-.4h69.3m0,0H389.8m-.4,39.6V168.6M132.5,248.2V208.6m0,140.7V248.2m0,189.6V349.3m-.4,-141.1h83.2m0,39.6V208.6m0,-.4h69.3m0,39.6V208.6m0,-.4H389.8m-.4,39.6V208.6M65,438.2h67.5m0,0h82.8m0,-89.3V248.6m0,189.2V349.7M215,248.2h69.6M215,349.3h69.6m-69.3,88.9h69.3m0,-89.3V248.6m0,189.2V349.7m0,-101.5H389.8m-.4,100.7V248.6m0,189.2V349.7m-104.8,-.4H389.8M284.6,438.2H389.8" class="g3_57" />
</svg>