<?xml version="1.0" encoding="UTF-8" standalone="no"?>
<!DOCTYPE svg PUBLIC "-//W3C//DTD SVG 1.1//EN"
"http://www.w3.org/Graphics/SVG/1.1/DTD/svg11.dtd">
<svg viewBox="0 0 433 649" version="1.1" xmlns="http://www.w3.org/2000/svg" xmlns:xlink="http://www.w3.org/1999/xlink">
<defs>
<clipPath id="c0_223"><path d="M0,649.6V0H433V649.6Z" /></clipPath>
<style type="text/css"><![CDATA[
.g0_223{
fill: #FFFFFF;
}
.g1_223{
fill: none;
stroke: #9C649E;
stroke-width: 1.5277778;
stroke-linecap: butt;
stroke-linejoin: miter;
stroke-miterlimit: 4;
}
.g2_223{
fill: #9C649E;
}
.g3_223{
fill: none;
stroke: #9C649E;
stroke-width: 0.77916664;
stroke-linecap: butt;
stroke-linejoin: miter;
}
]]></style>
</defs>
<g clip-path="url(#c0_223)">
<path d="M410.5,44.1c0,0,-4.4,0,-4.4,4.5V238.5c0,0,0,4.5,4.4,4.5h26.1c0,0,4.4,0,4.4,-4.5V48.6c0,0,0,-4.5,-4.4,-4.5Z" class="g0_223" />
<path d="M410.5,44.1c0,0,-4.4,0,-4.4,4.5V238.5c0,0,0,4.5,4.4,4.5h26.1c0,0,4.4,0,4.4,-4.5V48.6c0,0,0,-4.5,-4.4,-4.5H410.5Z" class="g1_223" />
<path d="M411.4,623.6c0,0,-4.3,0,-4.3,4.4v25.9c0,0,0,4.4,4.3,4.4h26c0,0,4.3,0,4.3,-4.4V628c0,0,0,-4.4,-4.3,-4.4Z" class="g2_223" />
</g>
<path d="M65.4,107.7V44.1M65,43.7h41.2m0,0H318.6m0,0H354m0,0h35.8m-.4,64V44.1m-324,79.6V108.5m0,30.3V123.7M65,108.1h41.2m0,15.2V108.5m0,-.4H318.6m0,0H354m0,0h35.8m-.4,15.2V108.5M106.2,138.8V124m-.4,-.3H318.6m0,0H354m0,0h35.8M141.6,138.8V124M177,138.8V124m35.4,14.8V124m35.4,14.8V124m35.4,14.8V124m35.4,14.8V124M354,138.8V124m35.4,14.8V124m-324,30.3V139.6m0,30.3V155.1m0,30.3V170.7m0,30.3V186.2m0,30.3V201.7m0,30.3V217.3m0,30.3V232.8m0,30.3V248.3m0,30.3V263.9m0,30.3V279.4m0,30.3V294.9m0,30.3V310.5m0,30.3V326M65,139.2h41.2m0,0H318.6m0,0H354m0,0h35.8M106.2,154.3V139.6m35.4,14.7V139.6M177,154.3V139.6m35.4,14.7V139.6m35.4,14.7V139.6m35.4,14.7V139.6m35.4,14.7V139.6M354,154.3V139.6m35.4,14.7V139.6M106.2,169.9V155.1m35.4,14.8V155.1M177,169.9V155.1m35.4,14.8V155.1m35.4,14.8V155.1m35.4,14.8V155.1m35.4,14.8V155.1M354,169.9V155.1m35.4,14.8V155.1M106.2,185.4V170.7m35.4,14.7V170.7M177,185.4V170.7m35.4,14.7V170.7m35.4,14.7V170.7m35.4,14.7V170.7m35.4,14.7V170.7M354,185.4V170.7m35.4,14.7V170.7M106.2,201V186.2M141.6,201V186.2M177,201V186.2M212.4,201V186.2M247.8,201V186.2M283.2,201V186.2M318.6,201V186.2M354,201V186.2M389.4,201V186.2M106.2,216.5V201.7m35.4,14.8V201.7M177,216.5V201.7m35.4,14.8V201.7m35.4,14.8V201.7m35.4,14.8V201.7m35.4,14.8V201.7M354,216.5V201.7m35.4,14.8V201.7M106.2,232V217.3M141.6,232V217.3M177,232V217.3M212.4,232V217.3M247.8,232V217.3M283.2,232V217.3M318.6,232V217.3M354,232V217.3M389.4,232V217.3M106.2,247.6V232.8m35.4,14.8V232.8M177,247.6V232.8m35.4,14.8V232.8m35.4,14.8V232.8m35.4,14.8V232.8m35.4,14.8V232.8M354,247.6V232.8m35.4,14.8V232.8M106.2,263.1V248.3m35.4,14.8V248.3M177,263.1V248.3m35.4,14.8V248.3m35.4,14.8V248.3m35.4,14.8V248.3m35.4,14.8V248.3M354,263.1V248.3m35.4,14.8V248.3M106.2,278.6V263.9m35.4,14.7V263.9M177,278.6V263.9m35.4,14.7V263.9m35.4,14.7V263.9m35.4,14.7V263.9m35.4,14.7V263.9M354,278.6V263.9m35.4,14.7V263.9M106.2,294.2V279.4m35.4,14.8V279.4M177,294.2V279.4m35.4,14.8V279.4m35.4,14.8V279.4m35.4,14.8V279.4m35.4,14.8V279.4M354,294.2V279.4m35.4,14.8V279.4M106.2,309.7V294.9m35.4,14.8V294.9M177,309.7V294.9m35.4,14.8V294.9m35.4,14.8V294.9m35.4,14.8V294.9m35.4,14.8V294.9M354,309.7V294.9m35.4,14.8V294.9M106.2,325.2V310.5m35.4,14.7V310.5M177,325.2V310.5m35.4,14.7V310.5m35.4,14.7V310.5m35.4,14.7V310.5m35.4,14.7V310.5M354,325.2V310.5m35.4,14.7V310.5M106.2,340.8V326m35.4,14.8V326M177,340.8V326m35.4,14.8V326m35.4,14.8V326m35.4,14.8V326m35.4,14.8V326M354,340.8V326m35.4,14.8V326M65,154.7h41.2m0,0H318.6m0,0H354m0,0h35.8M65,170.3h41.2m0,0H318.6m0,0H354m0,0h35.8M65,185.8h41.2m0,0h35.4m0,0h177m0,0H354m0,0h35.8M65,201.3h41.2m0,0H318.6m0,0H354m0,0h35.8M65,216.9h41.2m0,0H318.6m0,0H354m0,0h35.8M65,232.4h41.2m0,0H318.6m0,0H354m0,0h35.8M65,248h41.2m0,0H318.6m0,0H354m0,0h35.8M65,263.5h41.2m0,0H318.6m0,0H354m0,0h35.8M65,279h41.2m0,0H318.6m0,0H354m0,0h35.8M65,294.6h41.2m0,0H318.6m0,0H354m0,0h35.8M65,310.1h41.2m0,0H318.6m0,0H354m0,0h35.8M65,325.6h41.2m0,0H318.6m0,0H354m0,0h35.8M65,341.2h41.2m0,0H318.6m0,0H354m0,0h35.8" class="g3_223" />
</svg>