<?xml version="1.0" encoding="UTF-8" standalone="no"?>
<!DOCTYPE svg PUBLIC "-//W3C//DTD SVG 1.1//EN"
"http://www.w3.org/Graphics/SVG/1.1/DTD/svg11.dtd">
<svg viewBox="0 0 433 649" version="1.1" xmlns="http://www.w3.org/2000/svg" xmlns:xlink="http://www.w3.org/1999/xlink">
<defs>
<clipPath id="c0_180"><path d="M0,649.6V0H433V649.6Z" /></clipPath>
<style type="text/css"><![CDATA[
.g0_180{
fill: #9C649E;
}
.g1_180{
fill: #FFFFFF;
}
.g2_180{
fill: none;
stroke: #9C649E;
stroke-width: 1.5277778;
stroke-linecap: butt;
stroke-linejoin: miter;
stroke-miterlimit: 4;
}
.g3_180{
fill: none;
stroke: #9C649E;
stroke-width: 0.77916664;
stroke-linecap: butt;
stroke-linejoin: miter;
}
]]></style>
</defs>
<g clip-path="url(#c0_180)">
<path d="M-4.2,623.6c0,0,-4.4,0,-4.4,4.4v25.9c0,0,0,4.4,4.4,4.4H21.7c0,0,4.3,0,4.3,-4.4V628c0,0,0,-4.4,-4.3,-4.4Z" class="g0_180" />
<path d="M-2.8,44.1c0,0,-4.4,0,-4.4,4.5V238.5c0,0,0,4.5,4.4,4.5h26c0,0,4.4,0,4.4,-4.5V48.6c0,0,0,-4.5,-4.4,-4.5Z" class="g1_180" />
<path d="M-2.8,44.1c0,0,-4.4,0,-4.4,4.5V238.5c0,0,0,4.5,4.4,4.5h26c0,0,4.4,0,4.4,-4.5V48.6c0,0,0,-4.5,-4.4,-4.5h-26Z" class="g2_180" />
</g>
<path d="M43.7,43.7h99.2V65.4H43.7V43.7Zm99.2,0h57.2V65.4H142.9V43.7Zm57.2,0h64.6V65.4H200.1V43.7Zm64.6,0h55.8V65.4H264.7V43.7Zm55.8,0h47.2V65.4H320.5V43.7Z" class="g0_180" />
<path d="M43.7,65V44.1m-.4,-.4H368.1M142.9,65V44.1M200.1,65V44.1M264.7,65V44.1M320.5,65V44.1M367.7,65V44.1M43.7,86.6V65.7m-.4,-.3H368.1m-.4,21.2V65.7m-324,60.9V87.4m0,67v-27m0,42.5V155.1m0,54.8V170.7m0,60.8V210.7m0,42.5V232.3m0,42.5V254m0,42.5V275.6m0,48.6V297.3m0,54.7V325m0,48.7V352.8m0,42.5V374.4m0,42.6V396.1m0,41.8V417.7m0,60.2V438.7m0,66.9v-27m0,54.8v-27m0,42.5V534.2m0,42.5v-27m0,54.7v-27M43.3,87H368.1M142.9,126.6V87.4m57.2,39.2V87.4m64.6,39.2V87.4m55.8,39.2V87.4m47.2,39.2V87.4m-224.8,67v-27m57.2,27v-27m64.6,27v-27m55.8,27v-27m47.2,27v-27M142.9,169.9V155.1m57.2,14.8V155.1m64.6,14.8V155.1m55.8,14.8V155.1m47.2,14.8V155.1M142.9,209.9V170.7m57.2,39.2V170.7m64.6,39.2V170.7m55.8,39.2V170.7m47.2,39.2V170.7M142.9,231.5V210.7m57.2,20.8V210.7m64.6,20.8V210.7m55.8,20.8V210.7m47.2,20.8V210.7M142.9,253.2V232.3m57.2,20.9V232.3m64.6,20.9V232.3m55.8,20.9V232.3m47.2,20.9V232.3M142.9,274.8V254m57.2,20.8V254m64.6,20.8V254m55.8,20.8V254m47.2,20.8V254m0,42.5V275.6M142.9,324.2V297.3m57.2,26.9V297.3m64.6,26.9V297.3m55.8,26.9V297.3m47.2,26.9V297.3M142.9,352V325m57.2,27V325m64.6,27V325m55.8,27V325m47.2,27V325m0,48.7V352.8M142.9,395.3V374.4m57.2,20.9V374.4m64.6,20.9V374.4m55.8,20.9V374.4m47.2,20.9V374.4m0,42.6V396.1M142.9,437.9V417.7m57.2,20.2V417.7m64.6,20.2V417.7m55.8,20.2V417.7m47.2,20.2V417.7M142.9,477.9V438.7m57.2,39.2V438.7m64.6,39.2V438.7m55.8,39.2V438.7m47.2,39.2V438.7M142.9,505.6v-27m57.2,27v-27m64.6,27v-27m55.8,27v-27m47.2,27v-27M142.9,533.4v-27m57.2,27v-27m64.6,27v-27m55.8,27v-27m47.2,27v-27M142.9,548.9V534.2m57.2,14.7V534.2m64.6,14.7V534.2m55.8,14.7V534.2m47.2,14.7V534.2M142.9,576.7v-27m57.2,27v-27m64.6,27v-27m55.8,27v-27m47.2,27v-27M142.9,604.4v-27m57.2,27v-27m64.6,27v-27m55.8,27v-27m47.2,27v-27M43.3,127H368.1M43.3,154.7H368.1M43.3,170.3H368.1m-324.8,40H368.1M43.3,231.9H368.1M43.3,253.6H368.1M43.3,275.2H368.1M43.3,296.9H368.1M43.3,324.6H368.1M43.3,352.4H368.1M43.3,374H368.1M43.3,395.7H368.1M43.3,417.4H368.1M43.3,438.3H320.5m0,0h47.6M43.3,478.2H368.1M43.3,506H368.1M43.3,533.8H368.1M43.3,549.3H368.1M43.3,577.1H368.1M43.3,604.8H368.1" class="g3_180" />
</svg>