<?xml version="1.0" encoding="UTF-8" standalone="no"?>
<!DOCTYPE svg PUBLIC "-//W3C//DTD SVG 1.1//EN"
"http://www.w3.org/Graphics/SVG/1.1/DTD/svg11.dtd">
<svg viewBox="0 0 433 649" version="1.1" xmlns="http://www.w3.org/2000/svg" xmlns:xlink="http://www.w3.org/1999/xlink">
<defs>
<clipPath id="c0_182"><path d="M0,649.6V0H433V649.6Z" /></clipPath>
<style type="text/css"><![CDATA[
.g0_182{
fill: #9C649E;
}
.g1_182{
fill: #FFFFFF;
}
.g2_182{
fill: none;
stroke: #9C649E;
stroke-width: 1.5277778;
stroke-linecap: butt;
stroke-linejoin: miter;
stroke-miterlimit: 4;
}
.g3_182{
fill: none;
stroke: #9C649E;
stroke-width: 0.77916664;
stroke-linecap: butt;
stroke-linejoin: miter;
stroke-miterlimit: 4;
}
.g4_182{
fill: none;
stroke: #231F20;
stroke-width: 0.4568056;
stroke-linecap: butt;
stroke-linejoin: miter;
}
]]></style>
</defs>
<g clip-path="url(#c0_182)">
<path d="M-4.2,623.6c0,0,-4.4,0,-4.4,4.4v25.9c0,0,0,4.4,4.4,4.4H21.7c0,0,4.3,0,4.3,-4.4V628c0,0,0,-4.4,-4.3,-4.4Z" class="g0_182" />
<path d="M-2.8,44.1c0,0,-4.4,0,-4.4,4.5V238.5c0,0,0,4.5,4.4,4.5h26c0,0,4.4,0,4.4,-4.5V48.6c0,0,0,-4.5,-4.4,-4.5Z" class="g1_182" />
<path d="M-2.8,44.1c0,0,-4.4,0,-4.4,4.5V238.5c0,0,0,4.5,4.4,4.5h26c0,0,4.4,0,4.4,-4.5V48.6c0,0,0,-4.5,-4.4,-4.5h-26Z" class="g2_182" />
</g>
<path d="M67.3,83.2H258.4V66.7H67.3V83.2ZM43.7,170.9H162.4V154.4H43.7v16.5Zm0,217.8H162.4V343.2H43.7v45.5Zm0,50.5H162.4V393.6H43.7v45.6ZM167.1,170.9H283.3V154.4H167.1v16.5Zm5.7,142.9H277.6V283.9H172.8v29.9Zm0,46.5H277.6V325.2H172.8v35.1Zm0,55.7H277.6V370.4H172.8V416Zm116,91.8h78.9V366.4H288.8V507.8Z" class="g3_182" />
<path d="M213.7,212.2h23" class="g4_182" />
<path d="M199.5,83.9L225,153.4m-6.5,-3.3l6.5,3.3l2.8,-6.7M129.3,83.9l-25.5,69.5m6.4,-3.3l-6.4,3.3L101,146.7M328.3,339v26.4m4.9,-5.3l-4.9,5.3l-5,-5.3M225.2,314.2v10.7" class="g3_182" />
</svg>