<?xml version="1.0" encoding="UTF-8" standalone="no"?>
<!DOCTYPE svg PUBLIC "-//W3C//DTD SVG 1.1//EN"
"http://www.w3.org/Graphics/SVG/1.1/DTD/svg11.dtd">
<svg viewBox="0 0 433 649" version="1.1" xmlns="http://www.w3.org/2000/svg" xmlns:xlink="http://www.w3.org/1999/xlink">
<defs>
<clipPath id="c0_26"><path d="M0,649.6V0H433V649.6Z" /></clipPath>
<style type="text/css"><![CDATA[
.g0_26{
fill: #9C649E;
}
.g1_26{
fill: #FFFFFF;
}
.g2_26{
fill: none;
stroke: #9C649E;
stroke-width: 1.5277778;
stroke-linecap: butt;
stroke-linejoin: miter;
stroke-miterlimit: 4;
}
.g3_26{
fill: none;
stroke: #231F20;
stroke-width: 0.6080556;
stroke-linecap: butt;
stroke-linejoin: miter;
}
.g4_26{
fill: none;
stroke: #9C649E;
stroke-width: 0.77916664;
stroke-linecap: butt;
stroke-linejoin: miter;
}
.g5_26{
fill: none;
stroke: #9C649E;
stroke-width: 0.77916664;
stroke-linecap: butt;
stroke-linejoin: miter;
stroke-miterlimit: 4;
}
]]></style>
</defs>
<g clip-path="url(#c0_26)">
<path d="M-4.2,623.6c0,0,-4.4,0,-4.4,4.4v25.9c0,0,0,4.4,4.4,4.4H21.7c0,0,4.3,0,4.3,-4.4V628c0,0,0,-4.4,-4.3,-4.4Z" class="g0_26" />
<path d="M-2.8,44.1c0,0,-4.4,0,-4.4,4.5V238.5c0,0,0,4.5,4.4,4.5h26c0,0,4.4,0,4.4,-4.5V48.6c0,0,0,-4.5,-4.4,-4.5Z" class="g1_26" />
<path d="M-2.8,44.1c0,0,-4.4,0,-4.4,4.5V238.5c0,0,0,4.5,4.4,4.5h26c0,0,4.4,0,4.4,-4.5V48.6c0,0,0,-4.5,-4.4,-4.5h-26Z" class="g2_26" />
</g>
<path d="M49.9,499.8H207.2" class="g3_26" />
<path d="M43.7,329.8V311.4m0,37.5V330.5m0,37.5V349.6m0,49.7V368.7m-.4,-57.6H367.4M152.9,329.8V311.4M367,329.8V311.4M152.9,348.9V330.5M367,348.9V330.5M152.9,368V349.6M367,368V349.6M152.9,399.3V368.7M367,399.3V368.7M43.3,330.2H367.4M43.3,349.3H367.4M43.3,368.4H367.4M43.3,399.7H367.4" class="g4_26" />
<path d="M43.7,106.5h57.7V65.4H43.7v41.1Zm80.7,-9.4h59.7V70.9H124.4V97.1Zm19.8,51.4h63.6V107.3H144.2v41.2Zm93.5,-8h80V114.4h-80v26.1Zm-23.3,55h30.9V169.3H214.4v26.2Zm44.6,0h32.3V169.3H259v26.2Zm45.2,0h32.4V169.3H304.2v26.2ZM216.9,302.9h77.3V251.1H216.9v51.8ZM139.1,242.3h86.5V216.2H139.1v26.1Zm163.2,25.5h65.4V241.6H302.3v26.2ZM101.8,84h21.6m-5.3,-4.9l5.3,4.9l-5.3,5m66.4,-5H356.4V240.7m5,-5.3l-5,5.3l-4.9,-5.3M208.2,127.4h28.6m-5.4,-4.9l5.4,4.9l-5.4,5m-74.1,16.7v66.1m5,-5.3l-5,5.3l-4.9,-5.3m67.6,-14v19.3m5,-5.3l-5,5.3l-4.9,-5.3M127.5,97.5v29.9H138m-5.3,-4.9l5.3,4.9l-5.3,5m142.4,8.5v26.4m5,-5.3l-5,5.3L270.2,162m4.9,33.9v54.8m45.3,-54.8v18.2m-46,12.8H226M335,214.1H275.1m59.9,0v27.1" class="g5_26" />
</svg>