<?xml version="1.0" encoding="UTF-8" standalone="no"?>
<!DOCTYPE svg PUBLIC "-//W3C//DTD SVG 1.1//EN"
"http://www.w3.org/Graphics/SVG/1.1/DTD/svg11.dtd">
<svg viewBox="0 0 433 649" version="1.1" xmlns="http://www.w3.org/2000/svg" xmlns:xlink="http://www.w3.org/1999/xlink">
<defs>
<clipPath id="c0_168"><path d="M0,649.6V0H433V649.6Z" /></clipPath>
<style type="text/css"><![CDATA[
.g0_168{
fill: #9C649E;
}
.g1_168{
fill: #FFFFFF;
}
.g2_168{
fill: none;
stroke: #9C649E;
stroke-width: 1.5277778;
stroke-linecap: butt;
stroke-linejoin: miter;
stroke-miterlimit: 4;
}
.g3_168{
fill: none;
stroke: #9C649E;
stroke-width: 0.64013886;
stroke-linecap: butt;
stroke-linejoin: miter;
stroke-miterlimit: 4;
}
]]></style>
</defs>
<g clip-path="url(#c0_168)">
<path d="M-4.2,623.6c0,0,-4.4,0,-4.4,4.4v25.9c0,0,0,4.4,4.4,4.4H21.7c0,0,4.3,0,4.3,-4.4V628c0,0,0,-4.4,-4.3,-4.4Z" class="g0_168" />
<path d="M-2.8,44.1c0,0,-4.4,0,-4.4,4.5V238.5c0,0,0,4.5,4.4,4.5h26c0,0,4.4,0,4.4,-4.5V48.6c0,0,0,-4.5,-4.4,-4.5Z" class="g1_168" />
<path d="M-2.8,44.1c0,0,-4.4,0,-4.4,4.5V238.5c0,0,0,4.5,4.4,4.5h26c0,0,4.4,0,4.4,-4.5V48.6c0,0,0,-4.5,-4.4,-4.5h-26Z" class="g2_168" />
</g>
<path d="M43.1,445.3H77.3V347.1H43.1v98.2Zm106.6,15.8h54.1V341.4H149.7V461.1Zm0,-212.8h68.4V156H149.7v92.3Zm0,84.8h27.8V258.4H149.7v74.7Zm36.4,0h25.6V258.4H186.1v74.7ZM89,445.3h13.7V347.1H89v98.2Zm34.9,0h13.7V347.1H123.9v98.2Zm0,-159.7h13.7V223.9H123.9v61.7Zm0,276.5h13.7V502.8H123.9v59.3Zm20.9,9.6h13.7V500.4H144.8v71.3Zm24.4,32.5h52V562.1h-52v42.1Zm59.7,.7h32.7V562.7H228.9v42.2Zm0,-48.2h32.7V515.5H228.9v41.2Zm43.7,-.1h32.7V515.3H272.6v41.3Zm8.3,-53.3h24.4V437.5H280.9v65.8Zm.8,-72.2h23.5v-74H281.7v74Zm-52.8,71.8H262V437.2H228.9v65.7Zm0,-177.1h44.7V260H228.9v65.8Zm52.8,0h23.5V260H281.7v65.8ZM228.9,431.1h40v-74h-40v74Zm0,-183h44.7V182.3H228.9v65.8Zm52.8,0h23.5V182.3H281.7v65.8ZM169.2,556.6h52V515.5h-52v41.1Zm0,-46.6h33.1V468.8H169.2V510ZM77.6,396.2h6.6m-5.1,-4.8l5.1,4.8L79.1,401m26.8,-4.8h9.7m-5.1,-4.8l5.1,4.8l-5.1,4.8m27.4,-4.8h10.4m-5.2,-4.8l5.2,4.8l-5.2,4.8m-5.4,133.5h6.6m-5.2,-4.8l5.2,4.8l-5.2,4.8M158.2,538h10.2m-5.2,-4.8l5.2,4.8l-5.2,4.8M221.5,536h7m-5.2,-4.8l5.2,4.8l-5.2,4.8m-45.4,-244h7M179.8,292l5.1,4.8l-5.1,4.8M261.9,536h9.9m-5.2,-4.8l5.2,4.8l-5.2,4.8m-4.3,-70.4h17.8m-5.2,-4.8l5.2,4.8l-5.2,4.8m-5.6,-76.9h7m-5.2,-4.8l5.2,4.8l-5.2,4.8m2.8,-110.2h7m-5.2,-4.8l5.2,4.8l-5.2,4.8m-1.8,-83.4h7m-5.2,-4.8l5.2,4.8l-5.2,4.8M202.6,489.4h25.9m-5.2,-4.8l5.2,4.8l-5.2,4.8M137.9,254.5H222m-.5,328.6h7m-5.2,-4.8l5.2,4.8l-5.2,4.9m-54.9,-5.6h-6.1V490.1h6.1m-5.2,87.5l5.2,4.8l-5.2,4.8m0,-101.9l5.2,4.8l-5.2,4.8M227.8,293.2h-6.1V214h6.1m-5.2,74.4l5.2,4.8l-5.2,4.8m0,-88.8l5.2,4.8l-5.2,4.8M149,294.9h-6.1V210.4H149m-5.1,79.7l5.1,4.8l-5.1,4.8m0,-94.1l5.1,4.8l-5.1,4.8M123.8,531.7h-7.4V254.8h7.4m-5.2,272.1l5.2,4.8l-5.2,4.8m0,-286.5l5.2,4.8l-5.2,4.8m96.5,229.8V400h13m-5.2,-4.8l5.2,4.8l-5.2,4.8" class="g3_168" />
</svg>