<?xml version="1.0" encoding="UTF-8" standalone="no"?>
<!DOCTYPE svg PUBLIC "-//W3C//DTD SVG 1.1//EN"
"http://www.w3.org/Graphics/SVG/1.1/DTD/svg11.dtd">
<svg viewBox="0 0 433 649" version="1.1" xmlns="http://www.w3.org/2000/svg" xmlns:xlink="http://www.w3.org/1999/xlink">
<defs>
<clipPath id="c0_127"><path d="M0,649.6V0H433V649.6Z" /></clipPath>
<style type="text/css"><![CDATA[
.g0_127{
fill: #FFFFFF;
}
.g1_127{
fill: none;
stroke: #9C649E;
stroke-width: 1.5277778;
stroke-linecap: butt;
stroke-linejoin: miter;
stroke-miterlimit: 4;
}
.g2_127{
fill: #9C649E;
}
.g3_127{
fill: none;
stroke: #231F20;
stroke-width: 0.3804167;
stroke-linecap: butt;
stroke-linejoin: miter;
}
.g4_127{
fill: none;
stroke: #FFFFFF;
stroke-width: 0.77916664;
stroke-linecap: butt;
stroke-linejoin: miter;
}
.g5_127{
fill: none;
stroke: #9C649E;
stroke-width: 0.77916664;
stroke-linecap: butt;
stroke-linejoin: miter;
}
]]></style>
</defs>
<g clip-path="url(#c0_127)">
<path d="M410.5,44.1c0,0,-4.4,0,-4.4,4.5V238.5c0,0,0,4.5,4.4,4.5h26.1c0,0,4.4,0,4.4,-4.5V48.6c0,0,0,-4.5,-4.4,-4.5Z" class="g0_127" />
<path d="M410.5,44.1c0,0,-4.4,0,-4.4,4.5V238.5c0,0,0,4.5,4.4,4.5h26.1c0,0,4.4,0,4.4,-4.5V48.6c0,0,0,-4.5,-4.4,-4.5H410.5Z" class="g1_127" />
<path d="M411.4,623.6c0,0,-4.3,0,-4.3,4.4v25.9c0,0,0,4.4,4.3,4.4h26c0,0,4.3,0,4.3,-4.4V628c0,0,0,-4.4,-4.3,-4.4Z" class="g2_127" />
</g>
<path d="M65,471.2h46.4m215.2,21.4h4.5" class="g3_127" />
<path d="M65.3,87.1H197.5v21.7H65.3V87.1Zm132.2,0H340.4v21.7H197.5V87.1Zm142.9,0h49v21.7h-49V87.1Z" class="g2_127" />
<path d="M197.5,108.4V87.5m142.9,20.9V87.5" class="g4_127" />
<path d="M65.4,108.4V87.5M65,87.1H340.4m0,0h49.4m-.4,21.3V87.5m-324,36.4V109.2m-.4,-.4H340.4m0,0h49.4m-.4,15.1V109.2m-324,54.7V124.7m-.4,-.4H197.5m0,39.6V124.7m0,-.4H340.4m0,39.6V124.7m0,-.4h49.4m-.4,39.6V124.7m-324,54.7V164.7m-.4,-.4H340.4m0,0h49.4m-.4,15.1V164.7m-324,79.2V180.2m-.4,-.4H197.5M65,244.2H197.5m0,-.3V180.2m0,-.4H340.4M197.5,244.2H340.4m0,-.3V180.2m0,-.4h49.4m-.4,64.1V180.2m-49,64h49.4" class="g5_127" />
<path d="M65.3,273.2h71.5v21.6H65.3V273.2Zm71.5,0h76.3v21.6H136.8V273.2Zm76.3,0h58v21.6h-58V273.2Zm58,0H389.4v21.6H271.1V273.2Z" class="g2_127" />
<path d="M65.4,294.4V273.6m-.4,-.4H389.8M136.9,294.4V273.6m76.2,20.8V273.6m58,20.8V273.6m118.3,20.8V273.6m-324,48.6v-27m0,54.7V323m0,66.9V350.7m0,103.7V390.7M65,294.8H389.8M136.9,322.2v-27m76.2,27v-27m58,27v-27m118.3,27v-27M136.9,349.9V323m76.2,26.9V323m58,26.9V323m118.3,26.9V323M213.1,389.9V350.7m58,39.2V350.7m118.3,39.2V350.7M213.1,454.4V390.7m58,63.7V390.7m118.3,63.7V390.7M65,322.6H389.8M65,350.3H389.8M65,390.3H389.8M65,454.7H389.8" class="g5_127" />
</svg>