<?xml version="1.0" encoding="UTF-8" standalone="no"?>
<!DOCTYPE svg PUBLIC "-//W3C//DTD SVG 1.1//EN"
"http://www.w3.org/Graphics/SVG/1.1/DTD/svg11.dtd">
<svg viewBox="0 0 433 649" version="1.1" xmlns="http://www.w3.org/2000/svg" xmlns:xlink="http://www.w3.org/1999/xlink">
<defs>
<clipPath id="c0_200"><path d="M0,649.6V0H433V649.6Z" /></clipPath>
<style type="text/css"><![CDATA[
.g0_200{
fill: #9C649E;
}
.g1_200{
fill: #FFFFFF;
}
.g2_200{
fill: none;
stroke: #9C649E;
stroke-width: 1.5277778;
stroke-linecap: butt;
stroke-linejoin: miter;
stroke-miterlimit: 4;
}
.g3_200{
fill: none;
stroke: #9C649E;
stroke-width: 0.77916664;
stroke-linecap: butt;
stroke-linejoin: miter;
}
]]></style>
</defs>
<g clip-path="url(#c0_200)">
<path d="M-4.2,623.6c0,0,-4.4,0,-4.4,4.4v25.9c0,0,0,4.4,4.4,4.4H21.7c0,0,4.3,0,4.3,-4.4V628c0,0,0,-4.4,-4.3,-4.4Z" class="g0_200" />
<path d="M-2.8,44.1c0,0,-4.4,0,-4.4,4.5V238.5c0,0,0,4.5,4.4,4.5h26c0,0,4.4,0,4.4,-4.5V48.6c0,0,0,-4.5,-4.4,-4.5Z" class="g1_200" />
<path d="M-2.8,44.1c0,0,-4.4,0,-4.4,4.5V238.5c0,0,0,4.5,4.4,4.5h26c0,0,4.4,0,4.4,-4.5V48.6c0,0,0,-4.5,-4.4,-4.5h-26Z" class="g2_200" />
</g>
<path d="M43.7,489.8V471.6m0,35.6V490.6m0,33.9V508m0,49.4V525.3m0,50.3V558.2m0,35.6V576.4m0,35.2v-17M43.3,471.2H94.9m0,0H367.4M94.9,489.8V471.6M367,489.8V471.6M94.9,507.2V490.6M367,507.2V490.6M94.9,524.5V508M367,524.5V508M94.9,557.4V525.3M367,557.4V525.3M94.9,575.6V558.2M367,575.6V558.2M94.9,593.8V576.4M367,593.8V576.4M94.9,611.6v-17m272.1,17v-17M43.3,490.2H94.9m0,0H367.4M43.3,507.6H94.9m0,0H367.4M43.3,524.9H94.9m0,0H367.4M43.3,557.8H94.9m0,0H367.4M43.3,576H94.9m0,0H367.4M43.3,594.2H94.9m0,0H367.4M43.3,612H94.9m0,0H367.4" class="g3_200" />
</svg>