<?xml version="1.0" encoding="UTF-8" standalone="no"?>
<!DOCTYPE svg PUBLIC "-//W3C//DTD SVG 1.1//EN"
"http://www.w3.org/Graphics/SVG/1.1/DTD/svg11.dtd">
<svg viewBox="0 0 433 649" version="1.1" xmlns="http://www.w3.org/2000/svg" xmlns:xlink="http://www.w3.org/1999/xlink">
<defs>
<clipPath id="c0_105"><path d="M0,649.6V0H433V649.6Z" /></clipPath>
<style type="text/css"><![CDATA[
.g0_105{
fill: #FFFFFF;
}
.g1_105{
fill: none;
stroke: #9C649E;
stroke-width: 1.5277778;
stroke-linecap: butt;
stroke-linejoin: miter;
stroke-miterlimit: 4;
}
.g2_105{
fill: #9C649E;
}
.g3_105{
fill: none;
stroke: #FFFFFF;
stroke-width: 0.77916664;
stroke-linecap: butt;
stroke-linejoin: miter;
}
.g4_105{
fill: none;
stroke: #9C649E;
stroke-width: 0.77916664;
stroke-linecap: butt;
stroke-linejoin: miter;
}
]]></style>
</defs>
<g clip-path="url(#c0_105)">
<path d="M410.5,44.1c0,0,-4.4,0,-4.4,4.5V238.5c0,0,0,4.5,4.4,4.5h26.1c0,0,4.4,0,4.4,-4.5V48.6c0,0,0,-4.5,-4.4,-4.5Z" class="g0_105" />
<path d="M410.5,44.1c0,0,-4.4,0,-4.4,4.5V238.5c0,0,0,4.5,4.4,4.5h26.1c0,0,4.4,0,4.4,-4.5V48.6c0,0,0,-4.5,-4.4,-4.5H410.5Z" class="g1_105" />
<path d="M411.4,623.6c0,0,-4.3,0,-4.3,4.4v25.9c0,0,0,4.4,4.3,4.4h26c0,0,4.3,0,4.3,-4.4V628c0,0,0,-4.4,-4.3,-4.4Z" class="g2_105" />
</g>
<path d="M65.3,61.5h98.4V96.2H65.3V61.5Zm98.4,0h99.6V96.2H163.7V61.5Zm99.6,0H389.4V96.2H263.3V61.5Z" class="g2_105" />
<path d="M163.7,95.8V61.9m99.6,33.9V61.9" class="g3_105" />
<path d="M65.4,95.8V61.9M65,61.5H389.8m-.4,34.3V61.9m-324,49.4V96.6m0,30.3V112.1M65,96.2h77.9M65,111.7h77.9m0,-.4V96.6m0,30.3V112.1m0,-15.9h20.8m-20.8,15.5h20.8m0,-.4V96.6m0,30.3V112.1m0,-15.9h65m-65,15.5h65m0,-.4V96.6m0,30.3V112.1m0,-15.9h34.6m-34.6,15.5h34.6m0,-.4V96.6m0,30.3V112.1m0,-15.9h85.8m-85.8,15.5h85.8m0,-.4V96.6m0,30.3V112.1m0,-15.9h40.7m-.4,15.1V96.6m0,30.3V112.1m-40.3,-.4h40.7M65.4,142.4V127.6m-.4,-.4h77.9m0,15.2V127.6m0,-.4h20.8m0,15.2V127.6m0,-.4h65m0,15.2V127.6m0,-.4h34.6m0,15.2V127.6m0,-.4h85.8m0,15.2V127.6m0,-.4h40.7m-.4,15.2V127.6m-324,30.7V143.2m0,30.7V158.3m0,30.7V173.9M65,142.8h77.9m0,15.5V143.2m0,30.7V158.3m0,30.7V173.9m0,-31.1h20.8m0,15.1V143.2m0,-.4h65m0,15.1V143.2m0,-.4h34.6m0,15.1V143.2m0,-.4h85.8m0,15.1V143.2m0,-.4h40.7m-.4,15.1V143.2M163.7,173.9V158.7m0,30.3V173.9m-.4,-15.6h65.4m0,15.6V158.7m0,30.3V173.9m0,-15.6h34.6m0,15.2V158.7m0,-.4h85.8m0,15.2V158.7m0,-.4h40.7m-.4,15.2V158.7M263.3,189V174.2m-.4,-.3h86.2m0,15.1V174.2m0,-.3h40.7m-.4,15.1V174.2m-324,36.5V189.8m-.4,-.4h77.9M65,211H389.8M142.9,189.4H389.8m-.4,21.3V189.8" class="g4_105" />
</svg>