<?xml version="1.0" encoding="UTF-8" standalone="no"?>
<!DOCTYPE svg PUBLIC "-//W3C//DTD SVG 1.1//EN"
"http://www.w3.org/Graphics/SVG/1.1/DTD/svg11.dtd">
<svg viewBox="0 0 433 649" version="1.1" xmlns="http://www.w3.org/2000/svg" xmlns:xlink="http://www.w3.org/1999/xlink">
<defs>
<clipPath id="c0_134"><path d="M0,649.6V0H433V649.6Z" /></clipPath>
<style type="text/css"><![CDATA[
.g0_134{
fill: #9C649E;
}
.g1_134{
fill: #FFFFFF;
}
.g2_134{
fill: none;
stroke: #9C649E;
stroke-width: 1.5277778;
stroke-linecap: butt;
stroke-linejoin: miter;
stroke-miterlimit: 4;
}
.g3_134{
fill: none;
stroke: #231F20;
stroke-width: 0.6080556;
stroke-linecap: butt;
stroke-linejoin: miter;
}
.g4_134{
fill: none;
stroke: #FFFFFF;
stroke-width: 0.7638889;
stroke-linecap: butt;
stroke-linejoin: miter;
}
.g5_134{
fill: none;
stroke: #9C649E;
stroke-width: 0.7638889;
stroke-linecap: butt;
stroke-linejoin: miter;
}
]]></style>
</defs>
<g clip-path="url(#c0_134)">
<path d="M-4.2,623.6c0,0,-4.4,0,-4.4,4.4v25.9c0,0,0,4.4,4.4,4.4H21.7c0,0,4.3,0,4.3,-4.4V628c0,0,0,-4.4,-4.3,-4.4Z" class="g0_134" />
<path d="M-2.8,44.1c0,0,-4.4,0,-4.4,4.5V238.5c0,0,0,4.5,4.4,4.5h26c0,0,4.4,0,4.4,-4.5V48.6c0,0,0,-4.5,-4.4,-4.5Z" class="g1_134" />
<path d="M-2.8,44.1c0,0,-4.4,0,-4.4,4.5V238.5c0,0,0,4.5,4.4,4.5h26c0,0,4.4,0,4.4,-4.5V48.6c0,0,0,-4.5,-4.4,-4.5h-26Z" class="g2_134" />
</g>
<path d="M43.3,494.2H199.5" class="g3_134" />
<path d="M43.7,61.5h108v29H43.7v-29Zm108,0h108v29h-108v-29Zm108,0h108v29h-108v-29Z" class="g0_134" />
<path d="M151.7,90.1V61.9m108,28.2V61.9" class="g4_134" />
<path d="M43.7,90.1V61.9m-.4,-.4H259.7m0,0H368.1m-.4,28.6V61.9m-324,66.3V90.8m0,80.1V129m0,100.5V171.7m0,99.4V230.3m0,87.6v-46M43.3,90.5H259.7m0,0H368.1M151.7,128.2V90.8m108,37.4V90.8m108,37.4V90.8m-216,80.1V129m108,41.9V129m108,41.9V129m-216,100.5V171.7m108,57.8V171.7m108,57.8V171.7m-216,99.4V230.3m108,40.8V230.3m108,40.8V230.3m-216,87.6v-46m108,46v-46m108,46v-46M43.3,128.6H259.7m0,0H368.1M43.3,171.3H259.7m0,0H368.1M43.3,229.9H259.7m0,0H368.1M43.3,271.5H259.7m0,0H368.1M43.3,318.3H259.7m0,0H368.1" class="g5_134" />
</svg>