<?xml version="1.0" encoding="UTF-8" standalone="no"?>
<!DOCTYPE svg PUBLIC "-//W3C//DTD SVG 1.1//EN"
"http://www.w3.org/Graphics/SVG/1.1/DTD/svg11.dtd">
<svg viewBox="0 0 433 649" version="1.1" xmlns="http://www.w3.org/2000/svg" xmlns:xlink="http://www.w3.org/1999/xlink">
<defs>
<clipPath id="c0_228"><path d="M0,649.6V0H433V649.6Z" /></clipPath>
<style type="text/css"><![CDATA[
.g0_228{
fill: #9C649E;
}
.g1_228{
fill: #FFFFFF;
}
.g2_228{
fill: none;
stroke: #9C649E;
stroke-width: 1.5277778;
stroke-linecap: butt;
stroke-linejoin: miter;
stroke-miterlimit: 4;
}
.g3_228{
fill: none;
stroke: #FFFFFF;
stroke-width: 0.77916664;
stroke-linecap: butt;
stroke-linejoin: miter;
}
.g4_228{
fill: none;
stroke: #9C649E;
stroke-width: 0.77916664;
stroke-linecap: butt;
stroke-linejoin: miter;
}
]]></style>
</defs>
<g clip-path="url(#c0_228)">
<path d="M-4.2,623.6c0,0,-4.4,0,-4.4,4.4v25.9c0,0,0,4.4,4.4,4.4H21.7c0,0,4.3,0,4.3,-4.4V628c0,0,0,-4.4,-4.3,-4.4Z" class="g0_228" />
<path d="M-2.8,44.1c0,0,-4.4,0,-4.4,4.5V238.5c0,0,0,4.5,4.4,4.5h26c0,0,4.4,0,4.4,-4.5V48.6c0,0,0,-4.5,-4.4,-4.5Z" class="g1_228" />
<path d="M-2.8,44.1c0,0,-4.4,0,-4.4,4.5V238.5c0,0,0,4.5,4.4,4.5h26c0,0,4.4,0,4.4,-4.5V48.6c0,0,0,-4.5,-4.4,-4.5h-26Z" class="g2_228" />
</g>
<path d="M43.7,43.7h152V65.4H43.7V43.7Zm152,0h172V65.4h-172V43.7Z" class="g0_228" />
<path d="M195.7,65V44.1" class="g3_228" />
<path d="M43.7,65V44.1m-.4,-.4H368.1M367.7,65V44.1M43.7,80.5V65.7m0,30.3V81.3m0,30.3V96.8m0,30.3V112.3m0,30.3V127.9m0,30.3V143.4M43.3,65.3H368.1M195.7,80.5V65.7m172,14.8V65.7M195.7,96V81.3M367.7,96V81.3m-172,30.3V96.8m172,14.8V96.8m-172,30.3V112.3m172,14.8V112.3m-172,30.3V127.9m172,14.7V127.9m0,30.3V143.4M43.3,80.9H368.1M43.3,96.4H368.1M43.3,112H368.1M43.3,127.5H368.1M43.3,143H368.1M43.3,158.6H368.1" class="g4_228" />
</svg>