<?xml version="1.0" encoding="UTF-8" standalone="no"?>
<!DOCTYPE svg PUBLIC "-//W3C//DTD SVG 1.1//EN"
"http://www.w3.org/Graphics/SVG/1.1/DTD/svg11.dtd">
<svg viewBox="0 0 433 649" version="1.1" xmlns="http://www.w3.org/2000/svg" xmlns:xlink="http://www.w3.org/1999/xlink">
<defs>
<clipPath id="c0_220"><path d="M0,649.6V0H433V649.6Z" /></clipPath>
<style type="text/css"><![CDATA[
.g0_220{
fill: #9C649E;
}
.g1_220{
fill: #FFFFFF;
}
.g2_220{
fill: none;
stroke: #9C649E;
stroke-width: 1.5277778;
stroke-linecap: butt;
stroke-linejoin: miter;
stroke-miterlimit: 4;
}
.g3_220{
fill: #F0E9F1;
}
.g4_220{
fill: none;
stroke: #9C649E;
stroke-width: 0.77916664;
stroke-linecap: butt;
stroke-linejoin: miter;
}
]]></style>
</defs>
<g clip-path="url(#c0_220)">
<path d="M-4.2,623.6c0,0,-4.4,0,-4.4,4.4v25.9c0,0,0,4.4,4.4,4.4H21.7c0,0,4.3,0,4.3,-4.4V628c0,0,0,-4.4,-4.3,-4.4Z" class="g0_220" />
<path d="M-2.8,44.1c0,0,-4.4,0,-4.4,4.5V238.5c0,0,0,4.5,4.4,4.5h26c0,0,4.4,0,4.4,-4.5V48.6c0,0,0,-4.5,-4.4,-4.5Z" class="g1_220" />
<path d="M-2.8,44.1c0,0,-4.4,0,-4.4,4.5V238.5c0,0,0,4.5,4.4,4.5h26c0,0,4.4,0,4.4,-4.5V48.6c0,0,0,-4.5,-4.4,-4.5h-26Z" class="g2_220" />
</g>
<path d="M44,43.7H205.9V71.5H44V43.7Zm161.9,0H367.4V71.5H205.9V43.7Z" class="g0_220" />
<path d="M44,132.5H61.7v17.3H44V132.5Zm17.7,0h16v17.3h-16V132.5Zm16,0h16v17.3h-16V132.5Zm16,0h16.1v17.3H93.7V132.5Zm16.1,0h16v17.3h-16V132.5Zm16,0h16v17.3h-16V132.5Zm16,0h16v17.3h-16V132.5Zm16,0h16v17.3h-16V132.5Zm16,0h16.1v17.3H173.8V132.5Zm16.1,0h16v17.3h-16V132.5Zm16,0H367.4v17.3H205.9V132.5ZM44,167.2H61.7v17.3H44V167.2Zm17.7,0h16v17.3h-16V167.2Zm16,0h16v17.3h-16V167.2Zm16,0h16.1v17.3H93.7V167.2Zm16.1,0h16v17.3h-16V167.2Zm16,0h16v17.3h-16V167.2Zm16,0h16v17.3h-16V167.2Zm16,0h16v17.3h-16V167.2Zm16,0h16.1v17.3H173.8V167.2Zm16.1,0h16v17.3h-16V167.2Zm16,0h17.3v17.3H205.9V167.2Zm17.3,0h16v17.3h-16V167.2Zm16,0h16.1v17.3H239.2V167.2Zm16.1,0h16v17.3h-16V167.2Zm16,0h16v17.3h-16V167.2Zm16,0h16v17.3h-16V167.2Zm16,0h16.1v17.3H303.3V167.2Zm16.1,0h16v17.3h-16V167.2Zm16,0h16v17.3h-16V167.2Zm16,0h16v17.3h-16V167.2ZM44,201.8H61.7v17.3H44V201.8Zm17.7,0h16v17.3h-16V201.8Zm16,0h16v17.3h-16V201.8Zm16,0h16.1v17.3H93.7V201.8Zm16.1,0h16v17.3h-16V201.8Zm16,0h16v17.3h-16V201.8Zm16,0h16v17.3h-16V201.8Zm16,0h16v17.3h-16V201.8Zm16,0h16.1v17.3H173.8V201.8Zm16.1,0h16v17.3h-16V201.8Zm16,0h17.3v17.3H205.9V201.8Zm17.3,0h16v17.3h-16V201.8Zm16,0h16.1v17.3H239.2V201.8Zm16.1,0h16v17.3h-16V201.8Zm16,0h16v17.3h-16V201.8Zm16,0h16v17.3h-16V201.8Zm16,0h16.1v17.3H303.3V201.8Zm16.1,0h16v17.3h-16V201.8Zm16,0h16v17.3h-16V201.8Zm16,0h16v17.3h-16V201.8ZM44,236.5H205.9v17.3H44V236.5Zm161.9,0h17.3v17.3H205.9V236.5Zm17.3,0h16v17.3h-16V236.5Zm16,0h16.1v17.3H239.2V236.5Zm16.1,0h16v17.3h-16V236.5Zm16,0h16v17.3h-16V236.5Zm16,0h16v17.3h-16V236.5Zm16,0h16.1v17.3H303.3V236.5Zm16.1,0h16v17.3h-16V236.5Zm16,0h16v17.3h-16V236.5Zm16,0h16v17.3h-16V236.5ZM44,253.8H205.9v17.3H44V253.8Z" class="g1_220" />
<path d="M44,149.8H61.7v17.4H44V149.8Zm17.7,0h16v17.4h-16V149.8Zm16,0h16v17.4h-16V149.8Zm16,0h16.1v17.4H93.7V149.8Zm16.1,0h16v17.4h-16V149.8Zm16,0h16v17.4h-16V149.8Zm16,0h16v17.4h-16V149.8Zm16,0h16v17.4h-16V149.8Zm16,0h16.1v17.4H173.8V149.8Zm16.1,0h16v17.4h-16V149.8Zm16,0h17.3v17.4H205.9V149.8Zm17.3,0h16v17.4h-16V149.8Zm16,0h16.1v17.4H239.2V149.8Zm16.1,0h16v17.4h-16V149.8Zm16,0h16v17.4h-16V149.8Zm16,0h16v17.4h-16V149.8Zm16,0h16.1v17.4H303.3V149.8Zm16.1,0h16v17.4h-16V149.8Zm16,0h16v17.4h-16V149.8Zm16,0h16v17.4h-16V149.8ZM44,184.5H61.7v17.3H44V184.5Zm17.7,0h16v17.3h-16V184.5Zm16,0h16v17.3h-16V184.5Zm16,0h16.1v17.3H93.7V184.5Zm16.1,0h16v17.3h-16V184.5Zm16,0h16v17.3h-16V184.5Zm16,0h16v17.3h-16V184.5Zm16,0h16v17.3h-16V184.5Zm16,0h16.1v17.3H173.8V184.5Zm16.1,0h16v17.3h-16V184.5Zm16,0h17.3v17.3H205.9V184.5Zm17.3,0h16v17.3h-16V184.5Zm16,0h16.1v17.3H239.2V184.5Zm16.1,0h16v17.3h-16V184.5Zm16,0h16v17.3h-16V184.5Zm16,0h16v17.3h-16V184.5Zm16,0h16.1v17.3H303.3V184.5Zm16.1,0h16v17.3h-16V184.5Zm16,0h16v17.3h-16V184.5Zm16,0h16v17.3h-16V184.5ZM44,219.1H61.7v17.4H44V219.1Zm17.7,0h16v17.4h-16V219.1Zm16,0h16v17.4h-16V219.1Zm16,0h16.1v17.4H93.7V219.1Zm16.1,0h16v17.4h-16V219.1Zm16,0h16v17.4h-16V219.1Zm16,0h16v17.4h-16V219.1Zm16,0h16v17.4h-16V219.1Zm16,0h16.1v17.4H173.8V219.1Zm16.1,0h16v17.4h-16V219.1Zm16,0h17.3v17.4H205.9V219.1Zm17.3,0h16v17.4h-16V219.1Zm16,0h16.1v17.4H239.2V219.1Zm16.1,0h16v17.4h-16V219.1Zm16,0h16v17.4h-16V219.1Zm16,0h16v17.4h-16V219.1Zm16,0h16.1v17.4H303.3V219.1Zm16.1,0h16v17.4h-16V219.1Zm16,0h16v17.4h-16V219.1Zm16,0h16v17.4h-16V219.1ZM205.9,253.8h17.3v17.3H205.9V253.8Zm17.3,0h16v17.3h-16V253.8Zm16,0h16.1v17.3H239.2V253.8Zm16.1,0h16v17.3h-16V253.8Zm16,0h16v17.3h-16V253.8Zm16,0h16v17.3h-16V253.8Zm16,0h16.1v17.3H303.3V253.8Zm16.1,0h16v17.3h-16V253.8Zm16,0h16v17.3h-16V253.8Zm16,0h16v17.3h-16V253.8Z" class="g3_220" />
<path d="M44,71.1v-27m-.4,-.4H61.7m0,0h16m0,0h16m0,0h16.1m0,0h96.1m0,0h17.3m0,0h32.1m0,0h80.1m0,0h16m0,0h16.4M205.9,71.1v-27m161.5,27v-27M44,95.4V71.8m0,60.3V96.2M43.6,71.5H61.7m0,0h16m0,0h16m0,0h16.1m0,0h96.1m0,0h17.3m0,0h32.1m0,0h80.1m0,0h16m0,0h16.4M61.7,95.4V71.8m16,23.6V71.8m16,23.6V71.8m16.1,23.6V71.8m16,23.6V71.8m16,23.6V71.8m16,23.6V71.8m16,23.6V71.8m16.1,23.6V71.8m16,23.6V71.8m17.3,23.6V71.8m16,23.6V71.8m16.1,23.6V71.8m16,23.6V71.8m16,23.6V71.8m16,23.6V71.8m16.1,23.6V71.8m16,23.6V71.8m16,23.6V71.8m16,23.6V71.8M61.7,132.1V96.2m144.2,35.9V96.2m17.3,35.9V96.2m144.2,35.9V96.2M43.6,95.8H61.7m0,0h16m0,0h16m0,0h16.1m0,0h96.1m0,0h17.3m0,0h32.1m0,0h80.1m0,0h16m0,0h16.4M44,149.5V132.9m-.4,-.4H61.7m0,0h16m0,0h16m0,0h16.1m0,0h96.1m0,0h17.3m0,0h32.1m0,0h80.1m0,0h16m0,0h16.4m-306.1,17V132.9m16,16.6V132.9m16,16.6V132.9m16.1,16.6V132.9m16,16.6V132.9m16,16.6V132.9m16,16.6V132.9m16,16.6V132.9m16.1,16.6V132.9m16,16.6V132.9m161.5,16.6V132.9M44,166.8V150.2m-.4,-.4H61.7m0,0h16m0,0h16m0,0h16.1m0,0h96.1m0,0h17.3m0,0h32.1m0,0h80.1m0,0h16m0,0h16.4m-306.1,17V150.2m16,16.6V150.2m16,16.6V150.2m16.1,16.6V150.2m16,16.6V150.2m16,16.6V150.2m16,16.6V150.2m16,16.6V150.2m16.1,16.6V150.2m16,16.6V150.2m17.3,16.6V150.2m16,16.6V150.2m16.1,16.6V150.2m16,16.6V150.2m16,16.6V150.2m16,16.6V150.2m16.1,16.6V150.2m16,16.6V150.2m16,16.6V150.2m16,16.6V150.2M44,184.1V167.6m-.4,-.4H61.7m0,0h16m0,0h16m0,0h16.1m0,0h96.1m0,0h17.3m0,0h32.1m0,0h80.1m0,0h16m0,0h16.4M61.7,184.1V167.6m16,16.5V167.6m16,16.5V167.6m16.1,16.5V167.6m16,16.5V167.6m16,16.5V167.6m16,16.5V167.6m16,16.5V167.6m16.1,16.5V167.6m16,16.5V167.6m17.3,16.5V167.6m16,16.5V167.6m16.1,16.5V167.6m16,16.5V167.6m16,16.5V167.6m16,16.5V167.6m16.1,16.5V167.6m16,16.5V167.6m16,16.5V167.6m16,16.5V167.6M44,201.4V184.9m-.4,-.4H61.7m0,0h16m0,0h16m0,0h16.1m0,0h96.1m0,0h17.3m0,0h32.1m0,0h80.1m0,0h16m0,0h16.4M61.7,201.4V184.9m16,16.5V184.9m16,16.5V184.9m16.1,16.5V184.9m16,16.5V184.9m16,16.5V184.9m16,16.5V184.9m16,16.5V184.9m16.1,16.5V184.9m16,16.5V184.9m17.3,16.5V184.9m16,16.5V184.9m16.1,16.5V184.9m16,16.5V184.9m16,16.5V184.9m16,16.5V184.9m16.1,16.5V184.9m16,16.5V184.9m16,16.5V184.9m16,16.5V184.9M44,218.7V202.2m0,33.9V219.5m0,33.9V236.8m0,33.9V254.2m-.4,-52.4H61.7m0,0h16m0,0h16m0,0h16.1m0,0h96.1m0,0h17.3m0,0h32.1m0,0h80.1m0,0h16m0,0h16.4M61.7,218.7V202.2m16,16.5V202.2m16,16.5V202.2m16.1,16.5V202.2m16,16.5V202.2m16,16.5V202.2m16,16.5V202.2m16,16.5V202.2m16.1,16.5V202.2m16,16.5V202.2m17.3,16.5V202.2m16,16.5V202.2m16.1,16.5V202.2m16,16.5V202.2m16,16.5V202.2m16,16.5V202.2m16.1,16.5V202.2m16,16.5V202.2m16,16.5V202.2m16,16.5V202.2M61.7,236.1V219.5m16,16.6V219.5m16,16.6V219.5m16.1,16.6V219.5m16,16.6V219.5m16,16.6V219.5m16,16.6V219.5m16,16.6V219.5m16.1,16.6V219.5m16,16.6V219.5m17.3,16.6V219.5m16,16.6V219.5m16.1,16.6V219.5m16,16.6V219.5m16,16.6V219.5m16,16.6V219.5m16.1,16.6V219.5m16,16.6V219.5m16,16.6V219.5m16,16.6V219.5M205.9,253.4V236.8m17.3,16.6V236.8m16,16.6V236.8m16.1,16.6V236.8m16,16.6V236.8m16,16.6V236.8m16,16.6V236.8m16.1,16.6V236.8m16,16.6V236.8m16,16.6V236.8m16,16.6V236.8M205.9,270.7V254.2m17.3,16.5V254.2m16,16.5V254.2m16.1,16.5V254.2m16,16.5V254.2m16,16.5V254.2m16,16.5V254.2m16.1,16.5V254.2m16,16.5V254.2m16,16.5V254.2m16,16.5V254.2M43.6,219.1H61.7m0,0h16m0,0h16m0,0h16.1m0,0h96.1m0,0h17.3m0,0h32.1m0,0h80.1m0,0h16m0,0h16.4M44,287.6V271.5m-.4,-35H61.7m0,0h16m0,0h16m0,0h16.1m0,0h96.1m0,0h17.3m0,0h32.1m0,0h80.1m0,0h16m0,0h16.4M43.6,253.8H61.7m0,0h16m0,0h16m0,0h16.1m0,0h96.1m0,0h17.3m0,0h32.1m0,0h80.1m0,0h16m0,0h16.4M43.6,271.1H61.7m0,0h16m0,0h16m0,0h16.1m0,0h80.1m0,0h16m0,0h17.3m0,0h32.1m0,0h80.1m0,0h16m0,0h16.4m-.4,16.5V271.5M43.6,288H61.7m0,0h16m0,0h16m0,0h16.1m0,0h96.1m0,0h17.3m0,0h32.1m0,0h80.1m0,0h16m0,0h16.4" class="g4_220" />
<path d="M74.4,337.9H337V310.1H74.4v27.8Z" class="g0_220" />
<path d="M74.4,353.4h52.5V369H74.4V353.4Zm52.5,0h52.6V369H126.9V353.4Zm52.6,0H232V369H179.5V353.4Zm52.5,0h52.5V369H232V353.4Zm52.5,0H337V369H284.5V353.4Z" class="g3_220" />
<path d="M74.4,337.5v-27m-.4,-.4h52.9m0,0h52.6m0,0H337.4m-.4,27.4v-27M74.4,353V338.3m-.4,-.4h52.9m0,0h52.6m0,0H337.4M126.9,353V338.3M179.5,353V338.3M232,353V338.3M284.5,353V338.3M337,353V338.3M74.4,368.6V353.8m-.4,-.4h52.9m0,0h52.6m0,0H337.4M126.9,368.6V353.8m52.6,14.8V353.8M232,368.6V353.8m52.5,14.8V353.8M337,368.6V353.8M74.4,384.1V369.3M74,369h52.9m0,0h52.6m0,0H337.4m-.4,15.1V369.3M74.4,411.9v-27m-.4,-.4h52.9m0,0h52.6m0,0H337.4m-.4,27.4v-27M74,412.3h52.9m0,0h52.6m0,0H337.4" class="g4_220" />
</svg>