<?xml version="1.0" encoding="UTF-8" standalone="no"?>
<!DOCTYPE svg PUBLIC "-//W3C//DTD SVG 1.1//EN"
"http://www.w3.org/Graphics/SVG/1.1/DTD/svg11.dtd">
<svg viewBox="0 0 433 649" version="1.1" xmlns="http://www.w3.org/2000/svg" xmlns:xlink="http://www.w3.org/1999/xlink">
<defs>
<clipPath id="c0_37"><path d="M0,649.6V0H433V649.6Z" /></clipPath>
<style type="text/css"><![CDATA[
.g0_37{
fill: #FFFFFF;
}
.g1_37{
fill: none;
stroke: #9C649E;
stroke-width: 1.5277778;
stroke-linecap: butt;
stroke-linejoin: miter;
stroke-miterlimit: 4;
}
.g2_37{
fill: #9C649E;
}
.g3_37{
fill: none;
stroke: #FFFFFF;
stroke-width: 0.77916664;
stroke-linecap: butt;
stroke-linejoin: miter;
}
.g4_37{
fill: none;
stroke: #9C649E;
stroke-width: 0.77916664;
stroke-linecap: butt;
stroke-linejoin: miter;
}
]]></style>
</defs>
<g clip-path="url(#c0_37)">
<path d="M410.5,44.1c0,0,-4.4,0,-4.4,4.5V238.5c0,0,0,4.5,4.4,4.5h26.1c0,0,4.4,0,4.4,-4.5V48.6c0,0,0,-4.5,-4.4,-4.5Z" class="g0_37" />
<path d="M410.5,44.1c0,0,-4.4,0,-4.4,4.5V238.5c0,0,0,4.5,4.4,4.5h26.1c0,0,4.4,0,4.4,-4.5V48.6c0,0,0,-4.5,-4.4,-4.5H410.5Z" class="g1_37" />
<path d="M411.4,623.6c0,0,-4.3,0,-4.3,4.4v25.9c0,0,0,4.4,4.3,4.4h26c0,0,4.3,0,4.3,-4.4V628c0,0,0,-4.4,-4.3,-4.4Z" class="g2_37" />
</g>
<path d="M65.3,61.5H86.6V100H65.3V61.5Zm21.3,0h63.2V100H86.6V61.5Zm63.2,0H255.5V100H149.8V61.5Zm105.7,0h73.6V100H255.5V61.5Zm73.6,0h60.3V100H329.1V61.5Z" class="g2_37" />
<path d="M86.6,99.6V61.9m63.2,37.7V61.9M255.5,99.6V61.9m73.6,37.7V61.9" class="g3_37" />
<path d="M65.4,99.6V61.9M65,61.5H86.6m0,0H389.8m-.4,38.1V61.9m-324,81.6V100.3m0,114.3V143.5m0,123.3V214.6m0,104V266.8m0,274.7V318.6M65,99.9H86.6m0,43.2V100.3m0,-.4H389.8m-240,43.2V100.3m239.6,42.8V100.3M86.6,214.2V143.9m0,122.5V215m0,103.2v-51M86.2,143.5H389.8m-240,70.7V143.9m105.7,70.3V143.9m73.6,70.3V143.9m60.3,70.3V143.9M149.8,266.4V215m105.7,51.4V215m73.6,51.4V215m60.3,51.4V215M149.8,318.2v-51m105.7,51v-51m73.6,51v-51m60.3,51v-51M86.2,214.6H389.8M86.2,266.8H389.8M86.6,541.5V318.9m-.4,-.3H389.8m-240,222.9V318.9M255.5,541.5V318.9m73.6,222.6V318.9m60.3,222.6V318.9M65.3,605.7V542.3m-.3,-.4H86.6m0,63.8V542.3m0,-.4H389.8m-240,63.8V542.3m105.7,63.4V542.3m133.9,63.4V542.3M65,606.1H86.6m0,0H389.8" class="g4_37" />
</svg>