<?xml version="1.0" encoding="UTF-8" standalone="no"?>
<!DOCTYPE svg PUBLIC "-//W3C//DTD SVG 1.1//EN"
"http://www.w3.org/Graphics/SVG/1.1/DTD/svg11.dtd">
<svg viewBox="0 0 433 649" version="1.1" xmlns="http://www.w3.org/2000/svg" xmlns:xlink="http://www.w3.org/1999/xlink">
<defs>
<clipPath id="c0_129"><path d="M0,649.6V0H433V649.6Z" /></clipPath>
<style type="text/css"><![CDATA[
.g0_129{
fill: #FFFFFF;
}
.g1_129{
fill: none;
stroke: #9C649E;
stroke-width: 1.5277778;
stroke-linecap: butt;
stroke-linejoin: miter;
stroke-miterlimit: 4;
}
.g2_129{
fill: #9C649E;
}
.g3_129{
fill: none;
stroke: #9C649E;
stroke-width: 0.77916664;
stroke-linecap: butt;
stroke-linejoin: miter;
}
]]></style>
</defs>
<g clip-path="url(#c0_129)">
<path d="M410.5,44.1c0,0,-4.4,0,-4.4,4.5V238.5c0,0,0,4.5,4.4,4.5h26.1c0,0,4.4,0,4.4,-4.5V48.6c0,0,0,-4.5,-4.4,-4.5Z" class="g0_129" />
<path d="M410.5,44.1c0,0,-4.4,0,-4.4,4.5V238.5c0,0,0,4.5,4.4,4.5h26.1c0,0,4.4,0,4.4,-4.5V48.6c0,0,0,-4.5,-4.4,-4.5H410.5Z" class="g1_129" />
<path d="M411.4,623.6c0,0,-4.3,0,-4.3,4.4v25.9c0,0,0,4.4,4.3,4.4h26c0,0,4.3,0,4.3,-4.4V628c0,0,0,-4.4,-4.3,-4.4Z" class="g2_129" />
</g>
<path d="M65.4,107.7V44.1M65,43.7H389.8m-.4,64V44.1m-324,79.6V108.5m-.4,-.4H389.8m-.4,15.6V108.5m-324,55.1V123.7m324,39.9V123.7m-324,104V163.6M65,228.1H253.2m136.2,-.4V163.6M253.2,228.1H389.8" class="g3_129" />
<path d="M65.3,272.5H389.4V257H65.3v15.5Z" class="g2_129" />
<path d="M65.4,272.1V257.4M65,257H389.8m-.4,15.1V257.4M65.4,379.7V272.9m-.4,-.4H389.8m-.4,107.2V272.9M65,380.1H389.8M65.4,545.5v-27m-.4,-.4H389.8m-.4,27.4v-27m-324,54.8v-27m0,42.5V574M65,545.9H389.8M199.2,573.3v-27m190.2,27v-27M199.2,588.8V574m190.2,14.8V574M65,573.7H389.8M65,589.2H389.8" class="g3_129" />
</svg>