<?xml version="1.0" encoding="UTF-8" standalone="no"?>
<!DOCTYPE svg PUBLIC "-//W3C//DTD SVG 1.1//EN"
"http://www.w3.org/Graphics/SVG/1.1/DTD/svg11.dtd">
<svg viewBox="0 0 433 649" version="1.1" xmlns="http://www.w3.org/2000/svg" xmlns:xlink="http://www.w3.org/1999/xlink">
<defs>
<clipPath id="c0_138"><path d="M0,649.6V0H433V649.6Z" /></clipPath>
<style type="text/css"><![CDATA[
.g0_138{
fill: #9C649E;
}
.g1_138{
fill: #FFFFFF;
}
.g2_138{
fill: none;
stroke: #9C649E;
stroke-width: 1.5277778;
stroke-linecap: butt;
stroke-linejoin: miter;
stroke-miterlimit: 4;
}
.g3_138{
fill: none;
stroke: #231F20;
stroke-width: 0.6080556;
stroke-linecap: butt;
stroke-linejoin: miter;
}
.g4_138{
fill: none;
stroke: #9C649E;
stroke-width: 0.77916664;
stroke-linecap: butt;
stroke-linejoin: miter;
}
]]></style>
</defs>
<g clip-path="url(#c0_138)">
<path d="M-4.2,623.6c0,0,-4.4,0,-4.4,4.4v25.9c0,0,0,4.4,4.4,4.4H21.7c0,0,4.3,0,4.3,-4.4V628c0,0,0,-4.4,-4.3,-4.4Z" class="g0_138" />
<path d="M-2.8,44.1c0,0,-4.4,0,-4.4,4.5V238.5c0,0,0,4.5,4.4,4.5h26c0,0,4.4,0,4.4,-4.5V48.6c0,0,0,-4.5,-4.4,-4.5Z" class="g1_138" />
<path d="M-2.8,44.1c0,0,-4.4,0,-4.4,4.5V238.5c0,0,0,4.5,4.4,4.5h26c0,0,4.4,0,4.4,-4.5V48.6c0,0,0,-4.5,-4.4,-4.5h-26Z" class="g2_138" />
</g>
<path d="M140.3,132.3H368.1M43.3,147.5H147.5" class="g3_138" />
<path d="M43.7,268.9h324V236.1H43.7v32.8Z" class="g0_138" />
<path d="M43.7,268.5v-32m-.4,-.4H170.6m0,0h47.7m0,0H368.1m-.4,32.4v-32m-324,59.8v-27m0,91.4V297m0,79.2V361.5m0,89.3V377m0,126V451.6m0,103.6V503.8M43.3,268.9H170.6m0,0h47.7m0,0H368.1M104.8,296.3v-27m65.8,27v-27m47.7,27v-27m84.9,27v-27m64.5,27v-27M104.8,360.7V297m65.8,63.7V297m47.7,63.7V297m84.9,63.7V297m64.5,63.7V297m0,79.2V361.5M104.8,450.8V377m65.8,73.8V377m47.7,73.8V377m84.9,73.8V377m64.5,73.8V377M104.8,503V451.6M170.6,503V451.6M218.3,503V451.6M303.2,503V451.6M367.7,503V451.6M104.8,555.2V503.8m65.8,51.4V503.8m47.7,51.4V503.8m84.9,51.4V503.8m64.5,51.4V503.8M43.3,296.6H170.6m0,0h47.7m0,0H368.1M43.3,361.1H170.6m0,0h47.7m0,0H368.1M43.3,376.6H170.6m0,0h47.7m0,0H368.1M43.3,451.2H170.6m0,0h47.7m0,0H368.1M43.3,503.4H170.6m0,0h47.7m0,0H368.1M43.3,555.6H170.6m0,0h47.7m0,0H368.1" class="g4_138" />
</svg>