<?xml version="1.0" encoding="UTF-8" standalone="no"?>
<!DOCTYPE svg PUBLIC "-//W3C//DTD SVG 1.1//EN"
"http://www.w3.org/Graphics/SVG/1.1/DTD/svg11.dtd">
<svg viewBox="0 0 433 649" version="1.1" xmlns="http://www.w3.org/2000/svg" xmlns:xlink="http://www.w3.org/1999/xlink">
<defs>
<clipPath id="c0_66"><path d="M0,649.6V0H433V649.6Z" /></clipPath>
<style type="text/css"><![CDATA[
.g0_66{
fill: #9C649E;
}
.g1_66{
fill: #FFFFFF;
}
.g2_66{
fill: none;
stroke: #9C649E;
stroke-width: 1.5277778;
stroke-linecap: butt;
stroke-linejoin: miter;
stroke-miterlimit: 4;
}
.g3_66{
fill: none;
stroke: #9C649E;
stroke-width: 0.77916664;
stroke-linecap: butt;
stroke-linejoin: miter;
}
]]></style>
</defs>
<g clip-path="url(#c0_66)">
<path d="M-4.2,623.6c0,0,-4.4,0,-4.4,4.4v25.9c0,0,0,4.4,4.4,4.4H21.7c0,0,4.3,0,4.3,-4.4V628c0,0,0,-4.4,-4.3,-4.4Z" class="g0_66" />
<path d="M-2.8,44.1c0,0,-4.4,0,-4.4,4.5V238.5c0,0,0,4.5,4.4,4.5h26c0,0,4.4,0,4.4,-4.5V48.6c0,0,0,-4.5,-4.4,-4.5Z" class="g1_66" />
<path d="M-2.8,44.1c0,0,-4.4,0,-4.4,4.5V238.5c0,0,0,4.5,4.4,4.5h26c0,0,4.4,0,4.4,-4.5V48.6c0,0,0,-4.5,-4.4,-4.5h-26Z" class="g2_66" />
</g>
<path d="M43.7,148.6h324V127H43.7v21.6Z" class="g0_66" />
<path d="M43.7,148.2V127.4m-.4,-.4H368.1m-.4,21.2V127.4M43.7,176V149m0,54.7V176.8m0,54.7v-27m-.4,-55.9H164.6M43.3,176.4H164.6M43.3,204.1H164.6M43.3,231.9H164.6m0,-55.9V149m0,54.7V176.8m0,54.7v-27m0,-55.9H368.1m-.4,27.4V149m0,54.7V176.8m0,54.7v-27M164.6,176.4H368.1M164.6,204.1H368.1M164.6,231.9H368.1" class="g3_66" />
</svg>