<?xml version="1.0" encoding="UTF-8" standalone="no"?>
<!DOCTYPE svg PUBLIC "-//W3C//DTD SVG 1.1//EN"
"http://www.w3.org/Graphics/SVG/1.1/DTD/svg11.dtd">
<svg viewBox="0 0 433 649" version="1.1" xmlns="http://www.w3.org/2000/svg" xmlns:xlink="http://www.w3.org/1999/xlink">
<defs>
<clipPath id="c0_16"><path d="M0,649.6V0H433V649.6Z" /></clipPath>
<style type="text/css"><![CDATA[
.g0_16{
fill: #9C649E;
}
.g1_16{
fill: #FFFFFF;
}
.g2_16{
fill: none;
stroke: #9C649E;
stroke-width: 1.5277778;
stroke-linecap: butt;
stroke-linejoin: miter;
stroke-miterlimit: 4;
}
.g3_16{
fill: none;
stroke: #231F20;
stroke-width: 0.6080556;
stroke-linecap: butt;
stroke-linejoin: miter;
}
.g4_16{
fill: none;
stroke: #FFFFFF;
stroke-width: 0.77916664;
stroke-linecap: butt;
stroke-linejoin: miter;
}
.g5_16{
fill: none;
stroke: #9C649E;
stroke-width: 0.77916664;
stroke-linecap: butt;
stroke-linejoin: miter;
}
]]></style>
</defs>
<g clip-path="url(#c0_16)">
<path d="M-4.2,623.6c0,0,-4.4,0,-4.4,4.4v25.9c0,0,0,4.4,4.4,4.4H21.7c0,0,4.3,0,4.3,-4.4V628c0,0,0,-4.4,-4.3,-4.4Z" class="g0_16" />
<path d="M-2.8,44.1c0,0,-4.4,0,-4.4,4.5V238.5c0,0,0,4.5,4.4,4.5h26c0,0,4.4,0,4.4,-4.5V48.6c0,0,0,-4.5,-4.4,-4.5Z" class="g1_16" />
<path d="M-2.8,44.1c0,0,-4.4,0,-4.4,4.5V238.5c0,0,0,4.5,4.4,4.5h26c0,0,4.4,0,4.4,-4.5V48.6c0,0,0,-4.5,-4.4,-4.5h-26Z" class="g2_16" />
</g>
<path d="M58.6,101.7H281.1M58.6,134.4H274.1M58.6,197.7H223.4M58.6,230.4h92.9M49.9,293.7H153.7M49.9,361.3h60.9" class="g3_16" />
<path d="M43.7,425.8H96.1v21.6H43.7V425.8Zm52.4,0h90.6v21.6H96.1V425.8Zm90.6,0h90.5v21.6H186.7V425.8Zm90.5,0h90.5v21.6H277.2V425.8Z" class="g0_16" />
<path d="M96.1,447.1V426.2m90.6,20.9V426.2m90.5,20.9V426.2" class="g4_16" />
<path d="M43.7,447.1V426.2m-.4,-.4H96.1m0,0h90.6m0,0H368.1m-.4,21.3V426.2m-324,65.2V447.8m0,73.5V492.1m0,59.1V522.1m0,73.4V552M43.3,447.4H96.1m0,0h90.6m0,0H368.1m-272,44V447.8m90.6,43.6V447.8m90.5,43.6V447.8m90.5,43.6V447.8M96.1,521.3V492.1m90.6,29.2V492.1m90.5,29.2V492.1m90.5,29.2V492.1M96.1,551.2V522.1m90.6,29.1V522.1m90.5,29.1V522.1m90.5,29.1V522.1M96.1,595.5V552m90.6,43.5V552m90.5,43.5V552m90.5,43.5V552M43.3,491.8H96.1m0,0h90.6m0,0H368.1M43.3,521.7H96.1m0,0h90.6m0,0H368.1M43.3,551.6H96.1m0,0h90.6m0,0H368.1M43.3,595.9H96.1m0,0h90.6m0,0H368.1" class="g5_16" />
</svg>