<?xml version="1.0" encoding="UTF-8" standalone="no"?>
<!DOCTYPE svg PUBLIC "-//W3C//DTD SVG 1.1//EN"
"http://www.w3.org/Graphics/SVG/1.1/DTD/svg11.dtd">
<svg viewBox="0 0 433 649" version="1.1" xmlns="http://www.w3.org/2000/svg" xmlns:xlink="http://www.w3.org/1999/xlink">
<defs>
<clipPath id="c0_13"><path d="M0,649.6V0H433V649.6Z" /></clipPath>
<style type="text/css"><![CDATA[
.g0_13{
fill: #FFFFFF;
}
.g1_13{
fill: none;
stroke: #9C649E;
stroke-width: 1.5277778;
stroke-linecap: butt;
stroke-linejoin: miter;
stroke-miterlimit: 4;
}
.g2_13{
fill: #9C649E;
}
.g3_13{
fill: none;
stroke: #231F20;
stroke-width: 0.6080556;
stroke-linecap: butt;
stroke-linejoin: miter;
}
.g4_13{
fill: none;
stroke: #FFFFFF;
stroke-width: 0.77916664;
stroke-linecap: butt;
stroke-linejoin: miter;
}
.g5_13{
fill: none;
stroke: #9C649E;
stroke-width: 0.77916664;
stroke-linecap: butt;
stroke-linejoin: miter;
}
]]></style>
</defs>
<g clip-path="url(#c0_13)">
<path d="M410.5,44.1c0,0,-4.4,0,-4.4,4.5V238.5c0,0,0,4.5,4.4,4.5h26.1c0,0,4.4,0,4.4,-4.5V48.6c0,0,0,-4.5,-4.4,-4.5Z" class="g0_13" />
<path d="M410.5,44.1c0,0,-4.4,0,-4.4,4.5V238.5c0,0,0,4.5,4.4,4.5h26.1c0,0,4.4,0,4.4,-4.5V48.6c0,0,0,-4.5,-4.4,-4.5H410.5Z" class="g1_13" />
<path d="M411.4,623.6c0,0,-4.3,0,-4.3,4.4v25.9c0,0,0,4.4,4.3,4.4h26c0,0,4.3,0,4.3,-4.4V628c0,0,0,-4.4,-4.3,-4.4Z" class="g2_13" />
</g>
<path d="M88.9,45H280.4M88.9,114.2H192.5m60.7,0h46.9M121.9,286.4h16.9" class="g3_13" />
<path d="M65.3,421.2h69v29.1h-69V421.2Zm69,0h82.2v29.1H134.3V421.2Zm82.2,0h80.9v29.1H216.5V421.2Zm80.9,0h92v29.1h-92V421.2Z" class="g2_13" />
<path d="M134.3,449.9V421.6m82.2,28.3V421.6m80.9,28.3V421.6" class="g4_13" />
<path d="M65.4,449.9V421.6m-.4,-.4H216.5m0,0h80.9m0,0h92.4m-.4,28.7V421.6m-324,43.9V450.7m0,44.7V466.2M65,450.3H216.5m0,0h80.9m0,0h92.4M134.3,465.5V450.7m82.2,14.8V450.7m80.9,14.8V450.7m92,14.8V450.7M134.3,495.4V466.2m82.2,29.2V466.2m80.9,29.2V466.2m92,29.2V466.2M65,465.8H216.5m0,0h80.9m0,0h92.4M65,495.8H216.5m0,0h80.9m0,0h92.4" class="g5_13" />
</svg>