<?xml version="1.0" encoding="UTF-8" standalone="no"?>
<!DOCTYPE svg PUBLIC "-//W3C//DTD SVG 1.1//EN"
"http://www.w3.org/Graphics/SVG/1.1/DTD/svg11.dtd">
<svg viewBox="0 0 433 649" version="1.1" xmlns="http://www.w3.org/2000/svg" xmlns:xlink="http://www.w3.org/1999/xlink">
<defs>
<clipPath id="c0_224"><path d="M0,649.6V0H433V649.6Z" /></clipPath>
<style type="text/css"><![CDATA[
.g0_224{
fill: #9C649E;
}
.g1_224{
fill: #FFFFFF;
}
.g2_224{
fill: none;
stroke: #9C649E;
stroke-width: 1.5277778;
stroke-linecap: butt;
stroke-linejoin: miter;
stroke-miterlimit: 4;
}
.g3_224{
fill: none;
stroke: #9C649E;
stroke-width: 0.77916664;
stroke-linecap: butt;
stroke-linejoin: miter;
}
]]></style>
</defs>
<g clip-path="url(#c0_224)">
<path d="M-4.2,623.6c0,0,-4.4,0,-4.4,4.4v25.9c0,0,0,4.4,4.4,4.4H21.7c0,0,4.3,0,4.3,-4.4V628c0,0,0,-4.4,-4.3,-4.4Z" class="g0_224" />
<path d="M-2.8,44.1c0,0,-4.4,0,-4.4,4.5V238.5c0,0,0,4.5,4.4,4.5h26c0,0,4.4,0,4.4,-4.5V48.6c0,0,0,-4.5,-4.4,-4.5Z" class="g1_224" />
<path d="M-2.8,44.1c0,0,-4.4,0,-4.4,4.5V238.5c0,0,0,4.5,4.4,4.5h26c0,0,4.4,0,4.4,-4.5V48.6c0,0,0,-4.5,-4.4,-4.5h-26Z" class="g2_224" />
</g>
<path d="M43.3,158.1V44.1m-.4,-.4H88m0,0H228m0,0H368.5m-.4,114.4V44.1M43.3,174V158.9m0,30.3V174m-.4,-15.5H88m0,15.2V158.9m0,-.4H228m0,0H368.5m-.4,15.2V158.9M88,189.2V174.4m-.4,-.4H228m0,0H368.5M158,189.2V174.4m70,14.8V174.4m70.1,14.8V174.4m70,14.8V174.4M43.3,204.7V190m0,30.3V205.5m-.4,-15.9H88m0,0H228m0,0H368.5M88,204.7V190m70,14.7V190m70,14.7V190m70.1,14.7V190m70,14.7V190M88,220.3V205.5m70,14.8V205.5m70,14.8V205.5m70.1,14.8V205.5m70,14.8V205.5M42.9,205.1H88m0,0H228m0,0H368.5M43.3,238.3V221m-.4,-.3H88m0,0H228m0,0H368.5M88,238.3V221m70,17.3V221m70,17.3V221m70.1,17.3V221m70,17.3V221M43.3,257.5V239.1m0,33.9V258.3m0,30.3V273.8m0,30.3V289.4m-.4,-50.7H88m0,0H228m0,0H368.5M88,257.5V239.1m70,18.4V239.1m70,18.4V239.1m70.1,18.4V239.1m70,18.4V239.1M88,273V258.3M158,273V258.3M228,273V258.3M298.1,273V258.3m70,14.7V258.3M88,288.6V273.8m70,14.8V273.8m70,14.8V273.8m70.1,14.8V273.8m70,14.8V273.8M88,304.1V289.4m70,14.7V289.4m70,14.7V289.4m70.1,14.7V289.4m70,14.7V289.4M42.9,257.9H88m0,0H228m0,0H368.5M42.9,273.4H88m0,0H228m0,0H368.5M42.9,289H88m0,0H228m0,0H368.5M42.9,304.5H88m0,0H228m0,0H368.5M43.8,380V316.4m-.4,-.4H73.1m0,0h29.3m0,0H161m0,0h88m0,0h87.9m0,0H368m-.4,64V316.4M43.8,395.9V380.8m0,30.3V395.9m-.4,-15.5H73.1m0,15.1V380.8m0,-.4h29.3m0,0H161m0,0h87.9m.1,0h87.9m0,0H368m-.4,15.1V380.8M73.1,411.1V396.3m-.4,-.4h29.7m0,0H161m0,0h87.9m0,0h88M102.4,411.1V396.3m29.3,14.8V396.3M161,411.1V396.3m29.3,14.8V396.3m29.3,14.8V396.3m29.3,14.8V396.3m29.4,14.8V396.3m29.3,14.8V396.3m29.3,14.8V396.3m0,-.4H368m-.4,15.2V396.3M43.8,426.6V411.9m0,30.3V427.4m0,30.3V442.9m0,28.6v-13m0,26.8v-13m0,26.8v-13m0,26.8v-13m0,26.8v-13m0,26.8v-13m0,26.8v-13m0,26.8v-13m0,26.8v-13m0,28.6V582.7m0,30.3V598.2M43.4,411.5H73.1m0,0h29.3m0,0H161m0,0h87.9m0,0h88m0,0H368M73.1,426.6V411.9m29.3,14.7V411.9m29.3,14.7V411.9M161,426.6V411.9m29.3,14.7V411.9m29.3,14.7V411.9m29.3,14.7V411.9m29.4,14.7V411.9m29.3,14.7V411.9m29.3,14.7V411.9m30.7,14.7V411.9M73.1,442.2V427.4m29.3,14.8V427.4m29.3,14.8V427.4M161,442.2V427.4m29.3,14.8V427.4m29.3,14.8V427.4m29.3,14.8V427.4m29.4,14.8V427.4m29.3,14.8V427.4m29.3,14.8V427.4m30.7,14.8V427.4M73.1,457.7V442.9m29.3,14.8V442.9m29.3,14.8V442.9M161,457.7V442.9m29.3,14.8V442.9m29.3,14.8V442.9m29.3,14.8V442.9m29.4,14.8V442.9m29.3,14.8V442.9m29.3,14.8V442.9m30.7,14.8V442.9M73.1,471.5v-13m29.3,13v-13m29.3,13v-13m29.3,13v-13m29.3,13v-13m29.3,13v-13m29.3,13v-13m29.3,13v-13m29.4,13v-13m29.3,13v-13m30.7,13v-13M73.1,485.3v-13m29.3,13v-13m29.3,13v-13m29.3,13v-13m29.3,13v-13m29.3,13v-13m29.3,13v-13m29.3,13v-13m29.4,13v-13m29.3,13v-13m30.7,13v-13M73.1,499.1v-13m29.3,13v-13m29.3,13v-13m29.3,13v-13m29.3,13v-13m29.3,13v-13m29.3,13v-13m29.3,13v-13m29.4,13v-13m29.3,13v-13m30.7,13v-13M73.1,512.9v-13m29.3,13v-13m29.3,13v-13m29.3,13v-13m29.3,13v-13m29.3,13v-13m29.3,13v-13m29.3,13v-13m29.4,13v-13m29.3,13v-13m30.7,13v-13M73.1,526.7v-13m29.3,13v-13m29.3,13v-13m29.3,13v-13m29.3,13v-13m29.3,13v-13m29.3,13v-13m29.3,13v-13m29.4,13v-13m29.3,13v-13m30.7,13v-13M73.1,540.5v-13m29.3,13v-13m29.3,13v-13m29.3,13v-13m29.3,13v-13m29.3,13v-13m29.3,13v-13m29.3,13v-13m29.3,13v-13m29.4,13v-13m30.7,13v-13M73.1,554.3v-13m29.3,13v-13m29.3,13v-13m29.3,13v-13m29.3,13v-13m29.3,13v-13m29.3,13v-13m29.3,13v-13m29.3,13v-13m29.4,13v-13m30.7,13v-13M73.1,568.1v-13m29.3,13v-13m29.3,13v-13m29.3,13v-13m29.3,13v-13m29.3,13v-13m29.3,13v-13m29.3,13v-13m29.3,13v-13m29.4,13v-13m30.7,13v-13M73.1,581.9v-13m29.3,13v-13m29.3,13v-13m29.3,13v-13m29.3,13v-13m29.3,13v-13m29.4,13v-13m29.3,13v-13m29.3,13v-13m29.3,13v-13m30.7,13v-13M73.1,597.5V582.7m29.3,14.8V582.7m29.3,14.8V582.7M161,597.5V582.7m29.3,14.8V582.7m29.3,14.8V582.7M249,597.5V582.7m29.3,14.8V582.7m29.3,14.8V582.7m29.3,14.8V582.7m30.7,14.8V582.7M73.1,613V598.2M102.4,613V598.2M131.7,613V598.2M161,613V598.2M190.3,613V598.2M219.6,613V598.2M249,613V598.2M278.3,613V598.2M307.6,613V598.2M336.9,613V598.2M367.6,613V598.2M43.4,427H73.1m0,0h29.3m0,0H161m0,0h87.9m0,0h88m0,0H368M43.4,442.5H73.1m0,0h29.3m0,0H161m0,0h87.9m0,0h88m0,0H368M43.4,458.1H73.1m0,0h29.3m0,0H161m0,0h87.9m0,0h88m0,0H368M43.4,471.9H73.1m0,0h29.3m0,0H161m0,0h87.9m0,0h88m0,0H368M43.4,485.7H73.1m0,0h29.3m0,0H161m0,0h87.9m0,0h88m0,0H368M43.4,499.5H73.1m0,0h29.3m0,0H161m0,0h87.9m0,0h88m0,0H368M43.4,513.3H73.1m0,0h29.3m0,0H161m0,0h87.9m0,0h88m0,0H368M43.4,527.1H73.1m0,0h29.3m0,0H161m0,0h87.9m0,0h88m0,0H368M43.4,540.9H73.1m0,0h29.3m0,0H161m0,0h87.9m0,0h88m0,0H368M43.4,554.7H73.1m0,0h29.3m0,0H161m0,0h87.9m0,0h88m0,0H368M43.4,568.5H73.1m0,0h29.3m0,0H161m0,0h87.9m0,0h88m0,0H368M43.4,582.3H73.1m0,0h29.3m0,0H161m0,0h87.9m0,0h88m0,0H368M43.4,597.9H73.1m0,0h29.3m0,0H161m0,0h87.9m0,0h88m0,0H368M43.4,613.4H73.1m0,0h29.3m0,0H161m0,0h87.9m0,0h88m0,0H368" class="g3_224" />
</svg>