<?xml version="1.0" encoding="UTF-8" standalone="no"?>
<!DOCTYPE svg PUBLIC "-//W3C//DTD SVG 1.1//EN"
"http://www.w3.org/Graphics/SVG/1.1/DTD/svg11.dtd">
<svg viewBox="0 0 433 649" version="1.1" xmlns="http://www.w3.org/2000/svg" xmlns:xlink="http://www.w3.org/1999/xlink">
<defs>
<clipPath id="c0_98"><path d="M0,649.6V0H433V649.6Z" /></clipPath>
<style type="text/css"><![CDATA[
.g0_98{
fill: #9C649E;
}
.g1_98{
fill: #FFFFFF;
}
.g2_98{
fill: none;
stroke: #9C649E;
stroke-width: 1.5277778;
stroke-linecap: butt;
stroke-linejoin: miter;
stroke-miterlimit: 4;
}
.g3_98{
fill: none;
stroke: #FFFFFF;
stroke-width: 0.77916664;
stroke-linecap: butt;
stroke-linejoin: miter;
}
.g4_98{
fill: none;
stroke: #9C649E;
stroke-width: 0.77916664;
stroke-linecap: butt;
stroke-linejoin: miter;
}
.g5_98{
fill: none;
stroke: #9C649E;
stroke-width: 0.77916664;
stroke-linecap: round;
stroke-linejoin: round;
stroke-dasharray: 0,3;
}
.g6_98{
fill: none;
stroke: #9C649E;
stroke-width: 0.77916664;
stroke-linecap: butt;
stroke-linejoin: miter;
stroke-miterlimit: 4;
}
]]></style>
</defs>
<g clip-path="url(#c0_98)">
<path d="M-4.2,623.6c0,0,-4.4,0,-4.4,4.4v25.9c0,0,0,4.4,4.4,4.4H21.7c0,0,4.3,0,4.3,-4.4V628c0,0,0,-4.4,-4.3,-4.4Z" class="g0_98" />
<path d="M-2.8,44.1c0,0,-4.4,0,-4.4,4.5V238.5c0,0,0,4.5,4.4,4.5h26c0,0,4.4,0,4.4,-4.5V48.6c0,0,0,-4.5,-4.4,-4.5Z" class="g1_98" />
<path d="M-2.8,44.1c0,0,-4.4,0,-4.4,4.5V238.5c0,0,0,4.5,4.4,4.5h26c0,0,4.4,0,4.4,-4.5V48.6c0,0,0,-4.5,-4.4,-4.5h-26Z" class="g2_98" />
</g>
<path d="M43.7,43.7H77.1V71.5H43.7V43.7Zm33.4,0H367.7V71.5H77.1V43.7Z" class="g0_98" />
<path d="M44.5,111.4H77.1m0,0H366.9M44.5,339.2H77.1m0,0H366.9M43.7,605.9H77.1m0,0H367.7M77.1,71.1v-27" class="g3_98" />
<path d="M43.7,71.1v-27m-.4,-.4H77.1m0,0h291m-.4,27.4v-27m-324,67.3V71.8m-.4,-.3H77.1m0,39.5V71.8m0,-.3h291m-.4,39.9V71.8m-324,67.4V111.4m0,227.8v-200" class="g4_98" />
<path d="M46.8,111.4H75.9" class="g5_98" />
<path d="M77.1,139.2V111.8" class="g4_98" />
<path d="M79.4,111.4H204.5" class="g5_98" />
<path d="M208.1,111.4h71.8" class="g5_98" />
<path d="M283.4,111.4h82.4" class="g5_98" />
<path d="M367.7,139.2V111.4M77.1,338.8V139.2m290.6,200v-200M43.7,382V339.2m0,266.3V382" class="g4_98" />
<path d="M46.8,339.2H75.9" class="g5_98" />
<path d="M77.1,382V339.6m0,265.9V382" class="g4_98" />
<path d="M79.4,339.2H204.5" class="g5_98" />
<path d="M208.1,339.2h71.8" class="g5_98" />
<path d="M283.4,339.2h82.4" class="g5_98" />
<path d="M367.7,382V339.2m0,266.3V382" class="g4_98" />
<path d="M46.1,605.9H75.9" class="g5_98" />
<path d="M79.4,605.9H204.5" class="g5_98" />
<path d="M208.1,605.9h71.8" class="g5_98" />
<path d="M283.4,605.9h83.1" class="g5_98" />
<path d="M81.8,233.2V181.7m-.4,-.4H199.2m-.4,51.9V181.7M81.4,233.6H199.2m-117.4,70v-20m-.4,-.4H199.2m-.4,20.4v-20M81.4,303.9H199.2m11.2,2.6V181.7m-.4,-.4H363.2m-.4,125.2V181.7M210,306.9H363.2M82.8,457.8V369.7m-.4,-.4h118m-.4,88.5V369.7M82.4,458.1h118M82.9,539.3V483.8m-.4,-.4H200.3m-.4,55.9V483.8M82.5,539.7H200.3m10.1,-90.6v-55m-.4,-.4h61.1m-.4,55.4v-55M210,449.5h61.1m-57.9,89.2V487.3m-.4,-.4H274m-.4,51.8V487.3m-60.8,51.8H274" class="g4_98" />
<path d="M285.8,308.6v12.3H206.3m5.3,4.9l-5.3,-4.9l5.3,-4.9" class="g6_98" />
</svg>