<?xml version="1.0" encoding="UTF-8" standalone="no"?>
<!DOCTYPE svg PUBLIC "-//W3C//DTD SVG 1.1//EN"
"http://www.w3.org/Graphics/SVG/1.1/DTD/svg11.dtd">
<svg viewBox="0 0 433 649" version="1.1" xmlns="http://www.w3.org/2000/svg" xmlns:xlink="http://www.w3.org/1999/xlink">
<defs>
<clipPath id="c0_93"><path d="M0,649.6V0H433V649.6Z" /></clipPath>
<style type="text/css"><![CDATA[
.g0_93{
fill: #FFFFFF;
}
.g1_93{
fill: none;
stroke: #9C649E;
stroke-width: 1.5277778;
stroke-linecap: butt;
stroke-linejoin: miter;
stroke-miterlimit: 4;
}
.g2_93{
fill: #9C649E;
}
.g3_93{
fill: none;
stroke: #9C649E;
stroke-width: 0.77916664;
stroke-linecap: butt;
stroke-linejoin: miter;
}
.g4_93{
fill: none;
stroke: #FFFFFF;
stroke-width: 0.77916664;
stroke-linecap: butt;
stroke-linejoin: miter;
}
.g5_93{
fill: #F0E9F1;
}
.g6_93{
fill: none;
stroke: #9C649E;
stroke-width: 0.77916664;
stroke-linecap: butt;
stroke-linejoin: miter;
stroke-miterlimit: 4;
}
]]></style>
</defs>
<g clip-path="url(#c0_93)">
<path d="M410.5,44.1c0,0,-4.4,0,-4.4,4.5V238.5c0,0,0,4.5,4.4,4.5h26.1c0,0,4.4,0,4.4,-4.5V48.6c0,0,0,-4.5,-4.4,-4.5Z" class="g0_93" />
<path d="M410.5,44.1c0,0,-4.4,0,-4.4,4.5V238.5c0,0,0,4.5,4.4,4.5h26.1c0,0,4.4,0,4.4,-4.5V48.6c0,0,0,-4.5,-4.4,-4.5H410.5Z" class="g1_93" />
<path d="M411.4,623.6c0,0,-4.3,0,-4.3,4.4v25.9c0,0,0,4.4,4.3,4.4h26c0,0,4.3,0,4.3,-4.4V628c0,0,0,-4.4,-4.3,-4.4Z" class="g2_93" />
</g>
<path d="M65.3,85.2H217.8V63.5H65.3V85.2Z" class="g2_93" />
<path d="M65.4,84.8V63.9M65,63.5H218.2m-.4,21.3V63.9M65.4,106.5V85.6m0,42.5V107.2m0,42.6V128.9m0,42.5V150.5m0,42.6V172.2m0,42.5V193.9m0,42.5V215.5m0,42.5V237.2M65,85.2H218.2m-.4,21.3V85.6m0,42.5V107.2m0,42.6V128.9m0,42.5V150.5m0,42.6V172.2m0,42.5V193.9m0,42.5V215.5m0,42.5V237.2M65,106.9H218.2M65,128.5H218.2M65,150.2H218.2M65,171.8H218.2M65,193.5H218.2M65,215.1H218.2M65,236.8H218.2M65,258.4H218.2" class="g3_93" />
<path d="M236.9,85.2H389.4V63.5H236.9V85.2Z" class="g2_93" />
<path d="M236.9,84.8V63.9m-.4,-.4H389.8m-.4,21.3V63.9M236.9,107.3V85.6m0,44.2V108.1m0,44.3V130.6m0,44.3V153.1m0,44.3V175.7m0,44.2V198.2m0,44.2V220.7m0,44.3V243.2m0,44.3V265.7m0,44.3V288.3m0,44.2V310.8M236.5,85.2H389.8m-.4,22.1V85.6m0,44.2V108.1m0,44.3V130.6m0,44.3V153.1m0,44.3V175.7m0,44.2V198.2m0,44.2V220.7m0,44.3V243.2m0,44.3V265.7m0,44.3V288.3m0,44.2V310.8M236.5,107.7H389.8M236.5,130.2H389.8M236.5,152.8H389.8M236.5,175.3H389.8M236.5,197.8H389.8M236.5,220.3H389.8M236.5,242.8H389.8M236.5,265.4H389.8M236.5,287.9H389.8M236.5,310.4H389.8M236.5,332.9H389.8" class="g3_93" />
<path d="M65.3,395.9h76.5v21.6H65.3V395.9Zm76.5,0H389.4v21.6H141.8V395.9Z" class="g2_93" />
<path d="M141.8,417.1V396.2" class="g4_93" />
<path d="M65.4,417.1V396.2m-.4,-.3H389.8m-.4,21.2V396.2M65.4,481V417.9m0,94.3V481.7m0,56.4V512.9m0,51.2V538.9m0,51.2V564.9M65,417.5H389.8M141.8,481V417.9M389.4,481V417.9M141.8,512.2V481.7m247.6,30.5V481.7M141.8,538.1V512.9m247.6,25.2V512.9M141.8,564.1V538.9m247.6,25.2V538.9M141.8,590.1V564.9m247.6,25.2V564.9M65,481.4H389.8M65,512.5H389.8M65,538.5H389.8M65,564.5H389.8M65,590.5H389.8" class="g3_93" />
<path d="M65.3,332.2h153V265.9H65.3v66.3Z" class="g5_93" />
<path d="M65.3,332.2h153V265.9H65.3v66.3Z" class="g6_93" />
</svg>